<?xml version="1.0" encoding="UTF-8"?>
<!DOCTYPE svg PUBLIC "-//W3C//DTD SVG 1.1//EN" "http://www.w3.org/Graphics/SVG/1.1/DTD/svg11.dtd">
<svg version="1.1" xmlns="http://www.w3.org/2000/svg" xmlns:xlink="http://www.w3.org/1999/xlink" x="0px" y="0px" width="372" height="317" viewBox="0, 0, 372, 317">
  <g id="Layer 1">
    <path d="M70.655,264.113 L284.264,77.582" fill-opacity="0" stroke="#000000" stroke-width="1"/>
    <path d="M328.36,157.84 C293.067,157.84 244.122,122.618 219.037,79.17 C193.952,35.722 202.227,0.5 237.52,0.5 C272.812,0.5 321.757,35.722 346.842,79.17 C371.927,122.618 363.652,157.84 328.36,157.84 z" fill-opacity="0" stroke="#000000" stroke-width="1" stroke-dasharray="6,5"/>
    <path d="M70.655,264.113 L208.764,15.582" fill-opacity="0" stroke="#000000" stroke-width="1" stroke-dasharray="6,5"/>
    <path d="M70.655,264.113 L343.514,155.332" fill-opacity="0" stroke="#000000" stroke-width="1" stroke-dasharray="6,5"/>
    <path d="M208.764,15.582 L284.264,77.582" fill-opacity="0" stroke="#000000" stroke-width="1"/>
    <path d="M70.655,264.113 L0.5,308.412" fill-opacity="0" stroke="#000000" stroke-width="1"/>
    <path d="M70.654,264.113 L154.044,308.412" fill-opacity="0" stroke="#000000" stroke-width="1"/>
    <path d="M114.044,285.399 C92.044,308.412 58.044,305.399 34.047,287.873" fill-opacity="0" stroke="#000000" stroke-width="1"/>
    <path d="M110.044,230.066 C111.629,230.066 125.378,264.113 114.044,285.399" fill-opacity="0" stroke="#000000" stroke-width="1"/>
    <text transform="matrix(1, 0, 0, 1, 77.472, 310.769)">
      <tspan x="-6.946" y="3.5" font-family="Helvetica" font-size="10" fill="#000000">RA</tspan>
    </text>
    <text transform="matrix(1, 0, 0, 1, 134.613, 261.678)">
      <tspan x="-10.557" y="3.5" font-family="Helvetica" font-size="10" fill="#000000">DEC</tspan>
    </text>
    <text transform="matrix(1, 0, 0, 1, 254.163, 35.649)">
      <tspan x="-6.946" y="3.5" font-family="Helvetica" font-size="10" fill="#000000">SR</tspan>
    </text>
  </g>
  <defs/>
</svg>
