<?xml version="1.0" encoding="UTF-8"?>
<!DOCTYPE svg PUBLIC "-//W3C//DTD SVG 1.1//EN" "http://www.w3.org/Graphics/SVG/1.1/DTD/svg11.dtd">
<svg version="1.1" xmlns="http://www.w3.org/2000/svg" xmlns:xlink="http://www.w3.org/1999/xlink" x="0px" y="0px" width="272" height="364" viewBox="0, 0, 272, 364">
<g transform="translate(-12,-14)">
  <g id="Layer 1">
    <g>
      <g>
        <path d="M12.975,138.711 L57.271,164.855 L57.271,213.245 L12.975,187.1 z" fill="#FFFFFF"/>
        <path d="M12.975,138.711 L57.271,164.855 L57.271,213.245 L12.975,187.1 z" fill-opacity="0" stroke="#000000" stroke-width="0.644"/>
      </g>
      <g>
        <path d="M57.271,164.855 L79.42,151.783 L79.42,200.173 L57.271,213.245 z" fill="#FFFFFF"/>
        <path d="M57.271,164.855 L79.42,151.783 L79.42,200.173 L57.271,213.245 z" fill-opacity="0" stroke="#000000" stroke-width="0.644"/>
      </g>
      <g>
        <path d="M35.801,126.178 L79.42,151.783 L57.271,164.855 L12.975,138.711 z" fill="#FFFFFF"/>
        <path d="M35.801,126.178 L79.42,151.783 L57.271,164.855 L12.975,138.711 z" fill-opacity="0" stroke="#000000" stroke-width="0.644"/>
      </g>
    </g>
    <g>
      <g>
        <path d="M12.975,82.797 L57.271,108.941 L57.271,157.331 L12.975,131.186 z" fill="#FFFFFF"/>
        <path d="M12.975,82.797 L57.271,108.941 L57.271,157.331 L12.975,131.186 z" fill-opacity="0" stroke="#000000" stroke-width="0.644"/>
      </g>
      <g>
        <path d="M57.271,108.941 L79.42,95.869 L79.42,144.259 L57.271,157.331 z" fill="#FFFFFF"/>
        <path d="M57.271,108.941 L79.42,95.869 L79.42,144.259 L57.271,157.331 z" fill-opacity="0" stroke="#000000" stroke-width="0.644"/>
      </g>
      <g>
        <path d="M35.801,70.264 L79.42,95.869 L57.271,108.941 L12.975,82.797 z" fill="#FFFFFF"/>
        <path d="M35.801,70.264 L79.42,95.869 L57.271,108.941 L12.975,82.797 z" fill-opacity="0" stroke="#000000" stroke-width="0.644"/>
      </g>
    </g>
    <g>
      <g>
        <path d="M12.975,26.624 L57.271,52.769 L57.271,101.158 L12.975,75.014 z" fill="#FFFFFF"/>
        <path d="M12.975,26.624 L57.271,52.769 L57.271,101.158 L12.975,75.014 z" fill-opacity="0" stroke="#000000" stroke-width="0.644"/>
      </g>
      <g>
        <path d="M57.271,52.769 L79.42,39.696 L79.42,88.086 L57.271,101.158 z" fill="#FFFFFF"/>
        <path d="M57.271,52.769 L79.42,39.696 L79.42,88.086 L57.271,101.158 z" fill-opacity="0" stroke="#000000" stroke-width="0.644"/>
      </g>
      <g>
        <path d="M35.801,14.092 L79.42,39.696 L57.271,52.769 L12.975,26.624 z" fill="#FFFFFF"/>
        <path d="M35.801,14.092 L79.42,39.696 L57.271,52.769 L12.975,26.624 z" fill-opacity="0" stroke="#000000" stroke-width="0.644"/>
      </g>
    </g>
    <g>
      <g>
        <path d="M62.794,169.863 L107.091,196.008 L107.091,244.398 L62.794,218.253 z" fill="#FFFFFF"/>
        <path d="M62.794,169.863 L107.091,196.008 L107.091,244.398 L62.794,218.253 z" fill-opacity="0" stroke="#000000" stroke-width="0.644"/>
      </g>
      <g>
        <path d="M107.091,196.008 L129.239,182.936 L129.239,231.325 L107.091,244.398 z" fill="#FFFFFF"/>
        <path d="M107.091,196.008 L129.239,182.936 L129.239,231.325 L107.091,244.398 z" fill-opacity="0" stroke="#000000" stroke-width="0.644"/>
      </g>
      <g>
        <path d="M85.62,157.331 L129.239,182.936 L107.091,196.008 L62.794,169.863 z" fill="#FFFFFF"/>
        <path d="M85.62,157.331 L129.239,182.936 L107.091,196.008 L62.794,169.863 z" fill-opacity="0" stroke="#000000" stroke-width="0.644"/>
      </g>
    </g>
    <g>
      <g>
        <path d="M62.794,113.691 L107.091,139.836 L107.091,188.225 L62.794,162.08 z" fill="#FFFFFF"/>
        <path d="M62.794,113.691 L107.091,139.836 L107.091,188.225 L62.794,162.08 z" fill-opacity="0" stroke="#000000" stroke-width="0.644"/>
      </g>
      <g>
        <path d="M107.091,139.836 L129.239,126.763 L129.239,175.153 L107.091,188.225 z" fill="#FFFFFF"/>
        <path d="M107.091,139.836 L129.239,126.763 L129.239,175.153 L107.091,188.225 z" fill-opacity="0" stroke="#000000" stroke-width="0.644"/>
      </g>
      <g>
        <path d="M85.62,101.158 L129.239,126.763 L107.091,139.836 L62.794,113.691 z" fill="#FFFFFF"/>
        <path d="M85.62,101.158 L129.239,126.763 L107.091,139.836 L62.794,113.691 z" fill-opacity="0" stroke="#000000" stroke-width="0.644"/>
      </g>
    </g>
    <g>
      <g>
        <path d="M62.794,55.438 L107.091,81.583 L107.091,129.973 L62.794,103.828 z" fill="#FFFFFF"/>
        <path d="M62.794,55.438 L107.091,81.583 L107.091,129.973 L62.794,103.828 z" fill-opacity="0" stroke="#000000" stroke-width="0.644"/>
      </g>
      <g>
        <path d="M107.091,81.583 L129.239,68.511 L129.239,116.9 L107.091,129.973 z" fill="#FFFFFF"/>
        <path d="M107.091,81.583 L129.239,68.511 L129.239,116.9 L107.091,129.973 z" fill-opacity="0" stroke="#000000" stroke-width="0.644"/>
      </g>
      <g>
        <path d="M85.62,42.906 L129.239,68.511 L107.091,81.583 L62.794,55.438 z" fill="#FFFFFF"/>
        <path d="M85.62,42.906 L129.239,68.511 L107.091,81.583 L62.794,55.438 z" fill-opacity="0" stroke="#000000" stroke-width="0.644"/>
      </g>
    </g>
    <g>
      <g>
        <path d="M112.44,200.757 L156.737,226.902 L156.737,275.292 L112.44,249.147 z" fill="#FFFFFF"/>
        <path d="M112.44,200.757 L156.737,226.902 L156.737,275.292 L112.44,249.147 z" fill-opacity="0" stroke="#000000" stroke-width="0.644"/>
      </g>
      <g>
        <path d="M156.737,226.902 L178.885,213.83 L178.885,262.219 L156.737,275.292 z" fill="#FFFFFF"/>
        <path d="M156.737,226.902 L178.885,213.83 L178.885,262.219 L156.737,275.292 z" fill-opacity="0" stroke="#000000" stroke-width="0.644"/>
      </g>
      <g>
        <path d="M135.266,188.225 L178.885,213.83 L156.737,226.902 L112.44,200.757 z" fill="#FFFFFF"/>
        <path d="M135.266,188.225 L178.885,213.83 L156.737,226.902 L112.44,200.757 z" fill-opacity="0" stroke="#000000" stroke-width="0.644"/>
      </g>
    </g>
    <g>
      <g>
        <path d="M112.44,142.505 L156.737,168.65 L156.737,217.04 L112.44,190.895 z" fill="#FFFFFF"/>
        <path d="M112.44,142.505 L156.737,168.65 L156.737,217.04 L112.44,190.895 z" fill-opacity="0" stroke="#000000" stroke-width="0.644"/>
      </g>
      <g>
        <path d="M156.737,168.65 L178.885,155.577 L178.885,203.967 L156.737,217.04 z" fill="#FFFFFF"/>
        <path d="M156.737,168.65 L178.885,155.577 L178.885,203.967 L156.737,217.04 z" fill-opacity="0" stroke="#000000" stroke-width="0.644"/>
      </g>
      <g>
        <path d="M135.266,129.973 L178.885,155.577 L156.737,168.65 L112.44,142.505 z" fill="#FFFFFF"/>
        <path d="M135.266,129.973 L178.885,155.577 L156.737,168.65 L112.44,142.505 z" fill-opacity="0" stroke="#000000" stroke-width="0.644"/>
      </g>
    </g>
    <text transform="matrix(1, 0, 0, 1, 132.385, 239.312)">
      <tspan x="-10.011" y="2.633" font-family="Helvetica" font-size="12" fill="#000000">300</tspan>
    </text>
    <g>
      <g>
        <path d="M112.44,85.8 L156.737,111.945 L156.737,160.335 L112.44,134.19 z" fill="#FFFFFF"/>
        <path d="M112.44,85.8 L156.737,111.945 L156.737,160.335 L112.44,134.19 z" fill-opacity="0" stroke="#000000" stroke-width="0.644"/>
      </g>
      <g>
        <path d="M156.737,111.945 L178.885,98.872 L178.885,147.262 L156.737,160.335 z" fill="#FFFFFF"/>
        <path d="M156.737,111.945 L178.885,98.872 L178.885,147.262 L156.737,160.335 z" fill-opacity="0" stroke="#000000" stroke-width="0.644"/>
      </g>
      <g>
        <path d="M135.266,73.268 L178.885,98.872 L156.737,111.945 L112.44,85.8 z" fill="#FFFFFF"/>
        <path d="M135.266,73.268 L178.885,98.872 L156.737,111.945 L112.44,85.8 z" fill-opacity="0" stroke="#000000" stroke-width="0.644"/>
      </g>
    </g>
    <g>
      <path d="M50.089,84.031 L151.808,176.653 L118.474,230.445 L49.272,199.699 z" fill="#555555" fill-opacity="0.445"/>
      <path d="M50.089,84.031 L151.808,176.653 L118.474,230.445 L49.272,199.699 z" fill-opacity="0" stroke="#000000" stroke-width="1"/>
    </g>
    <g>
      <g>
        <g>
          <path d="M68.821,225.777 L113.118,251.922 L113.118,300.312 L68.821,274.167 z" fill="#FFFFFF"/>
          <path d="M68.821,225.777 L113.118,251.922 L113.118,300.312 L68.821,274.167 z" fill-opacity="0" stroke="#000000" stroke-width="0.644"/>
        </g>
        <g>
          <path d="M113.118,251.922 L135.266,238.85 L135.266,287.239 L113.118,300.312 z" fill="#FFFFFF"/>
          <path d="M113.118,251.922 L135.266,238.85 L135.266,287.239 L113.118,300.312 z" fill-opacity="0" stroke="#000000" stroke-width="0.644"/>
        </g>
        <g>
          <path d="M91.647,213.245 L135.266,238.85 L113.118,251.922 L68.821,225.777 z" fill="#FFFFFF"/>
          <path d="M91.647,213.245 L135.266,238.85 L113.118,251.922 L68.821,225.777 z" fill-opacity="0" stroke="#000000" stroke-width="0.644"/>
        </g>
      </g>
      <g>
        <path d="M68.821,225.777 L90.065,238.178 L75.192,259.85 L68.821,257.378 z" fill="#A6A6A6"/>
        <path d="M68.821,225.777 L90.065,238.178 L75.192,259.85 L68.821,257.378 z" fill-opacity="0" stroke="#000000" stroke-width="0.644"/>
      </g>
    </g>
    <text transform="matrix(1, 0, 0, 1, 89.443, 265.425)">
      <tspan x="-10.011" y="2.633" font-family="Helvetica" font-size="12" fill="#000000">300</tspan>
    </text>
    <g>
      <g>
        <g>
          <path d="M22.895,251.968 L67.192,278.113 L67.192,326.503 L22.895,300.358 z" fill="#FFFFFF"/>
          <path d="M22.895,251.968 L67.192,278.113 L67.192,326.503 L22.895,300.358 z" fill-opacity="0" stroke="#000000" stroke-width="0.644"/>
        </g>
        <g>
          <path d="M67.192,278.113 L89.34,265.041 L89.34,313.43 L67.192,326.503 z" fill="#FFFFFF"/>
          <path d="M67.192,278.113 L89.34,265.041 L89.34,313.43 L67.192,326.503 z" fill-opacity="0" stroke="#000000" stroke-width="0.644"/>
        </g>
        <g>
          <path d="M45.721,239.436 L89.34,265.041 L67.192,278.113 L22.895,251.968 z" fill="#FFFFFF"/>
          <path d="M45.721,239.436 L89.34,265.041 L67.192,278.113 L22.895,251.968 z" fill-opacity="0" stroke="#000000" stroke-width="0.644"/>
        </g>
      </g>
      <g>
        <path d="M22.895,251.968 L43.943,264.264 L29.461,286.36 L22.895,283.598 z" fill="#A6A6A6"/>
        <path d="M22.895,251.968 L43.943,264.264 L29.461,286.36 L22.895,283.598 z" fill-opacity="0" stroke="#000000" stroke-width="0.644"/>
      </g>
    </g>
    <text transform="matrix(1, 0, 0, 1, 32.919, 120.106)">
      <tspan x="-10.011" y="2.633" font-family="Helvetica" font-size="12" fill="#000000">154</tspan>
    </text>
    <text transform="matrix(1, 0, 0, 1, 32.919, 178.358)">
      <tspan x="-10.011" y="2.633" font-family="Helvetica" font-size="12" fill="#000000">298</tspan>
    </text>
    <text transform="matrix(1, 0, 0, 1, 132.385, 178.358)">
      <tspan x="-10.011" y="2.633" font-family="Helvetica" font-size="12" fill="#000000">156</tspan>
    </text>
    <text transform="matrix(1, 0, 0, 1, 124.675, 358.933)">
      <tspan x="-15.015" y="4" font-family="Helvetica" font-size="12" fill="#000000">12:30</tspan>
    </text>
    <text transform="matrix(1, 0, 0, 1, 167.322, 332.102)">
      <tspan x="-11.678" y="4" font-family="Helvetica" font-size="12" fill="#000000">1:00</tspan>
    </text>
    <text transform="matrix(1, 0, 0, 1, 211.261, 306.93)">
      <tspan x="-11.678" y="4" font-family="Helvetica" font-size="12" fill="#000000">1:30</tspan>
    </text>
    <g>
      <path d="M159.363,355.818 L201.375,327.139" fill-opacity="0" stroke="#000000" stroke-width="0.5"/>
      <path d="M158.517,354.579 L156.059,358.073 L160.209,357.057 z" fill="#000000" fill-opacity="1" stroke="#000000" stroke-width="0.5" stroke-opacity="1"/>
      <path d="M202.221,328.378 L204.679,324.884 L200.53,325.901 z" fill="#000000" fill-opacity="1" stroke="#000000" stroke-width="0.5" stroke-opacity="1"/>
    </g>
    <text transform="matrix(1, 0, 0, 1, 132.385, 122.884)">
      <tspan x="-6.674" y="2.633" font-family="Helvetica" font-size="12" fill="#000000">13</tspan>
    </text>
    <text transform="matrix(1, 0, 0, 1, 82.738, 94.295)">
      <tspan x="-6.674" y="2.633" font-family="Helvetica" font-size="12" fill="#000000">12</tspan>
    </text>
    <text transform="matrix(1, 0, 0, 1, 32.919, 63.933)">
      <tspan x="-6.231" y="2.633" font-family="Helvetica" font-size="12" fill="#000000">11</tspan>
    </text>
    <text transform="matrix(1, 0, 0, 1, 22.998, 243.27)">
      <tspan x="-10.011" y="2.633" font-family="Helvetica" font-size="12" fill="#000000">156</tspan>
    </text>
    <text transform="matrix(1, 0, 0, 1, 82.738, 151)">
      <tspan x="-10.011" y="2.633" font-family="Helvetica" font-size="12" fill="#000000">155</tspan>
    </text>
    <text transform="matrix(1, 0, 0, 1, 82.738, 207.172)">
      <tspan x="-10.011" y="2.633" font-family="Helvetica" font-size="12" fill="#000000">299</tspan>
    </text>
    <text transform="matrix(1, 0, 0, 1, 45.697, 291.445)">
      <tspan x="-10.011" y="2.633" font-family="Helvetica" font-size="12" fill="#000000">300</tspan>
    </text>
    <path d="M112.44,200.757 L91.647,213.245" fill-opacity="0" stroke="#686868" stroke-width="1" stroke-dasharray="3,2"/>
    <path d="M156.737,226.902 L135.266,239.436" fill-opacity="0" stroke="#686868" stroke-width="1" stroke-dasharray="3,2"/>
    <path d="M113.118,251.922 L89.34,265.041" fill-opacity="0" stroke="#686868" stroke-width="1" stroke-dasharray="3,2"/>
    <path d="M156.646,275.969 L135.266,287.239" fill-opacity="0" stroke="#686868" stroke-width="1" stroke-dasharray="3,2"/>
    <path d="M113.118,300.312 L89.34,313.43" fill-opacity="0" stroke="#686868" stroke-width="1" stroke-dasharray="3,2"/>
    <path d="M68.821,225.777 L45.721,239.436" fill-opacity="0" stroke="#686868" stroke-width="1" stroke-dasharray="3,2"/>
    <g>
      <path d="M167.429,271.282 C167.429,283.236 153.852,293.174 135.97,295.196" fill-opacity="0" stroke="#000000" stroke-width="0.75"/>
      <path d="M135.844,292.95 L129.979,295.531 L136.095,297.443 z" fill="#000000" fill-opacity="1" stroke="#000000" stroke-width="0.75" stroke-opacity="1"/>
    </g>
    <g>
      <path d="M122.361,298.312 C122.361,310.266 108.783,320.204 90.902,322.226" fill-opacity="0" stroke="#000000" stroke-width="0.75"/>
      <path d="M90.776,319.98 L84.911,322.561 L91.027,324.473 z" fill="#000000" fill-opacity="1" stroke="#000000" stroke-width="0.75" stroke-opacity="1"/>
    </g>
    <path d="M156.646,274.969 L198.745,300.526" fill-opacity="0" stroke="#7D7D7D" stroke-width="1" stroke-dasharray="3,2"/>
    <path d="M113.548,300.312 L155.646,325.869" fill-opacity="0" stroke="#7D7D7D" stroke-width="1" stroke-dasharray="3,2"/>
    <path d="M67.821,326.738 L109.92,352.295" fill-opacity="0" stroke="#7D7D7D" stroke-width="1" stroke-dasharray="3,2"/>
    <text transform="matrix(1, 0, 0, 1, 245.321, 274.077)">
      <tspan x="-36.349" y="4" font-family="Helvetica" font-size="12" fill="#000000">previous links</tspan>
    </text>
    <g>
      <path d="M206.439,275.969 L121.917,311.679" fill-opacity="0" stroke="#000000" stroke-width="0.5"/>
      <path d="M121.334,310.297 L118.233,313.236 L122.501,313.061 z" fill="#000000" fill-opacity="1" stroke="#000000" stroke-width="0.5" stroke-opacity="1"/>
    </g>
    <g>
      <path d="M206.439,275.969 L168.162,284.607" fill-opacity="0" stroke="#000000" stroke-width="0.5"/>
      <path d="M167.832,283.144 L164.26,285.488 L168.492,286.07 z" fill="#000000" fill-opacity="1" stroke="#000000" stroke-width="0.5" stroke-opacity="1"/>
    </g>
    <text transform="matrix(0.819, -0.574, 0.574, 0.819, 188.476, 351.057)">
      <tspan x="-37.515" y="2" font-family="Helvetica" font-size="10" fill="#000000">Facet Dimension</tspan>
    </text>
  </g>
</g>
  <defs/>
</svg>
