<?xml version="1.0" encoding="UTF-8"?>
<!DOCTYPE svg PUBLIC "-//W3C//DTD SVG 1.1//EN" "http://www.w3.org/Graphics/SVG/1.1/DTD/svg11.dtd">
<svg version="1.1" xmlns="http://www.w3.org/2000/svg" xmlns:xlink="http://www.w3.org/1999/xlink" x="0" y="0" width="349.5" height="280.667" viewBox="0, 0, 349.5, 280.667">
  <g id="Layer_1" transform="translate(-50.5, -100.833)">
    <g>
      <g>
        <path d="M129.5,249.5 L182.5,249.5 L182.5,278.5 L129.5,278.5 L129.5,249.5 z" fill="#A6A6A6"/>
        <path d="M129.5,249.5 L182.5,249.5 L182.5,278.5 L129.5,278.5 L129.5,249.5 z" fill-opacity="0" stroke="#000000" stroke-width="1"/>
      </g>
      <g>
        <path d="M201.5,249.5 L254.5,249.5 L254.5,278.5 L201.5,278.5 L201.5,249.5 z" fill="#A6A6A6"/>
        <path d="M201.5,249.5 L254.5,249.5 L254.5,278.5 L201.5,278.5 L201.5,249.5 z" fill-opacity="0" stroke="#000000" stroke-width="1"/>
      </g>
      <g>
        <path d="M273.5,249.5 L326.5,249.5 L326.5,278.5 L273.5,278.5 L273.5,249.5 z" fill="#A6A6A6"/>
        <path d="M273.5,249.5 L326.5,249.5 L326.5,278.5 L273.5,278.5 L273.5,249.5 z" fill-opacity="0" stroke="#000000" stroke-width="1"/>
      </g>
      <g>
        <path d="M346.5,249.5 L399.5,249.5 L399.5,278.5 L346.5,278.5 L346.5,249.5 z" fill="#A6A6A6"/>
        <path d="M346.5,249.5 L399.5,249.5 L399.5,278.5 L346.5,278.5 L346.5,249.5 z" fill-opacity="0" stroke="#000000" stroke-width="1"/>
      </g>
    </g>
    <g>
      <path d="M129.5,278.5 L182.5,278.5 L182.5,307.5 L129.5,307.5 L129.5,278.5 z" fill="#A6A6A6"/>
      <path d="M129.5,278.5 L182.5,278.5 L182.5,307.5 L129.5,307.5 L129.5,278.5 z" fill-opacity="0" stroke="#000000" stroke-width="1"/>
    </g>
    <g>
      <path d="M201.5,278.5 L254.5,278.5 L254.5,307.5 L201.5,307.5 L201.5,278.5 z" fill="#A6A6A6"/>
      <path d="M201.5,278.5 L254.5,278.5 L254.5,307.5 L201.5,307.5 L201.5,278.5 z" fill-opacity="0" stroke="#000000" stroke-width="1"/>
    </g>
    <g>
      <path d="M273.5,278.5 L326.5,278.5 L326.5,307.5 L273.5,307.5 L273.5,278.5 z" fill="#A6A6A6"/>
      <path d="M273.5,278.5 L326.5,278.5 L326.5,307.5 L273.5,307.5 L273.5,278.5 z" fill-opacity="0" stroke="#000000" stroke-width="1"/>
    </g>
    <g>
      <path d="M129.5,307.5 L182.5,307.5 L182.5,336.5 L129.5,336.5 L129.5,307.5 z" fill="#A6A6A6"/>
      <path d="M129.5,307.5 L182.5,307.5 L182.5,336.5 L129.5,336.5 L129.5,307.5 z" fill-opacity="0" stroke="#000000" stroke-width="1"/>
    </g>
    <g>
      <path d="M201.5,307.5 L254.5,307.5 L254.5,336.5 L201.5,336.5 L201.5,307.5 z" fill="#A6A6A6"/>
      <path d="M201.5,307.5 L254.5,307.5 L254.5,336.5 L201.5,336.5 L201.5,307.5 z" fill-opacity="0" stroke="#000000" stroke-width="1"/>
    </g>
    <path d="M281.483,352.528 L281.483,352.528 L281.483,352.528 C281.496,352.528 281.513,352.515 281.522,352.5 C281.532,352.485 281.529,352.472 281.517,352.472 L281.517,352.472 C281.517,352.472 281.517,352.472 281.517,352.472 C281.504,352.472 281.487,352.485 281.478,352.5 C281.468,352.515 281.471,352.528 281.483,352.528 L281.483,352.528" fill="#000000"/>
    <g>
      <path d="M153.483,348.528 L153.483,348.528 L153.483,348.528 C153.496,348.528 153.513,348.515 153.522,348.5 C153.532,348.485 153.529,348.472 153.517,348.472 L153.517,348.472 C153.517,348.472 153.517,348.472 153.517,348.472 C153.504,348.472 153.487,348.485 153.478,348.5 C153.468,348.515 153.471,348.528 153.483,348.528 L153.483,348.528" fill="#000000"/>
      <path d="M154.484,354.527 L154.484,354.527 L154.484,354.527 C154.496,354.527 154.512,354.515 154.521,354.5 C154.53,354.485 154.528,354.473 154.516,354.473 L154.516,354.473 C154.504,354.473 154.488,354.485 154.479,354.5 C154.47,354.515 154.472,354.527 154.484,354.527 L154.484,354.527" fill="#000000"/>
      <path d="M155.5,345.5 L155.5,345.5" fill-opacity="0" stroke="#000000" stroke-width="3" stroke-linecap="round" stroke-linejoin="round"/>
      <path d="M155.5,352.75 L155.5,352.75" fill-opacity="0" stroke="#000000" stroke-width="3" stroke-linecap="round" stroke-linejoin="round"/>
      <path d="M153.483,356.528 L153.483,356.528 L153.483,356.528 C153.496,356.528 153.513,356.515 153.522,356.5 C153.532,356.485 153.529,356.472 153.517,356.472 L153.517,356.472 C153.517,356.472 153.517,356.472 153.517,356.472 C153.504,356.472 153.487,356.485 153.478,356.5 C153.468,356.515 153.471,356.528 153.483,356.528 L153.483,356.528" fill="#000000"/>
      <path d="M154.484,362.527 L154.484,362.527 L154.484,362.527 C154.496,362.527 154.512,362.515 154.521,362.5 C154.53,362.485 154.528,362.473 154.516,362.473 L154.516,362.473 C154.504,362.473 154.488,362.485 154.479,362.5 C154.47,362.515 154.472,362.527 154.484,362.527 L154.484,362.527" fill="#000000"/>
      <path d="M155.5,360.75 L155.5,360.75" fill-opacity="0" stroke="#000000" stroke-width="3" stroke-linecap="round" stroke-linejoin="round"/>
    </g>
    <g>
      <path d="M151.5,249.5 C151.5,223.913 212.46,222.125 222.967,242.993" fill-opacity="0" stroke="#000000" stroke-width="0.75"/>
      <path d="M220.777,243.509 L224.343,248.833 L225.157,242.477 z" fill="#000000" fill-opacity="1" stroke="#000000" stroke-width="0.75" stroke-opacity="1"/>
    </g>
    <g>
      <path d="M225.5,249.5 C225.5,223.913 286.46,222.125 296.967,242.993" fill-opacity="0" stroke="#000000" stroke-width="0.75"/>
      <path d="M294.777,243.509 L298.343,248.833 L299.157,242.477 z" fill="#000000" fill-opacity="1" stroke="#000000" stroke-width="0.75" stroke-opacity="1"/>
    </g>
    <g>
      <path d="M299.5,249.5 C299.5,223.913 360.46,222.125 370.967,242.993" fill-opacity="0" stroke="#000000" stroke-width="0.75"/>
      <path d="M368.777,243.509 L372.343,248.833 L373.157,242.477 z" fill="#000000" fill-opacity="1" stroke="#000000" stroke-width="0.75" stroke-opacity="1"/>
    </g>
    <g>
      <path d="M172.5,220.5 L205.5,220.5 L205.5,235.5 L172.5,235.5 L172.5,220.5 z" fill="#FFFFFF"/>
      <path d="M172.5,220.5 L205.5,220.5 L205.5,235.5 L172.5,235.5 L172.5,220.5 z" fill-opacity="0" stroke="#000000" stroke-width="1"/>
    </g>
    <g>
      <path d="M246.5,220.5 L279.5,220.5 L279.5,235.5 L246.5,235.5 L246.5,220.5 z" fill="#FFFFFF"/>
      <path d="M246.5,220.5 L279.5,220.5 L279.5,235.5 L246.5,235.5 L246.5,220.5 z" fill-opacity="0" stroke="#000000" stroke-width="1"/>
    </g>
    <g>
      <path d="M318.5,220.5 L351.5,220.5 L351.5,235.5 L318.5,235.5 L318.5,220.5 z" fill="#FFFFFF"/>
      <path d="M318.5,220.5 L351.5,220.5 L351.5,235.5 L318.5,235.5 L318.5,220.5 z" fill-opacity="0" stroke="#000000" stroke-width="1"/>
    </g>
    <g>
      <path d="M225.483,348.528 L225.483,348.528 L225.483,348.528 C225.496,348.528 225.513,348.515 225.522,348.5 C225.532,348.485 225.529,348.472 225.517,348.472 L225.517,348.472 C225.517,348.472 225.517,348.472 225.517,348.472 C225.504,348.472 225.487,348.485 225.478,348.5 C225.468,348.515 225.471,348.528 225.483,348.528 L225.483,348.528" fill="#000000"/>
      <path d="M226.484,354.527 L226.484,354.527 L226.484,354.527 C226.496,354.527 226.512,354.515 226.521,354.5 C226.53,354.485 226.528,354.473 226.516,354.473 L226.516,354.473 C226.504,354.473 226.488,354.485 226.479,354.5 C226.47,354.515 226.472,354.527 226.484,354.527 L226.484,354.527" fill="#000000"/>
      <path d="M227.5,345.5 L227.5,345.5" fill-opacity="0" stroke="#000000" stroke-width="3" stroke-linecap="round" stroke-linejoin="round"/>
      <path d="M227.5,352.75 L227.5,352.75" fill-opacity="0" stroke="#000000" stroke-width="3" stroke-linecap="round" stroke-linejoin="round"/>
      <path d="M225.483,356.528 L225.483,356.528 L225.483,356.528 C225.496,356.528 225.513,356.515 225.522,356.5 C225.532,356.485 225.529,356.472 225.517,356.472 L225.517,356.472 C225.517,356.472 225.517,356.472 225.517,356.472 C225.504,356.472 225.487,356.485 225.478,356.5 C225.468,356.515 225.471,356.528 225.483,356.528 L225.483,356.528" fill="#000000"/>
      <path d="M226.484,362.527 L226.484,362.527 L226.484,362.527 C226.496,362.527 226.512,362.515 226.521,362.5 C226.53,362.485 226.528,362.473 226.516,362.473 L226.516,362.473 C226.504,362.473 226.488,362.485 226.479,362.5 C226.47,362.515 226.472,362.527 226.484,362.527 L226.484,362.527" fill="#000000"/>
      <path d="M227.5,360.75 L227.5,360.75" fill-opacity="0" stroke="#000000" stroke-width="3" stroke-linecap="round" stroke-linejoin="round"/>
    </g>
    <g>
      <path d="M297.483,318.528 L297.483,318.528 L297.483,318.528 C297.496,318.528 297.513,318.515 297.522,318.5 C297.532,318.485 297.529,318.472 297.517,318.472 L297.517,318.472 C297.517,318.472 297.517,318.472 297.517,318.472 C297.504,318.472 297.487,318.485 297.478,318.5 C297.468,318.515 297.471,318.528 297.483,318.528 L297.483,318.528" fill="#000000"/>
      <path d="M298.484,324.527 L298.484,324.527 L298.484,324.527 C298.496,324.527 298.512,324.515 298.521,324.5 C298.53,324.485 298.528,324.473 298.516,324.473 L298.516,324.473 C298.504,324.473 298.488,324.485 298.479,324.5 C298.47,324.515 298.472,324.527 298.484,324.527 L298.484,324.527" fill="#000000"/>
      <path d="M299.5,315.5 L299.5,315.5" fill-opacity="0" stroke="#000000" stroke-width="3" stroke-linecap="round" stroke-linejoin="round"/>
      <path d="M299.5,322.75 L299.5,322.75" fill-opacity="0" stroke="#000000" stroke-width="3" stroke-linecap="round" stroke-linejoin="round"/>
      <path d="M297.483,326.528 L297.483,326.528 L297.483,326.528 C297.496,326.528 297.513,326.515 297.522,326.5 C297.532,326.485 297.529,326.472 297.517,326.472 L297.517,326.472 C297.517,326.472 297.517,326.472 297.517,326.472 C297.504,326.472 297.487,326.485 297.478,326.5 C297.468,326.515 297.471,326.528 297.483,326.528 L297.483,326.528" fill="#000000"/>
      <path d="M298.484,332.527 L298.484,332.527 L298.484,332.527 C298.496,332.527 298.512,332.515 298.521,332.5 C298.53,332.485 298.528,332.473 298.516,332.473 L298.516,332.473 C298.504,332.473 298.488,332.485 298.479,332.5 C298.47,332.515 298.472,332.527 298.484,332.527 L298.484,332.527" fill="#000000"/>
      <path d="M299.5,330.75 L299.5,330.75" fill-opacity="0" stroke="#000000" stroke-width="3" stroke-linecap="round" stroke-linejoin="round"/>
    </g>
    <g>
      <path d="M370.483,288.528 L370.483,288.528 L370.483,288.528 C370.496,288.528 370.513,288.515 370.522,288.5 C370.532,288.485 370.529,288.472 370.517,288.472 L370.517,288.472 C370.517,288.472 370.517,288.472 370.517,288.472 C370.504,288.472 370.487,288.485 370.478,288.5 C370.468,288.515 370.471,288.528 370.483,288.528 L370.483,288.528" fill="#000000"/>
      <path d="M371.484,294.527 L371.484,294.527 L371.484,294.527 C371.496,294.527 371.512,294.515 371.521,294.5 C371.53,294.485 371.528,294.473 371.516,294.473 L371.516,294.473 C371.504,294.473 371.488,294.485 371.479,294.5 C371.47,294.515 371.472,294.527 371.484,294.527 L371.484,294.527" fill="#000000"/>
      <path d="M372.5,285.5 L372.5,285.5" fill-opacity="0" stroke="#000000" stroke-width="3" stroke-linecap="round" stroke-linejoin="round"/>
      <path d="M372.5,292.75 L372.5,292.75" fill-opacity="0" stroke="#000000" stroke-width="3" stroke-linecap="round" stroke-linejoin="round"/>
      <path d="M370.483,296.528 L370.483,296.528 L370.483,296.528 C370.496,296.528 370.513,296.515 370.522,296.5 C370.532,296.485 370.529,296.472 370.517,296.472 L370.517,296.472 C370.517,296.472 370.517,296.472 370.517,296.472 C370.504,296.472 370.487,296.485 370.478,296.5 C370.468,296.515 370.471,296.528 370.483,296.528 L370.483,296.528" fill="#000000"/>
      <path d="M371.484,302.527 L371.484,302.527 L371.484,302.527 C371.496,302.527 371.512,302.515 371.521,302.5 C371.53,302.485 371.528,302.473 371.516,302.473 L371.516,302.473 C371.504,302.473 371.488,302.485 371.479,302.5 C371.47,302.515 371.472,302.527 371.484,302.527 L371.484,302.527" fill="#000000"/>
      <path d="M372.5,300.75 L372.5,300.75" fill-opacity="0" stroke="#000000" stroke-width="3" stroke-linecap="round" stroke-linejoin="round"/>
    </g>
    <path d="M188.5,220.5 L188.5,184.5" fill-opacity="0" stroke="#000000" stroke-width="1"/>
    <path d="M263,220.5 L263,184.5" fill-opacity="0" stroke="#000000" stroke-width="1"/>
    <path d="M334.5,220.5 L334.5,184.5" fill-opacity="0" stroke="#000000" stroke-width="1"/>
    <text transform="matrix(1, 0, 0, 1, 299.5, 202)">
      <tspan x="-27.03" y="3.5" font-family="HelveticaNeue-Bold" font-size="10" fill="#000000">enrichment</tspan>
    </text>
    <text transform="matrix(1, 0, 0, 1, 226, 202)">
      <tspan x="-21.84" y="3.5" font-family="HelveticaNeue-Bold" font-size="10" fill="#000000">semantic</tspan>
    </text>
    <g>
      <path d="M262.86,187.5 C184.298,187.5 160.11,181.18 160.11,174 C160.11,166.82 184.298,161.5 262.86,161.5 C341.423,161.5 370.61,168.82 370.61,176 C370.61,183.18 341.423,187.5 262.86,187.5 z" fill="#FFFFFF"/>
      <path d="M262.86,187.5 C184.298,187.5 160.11,181.18 160.11,174 C160.11,166.82 184.298,161.5 262.86,161.5 C341.423,161.5 370.61,168.82 370.61,176 C370.61,183.18 341.423,187.5 262.86,187.5 z" fill-opacity="0" stroke="#000000" stroke-width="1"/>
    </g>
    <text transform="matrix(1, 0, 0, 1, 264.86, 174)">
      <tspan x="-45.075" y="3.5" font-family="HelveticaNeue-Bold" font-size="10" fill="#000000">semantic data lake</tspan>
    </text>
    <g>
      <path d="M211.171,128.554 L204.5,117 L211.171,105.446 L224.512,105.446 L231.183,117 L224.512,128.554 z" fill="#FFFFFF"/>
      <path d="M211.171,128.554 L204.5,117 L211.171,105.446 L224.512,105.446 L231.183,117 L224.512,128.554 z" fill-opacity="0" stroke="#000000" stroke-width="1"/>
    </g>
    <g>
      <path d="M218.089,136.249 L218.332,154.751" fill-opacity="0" stroke="#000000" stroke-width="0.75"/>
      <path d="M220.339,136.22 L218.01,130.25 L215.839,136.279 z" fill="#000000" fill-opacity="1" stroke="#000000" stroke-width="0.75" stroke-opacity="1"/>
      <path d="M216.082,154.78 L218.411,160.75 L220.582,154.721 z" fill="#000000" fill-opacity="1" stroke="#000000" stroke-width="0.75" stroke-opacity="1"/>
    </g>
    <text transform="matrix(1, 0, 0, 1, 175.1, 116.5)">
      <tspan x="-20.1" y="-2.5" font-family="HelveticaNeue-Bold" font-size="10" fill="#000000">SPARQL</tspan>
      <tspan x="-13.43" y="9.5" font-family="HelveticaNeue-Bold" font-size="10" fill="#000000">query</tspan>
    </text>
    <g>
      <path d="M264.5,110.833 C262.015,110.833 260,108.931 260,106.583 C260,104.236 262.015,102.333 264.5,102.333 C266.985,102.333 269,104.236 269,106.583 C269,108.931 266.985,110.833 264.5,110.833 z" fill="#FFFFFF"/>
      <path d="M264.5,110.833 C262.015,110.833 260,108.931 260,106.583 C260,104.236 262.015,102.333 264.5,102.333 C266.985,102.333 269,104.236 269,106.583 C269,108.931 266.985,110.833 264.5,110.833 z" fill-opacity="0" stroke="#000000" stroke-width="1"/>
    </g>
    <g>
      <path d="M275,124.888 C272.515,124.888 270.5,122.985 270.5,120.638 C270.5,118.29 272.515,116.388 275,116.388 C277.485,116.388 279.5,118.29 279.5,120.638 C279.5,122.985 277.485,124.888 275,124.888 z" fill="#FFFFFF"/>
      <path d="M275,124.888 C272.515,124.888 270.5,122.985 270.5,120.638 C270.5,118.29 272.515,116.388 275,116.388 C277.485,116.388 279.5,118.29 279.5,120.638 C279.5,122.985 277.485,124.888 275,124.888 z" fill-opacity="0" stroke="#000000" stroke-width="1"/>
    </g>
    <g>
      <path d="M259,137.054 C256.515,137.054 254.5,135.151 254.5,132.804 C254.5,130.457 256.515,128.554 259,128.554 C261.485,128.554 263.5,130.457 263.5,132.804 C263.5,135.151 261.485,137.054 259,137.054 z" fill="#FFFFFF"/>
      <path d="M259,137.054 C256.515,137.054 254.5,135.151 254.5,132.804 C254.5,130.457 256.515,128.554 259,128.554 C261.485,128.554 263.5,130.457 263.5,132.804 C263.5,135.151 261.485,137.054 259,137.054 z" fill-opacity="0" stroke="#000000" stroke-width="1"/>
    </g>
    <path d="M264.5,110.833 L259,128.554" fill-opacity="0" stroke="#000000" stroke-width="1"/>
    <path d="M267.75,109.25 L272.97,116.388" fill-opacity="0" stroke="#000000" stroke-width="1"/>
    <path d="M277,124.888 L279.5,133.333" fill-opacity="0" stroke="#000000" stroke-width="1"/>
    <g>
      <path d="M281.5,141.833 C279.015,141.833 277,139.931 277,137.583 C277,135.236 279.015,133.333 281.5,133.333 C283.985,133.333 286,135.236 286,137.583 C286,139.931 283.985,141.833 281.5,141.833 z" fill="#FFFFFF"/>
      <path d="M281.5,141.833 C279.015,141.833 277,139.931 277,137.583 C277,135.236 279.015,133.333 281.5,133.333 C283.985,133.333 286,135.236 286,137.583 C286,139.931 283.985,141.833 281.5,141.833 z" fill-opacity="0" stroke="#000000" stroke-width="1"/>
    </g>
    <g>
      <path d="M236.75,116.388 L244.53,116.388" fill-opacity="0" stroke="#000000" stroke-width="1"/>
      <path d="M244.53,119.388 L252.53,116.388 L244.53,113.388 z" fill="#000000" fill-opacity="1" stroke="#000000" stroke-width="1" stroke-opacity="1"/>
    </g>
    <g>
      <path d="M335.421,263.813 C370.581,255.189 397.204,164.377 286,139.46" fill-opacity="0" stroke="#000000" stroke-width="1" stroke-dasharray="3,2"/>
      <path d="M335.303,260.816 L327.428,264.13 L335.54,266.811 z" fill-opacity="0" stroke="#000000" stroke-width="1" stroke-opacity="1"/>
    </g>
    <text transform="matrix(1, 0, 0, 1, 84.005, 288.5)">
      <tspan x="-33.505" y="3.5" font-family="HelveticaNeue-Bold" font-size="10" fill="#000000">entities (rows)</tspan>
    </text>
    <path d="M182.5,278.5 L201.5,278.5" fill-opacity="0" stroke="#000000" stroke-width="1" stroke-dasharray="3,2"/>
    <path d="M254.5,278.5 L275.167,278.5" fill-opacity="0" stroke="#000000" stroke-width="1" stroke-dasharray="3,2"/>
    <path d="M326.5,278.5 L346.5,278.5" fill-opacity="0" stroke="#000000" stroke-width="1" stroke-dasharray="3,2"/>
    <path d="M182.5,249.5 L201.5,249.5" fill-opacity="0" stroke="#000000" stroke-width="1" stroke-dasharray="3,2"/>
    <path d="M254.5,249.5 L275.167,249.5" fill-opacity="0" stroke="#000000" stroke-width="1" stroke-dasharray="3,2"/>
    <path d="M326.5,249.5 L346.5,249.5" fill-opacity="0" stroke="#000000" stroke-width="1" stroke-dasharray="3,2"/>
    <path d="M182.5,307.5 L201.5,307.5" fill-opacity="0" stroke="#000000" stroke-width="1" stroke-dasharray="3,2"/>
    <path d="M254.5,307.5 L273.5,307.5" fill-opacity="0" stroke="#000000" stroke-width="1" stroke-dasharray="3,2"/>
    <path d="M182.5,336.5 L201.5,336.5" fill-opacity="0" stroke="#000000" stroke-width="1" stroke-dasharray="3,2"/>
    <text transform="matrix(1, 0, 0, 1, 261.5, 375)">
      <tspan x="-48.42" y="3.5" font-family="HelveticaNeue-Bold" font-size="10" fill="#000000">resources (columns)</tspan>
    </text>
  </g>
</svg>
