<svg version="1.1" viewBox="0.0 0.0 960.0 720.0" fill="none" stroke="none" stroke-linecap="square" stroke-miterlimit="10" xmlns:xlink="http://www.w3.org/1999/xlink" xmlns="http://www.w3.org/2000/svg"><clipPath id="p.0"><path d="m0 0l960.0 0l0 720.0l-960.0 0l0 -720.0z" clip-rule="nonzero"/></clipPath><g clip-path="url(#p.0)"><path fill="#000000" fill-opacity="0.0" d="m0 0l960.0 0l0 720.0l-960.0 0z" fill-rule="evenodd"/><path fill="#000000" fill-opacity="0.0" d="m58.719162 105.779526l0 0c0 -5.401085 4.589962 -9.779526 10.251968 -9.779526l0 0c2.7189865 0 5.3266144 1.0303421 7.249237 2.864357c1.922615 1.8340149 3.0027313 4.32148 3.0027313 6.915169l0 0c0 5.401085 -4.589966 9.779526 -10.251968 9.779526l0 0c-5.6620064 0 -10.251968 -4.378441 -10.251968 -9.779526z" fill-rule="evenodd"/><path stroke="#cc6600" stroke-width="8.0" stroke-linejoin="round" stroke-linecap="butt" d="m58.719162 105.779526l0 0c0 -5.401085 4.589962 -9.779526 10.251968 -9.779526l0 0c2.7189865 0 5.3266144 1.0303421 7.249237 2.864357c1.922615 1.8340149 3.0027313 4.32148 3.0027313 6.915169l0 0c0 5.401085 -4.589966 9.779526 -10.251968 9.779526l0 0c-5.6620064 0 -10.251968 -4.378441 -10.251968 -9.779526z" fill-rule="evenodd"/><path fill="#000000" fill-opacity="0.0" d="m101.74803 81.703415l0 0c0 -5.401085 4.589966 -9.779533 10.251968 -9.779533l0 0c2.7189941 0 5.326622 1.0303421 7.249237 2.864357c1.922615 1.8340225 3.0027313 4.32148 3.0027313 6.9151764l0 0c0 5.401085 -4.589966 9.779526 -10.251968 9.779526l0 0c-5.6620026 0 -10.251968 -4.378441 -10.251968 -9.779526z" fill-rule="evenodd"/><path stroke="#cc6600" stroke-width="8.0" stroke-linejoin="round" stroke-linecap="butt" d="m101.74803 81.703415l0 0c0 -5.401085 4.589966 -9.779533 10.251968 -9.779533l0 0c2.7189941 0 5.326622 1.0303421 7.249237 2.864357c1.922615 1.8340225 3.0027313 4.32148 3.0027313 6.9151764l0 0c0 5.401085 -4.589966 9.779526 -10.251968 9.779526l0 0c-5.6620026 0 -10.251968 -4.378441 -10.251968 -9.779526z" fill-rule="evenodd"/><path fill="#000000" fill-opacity="0.0" d="m101.74803 125.338585l0 0c0 -5.401085 4.589966 -9.779533 10.251968 -9.779533l0 0c2.7189941 0 5.326622 1.0303421 7.249237 2.8643646c1.922615 1.8340149 3.0027313 4.321472 3.0027313 6.915169l0 0c0 5.401085 -4.589966 9.779518 -10.251968 9.779518l0 0c-5.6620026 0 -10.251968 -4.378433 -10.251968 -9.779518z" fill-rule="evenodd"/><path stroke="#cc6600" stroke-width="8.0" stroke-linejoin="round" stroke-linecap="butt" d="m101.74803 125.338585l0 0c0 -5.401085 4.589966 -9.779533 10.251968 -9.779533l0 0c2.7189941 0 5.326622 1.0303421 7.249237 2.8643646c1.922615 1.8340149 3.0027313 4.321472 3.0027313 6.915169l0 0c0 5.401085 -4.589966 9.779518 -10.251968 9.779518l0 0c-5.6620026 0 -10.251968 -4.378433 -10.251968 -9.779518z" fill-rule="evenodd"/><path fill="#000000" fill-opacity="0.0" d="m79.2231 160.30708l0 0c0 -5.4010773 4.589958 -9.779526 10.251968 -9.779526l0 0c2.7189865 0 5.3266144 1.0303345 7.249237 2.8643646c1.922615 1.8340149 3.0027313 4.321472 3.0027313 6.915161l0 0c0 5.4010925 -4.589966 9.779526 -10.251968 9.779526l0 0c-5.66201 0 -10.251968 -4.378433 -10.251968 -9.779526z" fill-rule="evenodd"/><path stroke="#cc6600" stroke-width="8.0" stroke-linejoin="round" stroke-linecap="butt" d="m79.2231 160.30708l0 0c0 -5.4010773 4.589958 -9.779526 10.251968 -9.779526l0 0c2.7189865 0 5.3266144 1.0303345 7.249237 2.8643646c1.922615 1.8340149 3.0027313 4.321472 3.0027313 6.915161l0 0c0 5.4010925 -4.589966 9.779526 -10.251968 9.779526l0 0c-5.66201 0 -10.251968 -4.378433 -10.251968 -9.779526z" fill-rule="evenodd"/><path fill="#000000" fill-opacity="0.0" d="m68.97113 115.55905l13.259842 37.826782" fill-rule="evenodd"/><path stroke="#cc6600" stroke-width="3.0" stroke-linejoin="round" stroke-linecap="butt" d="m68.97113 115.55905l13.259842 37.826782" fill-rule="evenodd"/><path fill="#000000" fill-opacity="0.0" d="m79.2231 105.779526l25.543304 -17.165352" fill-rule="evenodd"/><path stroke="#cc6600" stroke-width="3.0" stroke-linejoin="round" stroke-linecap="butt" d="m79.2231 105.779526l25.543304 -17.165352" fill-rule="evenodd"/><path fill="#000000" fill-opacity="0.0" d="m76.22037 112.694695l25.543304 12.629921" fill-rule="evenodd"/><path stroke="#cc6600" stroke-width="3.0" stroke-linejoin="round" stroke-linecap="butt" d="m76.22037 112.694695l25.543304 12.629921" fill-rule="evenodd"/><path fill="#000000" fill-opacity="0.0" d="m96.724304 153.39192l15.275589 -18.267715" fill-rule="evenodd"/><path stroke="#cc6600" stroke-width="3.0" stroke-linejoin="round" stroke-linecap="butt" d="m96.724304 153.39192l15.275589 -18.267715" fill-rule="evenodd"/></g></svg>