<?xml version="1.0" encoding="UTF-8"?>
<!DOCTYPE svg PUBLIC "-//W3C//DTD SVG 1.1//EN" "http://www.w3.org/Graphics/SVG/1.1/DTD/svg11.dtd">
<svg version="1.1" xmlns="http://www.w3.org/2000/svg" xmlns:xlink="http://www.w3.org/1999/xlink" x="0px" y="0px" width="443" height="202" viewBox="0, 0, 443, 202">
<g transform="translate(-7,-7)">
  <g id="Layer 1">
    <path d="M78.368,57.945 L100.567,156.734" fill-opacity="0" stroke="#000000" stroke-width="1"/>
    <path d="M100.567,156.734 L220.567,135.734" fill-opacity="0" stroke="#000000" stroke-width="1"/>
    <path d="M220.567,135.734 L182.567,94.734" fill-opacity="0" stroke="#000000" stroke-width="1"/>
    <path d="M182.567,94.734 L212.567,40.734" fill-opacity="0" stroke="#000000" stroke-width="1"/>
    <path d="M212.567,40.734 L78.368,57.945" fill-opacity="0" stroke="#000000" stroke-width="1"/>
    <path d="M98.567,26.271 L99.192,188.271" fill-opacity="0" stroke="#555555" stroke-width="1" stroke-dasharray="2,2"/>
    <path d="M134.567,26.271 L135.192,188.271" fill-opacity="0" stroke="#555555" stroke-width="1" stroke-dasharray="2,2"/>
    <path d="M170.567,26.271 L171.192,188.271" fill-opacity="0" stroke="#555555" stroke-width="1" stroke-dasharray="2,2"/>
    <path d="M206.567,26.271 L207.192,188.271" fill-opacity="0" stroke="#555555" stroke-width="1" stroke-dasharray="2,2"/>
    <path d="M62.567,26.271 L63.192,188.271" fill-opacity="0" stroke="#555555" stroke-width="1" stroke-dasharray="2,2"/>
    <path d="M242.567,26.271 L243.192,188.271" fill-opacity="0" stroke="#555555" stroke-width="1" stroke-dasharray="2,2"/>
    <path d="M52.609,32.734 L251.567,32.734" fill-opacity="0" stroke="#555555" stroke-width="1" stroke-dasharray="2,2"/>
    <path d="M52.609,68.734 L251.567,68.734" fill-opacity="0" stroke="#555555" stroke-width="1" stroke-dasharray="2,2"/>
    <path d="M52.609,104.734 L251.567,104.734" fill-opacity="0" stroke="#555555" stroke-width="1" stroke-dasharray="2,2"/>
    <path d="M52.609,140.734 L251.567,140.734" fill-opacity="0" stroke="#555555" stroke-width="1" stroke-dasharray="2,2"/>
    <path d="M52.609,176.734 L251.567,176.734" fill-opacity="0" stroke="#555555" stroke-width="1" stroke-dasharray="2,2"/>
    <path d="M78.368,40.734 L220.567,40.734 L220.567,156.734 L78.368,156.734 z" fill-opacity="0" stroke="#990000" stroke-width="1"/>
    <g>
      <path d="M89.467,52.539 L221.244,52.539" fill-opacity="0" stroke="#6D9900" stroke-width="1"/>
      <path d="M221.244,55.539 L229.244,52.539 L221.244,49.539 z" fill="#6D9900" fill-opacity="1" stroke="#6D9900" stroke-width="1" stroke-opacity="1"/>
    </g>
    <g>
      <path d="M89.467,52.539 L89.467,160.234" fill-opacity="0" stroke="#6D9900" stroke-width="1"/>
      <path d="M86.467,160.234 L89.467,168.234 L92.467,160.234 z" fill="#6D9900" fill-opacity="1" stroke="#6D9900" stroke-width="1" stroke-opacity="1"/>
    </g>
    <text transform="matrix(1, 0, 0, 1, 71.306, 49.38)">
      <tspan x="-5.562" y="3.5" font-family="Helvetica" font-size="10" fill="#555555">12</tspan>
    </text>
    <text transform="matrix(1, 0, 0, 1, 107.736, 49.38)">
      <tspan x="-5.562" y="3.5" font-family="Helvetica" font-size="10" fill="#555555">13</tspan>
    </text>
    <text transform="matrix(1, 0, 0, 1, 143.967, 49.38)">
      <tspan x="-5.562" y="3.5" font-family="Helvetica" font-size="10" fill="#555555">14</tspan>
    </text>
    <text transform="matrix(1, 0, 0, 1, 180.107, 49.38)">
      <tspan x="-5.562" y="3.5" font-family="Helvetica" font-size="10" fill="#555555">15</tspan>
    </text>
    <text transform="matrix(1, 0, 0, 1, 216.629, 49.38)">
      <tspan x="-5.562" y="3.5" font-family="Helvetica" font-size="10" fill="#555555">16</tspan>
    </text>
    <text transform="matrix(1, 0, 0, 1, 71.306, 86.844)">
      <tspan x="-5.562" y="3.5" font-family="Helvetica" font-size="10" fill="#555555">84</tspan>
    </text>
    <text transform="matrix(1, 0, 0, 1, 107.736, 86.844)">
      <tspan x="-5.562" y="3.5" font-family="Helvetica" font-size="10" fill="#555555">85</tspan>
    </text>
    <text transform="matrix(1, 0, 0, 1, 143.967, 86.844)">
      <tspan x="-5.562" y="3.5" font-family="Helvetica" font-size="10" fill="#555555">86</tspan>
    </text>
    <text transform="matrix(1, 0, 0, 1, 180.107, 86.844)">
      <tspan x="-5.562" y="3.5" font-family="Helvetica" font-size="10" fill="#555555">87</tspan>
    </text>
    <text transform="matrix(1, 0, 0, 1, 216.629, 86.844)">
      <tspan x="-5.562" y="3.5" font-family="Helvetica" font-size="10" fill="#555555">88</tspan>
    </text>
    <text transform="matrix(1, 0, 0, 1, 74.087, 124.945)">
      <tspan x="-8.342" y="3.5" font-family="Helvetica" font-size="10" fill="#555555">156</tspan>
    </text>
    <text transform="matrix(1, 0, 0, 1, 110.517, 124.945)">
      <tspan x="-8.342" y="3.5" font-family="Helvetica" font-size="10" fill="#555555">157</tspan>
    </text>
    <text transform="matrix(1, 0, 0, 1, 146.748, 124.945)">
      <tspan x="-8.342" y="3.5" font-family="Helvetica" font-size="10" fill="#555555">158</tspan>
    </text>
    <text transform="matrix(1, 0, 0, 1, 182.888, 124.945)">
      <tspan x="-8.342" y="3.5" font-family="Helvetica" font-size="10" fill="#555555">159</tspan>
    </text>
    <text transform="matrix(1, 0, 0, 1, 219.409, 124.945)">
      <tspan x="-8.342" y="3.5" font-family="Helvetica" font-size="10" fill="#555555">160</tspan>
    </text>
    <text transform="matrix(1, 0, 0, 1, 74.087, 161.109)">
      <tspan x="-8.342" y="3.5" font-family="Helvetica" font-size="10" fill="#555555">228</tspan>
    </text>
    <text transform="matrix(1, 0, 0, 1, 110.517, 161.109)">
      <tspan x="-8.342" y="3.5" font-family="Helvetica" font-size="10" fill="#555555">229</tspan>
    </text>
    <text transform="matrix(1, 0, 0, 1, 146.748, 161.109)">
      <tspan x="-8.342" y="3.5" font-family="Helvetica" font-size="10" fill="#555555">230</tspan>
    </text>
    <text transform="matrix(1, 0, 0, 1, 182.888, 161.109)">
      <tspan x="-8.342" y="3.5" font-family="Helvetica" font-size="10" fill="#555555">231</tspan>
    </text>
    <text transform="matrix(1, 0, 0, 1, 219.409, 161.109)">
      <tspan x="-8.342" y="3.5" font-family="Helvetica" font-size="10" fill="#555555">232</tspan>
    </text>
    <text transform="matrix(1, 0, 0, 1, 26.862, 86.318)">
      <tspan x="-19.29" y="-8.5" font-family="Helvetica" font-size="10" fill="#000000">360° / 5°</tspan>
      <tspan x="-2.92" y="3.5" font-family="Helvetica" font-size="10" fill="#000000">=</tspan>
      <tspan x="-8.481" y="15.5" font-family="Helvetica" font-size="10" fill="#000000">+72</tspan>
    </text>
    <g>
      <path d="M28.833,113.474 L28.958,137.224" fill-opacity="0" stroke="#000000" stroke-width="1"/>
      <path d="M25.958,137.24 L29,145.224 L31.958,137.208 z" fill="#000000" fill-opacity="1" stroke="#000000" stroke-width="1" stroke-opacity="1"/>
    </g>
    <g>
      <path d="M398.228,46.02 C426.378,74.17 426.378,119.81 398.228,147.96 C370.078,176.11 324.438,176.11 296.288,147.96 C268.138,119.81 268.138,74.17 296.288,46.02 C324.438,17.87 370.078,17.87 398.228,46.02" fill="#FFFFFF"/>
      <path d="M398.228,46.02 C426.378,74.17 426.378,119.81 398.228,147.96 C370.078,176.11 324.438,176.11 296.288,147.96 C268.138,119.81 268.138,74.17 296.288,46.02 C324.438,17.87 370.078,17.87 398.228,46.02" fill-opacity="0" stroke="#000000" stroke-width="1"/>
    </g>
    <path d="M275.712,96.728 C314.945,122.411 399.416,126.665 419.895,98.111" fill-opacity="0" stroke="#000000" stroke-width="1"/>
    <path d="M280.688,70.109 C318,92.662 402.52,90.673 414.828,71.716" fill-opacity="0" stroke="#000000" stroke-width="1"/>
    <path d="M347.258,24.99 C376.779,43.14 380.147,149.384 347.64,168.96" fill-opacity="0" stroke="#000000" stroke-width="1"/>
    <path d="M347.258,24.99 C400.597,39.198 413.716,144.451 347.853,169.173" fill-opacity="0" stroke="#000000" stroke-width="1"/>
    <path d="M375.258,86.49 L370.863,91.966" fill-opacity="0" stroke="#AB1500" stroke-width="1"/>
    <path d="M383.508,85.99 L371.388,100.093" fill-opacity="0" stroke="#AB1500" stroke-width="1"/>
    <path d="M371.508,108.99 L391.344,85.859" fill-opacity="0" stroke="#AB1500" stroke-width="1"/>
    <path d="M370.508,117.49 L392.267,94.807" fill-opacity="0" stroke="#AB1500" stroke-width="1"/>
    <path d="M378.758,116.49 L392.028,103.345" fill-opacity="0" stroke="#AB1500" stroke-width="1"/>
    <path d="M388.508,114.74 L391.725,111.673" fill-opacity="0" stroke="#AB1500" stroke-width="1"/>
    <text transform="matrix(1, 0, 0, 1, 364.061, 82.109)">
      <tspan x="-4.669" y="2.5" font-family="HelveticaNeue-Bold" font-size="14" fill="#AB1500">P</tspan>
    </text>
    <text transform="matrix(1, 0, 0, 1, 378.223, 127.49)">
      <tspan x="-4.795" y="2.5" font-family="HelveticaNeue-Bold" font-size="14" fill="#AB1500">A</tspan>
    </text>
    <text transform="matrix(1, 0, 0, 1, 399.715, 100.892)">
      <tspan x="-4.928" y="2.5" font-family="HelveticaNeue-Bold" font-size="14" fill="#AB1500">B</tspan>
    </text>
    <path d="M346.743,24.725 C352.994,48.99 347.258,153.49 347.679,169.225" fill-opacity="0" stroke="#000000" stroke-width="1"/>
    <path d="M347.258,24.99 C326.758,47.49 314.258,142.49 347.64,168.96" fill-opacity="0" stroke="#000000" stroke-width="1"/>
    <path d="M347.258,25.956 C307.258,30.746 287.258,155.524 347.64,168.96" fill-opacity="0" stroke="#000000" stroke-width="1"/>
    <path d="M347.258,25.443 C294.758,24.725 254.758,151.49 347.64,169.414" fill-opacity="0" stroke="#000000" stroke-width="1"/>
    <path d="M347.64,25.332 C414.828,30.99 448.758,136.99 348.234,169.516" fill-opacity="0" stroke="#000000" stroke-width="1"/>
    <path d="M294.758,48.49 C317.258,63.99 383.508,63.99 402.258,49.99" fill-opacity="0" stroke="#000000" stroke-width="1"/>
    <path d="M313.758,33.49 C332.758,42.49 364.994,42.49 383.508,35.49" fill-opacity="0" stroke="#000000" stroke-width="1"/>
    <text transform="matrix(1, 0, 0, 1, 358.494, 15.013)">
      <tspan x="-2.224" y="0.744" font-family="HelveticaNeue-Bold" font-size="8" fill="#012BAA">1</tspan>
    </text>
    <text transform="matrix(1, 0, 0, 1, 371.206, 15.013)">
      <tspan x="-2.224" y="0.744" font-family="HelveticaNeue-Bold" font-size="8" fill="#012BAA">2</tspan>
    </text>
    <text transform="matrix(1, 0, 0, 1, 381.999, 15.013)">
      <tspan x="-2.224" y="0.744" font-family="HelveticaNeue-Bold" font-size="8" fill="#012BAA">3</tspan>
    </text>
    <text transform="matrix(1, 0, 0, 1, 393.068, 15.013)">
      <tspan x="-2.224" y="0.744" font-family="HelveticaNeue-Bold" font-size="8" fill="#012BAA">4</tspan>
    </text>
    <text transform="matrix(1, 0, 0, 1, 334.31, 15.013)">
      <tspan x="-4.448" y="0.744" font-family="HelveticaNeue-Bold" font-size="8" fill="#012BAA">18</tspan>
    </text>
    <text transform="matrix(1, 0, 0, 1, 322.046, 15.013)">
      <tspan x="-4.448" y="0.744" font-family="HelveticaNeue-Bold" font-size="8" fill="#012BAA">17</tspan>
    </text>
    <text transform="matrix(1, 0, 0, 1, 311.456, 15.013)">
      <tspan x="-4.448" y="0.744" font-family="HelveticaNeue-Bold" font-size="8" fill="#012BAA">16</tspan>
    </text>
    <text transform="matrix(1, 0, 0, 1, 298.706, 15.013)">
      <tspan x="-4.448" y="0.744" font-family="HelveticaNeue-Bold" font-size="8" fill="#012BAA">15</tspan>
    </text>
    <path d="M358.258,18.107 L353.591,34.952" fill-opacity="0" stroke="#686868" stroke-width="1"/>
    <path d="M370.508,18.107 L361.151,34.952" fill-opacity="0" stroke="#686868" stroke-width="1"/>
    <path d="M380.612,18.107 L369.014,34.221" fill-opacity="0" stroke="#686868" stroke-width="1"/>
    <path d="M392.403,18.107 L376.707,32.74" fill-opacity="0" stroke="#686868" stroke-width="1"/>
    <path d="M337.591,18.107 L344.576,34.952" fill-opacity="0" stroke="#686868" stroke-width="1"/>
    <path d="M325.591,18.107 L337.591,34.952" fill-opacity="0" stroke="#686868" stroke-width="1"/>
    <path d="M313.758,18.107 L328.9,34.221" fill-opacity="0" stroke="#686868" stroke-width="1"/>
    <path d="M301.924,18.107 L320.591,32.74" fill-opacity="0" stroke="#686868" stroke-width="1"/>
    <text transform="matrix(1, 0, 0, 1, 356.203, 52.554)">
      <tspan x="-4.448" y="0.744" font-family="HelveticaNeue-Bold" font-size="8" fill="#012BAA">19</tspan>
    </text>
    <text transform="matrix(1, 0, 0, 1, 371.206, 50.843)">
      <tspan x="-4.448" y="0.744" font-family="HelveticaNeue-Bold" font-size="8" fill="#012BAA">20</tspan>
    </text>
    <text transform="matrix(1, 0, 0, 1, 384.56, 48.878)">
      <tspan x="-4.448" y="0.744" font-family="HelveticaNeue-Bold" font-size="8" fill="#012BAA">21</tspan>
    </text>
    <path d="M370.31,87.809 C369.318,87.809 368.514,86.915 368.514,85.811 C368.514,84.707 369.318,83.812 370.31,83.812 C371.302,83.812 372.106,84.707 372.106,85.811 C372.106,86.915 371.302,87.809 370.31,87.809 z" fill="#AB1500"/>
    <text transform="matrix(1, 0, 0, 1, 348.48, 200.547)">
      <tspan x="-53.03" y="-11" font-family="Helvetica" font-size="12" fill="#000000">Sequence Numbers </tspan>
      <tspan x="-63.378" y="4" font-family="Helvetica" font-size="12" fill="#000000">enumerate quadrangles</tspan>
    </text>
  </g>
</g>
  <defs/>
</svg>
