<?xml version="1.0" encoding="UTF-8"?>
<!DOCTYPE svg PUBLIC "-//W3C//DTD SVG 1.1//EN" "http://www.w3.org/Graphics/SVG/1.1/DTD/svg11.dtd">
<svg version="1.1" xmlns="http://www.w3.org/2000/svg" xmlns:xlink="http://www.w3.org/1999/xlink" x="0px" y="0px" width="429" height="514" viewBox="0, 0, 429, 514">
  <g id="Layer 1">
    <g>
      <path d="M0.5,0.5 L229.902,144.968 L229.902,513.456 L0.5,368.988 z" fill="#ABABAB"/>
      <path d="M0.5,0.5 L229.902,144.968 L229.902,513.456 L0.5,368.988 z" fill-opacity="0" stroke="#000000" stroke-width="0.32"/>
    </g>
    <g>
      <path d="M12.266,47.522 L218.137,181.943 L218.137,490.971 L12.266,356.549 z" fill="#D4D4D4"/>
      <path d="M12.266,47.522 L218.137,181.943 L218.137,490.971 L12.266,356.549 z" fill-opacity="0" stroke="#000000" stroke-width="0.32"/>
    </g>
    <g>
      <g>
        <g>
          <path d="M28.863,233.862 L50.09,247.329 L50.09,272.253 L28.863,258.786 z" fill="#FFFFFF"/>
          <path d="M28.863,233.862 L50.09,247.329 L50.09,272.253 L28.863,258.786 z" fill-opacity="0" stroke="#000000" stroke-width="0.32"/>
        </g>
        <g>
          <path d="M50.09,247.329 L60.704,240.596 L60.704,265.52 L50.09,272.253 z" fill="#FFFFFF"/>
          <path d="M50.09,247.329 L60.704,240.596 L60.704,265.52 L50.09,272.253 z" fill-opacity="0" stroke="#000000" stroke-width="0.32"/>
        </g>
        <g>
          <path d="M39.802,227.407 L60.704,240.596 L50.09,247.329 L28.863,233.862 z" fill="#FFFFFF"/>
          <path d="M39.802,227.407 L60.704,240.596 L50.09,247.329 L28.863,233.862 z" fill-opacity="0" stroke="#000000" stroke-width="0.32"/>
        </g>
      </g>
      <g>
        <g>
          <path d="M52.737,248.704 L73.964,262.17 L73.964,287.094 L52.737,273.628 z" fill="#FFFFFF"/>
          <path d="M52.737,248.704 L73.964,262.17 L73.964,287.094 L52.737,273.628 z" fill-opacity="0" stroke="#000000" stroke-width="0.32"/>
        </g>
        <g>
          <path d="M73.964,262.17 L84.577,255.437 L84.577,280.361 L73.964,287.094 z" fill="#FFFFFF"/>
          <path d="M73.964,262.17 L84.577,255.437 L84.577,280.361 L73.964,287.094 z" fill-opacity="0" stroke="#000000" stroke-width="0.32"/>
        </g>
        <g>
          <path d="M63.675,242.249 L84.577,255.437 L73.964,262.17 L52.737,248.704 z" fill="#FFFFFF"/>
          <path d="M63.675,242.249 L84.577,255.437 L73.964,262.17 L52.737,248.704 z" fill-opacity="0" stroke="#000000" stroke-width="0.32"/>
        </g>
      </g>
      <g>
        <g>
          <path d="M76.527,323.553 L97.754,337.02 L97.754,361.944 L76.527,348.477 z" fill="#FFFFFF"/>
          <path d="M76.527,323.553 L97.754,337.02 L97.754,361.944 L76.527,348.477 z" fill-opacity="0" stroke="#000000" stroke-width="0.32"/>
        </g>
        <g>
          <path d="M97.754,337.02 L108.368,330.286 L108.368,355.21 L97.754,361.944 z" fill="#FFFFFF"/>
          <path d="M97.754,337.02 L108.368,330.286 L108.368,355.21 L97.754,361.944 z" fill-opacity="0" stroke="#000000" stroke-width="0.32"/>
        </g>
        <g>
          <path d="M87.466,317.098 L108.368,330.286 L97.754,337.02 L76.527,323.553 z" fill="#FFFFFF"/>
          <path d="M87.466,317.098 L108.368,330.286 L97.754,337.02 L76.527,323.553 z" fill-opacity="0" stroke="#000000" stroke-width="0.32"/>
        </g>
      </g>
      <g>
        <g>
          <path d="M76.527,293.549 L97.754,307.016 L97.754,331.94 L76.527,318.473 z" fill="#FFFFFF"/>
          <path d="M76.527,293.549 L97.754,307.016 L97.754,331.94 L76.527,318.473 z" fill-opacity="0" stroke="#000000" stroke-width="0.32"/>
        </g>
        <g>
          <path d="M97.754,307.016 L108.368,300.282 L108.368,325.206 L97.754,331.94 z" fill="#FFFFFF"/>
          <path d="M97.754,307.016 L108.368,300.282 L108.368,325.206 L97.754,331.94 z" fill-opacity="0" stroke="#000000" stroke-width="0.32"/>
        </g>
        <g>
          <path d="M87.466,287.094 L108.368,300.282 L97.754,307.016 L76.527,293.549 z" fill="#FFFFFF"/>
          <path d="M87.466,287.094 L108.368,300.282 L97.754,307.016 L76.527,293.549 z" fill-opacity="0" stroke="#000000" stroke-width="0.32"/>
        </g>
      </g>
      <g>
        <g>
          <path d="M76.527,264.342 L97.754,277.809 L97.754,302.733 L76.527,289.266 z" fill="#FFFFFF"/>
          <path d="M76.527,264.342 L97.754,277.809 L97.754,302.733 L76.527,289.266 z" fill-opacity="0" stroke="#000000" stroke-width="0.32"/>
        </g>
        <g>
          <path d="M97.754,277.809 L108.368,271.075 L108.368,295.999 L97.754,302.733 z" fill="#FFFFFF"/>
          <path d="M97.754,277.809 L108.368,271.075 L108.368,295.999 L97.754,302.733 z" fill-opacity="0" stroke="#000000" stroke-width="0.32"/>
        </g>
        <g>
          <path d="M87.466,257.887 L108.368,271.075 L97.754,277.809 L76.527,264.342 z" fill="#FFFFFF"/>
          <path d="M87.466,257.887 L108.368,271.075 L97.754,277.809 L76.527,264.342 z" fill-opacity="0" stroke="#000000" stroke-width="0.32"/>
        </g>
      </g>
      <g>
        <g>
          <path d="M101.67,338.284 L122.897,351.75 L122.897,376.674 L101.67,363.208 z" fill="#FFFFFF"/>
          <path d="M101.67,338.284 L122.897,351.75 L122.897,376.674 L101.67,363.208 z" fill-opacity="0" stroke="#000000" stroke-width="0.32"/>
        </g>
        <g>
          <path d="M122.897,351.75 L133.51,345.017 L133.51,369.941 L122.897,376.674 z" fill="#FFFFFF"/>
          <path d="M122.897,351.75 L133.51,345.017 L133.51,369.941 L122.897,376.674 z" fill-opacity="0" stroke="#000000" stroke-width="0.32"/>
        </g>
        <g>
          <path d="M112.608,331.829 L133.51,345.017 L122.897,351.75 L101.67,338.284 z" fill="#FFFFFF"/>
          <path d="M112.608,331.829 L133.51,345.017 L122.897,351.75 L101.67,338.284 z" fill-opacity="0" stroke="#000000" stroke-width="0.32"/>
        </g>
      </g>
      <g>
        <g>
          <path d="M101.67,309.484 L122.897,322.951 L122.897,347.875 L101.67,334.408 z" fill="#FFFFFF"/>
          <path d="M101.67,309.484 L122.897,322.951 L122.897,347.875 L101.67,334.408 z" fill-opacity="0" stroke="#000000" stroke-width="0.32"/>
        </g>
        <g>
          <path d="M122.897,322.951 L133.51,316.218 L133.51,341.142 L122.897,347.875 z" fill="#FFFFFF"/>
          <path d="M122.897,322.951 L133.51,316.218 L133.51,341.142 L122.897,347.875 z" fill-opacity="0" stroke="#000000" stroke-width="0.32"/>
        </g>
        <g>
          <path d="M112.608,303.029 L133.51,316.218 L122.897,322.951 L101.67,309.484 z" fill="#FFFFFF"/>
          <path d="M112.608,303.029 L133.51,316.218 L122.897,322.951 L101.67,309.484 z" fill-opacity="0" stroke="#000000" stroke-width="0.32"/>
        </g>
      </g>
      <g>
        <g>
          <path d="M101.67,280.551 L122.897,294.018 L122.897,318.942 L101.67,305.475 z" fill="#FFFFFF"/>
          <path d="M101.67,280.551 L122.897,294.018 L122.897,318.942 L101.67,305.475 z" fill-opacity="0" stroke="#000000" stroke-width="0.32"/>
        </g>
        <g>
          <path d="M122.897,294.018 L133.51,287.285 L133.51,312.209 L122.897,318.942 z" fill="#FFFFFF"/>
          <path d="M122.897,294.018 L133.51,287.285 L133.51,312.209 L122.897,318.942 z" fill-opacity="0" stroke="#000000" stroke-width="0.32"/>
        </g>
        <g>
          <path d="M112.608,274.096 L133.51,287.285 L122.897,294.018 L101.67,280.551 z" fill="#FFFFFF"/>
          <path d="M112.608,274.096 L133.51,287.285 L122.897,294.018 L101.67,280.551 z" fill-opacity="0" stroke="#000000" stroke-width="0.32"/>
        </g>
      </g>
      <g>
        <g>
          <path d="M125.543,354.33 L146.77,367.796 L146.77,392.72 L125.543,379.254 z" fill="#FFFFFF"/>
          <path d="M125.543,354.33 L146.77,367.796 L146.77,392.72 L125.543,379.254 z" fill-opacity="0" stroke="#000000" stroke-width="0.32"/>
        </g>
        <g>
          <path d="M146.77,367.796 L157.384,361.063 L157.384,385.987 L146.77,392.72 z" fill="#FFFFFF"/>
          <path d="M146.77,367.796 L157.384,361.063 L157.384,385.987 L146.77,392.72 z" fill-opacity="0" stroke="#000000" stroke-width="0.32"/>
        </g>
        <g>
          <path d="M136.481,347.875 L157.384,361.063 L146.77,367.796 L125.543,354.33 z" fill="#FFFFFF"/>
          <path d="M136.481,347.875 L157.384,361.063 L146.77,367.796 L125.543,354.33 z" fill-opacity="0" stroke="#000000" stroke-width="0.32"/>
        </g>
      </g>
      <g>
        <g>
          <path d="M125.543,325.397 L146.77,338.863 L146.77,363.787 L125.543,350.321 z" fill="#FFFFFF"/>
          <path d="M125.543,325.397 L146.77,338.863 L146.77,363.787 L125.543,350.321 z" fill-opacity="0" stroke="#000000" stroke-width="0.32"/>
        </g>
        <g>
          <path d="M146.77,338.863 L157.384,332.13 L157.384,357.054 L146.77,363.787 z" fill="#FFFFFF"/>
          <path d="M146.77,338.863 L157.384,332.13 L157.384,357.054 L146.77,363.787 z" fill-opacity="0" stroke="#000000" stroke-width="0.32"/>
        </g>
        <g>
          <path d="M136.481,318.942 L157.384,332.13 L146.77,338.863 L125.543,325.397 z" fill="#FFFFFF"/>
          <path d="M136.481,318.942 L157.384,332.13 L146.77,338.863 L125.543,325.397 z" fill-opacity="0" stroke="#000000" stroke-width="0.32"/>
        </g>
      </g>
      <g>
        <g>
          <path d="M125.543,295.393 L146.77,308.859 L146.77,333.783 L125.543,320.317 z" fill="#FFFFFF"/>
          <path d="M125.543,295.393 L146.77,308.859 L146.77,333.783 L125.543,320.317 z" fill-opacity="0" stroke="#000000" stroke-width="0.32"/>
        </g>
        <g>
          <path d="M146.77,308.859 L157.384,302.126 L157.384,327.05 L146.77,333.783 z" fill="#FFFFFF"/>
          <path d="M146.77,308.859 L157.384,302.126 L157.384,327.05 L146.77,333.783 z" fill-opacity="0" stroke="#000000" stroke-width="0.32"/>
        </g>
        <g>
          <path d="M136.481,288.938 L157.384,302.126 L146.77,308.859 L125.543,295.393 z" fill="#FFFFFF"/>
          <path d="M136.481,288.938 L157.384,302.126 L146.77,308.859 L125.543,295.393 z" fill-opacity="0" stroke="#000000" stroke-width="0.32"/>
        </g>
      </g>
      <g>
        <g>
          <path d="M149.334,370.242 L170.561,383.709 L170.561,408.633 L149.334,395.166 z" fill="#FFFFFF"/>
          <path d="M149.334,370.242 L170.561,383.709 L170.561,408.633 L149.334,395.166 z" fill-opacity="0" stroke="#000000" stroke-width="0.32"/>
        </g>
        <g>
          <path d="M170.561,383.709 L181.174,376.976 L181.174,401.9 L170.561,408.633 z" fill="#FFFFFF"/>
          <path d="M170.561,383.709 L181.174,376.976 L181.174,401.9 L170.561,408.633 z" fill-opacity="0" stroke="#000000" stroke-width="0.32"/>
        </g>
        <g>
          <path d="M160.272,363.787 L181.174,376.976 L170.561,383.709 L149.334,370.242 z" fill="#FFFFFF"/>
          <path d="M160.272,363.787 L181.174,376.976 L170.561,383.709 L149.334,370.242 z" fill-opacity="0" stroke="#000000" stroke-width="0.32"/>
        </g>
      </g>
      <g>
        <g>
          <path d="M149.334,340.238 L170.561,353.705 L170.561,378.629 L149.334,365.162 z" fill="#FFFFFF"/>
          <path d="M149.334,340.238 L170.561,353.705 L170.561,378.629 L149.334,365.162 z" fill-opacity="0" stroke="#000000" stroke-width="0.32"/>
        </g>
        <g>
          <path d="M170.561,353.705 L181.174,346.972 L181.174,371.896 L170.561,378.629 z" fill="#FFFFFF"/>
          <path d="M170.561,353.705 L181.174,346.972 L181.174,371.896 L170.561,378.629 z" fill-opacity="0" stroke="#000000" stroke-width="0.32"/>
        </g>
        <g>
          <path d="M160.272,333.783 L181.174,346.972 L170.561,353.705 L149.334,340.238 z" fill="#FFFFFF"/>
          <path d="M160.272,333.783 L181.174,346.972 L170.561,353.705 L149.334,340.238 z" fill-opacity="0" stroke="#000000" stroke-width="0.32"/>
        </g>
      </g>
      <g>
        <g>
          <path d="M149.334,311.031 L170.561,324.498 L170.561,349.422 L149.334,335.955 z" fill="#FFFFFF"/>
          <path d="M149.334,311.031 L170.561,324.498 L170.561,349.422 L149.334,335.955 z" fill-opacity="0" stroke="#000000" stroke-width="0.32"/>
        </g>
        <g>
          <path d="M170.561,324.498 L181.174,317.764 L181.174,342.689 L170.561,349.422 z" fill="#FFFFFF"/>
          <path d="M170.561,324.498 L181.174,317.764 L181.174,342.689 L170.561,349.422 z" fill-opacity="0" stroke="#000000" stroke-width="0.32"/>
        </g>
        <g>
          <path d="M160.272,304.576 L181.174,317.764 L170.561,324.498 L149.334,311.031 z" fill="#FFFFFF"/>
          <path d="M160.272,304.576 L181.174,317.764 L170.561,324.498 L149.334,311.031 z" fill-opacity="0" stroke="#000000" stroke-width="0.32"/>
        </g>
      </g>
    </g>
    <g>
      <g>
        <g>
          <path d="M28.863,141.247 L50.09,154.714 L50.09,179.638 L28.863,166.171 z" fill="#FFFFFF"/>
          <path d="M28.863,141.247 L50.09,154.714 L50.09,179.638 L28.863,166.171 z" fill-opacity="0" stroke="#000000" stroke-width="0.32"/>
        </g>
        <g>
          <path d="M50.09,154.714 L60.704,147.981 L60.704,172.905 L50.09,179.638 z" fill="#FFFFFF"/>
          <path d="M50.09,154.714 L60.704,147.981 L60.704,172.905 L50.09,179.638 z" fill-opacity="0" stroke="#000000" stroke-width="0.32"/>
        </g>
        <g>
          <path d="M39.802,134.792 L60.704,147.981 L50.09,154.714 L28.863,141.247 z" fill="#FFFFFF"/>
          <path d="M39.802,134.792 L60.704,147.981 L50.09,154.714 L28.863,141.247 z" fill-opacity="0" stroke="#000000" stroke-width="0.32"/>
        </g>
      </g>
      <g>
        <g>
          <path d="M52.737,156.089 L73.964,169.555 L73.964,194.479 L52.737,181.013 z" fill="#FFFFFF"/>
          <path d="M52.737,156.089 L73.964,169.555 L73.964,194.479 L52.737,181.013 z" fill-opacity="0" stroke="#000000" stroke-width="0.32"/>
        </g>
        <g>
          <path d="M73.964,169.555 L84.577,162.822 L84.577,187.746 L73.964,194.479 z" fill="#FFFFFF"/>
          <path d="M73.964,169.555 L84.577,162.822 L84.577,187.746 L73.964,194.479 z" fill-opacity="0" stroke="#000000" stroke-width="0.32"/>
        </g>
        <g>
          <path d="M63.675,149.634 L84.577,162.822 L73.964,169.555 L52.737,156.089 z" fill="#FFFFFF"/>
          <path d="M63.675,149.634 L84.577,162.822 L73.964,169.555 L52.737,156.089 z" fill-opacity="0" stroke="#000000" stroke-width="0.32"/>
        </g>
      </g>
      <g>
        <g>
          <path d="M76.527,230.938 L97.754,244.405 L97.754,269.329 L76.527,255.862 z" fill="#FFFFFF"/>
          <path d="M76.527,230.938 L97.754,244.405 L97.754,269.329 L76.527,255.862 z" fill-opacity="0" stroke="#000000" stroke-width="0.32"/>
        </g>
        <g>
          <path d="M97.754,244.405 L108.368,237.671 L108.368,262.595 L97.754,269.329 z" fill="#FFFFFF"/>
          <path d="M97.754,244.405 L108.368,237.671 L108.368,262.595 L97.754,269.329 z" fill-opacity="0" stroke="#000000" stroke-width="0.32"/>
        </g>
        <g>
          <path d="M87.466,224.483 L108.368,237.671 L97.754,244.405 L76.527,230.938 z" fill="#FFFFFF"/>
          <path d="M87.466,224.483 L108.368,237.671 L97.754,244.405 L76.527,230.938 z" fill-opacity="0" stroke="#000000" stroke-width="0.32"/>
        </g>
      </g>
      <g>
        <g>
          <path d="M76.527,200.934 L97.754,214.401 L97.754,239.325 L76.527,225.858 z" fill="#FFFFFF"/>
          <path d="M76.527,200.934 L97.754,214.401 L97.754,239.325 L76.527,225.858 z" fill-opacity="0" stroke="#000000" stroke-width="0.32"/>
        </g>
        <g>
          <path d="M97.754,214.401 L108.368,207.667 L108.368,232.591 L97.754,239.325 z" fill="#FFFFFF"/>
          <path d="M97.754,214.401 L108.368,207.667 L108.368,232.591 L97.754,239.325 z" fill-opacity="0" stroke="#000000" stroke-width="0.32"/>
        </g>
        <g>
          <path d="M87.466,194.479 L108.368,207.667 L97.754,214.401 L76.527,200.934 z" fill="#FFFFFF"/>
          <path d="M87.466,194.479 L108.368,207.667 L97.754,214.401 L76.527,200.934 z" fill-opacity="0" stroke="#000000" stroke-width="0.32"/>
        </g>
      </g>
      <g>
        <g>
          <path d="M76.527,171.727 L97.754,185.194 L97.754,210.118 L76.527,196.651 z" fill="#FFFFFF"/>
          <path d="M76.527,171.727 L97.754,185.194 L97.754,210.118 L76.527,196.651 z" fill-opacity="0" stroke="#000000" stroke-width="0.32"/>
        </g>
        <g>
          <path d="M97.754,185.194 L108.368,178.46 L108.368,203.384 L97.754,210.118 z" fill="#FFFFFF"/>
          <path d="M97.754,185.194 L108.368,178.46 L108.368,203.384 L97.754,210.118 z" fill-opacity="0" stroke="#000000" stroke-width="0.32"/>
        </g>
        <g>
          <path d="M87.466,165.272 L108.368,178.46 L97.754,185.194 L76.527,171.727 z" fill="#FFFFFF"/>
          <path d="M87.466,165.272 L108.368,178.46 L97.754,185.194 L76.527,171.727 z" fill-opacity="0" stroke="#000000" stroke-width="0.32"/>
        </g>
      </g>
      <g>
        <g>
          <path d="M101.67,245.669 L122.897,259.135 L122.897,284.059 L101.67,270.593 z" fill="#FFFFFF"/>
          <path d="M101.67,245.669 L122.897,259.135 L122.897,284.059 L101.67,270.593 z" fill-opacity="0" stroke="#000000" stroke-width="0.32"/>
        </g>
        <g>
          <path d="M122.897,259.135 L133.51,252.402 L133.51,277.326 L122.897,284.059 z" fill="#FFFFFF"/>
          <path d="M122.897,259.135 L133.51,252.402 L133.51,277.326 L122.897,284.059 z" fill-opacity="0" stroke="#000000" stroke-width="0.32"/>
        </g>
        <g>
          <path d="M112.608,239.214 L133.51,252.402 L122.897,259.135 L101.67,245.669 z" fill="#FFFFFF"/>
          <path d="M112.608,239.214 L133.51,252.402 L122.897,259.135 L101.67,245.669 z" fill-opacity="0" stroke="#000000" stroke-width="0.32"/>
        </g>
      </g>
      <g>
        <g>
          <path d="M101.67,216.869 L122.897,230.336 L122.897,255.26 L101.67,241.793 z" fill="#FFFFFF"/>
          <path d="M101.67,216.869 L122.897,230.336 L122.897,255.26 L101.67,241.793 z" fill-opacity="0" stroke="#000000" stroke-width="0.32"/>
        </g>
        <g>
          <path d="M122.897,230.336 L133.51,223.603 L133.51,248.527 L122.897,255.26 z" fill="#FFFFFF"/>
          <path d="M122.897,230.336 L133.51,223.603 L133.51,248.527 L122.897,255.26 z" fill-opacity="0" stroke="#000000" stroke-width="0.32"/>
        </g>
        <g>
          <path d="M112.608,210.415 L133.51,223.603 L122.897,230.336 L101.67,216.869 z" fill="#FFFFFF"/>
          <path d="M112.608,210.415 L133.51,223.603 L122.897,230.336 L101.67,216.869 z" fill-opacity="0" stroke="#000000" stroke-width="0.32"/>
        </g>
      </g>
      <g>
        <g>
          <path d="M101.67,187.936 L122.897,201.403 L122.897,226.327 L101.67,212.86 z" fill="#FFFFFF"/>
          <path d="M101.67,187.936 L122.897,201.403 L122.897,226.327 L101.67,212.86 z" fill-opacity="0" stroke="#000000" stroke-width="0.32"/>
        </g>
        <g>
          <path d="M122.897,201.403 L133.51,194.67 L133.51,219.594 L122.897,226.327 z" fill="#FFFFFF"/>
          <path d="M122.897,201.403 L133.51,194.67 L133.51,219.594 L122.897,226.327 z" fill-opacity="0" stroke="#000000" stroke-width="0.32"/>
        </g>
        <g>
          <path d="M112.608,181.481 L133.51,194.67 L122.897,201.403 L101.67,187.936 z" fill="#FFFFFF"/>
          <path d="M112.608,181.481 L133.51,194.67 L122.897,201.403 L101.67,187.936 z" fill-opacity="0" stroke="#000000" stroke-width="0.32"/>
        </g>
      </g>
      <g>
        <g>
          <path d="M125.543,261.715 L146.77,275.181 L146.77,300.105 L125.543,286.639 z" fill="#FFFFFF"/>
          <path d="M125.543,261.715 L146.77,275.181 L146.77,300.105 L125.543,286.639 z" fill-opacity="0" stroke="#000000" stroke-width="0.32"/>
        </g>
        <g>
          <path d="M146.77,275.181 L157.384,268.448 L157.384,293.372 L146.77,300.105 z" fill="#FFFFFF"/>
          <path d="M146.77,275.181 L157.384,268.448 L157.384,293.372 L146.77,300.105 z" fill-opacity="0" stroke="#000000" stroke-width="0.32"/>
        </g>
        <g>
          <path d="M136.481,255.26 L157.384,268.448 L146.77,275.181 L125.543,261.715 z" fill="#FFFFFF"/>
          <path d="M136.481,255.26 L157.384,268.448 L146.77,275.181 L125.543,261.715 z" fill-opacity="0" stroke="#000000" stroke-width="0.32"/>
        </g>
      </g>
      <g>
        <g>
          <path d="M125.543,232.782 L146.77,246.248 L146.77,271.172 L125.543,257.706 z" fill="#FFFFFF"/>
          <path d="M125.543,232.782 L146.77,246.248 L146.77,271.172 L125.543,257.706 z" fill-opacity="0" stroke="#000000" stroke-width="0.32"/>
        </g>
        <g>
          <path d="M146.77,246.248 L157.384,239.515 L157.384,264.439 L146.77,271.172 z" fill="#FFFFFF"/>
          <path d="M146.77,246.248 L157.384,239.515 L157.384,264.439 L146.77,271.172 z" fill-opacity="0" stroke="#000000" stroke-width="0.32"/>
        </g>
        <g>
          <path d="M136.481,226.327 L157.384,239.515 L146.77,246.248 L125.543,232.782 z" fill="#FFFFFF"/>
          <path d="M136.481,226.327 L157.384,239.515 L146.77,246.248 L125.543,232.782 z" fill-opacity="0" stroke="#000000" stroke-width="0.32"/>
        </g>
      </g>
      <g>
        <g>
          <path d="M125.543,202.778 L146.77,216.244 L146.77,241.168 L125.543,227.702 z" fill="#FFFFFF"/>
          <path d="M125.543,202.778 L146.77,216.244 L146.77,241.168 L125.543,227.702 z" fill-opacity="0" stroke="#000000" stroke-width="0.32"/>
        </g>
        <g>
          <path d="M146.77,216.244 L157.384,209.511 L157.384,234.435 L146.77,241.168 z" fill="#FFFFFF"/>
          <path d="M146.77,216.244 L157.384,209.511 L157.384,234.435 L146.77,241.168 z" fill-opacity="0" stroke="#000000" stroke-width="0.32"/>
        </g>
        <g>
          <path d="M136.481,196.323 L157.384,209.511 L146.77,216.244 L125.543,202.778 z" fill="#FFFFFF"/>
          <path d="M136.481,196.323 L157.384,209.511 L146.77,216.244 L125.543,202.778 z" fill-opacity="0" stroke="#000000" stroke-width="0.32"/>
        </g>
      </g>
      <g>
        <g>
          <path d="M149.334,277.627 L170.561,291.094 L170.561,316.018 L149.334,302.551 z" fill="#FFFFFF"/>
          <path d="M149.334,277.627 L170.561,291.094 L170.561,316.018 L149.334,302.551 z" fill-opacity="0" stroke="#000000" stroke-width="0.32"/>
        </g>
        <g>
          <path d="M170.561,291.094 L181.174,284.361 L181.174,309.285 L170.561,316.018 z" fill="#FFFFFF"/>
          <path d="M170.561,291.094 L181.174,284.361 L181.174,309.285 L170.561,316.018 z" fill-opacity="0" stroke="#000000" stroke-width="0.32"/>
        </g>
        <g>
          <path d="M160.272,271.172 L181.174,284.361 L170.561,291.094 L149.334,277.627 z" fill="#FFFFFF"/>
          <path d="M160.272,271.172 L181.174,284.361 L170.561,291.094 L149.334,277.627 z" fill-opacity="0" stroke="#000000" stroke-width="0.32"/>
        </g>
      </g>
      <g>
        <g>
          <path d="M149.334,247.623 L170.561,261.09 L170.561,286.014 L149.334,272.547 z" fill="#FFFFFF"/>
          <path d="M149.334,247.623 L170.561,261.09 L170.561,286.014 L149.334,272.547 z" fill-opacity="0" stroke="#000000" stroke-width="0.32"/>
        </g>
        <g>
          <path d="M170.561,261.09 L181.174,254.357 L181.174,279.281 L170.561,286.014 z" fill="#FFFFFF"/>
          <path d="M170.561,261.09 L181.174,254.357 L181.174,279.281 L170.561,286.014 z" fill-opacity="0" stroke="#000000" stroke-width="0.32"/>
        </g>
        <g>
          <path d="M160.272,241.169 L181.174,254.357 L170.561,261.09 L149.334,247.623 z" fill="#FFFFFF"/>
          <path d="M160.272,241.169 L181.174,254.357 L170.561,261.09 L149.334,247.623 z" fill-opacity="0" stroke="#000000" stroke-width="0.32"/>
        </g>
      </g>
      <g>
        <g>
          <path d="M149.334,218.416 L170.561,231.883 L170.561,256.807 L149.334,243.34 z" fill="#FFFFFF"/>
          <path d="M149.334,218.416 L170.561,231.883 L170.561,256.807 L149.334,243.34 z" fill-opacity="0" stroke="#000000" stroke-width="0.32"/>
        </g>
        <g>
          <path d="M170.561,231.883 L181.174,225.15 L181.174,250.074 L170.561,256.807 z" fill="#FFFFFF"/>
          <path d="M170.561,231.883 L181.174,225.15 L181.174,250.074 L170.561,256.807 z" fill-opacity="0" stroke="#000000" stroke-width="0.32"/>
        </g>
        <g>
          <path d="M160.272,211.961 L181.174,225.15 L170.561,231.883 L149.334,218.416 z" fill="#FFFFFF"/>
          <path d="M160.272,211.961 L181.174,225.15 L170.561,231.883 L149.334,218.416 z" fill-opacity="0" stroke="#000000" stroke-width="0.32"/>
        </g>
      </g>
    </g>
    <g>
      <g>
        <g>
          <path d="M28.863,108.545 L50.09,122.012 L50.09,146.936 L28.863,133.469 z" fill="#FFFFFF"/>
          <path d="M28.863,108.545 L50.09,122.012 L50.09,146.936 L28.863,133.469 z" fill-opacity="0" stroke="#000000" stroke-width="0.32"/>
        </g>
        <g>
          <path d="M50.09,122.012 L60.704,115.279 L60.704,140.203 L50.09,146.936 z" fill="#FFFFFF"/>
          <path d="M50.09,122.012 L60.704,115.279 L60.704,140.203 L50.09,146.936 z" fill-opacity="0" stroke="#000000" stroke-width="0.32"/>
        </g>
        <g>
          <path d="M39.802,102.09 L60.704,115.279 L50.09,122.012 L28.863,108.545 z" fill="#FFFFFF"/>
          <path d="M39.802,102.09 L60.704,115.279 L50.09,122.012 L28.863,108.545 z" fill-opacity="0" stroke="#000000" stroke-width="0.32"/>
        </g>
      </g>
      <g>
        <g>
          <path d="M52.737,123.387 L73.964,136.853 L73.964,161.777 L52.737,148.311 z" fill="#FFFFFF"/>
          <path d="M52.737,123.387 L73.964,136.853 L73.964,161.777 L52.737,148.311 z" fill-opacity="0" stroke="#000000" stroke-width="0.32"/>
        </g>
        <g>
          <path d="M73.964,136.853 L84.577,130.12 L84.577,155.044 L73.964,161.777 z" fill="#FFFFFF"/>
          <path d="M73.964,136.853 L84.577,130.12 L84.577,155.044 L73.964,161.777 z" fill-opacity="0" stroke="#000000" stroke-width="0.32"/>
        </g>
        <g>
          <path d="M63.675,116.932 L84.577,130.12 L73.964,136.853 L52.737,123.387 z" fill="#FFFFFF"/>
          <path d="M63.675,116.932 L84.577,130.12 L73.964,136.853 L52.737,123.387 z" fill-opacity="0" stroke="#000000" stroke-width="0.32"/>
        </g>
      </g>
      <g>
        <g>
          <path d="M76.527,139.025 L97.754,152.492 L97.754,177.416 L76.527,163.949 z" fill="#FFFFFF"/>
          <path d="M76.527,139.025 L97.754,152.492 L97.754,177.416 L76.527,163.949 z" fill-opacity="0" stroke="#000000" stroke-width="0.32"/>
        </g>
        <g>
          <path d="M97.754,152.492 L108.368,145.758 L108.368,170.682 L97.754,177.416 z" fill="#FFFFFF"/>
          <path d="M97.754,152.492 L108.368,145.758 L108.368,170.682 L97.754,177.416 z" fill-opacity="0" stroke="#000000" stroke-width="0.32"/>
        </g>
        <g>
          <path d="M87.466,132.57 L108.368,145.758 L97.754,152.492 L76.527,139.025 z" fill="#FFFFFF"/>
          <path d="M87.466,132.57 L108.368,145.758 L97.754,152.492 L76.527,139.025 z" fill-opacity="0" stroke="#000000" stroke-width="0.32"/>
        </g>
      </g>
      <g>
        <g>
          <path d="M101.67,155.234 L122.897,168.701 L122.897,193.625 L101.67,180.158 z" fill="#FFFFFF"/>
          <path d="M101.67,155.234 L122.897,168.701 L122.897,193.625 L101.67,180.158 z" fill-opacity="0" stroke="#000000" stroke-width="0.32"/>
        </g>
        <g>
          <path d="M122.897,168.701 L133.51,161.968 L133.51,186.892 L122.897,193.625 z" fill="#FFFFFF"/>
          <path d="M122.897,168.701 L133.51,161.968 L133.51,186.892 L122.897,193.625 z" fill-opacity="0" stroke="#000000" stroke-width="0.32"/>
        </g>
        <g>
          <path d="M112.608,148.779 L133.51,161.968 L122.897,168.701 L101.67,155.234 z" fill="#FFFFFF"/>
          <path d="M112.608,148.779 L133.51,161.968 L122.897,168.701 L101.67,155.234 z" fill-opacity="0" stroke="#000000" stroke-width="0.32"/>
        </g>
      </g>
      <g>
        <g>
          <path d="M125.543,170.076 L146.77,183.542 L146.77,208.466 L125.543,195 z" fill="#FFFFFF"/>
          <path d="M125.543,170.076 L146.77,183.542 L146.77,208.466 L125.543,195 z" fill-opacity="0" stroke="#000000" stroke-width="0.32"/>
        </g>
        <g>
          <path d="M146.77,183.542 L157.384,176.809 L157.384,201.733 L146.77,208.466 z" fill="#FFFFFF"/>
          <path d="M146.77,183.542 L157.384,176.809 L157.384,201.733 L146.77,208.466 z" fill-opacity="0" stroke="#000000" stroke-width="0.32"/>
        </g>
        <g>
          <path d="M136.481,163.621 L157.384,176.809 L146.77,183.542 L125.543,170.076 z" fill="#FFFFFF"/>
          <path d="M136.481,163.621 L157.384,176.809 L146.77,183.542 L125.543,170.076 z" fill-opacity="0" stroke="#000000" stroke-width="0.32"/>
        </g>
      </g>
      <g>
        <g>
          <path d="M149.334,185.714 L170.561,199.181 L170.561,224.105 L149.334,210.638 z" fill="#FFFFFF"/>
          <path d="M149.334,185.714 L170.561,199.181 L170.561,224.105 L149.334,210.638 z" fill-opacity="0" stroke="#000000" stroke-width="0.32"/>
        </g>
        <g>
          <path d="M170.561,199.181 L181.174,192.448 L181.174,217.372 L170.561,224.105 z" fill="#FFFFFF"/>
          <path d="M170.561,199.181 L181.174,192.448 L181.174,217.372 L170.561,224.105 z" fill-opacity="0" stroke="#000000" stroke-width="0.32"/>
        </g>
        <g>
          <path d="M160.272,179.259 L181.174,192.448 L170.561,199.181 L149.334,185.714 z" fill="#FFFFFF"/>
          <path d="M160.272,179.259 L181.174,192.448 L170.561,199.181 L149.334,185.714 z" fill-opacity="0" stroke="#000000" stroke-width="0.32"/>
        </g>
      </g>
    </g>
    <g>
      <path d="M348.673,34.109 L416.29,34.109 C422.918,34.109 428.29,39.482 428.29,46.109 L428.29,53.16 C428.29,59.788 422.918,65.16 416.29,65.16 L348.673,65.16 C342.046,65.16 336.673,59.788 336.673,53.16 L336.673,46.109 C336.673,39.482 342.046,34.109 348.673,34.109 z" fill="#ABABAB"/>
      <text transform="matrix(1, 0, 0, 1, 382.482, 49.635)">
        <tspan x="-24.334" y="3.513" font-family="Helvetica-Bold" font-size="12" fill="#000000">Partition</tspan>
      </text>
    </g>
    <g>
      <path d="M348.673,128.305 L416.29,128.305 C422.918,128.305 428.29,133.678 428.29,140.305 L428.29,147.356 C428.29,153.984 422.918,159.356 416.29,159.356 L348.673,159.356 C342.046,159.356 336.673,153.984 336.673,147.356 L336.673,140.305 C336.673,133.678 342.046,128.305 348.673,128.305 z" fill="#D4D4D4"/>
      <text transform="matrix(1, 0, 0, 1, 382.482, 143.831)">
        <tspan x="-15.229" y="3.513" font-family="Helvetica-Bold" font-size="12" fill="#000000">Table</tspan>
      </text>
    </g>
    <g>
      <path d="M382.558,65.66 L383.244,119.806" fill-opacity="0" stroke="#000000" stroke-width="1"/>
      <path d="M380.244,119.844 L383.345,127.806 L386.244,119.768 z" fill="#000000" fill-opacity="1" stroke="#000000" stroke-width="1" stroke-opacity="1"/>
    </g>
    <text transform="matrix(1, 0, 0, 1, 400.763, 93.59)">
      <tspan x="-12.337" y="4" font-family="Helvetica-Bold" font-size="12" fill="#000000">item</tspan>
    </text>
    <g>
      <path d="M121.762,65.839 C152.039,33.829 265.408,29.176 337.173,46.609" fill-opacity="0" stroke="#000000" stroke-width="1"/>
      <path d="M119.315,64.103 L117.133,72.364 L124.209,67.575 z" fill="#000000" fill-opacity="1" stroke="#000000" stroke-width="1" stroke-opacity="1"/>
    </g>
    <g>
      <path d="M154.754,97.467 C202.307,66.563 259.75,57.924 373.799,84.043" fill-opacity="0" stroke="#000000" stroke-width="1"/>
      <path d="M373.116,86.964 L381.589,85.864 L374.482,81.121 z" fill="#000000" fill-opacity="1" stroke="#000000" stroke-width="1" stroke-opacity="1"/>
    </g>
    <g>
      <path d="M383.358,159.856 C383.358,213.673 316.932,257.627 227.13,260.389" fill-opacity="0" stroke="#000000" stroke-width="1"/>
      <path d="M227.084,257.389 L219.131,260.512 L227.176,263.389 z" fill="#000000" fill-opacity="1" stroke="#000000" stroke-width="1" stroke-opacity="1"/>
    </g>
    <text transform="matrix(1, 0, 0, 1, 236.891, 26.109)">
      <tspan x="-64.031" y="4" font-family="Helvetica" font-size="12" fill="#000000">1. getElementsByType()</tspan>
    </text>
    <text transform="matrix(1, 0, 0, 1, 260.937, 84.524)">
      <tspan x="-50.256" y="4" font-family="Helvetica" font-size="12" fill="#000000">2. data.getValues()</tspan>
    </text>
    <text transform="matrix(1, 0, 0, 1, 342.066, 264.622)">
      <tspan x="-71.033" y="4" font-family="Helvetica" font-size="12" fill="#000000">3. getElementsBySubject()</tspan>
    </text>
  </g>
  <defs/>
</svg>
