<svg version="1.1" viewBox="0.0 0.0 600.0 371.0" fill="none" stroke="none" stroke-linecap="square" stroke-miterlimit="10" width="600" height="371" xmlns:xlink="http://www.w3.org/1999/xlink" xmlns="http://www.w3.org/2000/svg"><path fill="#ffffff" d="M0 0L600.0 0L600.0 371.0L0 371.0L0 0Z" fill-rule="nonzero"/><path stroke="#cccccc" stroke-width="1.0" stroke-linecap="butt" d="M72.5 318.5L581.5 318.5" fill-rule="nonzero"/><path stroke="#cccccc" stroke-width="1.0" stroke-linecap="butt" d="M72.5 245.5L581.5 245.5" fill-rule="nonzero"/><path stroke="#cccccc" stroke-width="1.0" stroke-linecap="butt" d="M72.5 172.5L581.5 172.5" fill-rule="nonzero"/><path stroke="#cccccc" stroke-width="1.0" stroke-linecap="butt" d="M72.5 98.5L581.5 98.5" fill-rule="nonzero"/><path stroke="#cccccc" stroke-width="1.0" stroke-linecap="butt" d="M72.5 25.5L581.5 25.5" fill-rule="nonzero"/><clipPath id="id_0"><path d="M72.55 25.55L581.45 25.55L581.45 318.45L72.55 318.45L72.55 25.55Z" clip-rule="nonzero"/></clipPath><path stroke="#4285f4" stroke-width="2.0" stroke-linecap="butt" clip-path="url(#id_0)" d="M136.757 25.55L136.757 299.00354" fill-rule="nonzero"/><path stroke="#4285f4" stroke-width="2.0" stroke-linecap="butt" clip-path="url(#id_0)" d="M136.757 318.45L136.757 30.44169" fill-rule="nonzero"/><path fill="#4285f4" clip-path="url(#id_0)" d="M104.84252 29.44169L168.6715 29.44169L168.6715 300.0035L104.84252 300.0035L104.84252 29.44169Z" fill-rule="nonzero"/><path stroke="#4285f4" stroke-width="2.0" stroke-linecap="butt" clip-path="url(#id_0)" d="M231.87851 25.55L231.87851 286.8144" fill-rule="nonzero"/><path stroke="#4285f4" stroke-width="2.0" stroke-linecap="butt" clip-path="url(#id_0)" d="M231.87851 318.45L231.87851 168.41142" fill-rule="nonzero"/><path fill="#4285f4" clip-path="url(#id_0)" d="M199.96402 167.41142L263.793 167.41142L263.793 287.8144L199.96402 287.8144L199.96402 167.41142Z" fill-rule="nonzero"/><path stroke="#4285f4" stroke-width="2.0" stroke-linecap="butt" clip-path="url(#id_0)" d="M327.0 25.55L327.0 175.70886" fill-rule="nonzero"/><path stroke="#4285f4" stroke-width="2.0" stroke-linecap="butt" clip-path="url(#id_0)" d="M327.0 318.45L327.0 42.670918" fill-rule="nonzero"/><path fill="#4285f4" clip-path="url(#id_0)" d="M295.0855 41.670918L358.9145 41.670918L358.9145 176.70886L295.0855 176.70886L295.0855 41.670918Z" fill-rule="nonzero"/><path stroke="#4285f4" stroke-width="2.0" stroke-linecap="butt" clip-path="url(#id_0)" d="M422.1215 25.55L422.1215 218.41092" fill-rule="nonzero"/><path stroke="#4285f4" stroke-width="2.0" stroke-linecap="butt" clip-path="url(#id_0)" d="M422.1215 318.45L422.1215 76.87266" fill-rule="nonzero"/><path fill="#4285f4" clip-path="url(#id_0)" d="M390.207 75.87266L454.03598 75.87266L454.03598 219.41092L390.207 219.41092L390.207 75.87266Z" fill-rule="nonzero"/><path stroke="#4285f4" stroke-width="2.0" stroke-linecap="butt" clip-path="url(#id_0)" d="M517.243 25.55L517.243 234.28886" fill-rule="nonzero"/><path stroke="#4285f4" stroke-width="2.0" stroke-linecap="butt" clip-path="url(#id_0)" d="M517.243 318.45L517.243 65.8864" fill-rule="nonzero"/><path fill="#4285f4" clip-path="url(#id_0)" d="M485.3285 64.8864L549.1575 64.8864L549.1575 235.28886L485.3285 235.28886L485.3285 64.8864Z" fill-rule="nonzero"/><path fill="#000000" d="M23.01875 322.45L21.971874 322.45L21.971874 315.73126Q21.58125 316.09064 20.95625 316.46564Q20.346874 316.825 19.8625 316.9969L19.8625 315.98126Q20.7375 315.5594 21.39375 314.98126Q22.065624 314.3875 22.346874 313.825L23.01875 313.825L23.01875 322.45ZM25.55 322.59064L28.034374 313.71564L28.878124 313.71564L26.39375 322.59064L25.55 322.59064ZM33.01875 322.45L31.971874 322.45L31.971874 315.73126Q31.58125 316.09064 30.95625 316.46564Q30.346874 316.825 29.8625 316.9969L29.8625 315.98126Q30.7375 315.5594 31.39375 314.98126Q32.065624 314.3875 32.346874 313.825L33.01875 313.825L33.01875 322.45ZM35.55 322.59064L38.034374 313.71564L38.878124 313.71564L36.39375 322.59064L35.55 322.59064ZM44.596874 321.4344L44.596874 322.45L38.909374 322.45Q38.909374 322.075 39.034374 321.71564Q39.253124 321.1375 39.721874 320.575Q40.20625 320.0125 41.1125 319.27814Q42.51875 318.1219 43.003124 317.45Q43.503124 316.77814 43.503124 316.1844Q43.503124 315.5594 43.05 315.1375Q42.596874 314.7 41.878124 314.7Q41.1125 314.7 40.659374 315.15314Q40.20625 315.60626 40.190624 316.41876L39.1125 316.3094Q39.221874 315.09064 39.940624 314.46564Q40.675 313.825 41.909374 313.825Q43.14375 313.825 43.8625 314.5125Q44.58125 315.2 44.58125 316.21564Q44.58125 316.73126 44.3625 317.23126Q44.159374 317.71564 43.659374 318.27814Q43.175 318.825 42.05 319.77814Q41.096874 320.575 40.815624 320.8719Q40.55 321.15314 40.378124 321.4344L44.596874 321.4344ZM46.05 318.21564Q46.05 316.6844 46.3625 315.7625Q46.675 314.825 47.284374 314.325Q47.909374 313.825 48.846874 313.825Q49.534374 313.825 50.05 314.10626Q50.58125 314.3875 50.925 314.91876Q51.26875 315.4344 51.45625 316.1844Q51.64375 316.9344 51.64375 318.21564Q51.64375 319.73126 51.33125 320.65314Q51.034374 321.575 50.409374 322.09064Q49.8 322.59064 48.846874 322.59064Q47.6125 322.59064 46.89375 321.7Q46.05 320.6375 46.05 318.21564ZM47.128124 318.21564Q47.128124 320.325 47.628124 321.02814Q48.128124 321.73126 48.846874 321.73126Q49.58125 321.73126 50.065624 321.02814Q50.565624 320.325 50.565624 318.21564Q50.565624 316.09064 50.065624 315.40314Q49.58125 314.7 48.83125 314.7Q48.1125 314.7 47.675 315.3094Q47.128124 316.09064 47.128124 318.21564ZM53.05 318.21564Q53.05 316.6844 53.3625 315.7625Q53.675 314.825 54.284374 314.325Q54.909374 313.825 55.846874 313.825Q56.534374 313.825 57.05 314.10626Q57.58125 314.3875 57.925 314.91876Q58.26875 315.4344 58.45625 316.1844Q58.64375 316.9344 58.64375 318.21564Q58.64375 319.73126 58.33125 320.65314Q58.034374 321.575 57.409374 322.09064Q56.8 322.59064 55.846874 322.59064Q54.6125 322.59064 53.89375 321.7Q53.05 320.6375 53.05 318.21564ZM54.128124 318.21564Q54.128124 320.325 54.628124 321.02814Q55.128124 321.73126 55.846874 321.73126Q56.58125 321.73126 57.065624 321.02814Q57.565624 320.325 57.565624 318.21564Q57.565624 316.09064 57.065624 315.40314Q56.58125 314.7 55.83125 314.7Q55.1125 314.7 54.675 315.3094Q54.128124 316.09064 54.128124 318.21564ZM60.05 320.2L61.159374 320.10626Q61.284374 320.91876 61.721874 321.325Q62.175 321.73126 62.815624 321.73126Q63.565624 321.73126 64.09688 321.15314Q64.62813 320.575 64.62813 319.6375Q64.62813 318.73126 64.1125 318.21564Q63.6125 317.6844 62.784374 317.6844Q62.284374 317.6844 61.8625 317.91876Q61.45625 318.15314 61.221874 318.5125L60.2375 318.3875L61.065624 313.98126L65.34688 313.98126L65.34688 314.98126L61.909374 314.98126L61.45625 317.29376Q62.221874 316.7469 63.065624 316.7469Q64.19063 316.7469 64.95625 317.52814Q65.7375 318.3094 65.7375 319.54376Q65.7375 320.7 65.06563 321.5594Q64.2375 322.59064 62.815624 322.59064Q61.64375 322.59064 60.89375 321.9344Q60.159374 321.27814 60.05 320.2Z" fill-rule="nonzero"/><path fill="#000000" d="M23.01875 249.23503L21.971874 249.23503L21.971874 242.51628Q21.58125 242.87566 20.95625 243.25066Q20.346874 243.61003 19.8625 243.7819L19.8625 242.76628Q20.7375 242.3444 21.39375 241.76628Q22.065624 241.17253 22.346874 240.61003L23.01875 240.61003L23.01875 249.23503ZM25.55 249.37566L28.034374 240.50066L28.878124 240.50066L26.39375 249.37566L25.55 249.37566ZM33.01875 249.23503L31.971874 249.23503L31.971874 242.51628Q31.58125 242.87566 30.95625 243.25066Q30.346874 243.61003 29.8625 243.7819L29.8625 242.76628Q30.7375 242.3444 31.39375 241.76628Q32.065624 241.17253 32.346874 240.61003L33.01875 240.61003L33.01875 249.23503ZM35.55 249.37566L38.034374 240.50066L38.878124 240.50066L36.39375 249.37566L35.55 249.37566ZM44.596874 248.2194L44.596874 249.23503L38.909374 249.23503Q38.909374 248.86003 39.034374 248.50066Q39.253124 247.92253 39.721874 247.36003Q40.20625 246.79753 41.1125 246.06316Q42.51875 244.9069 43.003124 244.23503Q43.503124 243.56316 43.503124 242.9694Q43.503124 242.3444 43.05 241.92253Q42.596874 241.48503 41.878124 241.48503Q41.1125 241.48503 40.659374 241.93816Q40.20625 242.39128 40.190624 243.20378L39.1125 243.0944Q39.221874 241.87566 39.940624 241.25066Q40.675 240.61003 41.909374 240.61003Q43.14375 240.61003 43.8625 241.29753Q44.58125 241.98503 44.58125 243.00066Q44.58125 243.51628 44.3625 244.01628Q44.159374 244.50066 43.659374 245.06316Q43.175 245.61003 42.05 246.56316Q41.096874 247.36003 40.815624 247.6569Q40.55 247.93816 40.378124 248.2194L44.596874 248.2194ZM46.05 245.00066Q46.05 243.4694 46.3625 242.54753Q46.675 241.61003 47.284374 241.11003Q47.909374 240.61003 48.846874 240.61003Q49.534374 240.61003 50.05 240.89128Q50.58125 241.17253 50.925 241.70378Q51.26875 242.2194 51.45625 242.9694Q51.64375 243.7194 51.64375 245.00066Q51.64375 246.51628 51.33125 247.43816Q51.034374 248.36003 50.409374 248.87566Q49.8 249.37566 48.846874 249.37566Q47.6125 249.37566 46.89375 248.48503Q46.05 247.42253 46.05 245.00066ZM47.128124 245.00066Q47.128124 247.11003 47.628124 247.81316Q48.128124 248.51628 48.846874 248.51628Q49.58125 248.51628 50.065624 247.81316Q50.565624 247.11003 50.565624 245.00066Q50.565624 242.87566 50.065624 242.18816Q49.58125 241.48503 48.83125 241.48503Q48.1125 241.48503 47.675 242.0944Q47.128124 242.87566 47.128124 245.00066ZM57.01875 249.23503L55.971874 249.23503L55.971874 242.51628Q55.58125 242.87566 54.95625 243.25066Q54.346874 243.61003 53.8625 243.7819L53.8625 242.76628Q54.7375 242.3444 55.39375 241.76628Q56.065624 241.17253 56.346874 240.61003L57.01875 240.61003L57.01875 249.23503ZM60.05 245.00066Q60.05 243.4694 60.3625 242.54753Q60.675 241.61003 61.284374 241.11003Q61.909374 240.61003 62.846874 240.61003Q63.534374 240.61003 64.05 240.89128Q64.58125 241.17253 64.925 241.70378Q65.26875 242.2194 65.45625 242.9694Q65.64375 243.7194 65.64375 245.00066Q65.64375 246.51628 65.33125 247.43816Q65.03438 248.36003 64.40938 248.87566Q63.8 249.37566 62.846874 249.37566Q61.6125 249.37566 60.89375 248.48503Q60.05 247.42253 60.05 245.00066ZM61.128124 245.00066Q61.128124 247.11003 61.628124 247.81316Q62.128124 248.51628 62.846874 248.51628Q63.58125 248.51628 64.06563 247.81316Q64.56563 247.11003 64.56563 245.00066Q64.56563 242.87566 64.06563 242.18816Q63.58125 241.48503 62.83125 241.48503Q62.1125 241.48503 61.675 242.0944Q61.128124 242.87566 61.128124 245.00066Z" fill-rule="nonzero"/><path fill="#000000" d="M23.01875 176.02005L21.971874 176.02005L21.971874 169.3013Q21.58125 169.66068 20.95625 170.03568Q20.346874 170.39505 19.8625 170.56693L19.8625 169.5513Q20.7375 169.12943 21.39375 168.5513Q22.065624 167.95755 22.346874 167.39505L23.01875 167.39505L23.01875 176.02005ZM25.55 176.16068L28.034374 167.28568L28.878124 167.28568L26.39375 176.16068L25.55 176.16068ZM33.01875 176.02005L31.971874 176.02005L31.971874 169.3013Q31.58125 169.66068 30.95625 170.03568Q30.346874 170.39505 29.8625 170.56693L29.8625 169.5513Q30.7375 169.12943 31.39375 168.5513Q32.065624 167.95755 32.346874 167.39505L33.01875 167.39505L33.01875 176.02005ZM35.55 176.16068L38.034374 167.28568L38.878124 167.28568L36.39375 176.16068L35.55 176.16068ZM44.596874 175.00443L44.596874 176.02005L38.909374 176.02005Q38.909374 175.64505 39.034374 175.28568Q39.253124 174.70755 39.721874 174.14505Q40.20625 173.58255 41.1125 172.84818Q42.51875 171.69193 43.003124 171.02005Q43.503124 170.34818 43.503124 169.75443Q43.503124 169.12943 43.05 168.70755Q42.596874 168.27005 41.878124 168.27005Q41.1125 168.27005 40.659374 168.72318Q40.20625 169.1763 40.190624 169.9888L39.1125 169.87943Q39.221874 168.66068 39.940624 168.03568Q40.675 167.39505 41.909374 167.39505Q43.14375 167.39505 43.8625 168.08255Q44.58125 168.77005 44.58125 169.78568Q44.58125 170.3013 44.3625 170.8013Q44.159374 171.28568 43.659374 171.84818Q43.175 172.39505 42.05 173.34818Q41.096874 174.14505 40.815624 174.44193Q40.55 174.72318 40.378124 175.00443L44.596874 175.00443ZM46.05 171.78568Q46.05 170.25443 46.3625 169.33255Q46.675 168.39505 47.284374 167.89505Q47.909374 167.39505 48.846874 167.39505Q49.534374 167.39505 50.05 167.6763Q50.58125 167.95755 50.925 168.4888Q51.26875 169.00443 51.45625 169.75443Q51.64375 170.50443 51.64375 171.78568Q51.64375 173.3013 51.33125 174.22318Q51.034374 175.14505 50.409374 175.66068Q49.8 176.16068 48.846874 176.16068Q47.6125 176.16068 46.89375 175.27005Q46.05 174.20755 46.05 171.78568ZM47.128124 171.78568Q47.128124 173.89505 47.628124 174.59818Q48.128124 175.3013 48.846874 175.3013Q49.58125 175.3013 50.065624 174.59818Q50.565624 173.89505 50.565624 171.78568Q50.565624 169.66068 50.065624 168.97318Q49.58125 168.27005 48.83125 168.27005Q48.1125 168.27005 47.675 168.87943Q47.128124 169.66068 47.128124 171.78568ZM57.01875 176.02005L55.971874 176.02005L55.971874 169.3013Q55.58125 169.66068 54.95625 170.03568Q54.346874 170.39505 53.8625 170.56693L53.8625 169.5513Q54.7375 169.12943 55.39375 168.5513Q56.065624 167.95755 56.346874 167.39505L57.01875 167.39505L57.01875 176.02005ZM60.05 173.77005L61.159374 173.6763Q61.284374 174.4888 61.721874 174.89505Q62.175 175.3013 62.815624 175.3013Q63.565624 175.3013 64.09688 174.72318Q64.62813 174.14505 64.62813 173.20755Q64.62813 172.3013 64.1125 171.78568Q63.6125 171.25443 62.784374 171.25443Q62.284374 171.25443 61.8625 171.4888Q61.45625 171.72318 61.221874 172.08255L60.2375 171.95755L61.065624 167.5513L65.34688 167.5513L65.34688 168.5513L61.909374 168.5513L61.45625 170.8638Q62.221874 170.31693 63.065624 170.31693Q64.19063 170.31693 64.95625 171.09818Q65.7375 171.87943 65.7375 173.1138Q65.7375 174.27005 65.06563 175.12943Q64.2375 176.16068 62.815624 176.16068Q61.64375 176.16068 60.89375 175.50443Q60.159374 174.84818 60.05 173.77005Z" fill-rule="nonzero"/><path fill="#000000" d="M23.01875 102.80507L21.971874 102.80507L21.971874 96.08632Q21.58125 96.445694 20.95625 96.820694Q20.346874 97.18007 19.8625 97.351944L19.8625 96.33632Q20.7375 95.914444 21.39375 95.33632Q22.065624 94.74257 22.346874 94.18007L23.01875 94.18007L23.01875 102.80507ZM25.55 102.945694L28.034374 94.070694L28.878124 94.070694L26.39375 102.945694L25.55 102.945694ZM33.01875 102.80507L31.971874 102.80507L31.971874 96.08632Q31.58125 96.445694 30.95625 96.820694Q30.346874 97.18007 29.8625 97.351944L29.8625 96.33632Q30.7375 95.914444 31.39375 95.33632Q32.065624 94.74257 32.346874 94.18007L33.01875 94.18007L33.01875 102.80507ZM35.55 102.945694L38.034374 94.070694L38.878124 94.070694L36.39375 102.945694L35.55 102.945694ZM44.596874 101.789444L44.596874 102.80507L38.909374 102.80507Q38.909374 102.43007 39.034374 102.070694Q39.253124 101.49257 39.721874 100.93007Q40.20625 100.36757 41.1125 99.633194Q42.51875 98.476944 43.003124 97.80507Q43.503124 97.133194 43.503124 96.539444Q43.503124 95.914444 43.05 95.49257Q42.596874 95.05507 41.878124 95.05507Q41.1125 95.05507 40.659374 95.508194Q40.20625 95.96132 40.190624 96.77382L39.1125 96.664444Q39.221874 95.445694 39.940624 94.820694Q40.675 94.18007 41.909374 94.18007Q43.14375 94.18007 43.8625 94.86757Q44.58125 95.55507 44.58125 96.570694Q44.58125 97.08632 44.3625 97.58632Q44.159374 98.070694 43.659374 98.633194Q43.175 99.18007 42.05 100.133194Q41.096874 100.93007 40.815624 101.226944Q40.55 101.508194 40.378124 101.789444L44.596874 101.789444ZM46.05 98.570694Q46.05 97.039444 46.3625 96.11757Q46.675 95.18007 47.284374 94.68007Q47.909374 94.18007 48.846874 94.18007Q49.534374 94.18007 50.05 94.46132Q50.58125 94.74257 50.925 95.27382Q51.26875 95.789444 51.45625 96.539444Q51.64375 97.289444 51.64375 98.570694Q51.64375 100.08632 51.33125 101.008194Q51.034374 101.93007 50.409374 102.445694Q49.8 102.945694 48.846874 102.945694Q47.6125 102.945694 46.89375 102.05507Q46.05 100.99257 46.05 98.570694ZM47.128124 98.570694Q47.128124 100.68007 47.628124 101.383194Q48.128124 102.08632 48.846874 102.08632Q49.58125 102.08632 50.065624 101.383194Q50.565624 100.68007 50.565624 98.570694Q50.565624 96.445694 50.065624 95.758194Q49.58125 95.05507 48.83125 95.05507Q48.1125 95.05507 47.675 95.664444Q47.128124 96.445694 47.128124 98.570694ZM58.596874 101.789444L58.596874 102.80507L52.909374 102.80507Q52.909374 102.43007 53.034374 102.070694Q53.253124 101.49257 53.721874 100.93007Q54.20625 100.36757 55.1125 99.633194Q56.51875 98.476944 57.003124 97.80507Q57.503124 97.133194 57.503124 96.539444Q57.503124 95.914444 57.05 95.49257Q56.596874 95.05507 55.878124 95.05507Q55.1125 95.05507 54.659374 95.508194Q54.20625 95.96132 54.190624 96.77382L53.1125 96.664444Q53.221874 95.445694 53.940624 94.820694Q54.675 94.18007 55.909374 94.18007Q57.14375 94.18007 57.8625 94.86757Q58.58125 95.55507 58.58125 96.570694Q58.58125 97.08632 58.3625 97.58632Q58.159374 98.070694 57.659374 98.633194Q57.175 99.18007 56.05 100.133194Q55.096874 100.93007 54.815624 101.226944Q54.55 101.508194 54.378124 101.789444L58.596874 101.789444ZM60.05 98.570694Q60.05 97.039444 60.3625 96.11757Q60.675 95.18007 61.284374 94.68007Q61.909374 94.18007 62.846874 94.18007Q63.534374 94.18007 64.05 94.46132Q64.58125 94.74257 64.925 95.27382Q65.26875 95.789444 65.45625 96.539444Q65.64375 97.289444 65.64375 98.570694Q65.64375 100.08632 65.33125 101.008194Q65.03438 101.93007 64.40938 102.445694Q63.8 102.945694 62.846874 102.945694Q61.6125 102.945694 60.89375 102.05507Q60.05 100.99257 60.05 98.570694ZM61.128124 98.570694Q61.128124 100.68007 61.628124 101.383194Q62.128124 102.08632 62.846874 102.08632Q63.58125 102.08632 64.06563 101.383194Q64.56563 100.68007 64.56563 98.570694Q64.56563 96.445694 64.06563 95.758194Q63.58125 95.05507 62.83125 95.05507Q62.1125 95.05507 61.675 95.664444Q61.128124 96.445694 61.128124 98.570694Z" fill-rule="nonzero"/><path fill="#000000" d="M23.01875 29.55L21.971874 29.55L21.971874 22.83125Q21.58125 23.190624 20.95625 23.565624Q20.346874 23.925 19.8625 24.096874L19.8625 23.08125Q20.7375 22.659374 21.39375 22.08125Q22.065624 21.4875 22.346874 20.925L23.01875 20.925L23.01875 29.55ZM25.55 29.690624L28.034374 20.815624L28.878124 20.815624L26.39375 29.690624L25.55 29.690624ZM33.01875 29.55L31.971874 29.55L31.971874 22.83125Q31.58125 23.190624 30.95625 23.565624Q30.346874 23.925 29.8625 24.096874L29.8625 23.08125Q30.7375 22.659374 31.39375 22.08125Q32.065624 21.4875 32.346874 20.925L33.01875 20.925L33.01875 29.55ZM35.55 29.690624L38.034374 20.815624L38.878124 20.815624L36.39375 29.690624L35.55 29.690624ZM44.596874 28.534374L44.596874 29.55L38.909374 29.55Q38.909374 29.175 39.034374 28.815624Q39.253124 28.2375 39.721874 27.675Q40.20625 27.1125 41.1125 26.378124Q42.51875 25.221874 43.003124 24.55Q43.503124 23.878124 43.503124 23.284374Q43.503124 22.659374 43.05 22.2375Q42.596874 21.8 41.878124 21.8Q41.1125 21.8 40.659374 22.253124Q40.20625 22.70625 40.190624 23.51875L39.1125 23.409374Q39.221874 22.190624 39.940624 21.565624Q40.675 20.925 41.909374 20.925Q43.14375 20.925 43.8625 21.6125Q44.58125 22.3 44.58125 23.315624Q44.58125 23.83125 44.3625 24.33125Q44.159374 24.815624 43.659374 25.378124Q43.175 25.925 42.05 26.878124Q41.096874 27.675 40.815624 27.971874Q40.55 28.253124 40.378124 28.534374L44.596874 28.534374ZM46.05 25.315624Q46.05 23.784374 46.3625 22.8625Q46.675 21.925 47.284374 21.425Q47.909374 20.925 48.846874 20.925Q49.534374 20.925 50.05 21.20625Q50.58125 21.4875 50.925 22.01875Q51.26875 22.534374 51.45625 23.284374Q51.64375 24.034374 51.64375 25.315624Q51.64375 26.83125 51.33125 27.753124Q51.034374 28.675 50.409374 29.190624Q49.8 29.690624 48.846874 29.690624Q47.6125 29.690624 46.89375 28.8Q46.05 27.7375 46.05 25.315624ZM47.128124 25.315624Q47.128124 27.425 47.628124 28.128124Q48.128124 28.83125 48.846874 28.83125Q49.58125 28.83125 50.065624 28.128124Q50.565624 27.425 50.565624 25.315624Q50.565624 23.190624 50.065624 22.503124Q49.58125 21.8 48.83125 21.8Q48.1125 21.8 47.675 22.409374Q47.128124 23.190624 47.128124 25.315624ZM58.596874 28.534374L58.596874 29.55L52.909374 29.55Q52.909374 29.175 53.034374 28.815624Q53.253124 28.2375 53.721874 27.675Q54.20625 27.1125 55.1125 26.378124Q56.51875 25.221874 57.003124 24.55Q57.503124 23.878124 57.503124 23.284374Q57.503124 22.659374 57.05 22.2375Q56.596874 21.8 55.878124 21.8Q55.1125 21.8 54.659374 22.253124Q54.20625 22.70625 54.190624 23.51875L53.1125 23.409374Q53.221874 22.190624 53.940624 21.565624Q54.675 20.925 55.909374 20.925Q57.14375 20.925 57.8625 21.6125Q58.58125 22.3 58.58125 23.315624Q58.58125 23.83125 58.3625 24.33125Q58.159374 24.815624 57.659374 25.378124Q57.175 25.925 56.05 26.878124Q55.096874 27.675 54.815624 27.971874Q54.55 28.253124 54.378124 28.534374L58.596874 28.534374ZM60.05 27.3L61.159374 27.20625Q61.284374 28.01875 61.721874 28.425Q62.175 28.83125 62.815624 28.83125Q63.565624 28.83125 64.09688 28.253124Q64.62813 27.675 64.62813 26.7375Q64.62813 25.83125 64.1125 25.315624Q63.6125 24.784374 62.784374 24.784374Q62.284374 24.784374 61.8625 25.01875Q61.45625 25.253124 61.221874 25.6125L60.2375 25.4875L61.065624 21.08125L65.34688 21.08125L65.34688 22.08125L61.909374 22.08125L61.45625 24.39375Q62.221874 23.846874 63.065624 23.846874Q64.19063 23.846874 64.95625 24.628124Q65.7375 25.409374 65.7375 26.64375Q65.7375 27.8 65.06563 28.659374Q64.2375 29.690624 62.815624 29.690624Q61.64375 29.690624 60.89375 29.034374Q60.159374 28.378124 60.05 27.3Z" fill-rule="nonzero"/><path fill="#000000" d="M111.13201 335.45L111.13201 326.85626L114.36639 326.85626Q115.35076 326.85626 115.94451 327.1219Q116.53826 327.3875 116.86639 327.9344Q117.21014 328.46564 117.21014 329.0594Q117.21014 329.60626 116.91326 330.09064Q116.61639 330.575 116.00701 330.8719Q116.78826 331.10626 117.19451 331.66876Q117.61639 332.21564 117.61639 332.96564Q117.61639 333.5594 117.36639 334.09064Q117.11639 334.60626 116.74139 334.8875Q116.36639 335.16876 115.78826 335.3094Q115.22576 335.45 114.41326 335.45L111.13201 335.45ZM112.27264 330.46564L114.13201 330.46564Q114.88201 330.46564 115.21014 330.3719Q115.64764 330.2469 115.86639 329.95Q116.08514 329.6375 116.08514 329.1844Q116.08514 328.7625 115.88201 328.4344Q115.67889 328.10626 115.28826 327.9969Q114.91326 327.8719 113.99139 327.8719L112.27264 327.8719L112.27264 330.46564ZM112.27264 334.4344L114.41326 334.4344Q114.96014 334.4344 115.17889 334.3875Q115.58514 334.325 115.83514 334.16876Q116.10076 333.9969 116.27264 333.6844Q116.44451 333.3719 116.44451 332.96564Q116.44451 332.48126 116.19451 332.1219Q115.96014 331.7625 115.52264 331.6219Q115.08514 331.48126 114.25701 331.48126L112.27264 331.48126L112.27264 334.4344ZM123.13201 335.45L123.13201 334.52814Q122.39764 335.59064 121.14764 335.59064Q120.60076 335.59064 120.11639 335.3875Q119.64764 335.16876 119.41326 334.85626Q119.17889 334.52814 119.08514 334.0594Q119.02264 333.7625 119.02264 333.075L119.02264 329.23126L120.08514 329.23126L120.08514 332.6844Q120.08514 333.4969 120.14764 333.79376Q120.24139 334.2 120.55389 334.45Q120.88201 334.6844 121.36639 334.6844Q121.83514 334.6844 122.24139 334.45Q122.66326 334.2 122.83514 333.77814Q123.02264 333.35626 123.02264 332.5594L123.02264 329.23126L124.06951 329.23126L124.06951 335.45L123.13201 335.45ZM125.63201 333.59064L126.66326 333.4344Q126.75701 334.0594 127.14764 334.3875Q127.55389 334.71564 128.28827 334.71564Q129.00702 334.71564 129.35077 334.4344Q129.71014 334.1375 129.71014 333.73126Q129.71014 333.3719 129.39764 333.16876Q129.1789 333.02814 128.31952 332.8094Q127.16326 332.5125 126.71014 332.3094Q126.27264 332.09064 126.03826 331.71564Q125.80389 331.34064 125.80389 330.8719Q125.80389 330.46564 125.99139 330.10626Q126.17889 329.7469 126.50701 329.5125Q126.75701 329.34064 127.17889 329.21564Q127.60076 329.09064 128.10077 329.09064Q128.81952 329.09064 129.3664 329.3094Q129.9289 329.5125 130.19452 329.8719Q130.46014 330.23126 130.5539 330.825L129.52264 330.96564Q129.46014 330.4969 129.1164 330.23126Q128.78827 329.95 128.16327 329.95Q127.44451 329.95 127.13201 330.2Q126.81951 330.4344 126.81951 330.7625Q126.81951 330.96564 126.94451 331.1219Q127.08514 331.29376 127.35076 331.40314Q127.50701 331.46564 128.28827 331.66876Q129.41327 331.98126 129.85077 332.16876Q130.28827 332.35626 130.53827 332.71564Q130.78827 333.075 130.78827 333.6219Q130.78827 334.15314 130.47577 334.6219Q130.1789 335.075 129.60077 335.34064Q129.02264 335.59064 128.28827 335.59064Q127.06951 335.59064 126.42889 335.09064Q125.80389 334.575 125.63201 333.59064ZM133.0539 328.075L133.0539 326.85626L134.1164 326.85626L134.1164 328.075L133.0539 328.075ZM133.0539 335.45L133.0539 329.23126L134.1164 329.23126L134.1164 335.45L133.0539 335.45ZM136.0539 335.45L136.0539 329.23126L136.9914 329.23126L136.9914 330.10626Q137.6789 329.09064 138.97577 329.09064Q139.53827 329.09064 140.00702 329.29376Q140.4914 329.4969 140.72577 329.825Q140.96014 330.15314 141.0539 330.59064Q141.10077 330.8875 141.10077 331.6219L141.10077 335.45L140.0539 335.45L140.0539 331.66876Q140.0539 331.0125 139.9289 330.7Q139.8039 330.3875 139.4914 330.2Q139.1789 329.9969 138.75702 329.9969Q138.08514 329.9969 137.58514 330.4344Q137.10077 330.85626 137.10077 332.04376L137.10077 335.45L136.0539 335.45ZM147.3039 333.45L148.39764 333.575Q148.14764 334.52814 147.44452 335.0594Q146.7414 335.59064 145.66327 335.59064Q144.3039 335.59064 143.4914 334.7469Q142.69452 333.90314 142.69452 332.3875Q142.69452 330.825 143.50702 329.96564Q144.31952 329.09064 145.60077 329.09064Q146.85077 329.09064 147.63202 329.9344Q148.4289 330.77814 148.4289 332.325Q148.4289 332.41876 148.4289 332.60626L143.78827 332.60626Q143.85077 333.6375 144.3664 334.1844Q144.88202 334.71564 145.66327 334.71564Q146.2414 334.71564 146.64764 334.41876Q147.06952 334.10626 147.3039 333.45ZM143.85077 331.7469L147.31952 331.7469Q147.25702 330.95 146.9289 330.5594Q146.41327 329.95 145.6164 329.95Q144.88202 329.95 144.38202 330.4344Q143.89764 330.91876 143.85077 331.7469ZM149.63202 333.59064L150.66327 333.4344Q150.75702 334.0594 151.14764 334.3875Q151.5539 334.71564 152.28827 334.71564Q153.00702 334.71564 153.35077 334.4344Q153.71014 334.1375 153.71014 333.73126Q153.71014 333.3719 153.39764 333.16876Q153.1789 333.02814 152.31952 332.8094Q151.16327 332.5125 150.71014 332.3094Q150.27264 332.09064 150.03827 331.71564Q149.8039 331.34064 149.8039 330.8719Q149.8039 330.46564 149.9914 330.10626Q150.1789 329.7469 150.50702 329.5125Q150.75702 329.34064 151.1789 329.21564Q151.60077 329.09064 152.10077 329.09064Q152.81952 329.09064 153.3664 329.3094Q153.9289 329.5125 154.19452 329.8719Q154.46014 330.23126 154.5539 330.825L153.52264 330.96564Q153.46014 330.4969 153.1164 330.23126Q152.78827 329.95 152.16327 329.95Q151.44452 329.95 151.13202 330.2Q150.81952 330.4344 150.81952 330.7625Q150.81952 330.96564 150.94452 331.1219Q151.08514 331.29376 151.35077 331.40314Q151.50702 331.46564 152.28827 331.66876Q153.41327 331.98126 153.85077 332.16876Q154.28827 332.35626 154.53827 332.71564Q154.78827 333.075 154.78827 333.6219Q154.78827 334.15314 154.47577 334.6219Q154.1789 335.075 153.60077 335.34064Q153.02264 335.59064 152.28827 335.59064Q151.06952 335.59064 150.4289 335.09064Q149.8039 334.575 149.63202 333.59064ZM156.63202 333.59064L157.66327 333.4344Q157.75702 334.0594 158.14764 334.3875Q158.5539 334.71564 159.28827 334.71564Q160.00702 334.71564 160.35077 334.4344Q160.71014 334.1375 160.71014 333.73126Q160.71014 333.3719 160.39764 333.16876Q160.1789 333.02814 159.31952 332.8094Q158.16327 332.5125 157.71014 332.3094Q157.27264 332.09064 157.03827 331.71564Q156.8039 331.34064 156.8039 330.8719Q156.8039 330.46564 156.9914 330.10626Q157.1789 329.7469 157.50702 329.5125Q157.75702 329.34064 158.1789 329.21564Q158.60077 329.09064 159.10077 329.09064Q159.81952 329.09064 160.3664 329.3094Q160.9289 329.5125 161.19452 329.8719Q161.46014 330.23126 161.5539 330.825L160.52264 330.96564Q160.46014 330.4969 160.1164 330.23126Q159.78827 329.95 159.16327 329.95Q158.44452 329.95 158.13202 330.2Q157.81952 330.4344 157.81952 330.7625Q157.81952 330.96564 157.94452 331.1219Q158.08514 331.29376 158.35077 331.40314Q158.50702 331.46564 159.28827 331.66876Q160.41327 331.98126 160.85077 332.16876Q161.28827 332.35626 161.53827 332.71564Q161.78827 333.075 161.78827 333.6219Q161.78827 334.15314 161.47577 334.6219Q161.1789 335.075 160.60077 335.34064Q160.02264 335.59064 159.28827 335.59064Q158.06952 335.59064 157.4289 335.09064Q156.8039 334.575 156.63202 333.59064Z" fill-rule="nonzero"/><path fill="#000000" d="M106.17889 349.45L106.17889 340.85626L109.42889 340.85626Q110.27264 340.85626 110.72576 340.9344Q111.36639 341.04376 111.78826 341.34064Q112.22576 341.6375 112.47576 342.16876Q112.74139 342.7 112.74139 343.34064Q112.74139 344.4344 112.03826 345.2Q111.35076 345.95 109.52264 345.95L107.31951 345.95L107.31951 349.45L106.17889 349.45ZM107.31951 344.95L109.53826 344.95Q110.64764 344.95 111.10076 344.54376Q111.56951 344.1219 111.56951 343.3719Q111.56951 342.84064 111.28826 342.46564Q111.02264 342.075 110.58514 341.95Q110.28826 341.8719 109.52264 341.8719L107.31951 341.8719L107.31951 344.95ZM114.03826 349.45L114.03826 343.23126L114.99139 343.23126L114.99139 344.16876Q115.35076 343.5125 115.64764 343.3094Q115.96014 343.09064 116.33514 343.09064Q116.86639 343.09064 117.41326 343.41876L117.05389 344.40314Q116.66326 344.16876 116.28826 344.16876Q115.92889 344.16876 115.64764 344.3875Q115.38201 344.59064 115.27264 344.96564Q115.08514 345.52814 115.08514 346.1844L115.08514 349.45L114.03826 349.45ZM117.66326 346.34064Q117.66326 344.60626 118.61639 343.77814Q119.41326 343.09064 120.56951 343.09064Q121.85076 343.09064 122.66326 343.9344Q123.49139 344.7625 123.49139 346.2469Q123.49139 347.45 123.13201 348.1375Q122.77264 348.825 122.06951 349.21564Q121.38201 349.59064 120.56951 349.59064Q119.27264 349.59064 118.46014 348.7625Q117.66326 347.91876 117.66326 346.34064ZM118.74139 346.34064Q118.74139 347.52814 119.25701 348.1219Q119.78826 348.71564 120.56951 348.71564Q121.36639 348.71564 121.88201 348.1219Q122.39764 347.52814 122.39764 346.3094Q122.39764 345.15314 121.86639 344.5594Q121.35076 343.96564 120.56951 343.96564Q119.78826 343.96564 119.25701 344.5594Q118.74139 345.1375 118.74139 346.34064ZM129.1164 347.16876L130.14764 347.3094Q129.97577 348.3719 129.27264 348.98126Q128.56952 349.59064 127.55389 349.59064Q126.27264 349.59064 125.49139 348.7625Q124.72576 347.91876 124.72576 346.35626Q124.72576 345.35626 125.05389 344.60626Q125.39764 343.84064 126.06951 343.46564Q126.75701 343.09064 127.56951 343.09064Q128.56952 343.09064 129.21014 343.60626Q129.8664 344.10626 130.0539 345.0594L129.02264 345.21564Q128.88202 344.59064 128.50702 344.27814Q128.13202 343.95 127.60076 343.95Q126.80389 343.95 126.30389 344.52814Q125.80389 345.09064 125.80389 346.325Q125.80389 347.59064 126.28826 348.15314Q126.77264 348.71564 127.53826 348.71564Q128.16327 348.71564 128.56952 348.34064Q128.9914 347.96564 129.1164 347.16876ZM135.3039 347.45L136.39764 347.575Q136.14764 348.52814 135.44452 349.0594Q134.7414 349.59064 133.66327 349.59064Q132.3039 349.59064 131.4914 348.7469Q130.69452 347.90314 130.69452 346.3875Q130.69452 344.825 131.50702 343.96564Q132.31952 343.09064 133.60077 343.09064Q134.85077 343.09064 135.63202 343.9344Q136.4289 344.77814 136.4289 346.325Q136.4289 346.41876 136.4289 346.60626L131.78827 346.60626Q131.85077 347.6375 132.3664 348.1844Q132.88202 348.71564 133.66327 348.71564Q134.2414 348.71564 134.64764 348.41876Q135.06952 348.10626 135.3039 347.45ZM131.85077 345.7469L135.31952 345.7469Q135.25702 344.95 134.9289 344.5594Q134.41327 343.95 133.6164 343.95Q132.88202 343.95 132.38202 344.4344Q131.89764 344.91876 131.85077 345.7469ZM137.63202 347.59064L138.66327 347.4344Q138.75702 348.0594 139.14764 348.3875Q139.5539 348.71564 140.28827 348.71564Q141.00702 348.71564 141.35077 348.4344Q141.71014 348.1375 141.71014 347.73126Q141.71014 347.3719 141.39764 347.16876Q141.1789 347.02814 140.31952 346.8094Q139.16327 346.5125 138.71014 346.3094Q138.27264 346.09064 138.03827 345.71564Q137.8039 345.34064 137.8039 344.8719Q137.8039 344.46564 137.9914 344.10626Q138.1789 343.7469 138.50702 343.5125Q138.75702 343.34064 139.1789 343.21564Q139.60077 343.09064 140.10077 343.09064Q140.81952 343.09064 141.3664 343.3094Q141.9289 343.5125 142.19452 343.8719Q142.46014 344.23126 142.5539 344.825L141.52264 344.96564Q141.46014 344.4969 141.1164 344.23126Q140.78827 343.95 140.16327 343.95Q139.44452 343.95 139.13202 344.2Q138.81952 344.4344 138.81952 344.7625Q138.81952 344.96564 138.94452 345.1219Q139.08514 345.29376 139.35077 345.40314Q139.50702 345.46564 140.28827 345.66876Q141.41327 345.98126 141.85077 346.16876Q142.28827 346.35626 142.53827 346.71564Q142.78827 347.075 142.78827 347.6219Q142.78827 348.15314 142.47577 348.6219Q142.1789 349.075 141.60077 349.34064Q141.02264 349.59064 140.28827 349.59064Q139.06952 349.59064 138.4289 349.09064Q137.8039 348.575 137.63202 347.59064ZM144.63202 347.59064L145.66327 347.4344Q145.75702 348.0594 146.14764 348.3875Q146.5539 348.71564 147.28827 348.71564Q148.00702 348.71564 148.35077 348.4344Q148.71014 348.1375 148.71014 347.73126Q148.71014 347.3719 148.39764 347.16876Q148.1789 347.02814 147.31952 346.8094Q146.16327 346.5125 145.71014 346.3094Q145.27264 346.09064 145.03827 345.71564Q144.8039 345.34064 144.8039 344.8719Q144.8039 344.46564 144.9914 344.10626Q145.1789 343.7469 145.50702 343.5125Q145.75702 343.34064 146.1789 343.21564Q146.60077 343.09064 147.10077 343.09064Q147.81952 343.09064 148.3664 343.3094Q148.9289 343.5125 149.19452 343.8719Q149.46014 344.23126 149.5539 344.825L148.52264 344.96564Q148.46014 344.4969 148.1164 344.23126Q147.78827 343.95 147.16327 343.95Q146.44452 343.95 146.13202 344.2Q145.81952 344.4344 145.81952 344.7625Q145.81952 344.96564 145.94452 345.1219Q146.08514 345.29376 146.35077 345.40314Q146.50702 345.46564 147.28827 345.66876Q148.41327 345.98126 148.85077 346.16876Q149.28827 346.35626 149.53827 346.71564Q149.78827 347.075 149.78827 347.6219Q149.78827 348.15314 149.47577 348.6219Q149.1789 349.075 148.60077 349.34064Q148.02264 349.59064 147.28827 349.59064Q146.06952 349.59064 145.4289 349.09064Q144.8039 348.575 144.63202 347.59064ZM152.0539 342.075L152.0539 340.85626L153.1164 340.85626L153.1164 342.075L152.0539 342.075ZM152.0539 349.45L152.0539 343.23126L153.1164 343.23126L153.1164 349.45L152.0539 349.45ZM155.0539 349.45L155.0539 343.23126L155.9914 343.23126L155.9914 344.10626Q156.6789 343.09064 157.97577 343.09064Q158.53827 343.09064 159.00702 343.29376Q159.4914 343.4969 159.72577 343.825Q159.96014 344.15314 160.0539 344.59064Q160.10077 344.8875 160.10077 345.6219L160.10077 349.45L159.0539 349.45L159.0539 345.66876Q159.0539 345.0125 158.9289 344.7Q158.8039 344.3875 158.4914 344.2Q158.1789 343.9969 157.75702 343.9969Q157.08514 343.9969 156.58514 344.4344Q156.10077 344.85626 156.10077 346.04376L156.10077 349.45L155.0539 349.45ZM161.85077 349.96564L162.88202 350.1219Q162.94452 350.59064 163.2414 350.8094Q163.63202 351.10626 164.3039 351.10626Q165.03827 351.10626 165.4289 350.8094Q165.83514 350.5125 165.97577 349.9969Q166.06952 349.66876 166.0539 348.6375Q165.3664 349.45 164.33514 349.45Q163.0539 349.45 162.35077 348.52814Q161.64764 347.59064 161.64764 346.3094Q161.64764 345.41876 161.96014 344.66876Q162.28827 343.90314 162.89764 343.4969Q163.50702 343.09064 164.33514 343.09064Q165.44452 343.09064 166.16327 343.98126L166.16327 343.23126L167.13202 343.23126L167.13202 348.60626Q167.13202 350.0594 166.83514 350.66876Q166.53827 351.27814 165.89764 351.6219Q165.25702 351.98126 164.31952 351.98126Q163.21014 351.98126 162.52264 351.48126Q161.83514 350.98126 161.85077 349.96564ZM162.72577 346.23126Q162.72577 347.45 163.21014 348.0125Q163.69452 348.575 164.4289 348.575Q165.16327 348.575 165.64764 348.0125Q166.14764 347.45 166.14764 346.2625Q166.14764 345.1219 165.63202 344.54376Q165.13202 343.96564 164.41327 343.96564Q163.71014 343.96564 163.21014 344.54376Q162.72577 345.10626 162.72577 346.23126Z" fill-rule="nonzero"/><path fill="#000000" d="M210.42538 332.6844L211.48788 332.59064Q211.56601 333.2469 211.84726 333.65314Q212.12851 334.0594 212.70663 334.325Q213.30038 334.575 214.03476 334.575Q214.67538 334.575 215.17538 334.3875Q215.67538 334.1844 215.90976 333.85626Q216.15976 333.5125 216.15976 333.1219Q216.15976 332.71564 215.92538 332.41876Q215.69101 332.10626 215.15976 331.90314Q214.80038 331.7625 213.61288 331.48126Q212.44101 331.2 211.97226 330.95Q211.34726 330.6219 211.05038 330.15314Q210.75351 329.66876 210.75351 329.075Q210.75351 328.4344 211.11288 327.8719Q211.48788 327.29376 212.19101 327.0125Q212.90976 326.71564 213.76913 326.71564Q214.72226 326.71564 215.45663 327.02814Q216.19101 327.325 216.58163 327.9344Q216.97226 328.52814 217.00351 329.27814L215.90976 329.35626Q215.81601 328.54376 215.30038 328.1375Q214.80038 327.71564 213.81601 327.71564Q212.78476 327.71564 212.31601 328.09064Q211.84726 328.46564 211.84726 328.9969Q211.84726 329.46564 212.17538 329.7625Q212.50351 330.0594 213.87851 330.3719Q215.26913 330.6844 215.78476 330.91876Q216.53476 331.27814 216.89413 331.8094Q217.25351 332.325 217.25351 333.02814Q217.25351 333.71564 216.86288 334.325Q216.47226 334.91876 215.73788 335.2625Q215.00351 335.59064 214.08163 335.59064Q212.90976 335.59064 212.11288 335.2625Q211.33163 334.91876 210.87851 334.23126Q210.44101 333.54376 210.42538 332.6844ZM222.73788 333.16876L223.76913 333.3094Q223.59726 334.3719 222.89413 334.98126Q222.19101 335.59064 221.17538 335.59064Q219.89413 335.59064 219.11288 334.7625Q218.34726 333.91876 218.34726 332.35626Q218.34726 331.35626 218.67538 330.60626Q219.01913 329.84064 219.69101 329.46564Q220.37851 329.09064 221.19101 329.09064Q222.19101 329.09064 222.83163 329.60626Q223.48788 330.10626 223.67538 331.0594L222.64413 331.21564Q222.50351 330.59064 222.12851 330.27814Q221.75351 329.95 221.22226 329.95Q220.42538 329.95 219.92538 330.52814Q219.42538 331.09064 219.42538 332.325Q219.42538 333.59064 219.90976 334.15314Q220.39413 334.71564 221.15976 334.71564Q221.78476 334.71564 222.19101 334.34064Q222.61288 333.96564 222.73788 333.16876ZM224.67538 328.075L224.67538 326.85626L225.73788 326.85626L225.73788 328.075L224.67538 328.075ZM224.67538 335.45L224.67538 329.23126L225.73788 329.23126L225.73788 335.45L224.67538 335.45ZM231.92538 333.45L233.01913 333.575Q232.76913 334.52814 232.06601 335.0594Q231.36288 335.59064 230.28476 335.59064Q228.92538 335.59064 228.11288 334.7469Q227.31601 333.90314 227.31601 332.3875Q227.31601 330.825 228.12851 329.96564Q228.94101 329.09064 230.22226 329.09064Q231.47226 329.09064 232.25351 329.9344Q233.05038 330.77814 233.05038 332.325Q233.05038 332.41876 233.05038 332.60626L228.40976 332.60626Q228.47226 333.6375 228.98788 334.1844Q229.50351 334.71564 230.28476 334.71564Q230.86288 334.71564 231.26913 334.41876Q231.69101 334.10626 231.92538 333.45ZM228.47226 331.7469L231.94101 331.7469Q231.87851 330.95 231.55038 330.5594Q231.03476 329.95 230.23788 329.95Q229.50351 329.95 229.00351 330.4344Q228.51913 330.91876 228.47226 331.7469ZM234.67538 335.45L234.67538 329.23126L235.61288 329.23126L235.61288 330.10626Q236.30038 329.09064 237.59726 329.09064Q238.15976 329.09064 238.62851 329.29376Q239.11288 329.4969 239.34726 329.825Q239.58163 330.15314 239.67538 330.59064Q239.72226 330.8875 239.72226 331.6219L239.72226 335.45L238.67538 335.45L238.67538 331.66876Q238.67538 331.0125 238.55038 330.7Q238.42538 330.3875 238.11288 330.2Q237.80038 329.9969 237.37851 329.9969Q236.70663 329.9969 236.20663 330.4344Q235.72226 330.85626 235.72226 332.04376L235.72226 335.45L234.67538 335.45ZM245.73788 333.16876L246.76913 333.3094Q246.59726 334.3719 245.89413 334.98126Q245.19101 335.59064 244.17538 335.59064Q242.89413 335.59064 242.11288 334.7625Q241.34726 333.91876 241.34726 332.35626Q241.34726 331.35626 241.67538 330.60626Q242.01913 329.84064 242.69101 329.46564Q243.37851 329.09064 244.19101 329.09064Q245.19101 329.09064 245.83163 329.60626Q246.48788 330.10626 246.67538 331.0594L245.64413 331.21564Q245.50351 330.59064 245.12851 330.27814Q244.75351 329.95 244.22226 329.95Q243.42538 329.95 242.92538 330.52814Q242.42538 331.09064 242.42538 332.325Q242.42538 333.59064 242.90976 334.15314Q243.39413 334.71564 244.15976 334.71564Q244.78476 334.71564 245.19101 334.34064Q245.61288 333.96564 245.73788 333.16876ZM251.92538 333.45L253.01913 333.575Q252.76913 334.52814 252.06601 335.0594Q251.36288 335.59064 250.28476 335.59064Q248.92538 335.59064 248.11288 334.7469Q247.31601 333.90314 247.31601 332.3875Q247.31601 330.825 248.12851 329.96564Q248.94101 329.09064 250.22226 329.09064Q251.47226 329.09064 252.25351 329.9344Q253.05038 330.77814 253.05038 332.325Q253.05038 332.41876 253.05038 332.60626L248.40976 332.60626Q248.47226 333.6375 248.98788 334.1844Q249.50351 334.71564 250.28476 334.71564Q250.86288 334.71564 251.26913 334.41876Q251.69101 334.10626 251.92538 333.45ZM248.47226 331.7469L251.94101 331.7469Q251.87851 330.95 251.55038 330.5594Q251.03476 329.95 250.23788 329.95Q249.50351 329.95 249.00351 330.4344Q248.51913 330.91876 248.47226 331.7469Z" fill-rule="nonzero"/><path fill="#000000" d="M288.42188 335.45L288.42188 326.85626L291.39062 326.85626Q292.39062 326.85626 292.92188 326.98126Q293.65625 327.15314 294.17188 327.59064Q294.85938 328.16876 295.1875 329.075Q295.53125 329.96564 295.53125 331.10626Q295.53125 332.09064 295.29688 332.84064Q295.07812 333.59064 294.71875 334.09064Q294.35938 334.59064 293.92188 334.8719Q293.5 335.15314 292.90625 335.3094Q292.3125 335.45 291.53125 335.45L288.42188 335.45ZM289.5625 334.4344L291.39062 334.4344Q292.25 334.4344 292.73438 334.27814Q293.21875 334.1219 293.5 333.825Q293.90625 333.4344 294.125 332.7469Q294.35938 332.0594 294.35938 331.09064Q294.35938 329.7469 293.90625 329.02814Q293.46875 328.29376 292.84375 328.04376Q292.375 327.8719 291.375 327.8719L289.5625 327.8719L289.5625 334.4344ZM301.35938 334.6844Q300.76562 335.1844 300.21875 335.3875Q299.6875 335.59064 299.0625 335.59064Q298.03125 335.59064 297.48438 335.09064Q296.9375 334.59064 296.9375 333.8094Q296.9375 333.35626 297.14062 332.98126Q297.34375 332.59064 297.6875 332.3719Q298.03125 332.1375 298.45312 332.02814Q298.75 331.9344 299.39062 331.85626Q300.65625 331.71564 301.26562 331.4969Q301.26562 331.27814 301.26562 331.23126Q301.26562 330.575 300.96875 330.3094Q300.5625 329.96564 299.76562 329.96564Q299.03125 329.96564 298.67188 330.23126Q298.3125 330.48126 298.14062 331.1375L297.10938 330.9969Q297.25 330.34064 297.57812 329.9344Q297.90625 329.52814 298.51562 329.3094Q299.125 329.09064 299.92188 329.09064Q300.71875 329.09064 301.21875 329.27814Q301.71875 329.46564 301.95312 329.7469Q302.1875 330.02814 302.28125 330.46564Q302.32812 330.73126 302.32812 331.4344L302.32812 332.84064Q302.32812 334.3094 302.39062 334.7Q302.46875 335.09064 302.67188 335.45L301.5625 335.45Q301.40625 335.1219 301.35938 334.6844ZM301.26562 332.325Q300.6875 332.5594 299.54688 332.73126Q298.89062 332.825 298.625 332.95Q298.35938 333.0594 298.20312 333.27814Q298.0625 333.4969 298.0625 333.77814Q298.0625 334.2 298.375 334.48126Q298.70312 334.7625 299.3125 334.7625Q299.92188 334.7625 300.39062 334.4969Q300.875 334.23126 301.09375 333.7625Q301.26562 333.40314 301.26562 332.71564L301.26562 332.325ZM306.59375 334.5125L306.75 335.4344Q306.29688 335.52814 305.95312 335.52814Q305.375 335.52814 305.0625 335.35626Q304.75 335.16876 304.60938 334.8719Q304.48438 334.575 304.48438 333.6219L304.48438 330.04376L303.71875 330.04376L303.71875 329.23126L304.48438 329.23126L304.48438 327.6844L305.53125 327.0594L305.53125 329.23126L306.59375 329.23126L306.59375 330.04376L305.53125 330.04376L305.53125 333.6844Q305.53125 334.1375 305.57812 334.2625Q305.64062 334.3875 305.76562 334.46564Q305.89062 334.54376 306.125 334.54376Q306.3125 334.54376 306.59375 334.5125ZM311.35938 334.6844Q310.76562 335.1844 310.21875 335.3875Q309.6875 335.59064 309.0625 335.59064Q308.03125 335.59064 307.48438 335.09064Q306.9375 334.59064 306.9375 333.8094Q306.9375 333.35626 307.14062 332.98126Q307.34375 332.59064 307.6875 332.3719Q308.03125 332.1375 308.45312 332.02814Q308.75 331.9344 309.39062 331.85626Q310.65625 331.71564 311.26562 331.4969Q311.26562 331.27814 311.26562 331.23126Q311.26562 330.575 310.96875 330.3094Q310.5625 329.96564 309.76562 329.96564Q309.03125 329.96564 308.67188 330.23126Q308.3125 330.48126 308.14062 331.1375L307.10938 330.9969Q307.25 330.34064 307.57812 329.9344Q307.90625 329.52814 308.51562 329.3094Q309.125 329.09064 309.92188 329.09064Q310.71875 329.09064 311.21875 329.27814Q311.71875 329.46564 311.95312 329.7469Q312.1875 330.02814 312.28125 330.46564Q312.32812 330.73126 312.32812 331.4344L312.32812 332.84064Q312.32812 334.3094 312.39062 334.7Q312.46875 335.09064 312.67188 335.45L311.5625 335.45Q311.40625 335.1219 311.35938 334.6844ZM311.26562 332.325Q310.6875 332.5594 309.54688 332.73126Q308.89062 332.825 308.625 332.95Q308.35938 333.0594 308.20312 333.27814Q308.0625 333.4969 308.0625 333.77814Q308.0625 334.2 308.375 334.48126Q308.70312 334.7625 309.3125 334.7625Q309.92188 334.7625 310.39062 334.4969Q310.875 334.23126 311.09375 333.7625Q311.26562 333.40314 311.26562 332.71564L311.26562 332.325ZM317.04688 332.6844L318.10938 332.59064Q318.1875 333.2469 318.46875 333.65314Q318.75 334.0594 319.32812 334.325Q319.92188 334.575 320.65625 334.575Q321.29688 334.575 321.79688 334.3875Q322.29688 334.1844 322.53125 333.85626Q322.78125 333.5125 322.78125 333.1219Q322.78125 332.71564 322.54688 332.41876Q322.3125 332.10626 321.78125 331.90314Q321.42188 331.7625 320.23438 331.48126Q319.0625 331.2 318.59375 330.95Q317.96875 330.6219 317.67188 330.15314Q317.375 329.66876 317.375 329.075Q317.375 328.4344 317.73438 327.8719Q318.10938 327.29376 318.8125 327.0125Q319.53125 326.71564 320.39062 326.71564Q321.34375 326.71564 322.07812 327.02814Q322.8125 327.325 323.20312 327.9344Q323.59375 328.52814 323.625 329.27814L322.53125 329.35626Q322.4375 328.54376 321.92188 328.1375Q321.42188 327.71564 320.4375 327.71564Q319.40625 327.71564 318.9375 328.09064Q318.46875 328.46564 318.46875 328.9969Q318.46875 329.46564 318.79688 329.7625Q319.125 330.0594 320.5 330.3719Q321.89062 330.6844 322.40625 330.91876Q323.15625 331.27814 323.51562 331.8094Q323.875 332.325 323.875 333.02814Q323.875 333.71564 323.48438 334.325Q323.09375 334.91876 322.35938 335.2625Q321.625 335.59064 320.70312 335.59064Q319.53125 335.59064 318.73438 335.2625Q317.95312 334.91876 317.5 334.23126Q317.0625 333.54376 317.04688 332.6844ZM329.35938 333.16876L330.39062 333.3094Q330.21875 334.3719 329.51562 334.98126Q328.8125 335.59064 327.79688 335.59064Q326.51562 335.59064 325.73438 334.7625Q324.96875 333.91876 324.96875 332.35626Q324.96875 331.35626 325.29688 330.60626Q325.64062 329.84064 326.3125 329.46564Q327.0 329.09064 327.8125 329.09064Q328.8125 329.09064 329.45312 329.60626Q330.10938 330.10626 330.29688 331.0594L329.26562 331.21564Q329.125 330.59064 328.75 330.27814Q328.375 329.95 327.84375 329.95Q327.04688 329.95 326.54688 330.52814Q326.04688 331.09064 326.04688 332.325Q326.04688 333.59064 326.53125 334.15314Q327.01562 334.71564 327.78125 334.71564Q328.40625 334.71564 328.8125 334.34064Q329.23438 333.96564 329.35938 333.16876ZM331.29688 328.075L331.29688 326.85626L332.35938 326.85626L332.35938 328.075L331.29688 328.075ZM331.29688 335.45L331.29688 329.23126L332.35938 329.23126L332.35938 335.45L331.29688 335.45ZM338.54688 333.45L339.64062 333.575Q339.39062 334.52814 338.6875 335.0594Q337.98438 335.59064 336.90625 335.59064Q335.54688 335.59064 334.73438 334.7469Q333.9375 333.90314 333.9375 332.3875Q333.9375 330.825 334.75 329.96564Q335.5625 329.09064 336.84375 329.09064Q338.09375 329.09064 338.875 329.9344Q339.67188 330.77814 339.67188 332.325Q339.67188 332.41876 339.67188 332.60626L335.03125 332.60626Q335.09375 333.6375 335.60938 334.1844Q336.125 334.71564 336.90625 334.71564Q337.48438 334.71564 337.89062 334.41876Q338.3125 334.10626 338.54688 333.45ZM335.09375 331.7469L338.5625 331.7469Q338.5 330.95 338.17188 330.5594Q337.65625 329.95 336.85938 329.95Q336.125 329.95 335.625 330.4344Q335.14062 330.91876 335.09375 331.7469ZM341.29688 335.45L341.29688 329.23126L342.23438 329.23126L342.23438 330.10626Q342.92188 329.09064 344.21875 329.09064Q344.78125 329.09064 345.25 329.29376Q345.73438 329.4969 345.96875 329.825Q346.20312 330.15314 346.29688 330.59064Q346.34375 330.8875 346.34375 331.6219L346.34375 335.45L345.29688 335.45L345.29688 331.66876Q345.29688 331.0125 345.17188 330.7Q345.04688 330.3875 344.73438 330.2Q344.42188 329.9969 344.0 329.9969Q343.32812 329.9969 342.82812 330.4344Q342.34375 330.85626 342.34375 332.04376L342.34375 335.45L341.29688 335.45ZM352.35938 333.16876L353.39062 333.3094Q353.21875 334.3719 352.51562 334.98126Q351.8125 335.59064 350.79688 335.59064Q349.51562 335.59064 348.73438 334.7625Q347.96875 333.91876 347.96875 332.35626Q347.96875 331.35626 348.29688 330.60626Q348.64062 329.84064 349.3125 329.46564Q350.0 329.09064 350.8125 329.09064Q351.8125 329.09064 352.45312 329.60626Q353.10938 330.10626 353.29688 331.0594L352.26562 331.21564Q352.125 330.59064 351.75 330.27814Q351.375 329.95 350.84375 329.95Q350.04688 329.95 349.54688 330.52814Q349.04688 331.09064 349.04688 332.325Q349.04688 333.59064 349.53125 334.15314Q350.01562 334.71564 350.78125 334.71564Q351.40625 334.71564 351.8125 334.34064Q352.23438 333.96564 352.35938 333.16876ZM358.54688 333.45L359.64062 333.575Q359.39062 334.52814 358.6875 335.0594Q357.98438 335.59064 356.90625 335.59064Q355.54688 335.59064 354.73438 334.7469Q353.9375 333.90314 353.9375 332.3875Q353.9375 330.825 354.75 329.96564Q355.5625 329.09064 356.84375 329.09064Q358.09375 329.09064 358.875 329.9344Q359.67188 330.77814 359.67188 332.325Q359.67188 332.41876 359.67188 332.60626L355.03125 332.60626Q355.09375 333.6375 355.60938 334.1844Q356.125 334.71564 356.90625 334.71564Q357.48438 334.71564 357.89062 334.41876Q358.3125 334.10626 358.54688 333.45ZM355.09375 331.7469L358.5625 331.7469Q358.5 330.95 358.17188 330.5594Q357.65625 329.95 356.85938 329.95Q356.125 329.95 355.625 330.4344Q355.14062 330.91876 355.09375 331.7469ZM363.5 335.59064L365.98438 326.71564L366.82812 326.71564L364.34375 335.59064L363.5 335.59064Z" fill-rule="nonzero"/><path fill="#000000" d="M319.89062 349.45L319.89062 340.85626L321.60938 340.85626L323.64062 346.9344Q323.92188 347.79376 324.04688 348.21564Q324.1875 347.7469 324.5 346.84064L326.5625 340.85626L328.09375 340.85626L328.09375 349.45L327.0 349.45L327.0 342.2625L324.5 349.45L323.46875 349.45L320.98438 342.1375L320.98438 349.45L319.89062 349.45ZM328.875 349.45L328.875 340.85626L330.01562 340.85626L330.01562 348.4344L334.25 348.4344L334.25 349.45L328.875 349.45Z" fill-rule="nonzero"/><path fill="#000000" d="M410.04337 335.45L410.04337 326.85626L413.01212 326.85626Q414.01212 326.85626 414.54337 326.98126Q415.27774 327.15314 415.79337 327.59064Q416.48087 328.16876 416.809 329.075Q417.15274 329.96564 417.15274 331.10626Q417.15274 332.09064 416.91837 332.84064Q416.69962 333.59064 416.34024 334.09064Q415.98087 334.59064 415.54337 334.8719Q415.1215 335.15314 414.52774 335.3094Q413.934 335.45 413.15274 335.45L410.04337 335.45ZM411.184 334.4344L413.01212 334.4344Q413.8715 334.4344 414.35587 334.27814Q414.84024 334.1219 415.1215 333.825Q415.52774 333.4344 415.7465 332.7469Q415.98087 332.0594 415.98087 331.09064Q415.98087 329.7469 415.52774 329.02814Q415.09024 328.29376 414.46524 328.04376Q413.9965 327.8719 412.9965 327.8719L411.184 327.8719L411.184 334.4344ZM422.98087 334.6844Q422.38712 335.1844 421.84024 335.3875Q421.309 335.59064 420.684 335.59064Q419.65274 335.59064 419.10587 335.09064Q418.559 334.59064 418.559 333.8094Q418.559 333.35626 418.76212 332.98126Q418.96524 332.59064 419.309 332.3719Q419.65274 332.1375 420.07462 332.02814Q420.3715 331.9344 421.01212 331.85626Q422.27774 331.71564 422.88712 331.4969Q422.88712 331.27814 422.88712 331.23126Q422.88712 330.575 422.59024 330.3094Q422.184 329.96564 421.38712 329.96564Q420.65274 329.96564 420.29337 330.23126Q419.934 330.48126 419.76212 331.1375L418.73087 330.9969Q418.8715 330.34064 419.19962 329.9344Q419.52774 329.52814 420.13712 329.3094Q420.7465 329.09064 421.54337 329.09064Q422.34024 329.09064 422.84024 329.27814Q423.34024 329.46564 423.57462 329.7469Q423.809 330.02814 423.90274 330.46564Q423.94962 330.73126 423.94962 331.4344L423.94962 332.84064Q423.94962 334.3094 424.01212 334.7Q424.09024 335.09064 424.29337 335.45L423.184 335.45Q423.02774 335.1219 422.98087 334.6844ZM422.88712 332.325Q422.309 332.5594 421.16837 332.73126Q420.51212 332.825 420.2465 332.95Q419.98087 333.0594 419.82462 333.27814Q419.684 333.4969 419.684 333.77814Q419.684 334.2 419.9965 334.48126Q420.32462 334.7625 420.934 334.7625Q421.54337 334.7625 422.01212 334.4969Q422.4965 334.23126 422.71524 333.7625Q422.88712 333.40314 422.88712 332.71564L422.88712 332.325ZM428.21524 334.5125L428.3715 335.4344Q427.91837 335.52814 427.57462 335.52814Q426.9965 335.52814 426.684 335.35626Q426.3715 335.16876 426.23087 334.8719Q426.10587 334.575 426.10587 333.6219L426.10587 330.04376L425.34024 330.04376L425.34024 329.23126L426.10587 329.23126L426.10587 327.6844L427.15274 327.0594L427.15274 329.23126L428.21524 329.23126L428.21524 330.04376L427.15274 330.04376L427.15274 333.6844Q427.15274 334.1375 427.19962 334.2625Q427.26212 334.3875 427.38712 334.46564Q427.51212 334.54376 427.7465 334.54376Q427.934 334.54376 428.21524 334.5125ZM432.98087 334.6844Q432.38712 335.1844 431.84024 335.3875Q431.309 335.59064 430.684 335.59064Q429.65274 335.59064 429.10587 335.09064Q428.559 334.59064 428.559 333.8094Q428.559 333.35626 428.76212 332.98126Q428.96524 332.59064 429.309 332.3719Q429.65274 332.1375 430.07462 332.02814Q430.3715 331.9344 431.01212 331.85626Q432.27774 331.71564 432.88712 331.4969Q432.88712 331.27814 432.88712 331.23126Q432.88712 330.575 432.59024 330.3094Q432.184 329.96564 431.38712 329.96564Q430.65274 329.96564 430.29337 330.23126Q429.934 330.48126 429.76212 331.1375L428.73087 330.9969Q428.8715 330.34064 429.19962 329.9344Q429.52774 329.52814 430.13712 329.3094Q430.7465 329.09064 431.54337 329.09064Q432.34024 329.09064 432.84024 329.27814Q433.34024 329.46564 433.57462 329.7469Q433.809 330.02814 433.90274 330.46564Q433.94962 330.73126 433.94962 331.4344L433.94962 332.84064Q433.94962 334.3094 434.01212 334.7Q434.09024 335.09064 434.29337 335.45L433.184 335.45Q433.02774 335.1219 432.98087 334.6844ZM432.88712 332.325Q432.309 332.5594 431.16837 332.73126Q430.51212 332.825 430.2465 332.95Q429.98087 333.0594 429.82462 333.27814Q429.684 333.4969 429.684 333.77814Q429.684 334.2 429.9965 334.48126Q430.32462 334.7625 430.934 334.7625Q431.54337 334.7625 432.01212 334.4969Q432.4965 334.23126 432.71524 333.7625Q432.88712 333.40314 432.88712 332.71564L432.88712 332.325Z" fill-rule="nonzero"/><path fill="#000000" d="M389.57462 349.45L389.57462 340.85626L395.77774 340.85626L395.77774 341.8719L390.71524 341.8719L390.71524 344.4969L395.46524 344.4969L395.46524 345.5125L390.71524 345.5125L390.71524 348.4344L395.98087 348.4344L395.98087 349.45L389.57462 349.45ZM397.41837 349.45L397.41837 343.23126L398.35587 343.23126L398.35587 344.10626Q399.04337 343.09064 400.34024 343.09064Q400.90274 343.09064 401.3715 343.29376Q401.85587 343.4969 402.09024 343.825Q402.32462 344.15314 402.41837 344.59064Q402.46524 344.8875 402.46524 345.6219L402.46524 349.45L401.41837 349.45L401.41837 345.66876Q401.41837 345.0125 401.29337 344.7Q401.16837 344.3875 400.85587 344.2Q400.54337 343.9969 400.1215 343.9969Q399.44962 343.9969 398.94962 344.4344Q398.46524 344.85626 398.46524 346.04376L398.46524 349.45L397.41837 349.45ZM404.21524 349.96564L405.2465 350.1219Q405.309 350.59064 405.60587 350.8094Q405.9965 351.10626 406.66837 351.10626Q407.40274 351.10626 407.79337 350.8094Q408.19962 350.5125 408.34024 349.9969Q408.434 349.66876 408.41837 348.6375Q407.73087 349.45 406.69962 349.45Q405.41837 349.45 404.71524 348.52814Q404.01212 347.59064 404.01212 346.3094Q404.01212 345.41876 404.32462 344.66876Q404.65274 343.90314 405.26212 343.4969Q405.8715 343.09064 406.69962 343.09064Q407.809 343.09064 408.52774 343.98126L408.52774 343.23126L409.4965 343.23126L409.4965 348.60626Q409.4965 350.0594 409.19962 350.66876Q408.90274 351.27814 408.26212 351.6219Q407.6215 351.98126 406.684 351.98126Q405.57462 351.98126 404.88712 351.48126Q404.19962 350.98126 404.21524 349.96564ZM405.09024 346.23126Q405.09024 347.45 405.57462 348.0125Q406.059 348.575 406.79337 348.575Q407.52774 348.575 408.01212 348.0125Q408.51212 347.45 408.51212 346.2625Q408.51212 345.1219 407.9965 344.54376Q407.4965 343.96564 406.77774 343.96564Q406.07462 343.96564 405.57462 344.54376Q405.09024 345.10626 405.09024 346.23126ZM411.41837 342.075L411.41837 340.85626L412.48087 340.85626L412.48087 342.075L411.41837 342.075ZM411.41837 349.45L411.41837 343.23126L412.48087 343.23126L412.48087 349.45L411.41837 349.45ZM414.41837 349.45L414.41837 343.23126L415.35587 343.23126L415.35587 344.10626Q416.04337 343.09064 417.34024 343.09064Q417.90274 343.09064 418.3715 343.29376Q418.85587 343.4969 419.09024 343.825Q419.32462 344.15314 419.41837 344.59064Q419.46524 344.8875 419.46524 345.6219L419.46524 349.45L418.41837 349.45L418.41837 345.66876Q418.41837 345.0125 418.29337 344.7Q418.16837 344.3875 417.85587 344.2Q417.54337 343.9969 417.1215 343.9969Q416.44962 343.9969 415.94962 344.4344Q415.46524 344.85626 415.46524 346.04376L415.46524 349.45L414.41837 349.45ZM425.66837 347.45L426.76212 347.575Q426.51212 348.52814 425.809 349.0594Q425.10587 349.59064 424.02774 349.59064Q422.66837 349.59064 421.85587 348.7469Q421.059 347.90314 421.059 346.3875Q421.059 344.825 421.8715 343.96564Q422.684 343.09064 423.96524 343.09064Q425.21524 343.09064 425.9965 343.9344Q426.79337 344.77814 426.79337 346.325Q426.79337 346.41876 426.79337 346.60626L422.15274 346.60626Q422.21524 347.6375 422.73087 348.1844Q423.2465 348.71564 424.02774 348.71564Q424.60587 348.71564 425.01212 348.41876Q425.434 348.10626 425.66837 347.45ZM422.21524 345.7469L425.684 345.7469Q425.6215 344.95 425.29337 344.5594Q424.77774 343.95 423.98087 343.95Q423.2465 343.95 422.7465 344.4344Q422.26212 344.91876 422.21524 345.7469ZM432.66837 347.45L433.76212 347.575Q433.51212 348.52814 432.809 349.0594Q432.10587 349.59064 431.02774 349.59064Q429.66837 349.59064 428.85587 348.7469Q428.059 347.90314 428.059 346.3875Q428.059 344.825 428.8715 343.96564Q429.684 343.09064 430.96524 343.09064Q432.21524 343.09064 432.9965 343.9344Q433.79337 344.77814 433.79337 346.325Q433.79337 346.41876 433.79337 346.60626L429.15274 346.60626Q429.21524 347.6375 429.73087 348.1844Q430.2465 348.71564 431.02774 348.71564Q431.60587 348.71564 432.01212 348.41876Q432.434 348.10626 432.66837 347.45ZM429.21524 345.7469L432.684 345.7469Q432.6215 344.95 432.29337 344.5594Q431.77774 343.95 430.98087 343.95Q430.2465 343.95 429.7465 344.4344Q429.26212 344.91876 429.21524 345.7469ZM435.40274 349.45L435.40274 343.23126L436.35587 343.23126L436.35587 344.16876Q436.71524 343.5125 437.01212 343.3094Q437.32462 343.09064 437.69962 343.09064Q438.23087 343.09064 438.77774 343.41876L438.41837 344.40314Q438.02774 344.16876 437.65274 344.16876Q437.29337 344.16876 437.01212 344.3875Q436.7465 344.59064 436.63712 344.96564Q436.44962 345.52814 436.44962 346.1844L436.44962 349.45L435.40274 349.45ZM439.41837 342.075L439.41837 340.85626L440.48087 340.85626L440.48087 342.075L439.41837 342.075ZM439.41837 349.45L439.41837 343.23126L440.48087 343.23126L440.48087 349.45L439.41837 349.45ZM442.41837 349.45L442.41837 343.23126L443.35587 343.23126L443.35587 344.10626Q444.04337 343.09064 445.34024 343.09064Q445.90274 343.09064 446.3715 343.29376Q446.85587 343.4969 447.09024 343.825Q447.32462 344.15314 447.41837 344.59064Q447.46524 344.8875 447.46524 345.6219L447.46524 349.45L446.41837 349.45L446.41837 345.66876Q446.41837 345.0125 446.29337 344.7Q446.16837 344.3875 445.85587 344.2Q445.54337 343.9969 445.1215 343.9969Q444.44962 343.9969 443.94962 344.4344Q443.46524 344.85626 443.46524 346.04376L443.46524 349.45L442.41837 349.45ZM449.21524 349.96564L450.2465 350.1219Q450.309 350.59064 450.60587 350.8094Q450.9965 351.10626 451.66837 351.10626Q452.40274 351.10626 452.79337 350.8094Q453.19962 350.5125 453.34024 349.9969Q453.434 349.66876 453.41837 348.6375Q452.73087 349.45 451.69962 349.45Q450.41837 349.45 449.71524 348.52814Q449.01212 347.59064 449.01212 346.3094Q449.01212 345.41876 449.32462 344.66876Q449.65274 343.90314 450.26212 343.4969Q450.8715 343.09064 451.69962 343.09064Q452.809 343.09064 453.52774 343.98126L453.52774 343.23126L454.4965 343.23126L454.4965 348.60626Q454.4965 350.0594 454.19962 350.66876Q453.90274 351.27814 453.26212 351.6219Q452.6215 351.98126 451.684 351.98126Q450.57462 351.98126 449.88712 351.48126Q449.19962 350.98126 449.21524 349.96564ZM450.09024 346.23126Q450.09024 347.45 450.57462 348.0125Q451.059 348.575 451.79337 348.575Q452.52774 348.575 453.01212 348.0125Q453.51212 347.45 453.51212 346.2625Q453.51212 345.1219 452.9965 344.54376Q452.4965 343.96564 451.77774 343.96564Q451.07462 343.96564 450.57462 344.54376Q450.09024 345.10626 450.09024 346.23126Z" fill-rule="nonzero"/><path fill="#000000" d="M487.3211 331.2625Q487.3211 329.1219 488.46173 327.91876Q489.61798 326.7 491.43048 326.7Q492.6336 326.7 493.58673 327.27814Q494.53986 327.84064 495.03986 328.85626Q495.53986 329.8719 495.53986 331.16876Q495.53986 332.46564 495.0086 333.4969Q494.47736 334.52814 493.5086 335.0594Q492.55548 335.59064 491.43048 335.59064Q490.21173 335.59064 489.2586 335.0125Q488.30548 334.41876 487.80548 333.41876Q487.3211 332.40314 487.3211 331.2625ZM488.49298 331.27814Q488.49298 332.84064 489.3211 333.73126Q490.16486 334.6219 491.43048 334.6219Q492.71173 334.6219 493.53986 333.73126Q494.36798 332.825 494.36798 331.15314Q494.36798 330.10626 494.0086 329.325Q493.66486 328.54376 492.97736 328.1219Q492.28986 327.6844 491.4461 327.6844Q490.24298 327.6844 489.36798 328.5125Q488.49298 329.34064 488.49298 331.27814ZM496.53986 337.84064L496.53986 329.23126L497.49298 329.23126L497.49298 330.02814Q497.83673 329.5594 498.2586 329.325Q498.6961 329.09064 499.30548 329.09064Q500.10236 329.09064 500.71173 329.4969Q501.3211 329.90314 501.61798 330.65314Q501.93048 331.40314 501.93048 332.29376Q501.93048 333.2469 501.58673 334.0125Q501.2586 334.77814 500.60236 335.1844Q499.9461 335.59064 499.22736 335.59064Q498.6961 335.59064 498.27423 335.3719Q497.85236 335.1375 497.58673 334.8094L497.58673 337.84064L496.53986 337.84064ZM497.49298 332.3719Q497.49298 333.575 497.97736 334.15314Q498.46173 334.71564 499.14923 334.71564Q499.85236 334.71564 500.35236 334.1219Q500.85236 333.52814 500.85236 332.27814Q500.85236 331.09064 500.36798 330.5125Q499.8836 329.91876 499.1961 329.91876Q498.52423 329.91876 498.0086 330.54376Q497.49298 331.16876 497.49298 332.3719ZM507.78986 333.45L508.8836 333.575Q508.6336 334.52814 507.93048 335.0594Q507.22736 335.59064 506.14923 335.59064Q504.78986 335.59064 503.97736 334.7469Q503.18048 333.90314 503.18048 332.3875Q503.18048 330.825 503.99298 329.96564Q504.80548 329.09064 506.08673 329.09064Q507.33673 329.09064 508.11798 329.9344Q508.91486 330.77814 508.91486 332.325Q508.91486 332.41876 508.91486 332.60626L504.27423 332.60626Q504.33673 333.6375 504.85236 334.1844Q505.36798 334.71564 506.14923 334.71564Q506.72736 334.71564 507.1336 334.41876Q507.55548 334.10626 507.78986 333.45ZM504.33673 331.7469L507.80548 331.7469Q507.74298 330.95 507.41486 330.5594Q506.89923 329.95 506.10236 329.95Q505.36798 329.95 504.86798 330.4344Q504.3836 330.91876 504.33673 331.7469ZM510.52423 335.45L510.52423 329.23126L511.47736 329.23126L511.47736 330.16876Q511.83673 329.5125 512.1336 329.3094Q512.4461 329.09064 512.8211 329.09064Q513.35236 329.09064 513.89923 329.41876L513.53986 330.40314Q513.14923 330.16876 512.77423 330.16876Q512.41486 330.16876 512.1336 330.3875Q511.86798 330.59064 511.7586 330.96564Q511.5711 331.52814 511.5711 332.1844L511.5711 335.45L510.52423 335.45ZM518.60236 334.6844Q518.0086 335.1844 517.46173 335.3875Q516.9305 335.59064 516.3055 335.59064Q515.27423 335.59064 514.72736 335.09064Q514.1805 334.59064 514.1805 333.8094Q514.1805 333.35626 514.3836 332.98126Q514.58673 332.59064 514.9305 332.3719Q515.27423 332.1375 515.6961 332.02814Q515.993 331.9344 516.6336 331.85626Q517.89923 331.71564 518.5086 331.4969Q518.5086 331.27814 518.5086 331.23126Q518.5086 330.575 518.21173 330.3094Q517.8055 329.96564 517.0086 329.96564Q516.27423 329.96564 515.91486 330.23126Q515.5555 330.48126 515.3836 331.1375L514.35236 330.9969Q514.493 330.34064 514.8211 329.9344Q515.14923 329.52814 515.7586 329.3094Q516.368 329.09064 517.16486 329.09064Q517.96173 329.09064 518.46173 329.27814Q518.96173 329.46564 519.1961 329.7469Q519.4305 330.02814 519.52423 330.46564Q519.5711 330.73126 519.5711 331.4344L519.5711 332.84064Q519.5711 334.3094 519.6336 334.7Q519.71173 335.09064 519.91486 335.45L518.8055 335.45Q518.64923 335.1219 518.60236 334.6844ZM518.5086 332.325Q517.9305 332.5594 516.78986 332.73126Q516.1336 332.825 515.868 332.95Q515.60236 333.0594 515.4461 333.27814Q515.3055 333.4969 515.3055 333.77814Q515.3055 334.2 515.618 334.48126Q515.9461 334.7625 516.5555 334.7625Q517.16486 334.7625 517.6336 334.4969Q518.118 334.23126 518.33673 333.7625Q518.5086 333.40314 518.5086 332.71564L518.5086 332.325ZM523.83673 334.5125L523.993 335.4344Q523.53986 335.52814 523.1961 335.52814Q522.618 335.52814 522.3055 335.35626Q521.993 335.16876 521.85236 334.8719Q521.72736 334.575 521.72736 333.6219L521.72736 330.04376L520.96173 330.04376L520.96173 329.23126L521.72736 329.23126L521.72736 327.6844L522.77423 327.0594L522.77423 329.23126L523.83673 329.23126L523.83673 330.04376L522.77423 330.04376L522.77423 333.6844Q522.77423 334.1375 522.8211 334.2625Q522.8836 334.3875 523.0086 334.46564Q523.1336 334.54376 523.368 334.54376Q523.5555 334.54376 523.83673 334.5125ZM524.53986 328.075L524.53986 326.85626L525.60236 326.85626L525.60236 328.075L524.53986 328.075ZM524.53986 335.45L524.53986 329.23126L525.60236 329.23126L525.60236 335.45L524.53986 335.45ZM527.14923 332.34064Q527.14923 330.60626 528.10236 329.77814Q528.89923 329.09064 530.0555 329.09064Q531.33673 329.09064 532.14923 329.9344Q532.97736 330.7625 532.97736 332.2469Q532.97736 333.45 532.618 334.1375Q532.2586 334.825 531.5555 335.21564Q530.868 335.59064 530.0555 335.59064Q528.7586 335.59064 527.9461 334.7625Q527.14923 333.91876 527.14923 332.34064ZM528.22736 332.34064Q528.22736 333.52814 528.743 334.1219Q529.27423 334.71564 530.0555 334.71564Q530.85236 334.71564 531.368 334.1219Q531.8836 333.52814 531.8836 332.3094Q531.8836 331.15314 531.35236 330.5594Q530.83673 329.96564 530.0555 329.96564Q529.27423 329.96564 528.743 330.5594Q528.22736 331.1375 528.22736 332.34064ZM534.53986 335.45L534.53986 329.23126L535.47736 329.23126L535.47736 330.10626Q536.16486 329.09064 537.46173 329.09064Q538.02423 329.09064 538.493 329.29376Q538.97736 329.4969 539.21173 329.825Q539.4461 330.15314 539.53986 330.59064Q539.58673 330.8875 539.58673 331.6219L539.58673 335.45L538.53986 335.45L538.53986 331.66876Q538.53986 331.0125 538.41486 330.7Q538.28986 330.3875 537.97736 330.2Q537.66486 329.9969 537.243 329.9969Q536.5711 329.9969 536.0711 330.4344Q535.58673 330.85626 535.58673 332.04376L535.58673 335.45L534.53986 335.45ZM541.118 333.59064L542.14923 333.4344Q542.243 334.0594 542.6336 334.3875Q543.03986 334.71564 543.77423 334.71564Q544.493 334.71564 544.83673 334.4344Q545.1961 334.1375 545.1961 333.73126Q545.1961 333.3719 544.8836 333.16876Q544.66486 333.02814 543.8055 332.8094Q542.64923 332.5125 542.1961 332.3094Q541.7586 332.09064 541.52423 331.71564Q541.28986 331.34064 541.28986 330.8719Q541.28986 330.46564 541.47736 330.10626Q541.66486 329.7469 541.993 329.5125Q542.243 329.34064 542.66486 329.21564Q543.08673 329.09064 543.58673 329.09064Q544.3055 329.09064 544.85236 329.3094Q545.41486 329.5125 545.6805 329.8719Q545.9461 330.23126 546.03986 330.825L545.0086 330.96564Q544.9461 330.4969 544.60236 330.23126Q544.27423 329.95 543.64923 329.95Q542.9305 329.95 542.618 330.2Q542.3055 330.4344 542.3055 330.7625Q542.3055 330.96564 542.4305 331.1219Q542.5711 331.29376 542.83673 331.40314Q542.993 331.46564 543.77423 331.66876Q544.89923 331.98126 545.33673 332.16876Q545.77423 332.35626 546.02423 332.71564Q546.27423 333.075 546.27423 333.6219Q546.27423 334.15314 545.96173 334.6219Q545.66486 335.075 545.08673 335.34064Q544.5086 335.59064 543.77423 335.59064Q542.5555 335.59064 541.91486 335.09064Q541.28986 334.575 541.118 333.59064Z" fill-rule="nonzero"/></svg>