<svg version="1.1" viewBox="0.0 0.0 600.0 371.0" fill="none" stroke="none" stroke-linecap="square" stroke-miterlimit="10" width="600" height="371" xmlns:xlink="http://www.w3.org/1999/xlink" xmlns="http://www.w3.org/2000/svg"><path fill="#ffffff" d="M0 0L600.0 0L600.0 371.0L0 371.0L0 0Z" fill-rule="nonzero"/><path fill="#4285f4" d="M300.0 18.55C383.25476 18.55 453.78513 79.888466 465.3355 162.3381C476.8859 244.78773 425.9257 323.14584 345.87582 346.02325L300.0 185.5Z" fill-rule="nonzero"/><path fill="#ff6d01" d="M200.79814 51.21935C229.52046 30.000294 264.28976 18.55 300.0 18.55L300.0 185.5Z" fill-rule="nonzero"/><path fill="#34a853" d="M140.4206 136.4417C150.91406 102.30802 172.0758 72.43841 200.79814 51.21935L300.0 185.5Z" fill-rule="nonzero"/><path fill="#fbbc04" d="M229.27678 336.73004C153.86127 301.46173 115.95616 216.02087 140.4206 136.4417L300.0 185.5Z" fill-rule="nonzero"/><path fill="#ea4335" d="M345.87582 346.02325C307.1605 357.08768 265.75076 353.78723 229.27678 336.73004L300.0 185.5Z" fill-rule="nonzero"/><path fill="#1a1a1a" d="M19.128124 26.168653Q19.128124 24.028028 20.26875 22.824903Q21.425 21.606153 23.2375 21.606153Q24.440624 21.606153 25.39375 22.184278Q26.346874 22.746778 26.846874 23.762403Q27.346874 24.778028 27.346874 26.074903Q27.346874 27.371778 26.815624 28.403028Q26.284374 29.434278 25.315624 29.965528Q24.3625 30.496778 23.2375 30.496778Q22.01875 30.496778 21.065624 29.918653Q20.1125 29.324903 19.6125 28.324903Q19.128124 27.309278 19.128124 26.168653ZM20.3 26.184278Q20.3 27.746778 21.128124 28.637403Q21.971874 29.528028 23.2375 29.528028Q24.51875 29.528028 25.346874 28.637403Q26.175 27.731153 26.175 26.059278Q26.175 25.012403 25.815624 24.231153Q25.471874 23.449903 24.784374 23.028028Q24.096874 22.590528 23.253124 22.590528Q22.05 22.590528 21.175 23.418653Q20.3 24.246778 20.3 26.184278ZM28.346874 32.74678L28.346874 24.137403L29.3 24.137403L29.3 24.934278Q29.64375 24.465528 30.065624 24.231153Q30.503124 23.996778 31.1125 23.996778Q31.909374 23.996778 32.51875 24.403028Q33.128124 24.809278 33.425 25.559278Q33.7375 26.309278 33.7375 27.199903Q33.7375 28.153028 33.39375 28.918653Q33.065624 29.684278 32.409374 30.090528Q31.753124 30.496778 31.034374 30.496778Q30.503124 30.496778 30.08125 30.278028Q29.659374 30.043653 29.39375 29.715528L29.39375 32.74678L28.346874 32.74678ZM29.3 27.278028Q29.3 28.481153 29.784374 29.059278Q30.26875 29.621778 30.95625 29.621778Q31.659374 29.621778 32.159374 29.028028Q32.659374 28.434278 32.659374 27.184278Q32.659374 25.996778 32.175 25.418653Q31.690624 24.824903 31.003124 24.824903Q30.33125 24.824903 29.815624 25.449903Q29.3 26.074903 29.3 27.278028ZM39.596874 28.356153L40.690624 28.481153Q40.440624 29.434278 39.7375 29.965528Q39.034374 30.496778 37.95625 30.496778Q36.596874 30.496778 35.784374 29.653028Q34.9875 28.809278 34.9875 27.293653Q34.9875 25.731153 35.8 24.871778Q36.6125 23.996778 37.89375 23.996778Q39.14375 23.996778 39.925 24.840528Q40.721874 25.684278 40.721874 27.231153Q40.721874 27.324903 40.721874 27.512403L36.08125 27.512403Q36.14375 28.543653 36.659374 29.090528Q37.175 29.621778 37.95625 29.621778Q38.534374 29.621778 38.940624 29.324903Q39.3625 29.012403 39.596874 28.356153ZM36.14375 26.653028L39.6125 26.653028Q39.55 25.856153 39.221874 25.465528Q38.70625 24.856153 37.909374 24.856153Q37.175 24.856153 36.675 25.340528Q36.190624 25.824903 36.14375 26.653028ZM42.33125 30.356153L42.33125 24.137403L43.284374 24.137403L43.284374 25.074903Q43.64375 24.418653 43.940624 24.215528Q44.253124 23.996778 44.628124 23.996778Q45.159374 23.996778 45.70625 24.324903L45.346874 25.309278Q44.95625 25.074903 44.58125 25.074903Q44.221874 25.074903 43.940624 25.293653Q43.675 25.496778 43.565624 25.871778Q43.378124 26.434278 43.378124 27.090528L43.378124 30.356153L42.33125 30.356153ZM50.409374 29.590528Q49.815624 30.090528 49.26875 30.293653Q48.7375 30.496778 48.1125 30.496778Q47.08125 30.496778 46.534374 29.996778Q45.9875 29.496778 45.9875 28.715528Q45.9875 28.262403 46.190624 27.887403Q46.39375 27.496778 46.7375 27.278028Q47.08125 27.043653 47.503124 26.934278Q47.8 26.840528 48.440624 26.762403Q49.70625 26.621778 50.315624 26.403028Q50.315624 26.184278 50.315624 26.137403Q50.315624 25.481153 50.01875 25.215528Q49.6125 24.871778 48.815624 24.871778Q48.08125 24.871778 47.721874 25.137403Q47.3625 25.387403 47.190624 26.043653L46.159374 25.903028Q46.3 25.246778 46.628124 24.840528Q46.95625 24.434278 47.565624 24.215528Q48.175 23.996778 48.971874 23.996778Q49.76875 23.996778 50.26875 24.184278Q50.76875 24.371778 51.003124 24.653028Q51.2375 24.934278 51.33125 25.371778Q51.378124 25.637403 51.378124 26.340528L51.378124 27.746778Q51.378124 29.215528 51.440624 29.606153Q51.51875 29.996778 51.721874 30.356153L50.6125 30.356153Q50.45625 30.028028 50.409374 29.590528ZM50.315624 27.231153Q49.7375 27.465528 48.596874 27.637403Q47.940624 27.731153 47.675 27.856153Q47.409374 27.965528 47.253124 28.184278Q47.1125 28.403028 47.1125 28.684278Q47.1125 29.106153 47.425 29.387403Q47.753124 29.668653 48.3625 29.668653Q48.971874 29.668653 49.440624 29.403028Q49.925 29.137403 50.14375 28.668653Q50.315624 28.309278 50.315624 27.621778L50.315624 27.231153ZM55.64375 29.418653L55.8 30.340528Q55.346874 30.434278 55.003124 30.434278Q54.425 30.434278 54.1125 30.262403Q53.8 30.074903 53.659374 29.778028Q53.534374 29.481153 53.534374 28.528028L53.534374 24.949903L52.76875 24.949903L52.76875 24.137403L53.534374 24.137403L53.534374 22.590528L54.58125 21.965528L54.58125 24.137403L55.64375 24.137403L55.64375 24.949903L54.58125 24.949903L54.58125 28.590528Q54.58125 29.043653 54.628124 29.168653Q54.690624 29.293653 54.815624 29.371778Q54.940624 29.449903 55.175 29.449903Q55.3625 29.449903 55.64375 29.418653ZM56.346874 22.981153L56.346874 21.762403L57.409374 21.762403L57.409374 22.981153L56.346874 22.981153ZM56.346874 30.356153L56.346874 24.137403L57.409374 24.137403L57.409374 30.356153L56.346874 30.356153ZM58.95625 27.246778Q58.95625 25.512403 59.909374 24.684278Q60.70625 23.996778 61.8625 23.996778Q63.14375 23.996778 63.95625 24.840528Q64.78438 25.668653 64.78438 27.153028Q64.78438 28.356153 64.425 29.043653Q64.06563 29.731153 63.3625 30.121778Q62.675 30.496778 61.8625 30.496778Q60.565624 30.496778 59.753124 29.668653Q58.95625 28.824903 58.95625 27.246778ZM60.034374 27.246778Q60.034374 28.434278 60.55 29.028028Q61.08125 29.621778 61.8625 29.621778Q62.659374 29.621778 63.175 29.028028Q63.690624 28.434278 63.690624 27.215528Q63.690624 26.059278 63.159374 25.465528Q62.64375 24.871778 61.8625 24.871778Q61.08125 24.871778 60.55 25.465528Q60.034374 26.043653 60.034374 27.246778ZM66.34688 30.356153L66.34688 24.137403L67.28438 24.137403L67.28438 25.012403Q67.97188 23.996778 69.26875 23.996778Q69.83125 23.996778 70.3 24.199903Q70.78438 24.403028 71.01875 24.731153Q71.25313 25.059278 71.34688 25.496778Q71.39375 25.793653 71.39375 26.528028L71.39375 30.356153L70.34688 30.356153L70.34688 26.574903Q70.34688 25.918653 70.22188 25.606153Q70.09688 25.293653 69.78438 25.106153Q69.47188 24.903028 69.05 24.903028Q68.37813 24.903028 67.87813 25.340528Q67.39375 25.762403 67.39375 26.949903L67.39375 30.356153L66.34688 30.356153ZM72.925 28.496778L73.95625 28.340528Q74.05 28.965528 74.44063 29.293653Q74.84688 29.621778 75.58125 29.621778Q76.3 29.621778 76.64375 29.340528Q77.00313 29.043653 77.00313 28.637403Q77.00313 28.278028 76.69063 28.074903Q76.47188 27.934278 75.6125 27.715528Q74.45625 27.418653 74.00313 27.215528Q73.56563 26.996778 73.33125 26.621778Q73.09688 26.246778 73.09688 25.778028Q73.09688 25.371778 73.28438 25.012403Q73.47188 24.653028 73.8 24.418653Q74.05 24.246778 74.47188 24.121778Q74.89375 23.996778 75.39375 23.996778Q76.1125 23.996778 76.65938 24.215528Q77.22188 24.418653 77.4875 24.778028Q77.75313 25.137403 77.84688 25.731153L76.81563 25.871778Q76.75313 25.403028 76.40938 25.137403Q76.08125 24.856153 75.45625 24.856153Q74.7375 24.856153 74.425 25.106153Q74.1125 25.340528 74.1125 25.668653Q74.1125 25.871778 74.2375 26.028028Q74.37813 26.199903 74.64375 26.309278Q74.8 26.371778 75.58125 26.574903Q76.70625 26.887403 77.14375 27.074903Q77.58125 27.262403 77.83125 27.621778Q78.08125 27.981153 78.08125 28.528028Q78.08125 29.059278 77.76875 29.528028Q77.47188 29.981153 76.89375 30.246778Q76.31563 30.496778 75.58125 30.496778Q74.3625 30.496778 73.72188 29.996778Q73.09688 29.481153 72.925 28.496778Z" fill-rule="nonzero"/><path fill="#9e9e9e" d="M23.01875 47.35615L21.971874 47.35615L21.971874 40.6374Q21.58125 40.996777 20.95625 41.371777Q20.346874 41.73115 19.8625 41.903027L19.8625 40.8874Q20.7375 40.465527 21.39375 39.8874Q22.065624 39.29365 22.346874 38.73115L23.01875 38.73115L23.01875 47.35615ZM26.05 43.121777Q26.05 41.590527 26.3625 40.66865Q26.675 39.73115 27.284374 39.23115Q27.909374 38.73115 28.846874 38.73115Q29.534374 38.73115 30.05 39.0124Q30.58125 39.29365 30.925 39.8249Q31.26875 40.340527 31.45625 41.090527Q31.64375 41.840527 31.64375 43.121777Q31.64375 44.6374 31.33125 45.559277Q31.034374 46.48115 30.409374 46.996777Q29.8 47.496777 28.846874 47.496777Q27.6125 47.496777 26.89375 46.60615Q26.05 45.54365 26.05 43.121777ZM27.128124 43.121777Q27.128124 45.23115 27.628124 45.934277Q28.128124 46.6374 28.846874 46.6374Q29.58125 46.6374 30.065624 45.934277Q30.565624 45.23115 30.565624 43.121777Q30.565624 40.996777 30.065624 40.309277Q29.58125 39.60615 28.83125 39.60615Q28.1125 39.60615 27.675 40.215527Q27.128124 40.996777 27.128124 43.121777ZM33.64375 47.35615L33.64375 46.153027L34.846874 46.153027L34.846874 47.35615L33.64375 47.35615ZM40.01875 47.35615L38.971874 47.35615L38.971874 40.6374Q38.58125 40.996777 37.95625 41.371777Q37.346874 41.73115 36.8625 41.903027L36.8625 40.8874Q37.7375 40.465527 38.39375 39.8874Q39.065624 39.29365 39.346874 38.73115L40.01875 38.73115L40.01875 47.35615ZM43.253124 40.8249Q43.253124 39.903027 43.70625 39.2624Q44.175 38.621777 45.05 38.621777Q45.8625 38.621777 46.39375 39.1999Q46.925 39.778027 46.925 40.8874Q46.925 41.98115 46.378124 42.5749Q45.846874 43.153027 45.065624 43.153027Q44.284374 43.153027 43.76875 42.5749Q43.253124 41.996777 43.253124 40.8249ZM45.08125 39.340527Q44.690624 39.340527 44.425 39.684277Q44.175 40.028027 44.175 40.934277Q44.175 41.7624 44.425 42.10615Q44.690624 42.434277 45.08125 42.434277Q45.4875 42.434277 45.7375 42.090527Q46.003124 41.746777 46.003124 40.85615Q46.003124 40.0124 45.7375 39.684277Q45.471874 39.340527 45.08125 39.340527ZM45.08125 47.66865L49.784374 38.621777L50.64375 38.621777L45.95625 47.66865L45.08125 47.66865ZM48.8 45.340527Q48.8 44.41865 49.253124 43.778027Q49.721874 43.1374 50.6125 43.1374Q51.425 43.1374 51.95625 43.715527Q52.4875 44.278027 52.4875 45.403027Q52.4875 46.496777 51.940624 47.090527Q51.409374 47.66865 50.6125 47.66865Q49.846874 47.66865 49.315624 47.090527Q48.8 46.5124 48.8 45.340527ZM50.64375 43.85615Q50.2375 43.85615 49.971874 44.1999Q49.721874 44.54365 49.721874 45.4499Q49.721874 46.2624 49.9875 46.60615Q50.253124 46.9499 50.64375 46.9499Q51.034374 46.9499 51.3 46.60615Q51.565624 46.2624 51.565624 45.35615Q51.565624 44.528027 51.3 44.1999Q51.034374 43.85615 50.64375 43.85615Z" fill-rule="nonzero"/><path stroke="#757575" stroke-width="1.0" stroke-linecap="butt" d="M18.55 34.85615L127.05 34.85615L250.38968 34.85615" fill-rule="nonzero"/><path fill="#9e9e9e" d="M252.38968 34.85615C252.38968 33.751583 251.49425 32.85615 250.38968 32.85615C249.28511 32.85615 248.38968 33.751583 248.38968 34.85615C248.38968 35.960724 249.28511 36.85615 250.38968 36.85615C251.49425 36.85615 252.38968 35.960724 252.38968 34.85615" fill-rule="nonzero"/><path fill="#1a1a1a" d="M19.471874 89.31316L19.471874 80.71941L22.440624 80.71941Q23.440624 80.71941 23.971874 80.84441Q24.70625 81.01629 25.221874 81.45379Q25.909374 82.03191 26.2375 82.93816Q26.58125 83.82879 26.58125 84.96941Q26.58125 85.95379 26.346874 86.70379Q26.128124 87.45379 25.76875 87.95379Q25.409374 88.45379 24.971874 88.73504Q24.55 89.01629 23.95625 89.17254Q23.3625 89.31316 22.58125 89.31316L19.471874 89.31316ZM20.6125 88.29754L22.440624 88.29754Q23.3 88.29754 23.784374 88.14129Q24.26875 87.98504 24.55 87.68816Q24.95625 87.29754 25.175 86.61004Q25.409374 85.92254 25.409374 84.95379Q25.409374 83.61004 24.95625 82.89129Q24.51875 82.15691 23.89375 81.90691Q23.425 81.73504 22.425 81.73504L20.6125 81.73504L20.6125 88.29754ZM32.409374 88.54754Q31.815624 89.04754 31.26875 89.25066Q30.7375 89.45379 30.1125 89.45379Q29.08125 89.45379 28.534374 88.95379Q27.9875 88.45379 27.9875 87.67254Q27.9875 87.21941 28.190624 86.84441Q28.39375 86.45379 28.7375 86.23504Q29.08125 86.00066 29.503124 85.89129Q29.8 85.79754 30.440624 85.71941Q31.70625 85.57879 32.315624 85.36004Q32.315624 85.14129 32.315624 85.09441Q32.315624 84.43816 32.01875 84.17254Q31.6125 83.82879 30.815624 83.82879Q30.08125 83.82879 29.721874 84.09441Q29.3625 84.34441 29.190624 85.00066L28.159374 84.86004Q28.3 84.20379 28.628124 83.79754Q28.95625 83.39129 29.565624 83.17254Q30.175 82.95379 30.971874 82.95379Q31.76875 82.95379 32.26875 83.14129Q32.76875 83.32879 33.003124 83.61004Q33.2375 83.89129 33.33125 84.32879Q33.378124 84.59441 33.378124 85.29754L33.378124 86.70379Q33.378124 88.17254 33.440624 88.56316Q33.51875 88.95379 33.721874 89.31316L32.6125 89.31316Q32.45625 88.98504 32.409374 88.54754ZM32.315624 86.18816Q31.7375 86.42254 30.596874 86.59441Q29.940624 86.68816 29.675 86.81316Q29.409374 86.92254 29.253124 87.14129Q29.1125 87.36004 29.1125 87.64129Q29.1125 88.06316 29.425 88.34441Q29.753124 88.62566 30.3625 88.62566Q30.971874 88.62566 31.440624 88.36004Q31.925 88.09441 32.14375 87.62566Q32.315624 87.26629 32.315624 86.57879L32.315624 86.18816ZM37.64375 88.37566L37.8 89.29754Q37.346874 89.39129 37.003124 89.39129Q36.425 89.39129 36.1125 89.21941Q35.8 89.03191 35.659374 88.73504Q35.534374 88.43816 35.534374 87.48504L35.534374 83.90691L34.76875 83.90691L34.76875 83.09441L35.534374 83.09441L35.534374 81.54754L36.58125 80.92254L36.58125 83.09441L37.64375 83.09441L37.64375 83.90691L36.58125 83.90691L36.58125 87.54754Q36.58125 88.00066 36.628124 88.12566Q36.690624 88.25066 36.815624 88.32879Q36.940624 88.40691 37.175 88.40691Q37.3625 88.40691 37.64375 88.37566ZM42.409374 88.54754Q41.815624 89.04754 41.26875 89.25066Q40.7375 89.45379 40.1125 89.45379Q39.08125 89.45379 38.534374 88.95379Q37.9875 88.45379 37.9875 87.67254Q37.9875 87.21941 38.190624 86.84441Q38.39375 86.45379 38.7375 86.23504Q39.08125 86.00066 39.503124 85.89129Q39.8 85.79754 40.440624 85.71941Q41.70625 85.57879 42.315624 85.36004Q42.315624 85.14129 42.315624 85.09441Q42.315624 84.43816 42.01875 84.17254Q41.6125 83.82879 40.815624 83.82879Q40.08125 83.82879 39.721874 84.09441Q39.3625 84.34441 39.190624 85.00066L38.159374 84.86004Q38.3 84.20379 38.628124 83.79754Q38.95625 83.39129 39.565624 83.17254Q40.175 82.95379 40.971874 82.95379Q41.76875 82.95379 42.26875 83.14129Q42.76875 83.32879 43.003124 83.61004Q43.2375 83.89129 43.33125 84.32879Q43.378124 84.59441 43.378124 85.29754L43.378124 86.70379Q43.378124 88.17254 43.440624 88.56316Q43.51875 88.95379 43.721874 89.31316L42.6125 89.31316Q42.45625 88.98504 42.409374 88.54754ZM42.315624 86.18816Q41.7375 86.42254 40.596874 86.59441Q39.940624 86.68816 39.675 86.81316Q39.409374 86.92254 39.253124 87.14129Q39.1125 87.36004 39.1125 87.64129Q39.1125 88.06316 39.425 88.34441Q39.753124 88.62566 40.3625 88.62566Q40.971874 88.62566 41.440624 88.36004Q41.925 88.09441 42.14375 87.62566Q42.315624 87.26629 42.315624 86.57879L42.315624 86.18816ZM48.503124 89.31316L48.503124 80.71941L54.70625 80.71941L54.70625 81.73504L49.64375 81.73504L49.64375 84.36004L54.39375 84.36004L54.39375 85.37566L49.64375 85.37566L49.64375 88.29754L54.909374 88.29754L54.909374 89.31316L48.503124 89.31316ZM56.346874 89.31316L56.346874 83.09441L57.284374 83.09441L57.284374 83.96941Q57.971874 82.95379 59.26875 82.95379Q59.83125 82.95379 60.3 83.15691Q60.784374 83.36004 61.01875 83.68816Q61.253124 84.01629 61.346874 84.45379Q61.39375 84.75066 61.39375 85.48504L61.39375 89.31316L60.346874 89.31316L60.346874 85.53191Q60.346874 84.87566 60.221874 84.56316Q60.096874 84.25066 59.784374 84.06316Q59.471874 83.86004 59.05 83.86004Q58.378124 83.86004 57.878124 84.29754Q57.39375 84.71941 57.39375 85.90691L57.39375 89.31316L56.346874 89.31316ZM63.14375 89.82879L64.175 89.98504Q64.2375 90.45379 64.53438 90.67254Q64.925 90.96941 65.59688 90.96941Q66.33125 90.96941 66.72188 90.67254Q67.12813 90.37566 67.26875 89.86004Q67.3625 89.53191 67.34688 88.50066Q66.65938 89.31316 65.62813 89.31316Q64.34688 89.31316 63.64375 88.39129Q62.940624 87.45379 62.940624 86.17254Q62.940624 85.28191 63.253124 84.53191Q63.58125 83.76629 64.19063 83.36004Q64.8 82.95379 65.62813 82.95379Q66.7375 82.95379 67.45625 83.84441L67.45625 83.09441L68.425 83.09441L68.425 88.46941Q68.425 89.92254 68.12813 90.53191Q67.83125 91.14129 67.19063 91.48504Q66.55 91.84441 65.6125 91.84441Q64.50313 91.84441 63.815624 91.34441Q63.128124 90.84441 63.14375 89.82879ZM64.01875 86.09441Q64.01875 87.31316 64.50313 87.87566Q64.9875 88.43816 65.72188 88.43816Q66.45625 88.43816 66.94063 87.87566Q67.44063 87.31316 67.44063 86.12566Q67.44063 84.98504 66.925 84.40691Q66.425 83.82879 65.70625 83.82879Q65.00313 83.82879 64.50313 84.40691Q64.01875 84.96941 64.01875 86.09441ZM70.34688 81.93816L70.34688 80.71941L71.40938 80.71941L71.40938 81.93816L70.34688 81.93816ZM70.34688 89.31316L70.34688 83.09441L71.40938 83.09441L71.40938 89.31316L70.34688 89.31316ZM73.34688 89.31316L73.34688 83.09441L74.28438 83.09441L74.28438 83.96941Q74.97188 82.95379 76.26875 82.95379Q76.83125 82.95379 77.3 83.15691Q77.78438 83.36004 78.01875 83.68816Q78.25313 84.01629 78.34688 84.45379Q78.39375 84.75066 78.39375 85.48504L78.39375 89.31316L77.34688 89.31316L77.34688 85.53191Q77.34688 84.87566 77.22188 84.56316Q77.09688 84.25066 76.78438 84.06316Q76.47188 83.86004 76.05 83.86004Q75.37813 83.86004 74.87813 84.29754Q74.39375 84.71941 74.39375 85.90691L74.39375 89.31316L73.34688 89.31316ZM84.59688 87.31316L85.69063 87.43816Q85.44063 88.39129 84.7375 88.92254Q84.03438 89.45379 82.95625 89.45379Q81.59688 89.45379 80.78438 88.61004Q79.9875 87.76629 79.9875 86.25066Q79.9875 84.68816 80.8 83.82879Q81.6125 82.95379 82.89375 82.95379Q84.14375 82.95379 84.925 83.79754Q85.72188 84.64129 85.72188 86.18816Q85.72188 86.28191 85.72188 86.46941L81.08125 86.46941Q81.14375 87.50066 81.65938 88.04754Q82.175 88.57879 82.95625 88.57879Q83.53438 88.57879 83.94063 88.28191Q84.3625 87.96941 84.59688 87.31316ZM81.14375 85.61004L84.6125 85.61004Q84.55 84.81316 84.22188 84.42254Q83.70625 83.81316 82.90938 83.81316Q82.175 83.81316 81.675 84.29754Q81.19063 84.78191 81.14375 85.61004ZM91.59688 87.31316L92.69063 87.43816Q92.44063 88.39129 91.7375 88.92254Q91.03438 89.45379 89.95625 89.45379Q88.59688 89.45379 87.78438 88.61004Q86.9875 87.76629 86.9875 86.25066Q86.9875 84.68816 87.8 83.82879Q88.6125 82.95379 89.89375 82.95379Q91.14375 82.95379 91.925 83.79754Q92.72188 84.64129 92.72188 86.18816Q92.72188 86.28191 92.72188 86.46941L88.08125 86.46941Q88.14375 87.50066 88.65938 88.04754Q89.175 88.57879 89.95625 88.57879Q90.53438 88.57879 90.94063 88.28191Q91.3625 87.96941 91.59688 87.31316ZM88.14375 85.61004L91.6125 85.61004Q91.55 84.81316 91.22188 84.42254Q90.70625 83.81316 89.90938 83.81316Q89.175 83.81316 88.675 84.29754Q88.19063 84.78191 88.14375 85.61004ZM94.33125 89.31316L94.33125 83.09441L95.28438 83.09441L95.28438 84.03191Q95.64375 83.37566 95.94063 83.17254Q96.25313 82.95379 96.62813 82.95379Q97.15938 82.95379 97.70625 83.28191L97.34688 84.26629Q96.95625 84.03191 96.58125 84.03191Q96.22188 84.03191 95.94063 84.25066Q95.675 84.45379 95.56563 84.82879Q95.37813 85.39129 95.37813 86.04754L95.37813 89.31316L94.33125 89.31316ZM98.34688 81.93816L98.34688 80.71941L99.40938 80.71941L99.40938 81.93816L98.34688 81.93816ZM98.34688 89.31316L98.34688 83.09441L99.40938 83.09441L99.40938 89.31316L98.34688 89.31316ZM101.34688 89.31316L101.34688 83.09441L102.28438 83.09441L102.28438 83.96941Q102.97188 82.95379 104.26875 82.95379Q104.83125 82.95379 105.3 83.15691Q105.78438 83.36004 106.01875 83.68816Q106.25313 84.01629 106.34688 84.45379Q106.39375 84.75066 106.39375 85.48504L106.39375 89.31316L105.34688 89.31316L105.34688 85.53191Q105.34688 84.87566 105.22188 84.56316Q105.09688 84.25066 104.78438 84.06316Q104.47188 83.86004 104.05 83.86004Q103.37813 83.86004 102.87813 84.29754Q102.39375 84.71941 102.39375 85.90691L102.39375 89.31316L101.34688 89.31316ZM108.14375 89.82879L109.175 89.98504Q109.2375 90.45379 109.53438 90.67254Q109.925 90.96941 110.59688 90.96941Q111.33125 90.96941 111.72188 90.67254Q112.12813 90.37566 112.26875 89.86004Q112.3625 89.53191 112.34688 88.50066Q111.65938 89.31316 110.62813 89.31316Q109.34688 89.31316 108.64375 88.39129Q107.94063 87.45379 107.94063 86.17254Q107.94063 85.28191 108.25313 84.53191Q108.58125 83.76629 109.19063 83.36004Q109.8 82.95379 110.62813 82.95379Q111.7375 82.95379 112.45625 83.84441L112.45625 83.09441L113.425 83.09441L113.425 88.46941Q113.425 89.92254 113.12813 90.53191Q112.83125 91.14129 112.19063 91.48504Q111.55 91.84441 110.6125 91.84441Q109.50313 91.84441 108.81563 91.34441Q108.12813 90.84441 108.14375 89.82879ZM109.01875 86.09441Q109.01875 87.31316 109.50313 87.87566Q109.9875 88.43816 110.72188 88.43816Q111.45625 88.43816 111.94063 87.87566Q112.44063 87.31316 112.44063 86.12566Q112.44063 84.98504 111.925 84.40691Q111.425 83.82879 110.70625 83.82879Q110.00313 83.82879 109.50313 84.40691Q109.01875 84.96941 109.01875 86.09441Z" fill-rule="nonzero"/><path fill="#9e9e9e" d="M23.01875 106.31316L21.971874 106.31316L21.971874 99.59441Q21.58125 99.95379 20.95625 100.32879Q20.346874 100.68816 19.8625 100.86004L19.8625 99.84441Q20.7375 99.42254 21.39375 98.84441Q22.065624 98.25066 22.346874 97.68816L23.01875 97.68816L23.01875 106.31316ZM26.05 102.07879Q26.05 100.54754 26.3625 99.62566Q26.675 98.68816 27.284374 98.18816Q27.909374 97.68816 28.846874 97.68816Q29.534374 97.68816 30.05 97.96941Q30.58125 98.25066 30.925 98.78191Q31.26875 99.29754 31.45625 100.04754Q31.64375 100.79754 31.64375 102.07879Q31.64375 103.59441 31.33125 104.51629Q31.034374 105.43816 30.409374 105.95379Q29.8 106.45379 28.846874 106.45379Q27.6125 106.45379 26.89375 105.56316Q26.05 104.50066 26.05 102.07879ZM27.128124 102.07879Q27.128124 104.18816 27.628124 104.89129Q28.128124 105.59441 28.846874 105.59441Q29.58125 105.59441 30.065624 104.89129Q30.565624 104.18816 30.565624 102.07879Q30.565624 99.95379 30.065624 99.26629Q29.58125 98.56316 28.83125 98.56316Q28.1125 98.56316 27.675 99.17254Q27.128124 99.95379 27.128124 102.07879ZM33.64375 106.31316L33.64375 105.11004L34.846874 105.11004L34.846874 106.31316L33.64375 106.31316ZM40.01875 106.31316L38.971874 106.31316L38.971874 99.59441Q38.58125 99.95379 37.95625 100.32879Q37.346874 100.68816 36.8625 100.86004L36.8625 99.84441Q37.7375 99.42254 38.39375 98.84441Q39.065624 98.25066 39.346874 97.68816L40.01875 97.68816L40.01875 106.31316ZM43.253124 99.78191Q43.253124 98.86004 43.70625 98.21941Q44.175 97.57879 45.05 97.57879Q45.8625 97.57879 46.39375 98.15691Q46.925 98.73504 46.925 99.84441Q46.925 100.93816 46.378124 101.53191Q45.846874 102.11004 45.065624 102.11004Q44.284374 102.11004 43.76875 101.53191Q43.253124 100.95379 43.253124 99.78191ZM45.08125 98.29754Q44.690624 98.29754 44.425 98.64129Q44.175 98.98504 44.175 99.89129Q44.175 100.71941 44.425 101.06316Q44.690624 101.39129 45.08125 101.39129Q45.4875 101.39129 45.7375 101.04754Q46.003124 100.70379 46.003124 99.81316Q46.003124 98.96941 45.7375 98.64129Q45.471874 98.29754 45.08125 98.29754ZM45.08125 106.62566L49.784374 97.57879L50.64375 97.57879L45.95625 106.62566L45.08125 106.62566ZM48.8 104.29754Q48.8 103.37566 49.253124 102.73504Q49.721874 102.09441 50.6125 102.09441Q51.425 102.09441 51.95625 102.67254Q52.4875 103.23504 52.4875 104.36004Q52.4875 105.45379 51.940624 106.04754Q51.409374 106.62566 50.6125 106.62566Q49.846874 106.62566 49.315624 106.04754Q48.8 105.46941 48.8 104.29754ZM50.64375 102.81316Q50.2375 102.81316 49.971874 103.15691Q49.721874 103.50066 49.721874 104.40691Q49.721874 105.21941 49.9875 105.56316Q50.253124 105.90691 50.64375 105.90691Q51.034374 105.90691 51.3 105.56316Q51.565624 105.21941 51.565624 104.31316Q51.565624 103.48504 51.3 103.15691Q51.034374 102.81316 50.64375 102.81316Z" fill-rule="nonzero"/><path stroke="#757575" stroke-width="1.0" stroke-linecap="butt" d="M18.55 93.81316L127.05 93.81316L170.58487 93.81316" fill-rule="nonzero"/><path fill="#9e9e9e" d="M172.58487 93.81316C172.58487 92.708595 171.68944 91.81316 170.58487 91.81316C169.4803 91.81316 168.58487 92.708595 168.58487 93.81316C168.58487 94.91773 169.4803 95.81316 170.58487 95.81316C171.68944 95.81316 172.58487 94.91773 172.58487 93.81316" fill-rule="nonzero"/><path fill="#1a1a1a" d="M19.471874 245.31734L19.471874 236.72359L22.440624 236.72359Q23.440624 236.72359 23.971874 236.84859Q24.70625 237.02046 25.221874 237.45796Q25.909374 238.03609 26.2375 238.94234Q26.58125 239.83296 26.58125 240.97359Q26.58125 241.95796 26.346874 242.70796Q26.128124 243.45796 25.76875 243.95796Q25.409374 244.45796 24.971874 244.73921Q24.55 245.02046 23.95625 245.17671Q23.3625 245.31734 22.58125 245.31734L19.471874 245.31734ZM20.6125 244.30171L22.440624 244.30171Q23.3 244.30171 23.784374 244.14546Q24.26875 243.98921 24.55 243.69234Q24.95625 243.30171 25.175 242.61421Q25.409374 241.92671 25.409374 240.95796Q25.409374 239.61421 24.95625 238.89546Q24.51875 238.16109 23.89375 237.91109Q23.425 237.73921 22.425 237.73921L20.6125 237.73921L20.6125 244.30171ZM32.409374 244.55171Q31.815624 245.05171 31.26875 245.25484Q30.7375 245.45796 30.1125 245.45796Q29.08125 245.45796 28.534374 244.95796Q27.9875 244.45796 27.9875 243.67671Q27.9875 243.22359 28.190624 242.84859Q28.39375 242.45796 28.7375 242.23921Q29.08125 242.00484 29.503124 241.89546Q29.8 241.80171 30.440624 241.72359Q31.70625 241.58296 32.315624 241.36421Q32.315624 241.14546 32.315624 241.09859Q32.315624 240.44234 32.01875 240.17671Q31.6125 239.83296 30.815624 239.83296Q30.08125 239.83296 29.721874 240.09859Q29.3625 240.34859 29.190624 241.00484L28.159374 240.86421Q28.3 240.20796 28.628124 239.80171Q28.95625 239.39546 29.565624 239.17671Q30.175 238.95796 30.971874 238.95796Q31.76875 238.95796 32.26875 239.14546Q32.76875 239.33296 33.003124 239.61421Q33.2375 239.89546 33.33125 240.33296Q33.378124 240.59859 33.378124 241.30171L33.378124 242.70796Q33.378124 244.17671 33.440624 244.56734Q33.51875 244.95796 33.721874 245.31734L32.6125 245.31734Q32.45625 244.98921 32.409374 244.55171ZM32.315624 242.19234Q31.7375 242.42671 30.596874 242.59859Q29.940624 242.69234 29.675 242.81734Q29.409374 242.92671 29.253124 243.14546Q29.1125 243.36421 29.1125 243.64546Q29.1125 244.06734 29.425 244.34859Q29.753124 244.62984 30.3625 244.62984Q30.971874 244.62984 31.440624 244.36421Q31.925 244.09859 32.14375 243.62984Q32.315624 243.27046 32.315624 242.58296L32.315624 242.19234ZM37.64375 244.37984L37.8 245.30171Q37.346874 245.39546 37.003124 245.39546Q36.425 245.39546 36.1125 245.22359Q35.8 245.03609 35.659374 244.73921Q35.534374 244.44234 35.534374 243.48921L35.534374 239.91109L34.76875 239.91109L34.76875 239.09859L35.534374 239.09859L35.534374 237.55171L36.58125 236.92671L36.58125 239.09859L37.64375 239.09859L37.64375 239.91109L36.58125 239.91109L36.58125 243.55171Q36.58125 244.00484 36.628124 244.12984Q36.690624 244.25484 36.815624 244.33296Q36.940624 244.41109 37.175 244.41109Q37.3625 244.41109 37.64375 244.37984ZM42.409374 244.55171Q41.815624 245.05171 41.26875 245.25484Q40.7375 245.45796 40.1125 245.45796Q39.08125 245.45796 38.534374 244.95796Q37.9875 244.45796 37.9875 243.67671Q37.9875 243.22359 38.190624 242.84859Q38.39375 242.45796 38.7375 242.23921Q39.08125 242.00484 39.503124 241.89546Q39.8 241.80171 40.440624 241.72359Q41.70625 241.58296 42.315624 241.36421Q42.315624 241.14546 42.315624 241.09859Q42.315624 240.44234 42.01875 240.17671Q41.6125 239.83296 40.815624 239.83296Q40.08125 239.83296 39.721874 240.09859Q39.3625 240.34859 39.190624 241.00484L38.159374 240.86421Q38.3 240.20796 38.628124 239.80171Q38.95625 239.39546 39.565624 239.17671Q40.175 238.95796 40.971874 238.95796Q41.76875 238.95796 42.26875 239.14546Q42.76875 239.33296 43.003124 239.61421Q43.2375 239.89546 43.33125 240.33296Q43.378124 240.59859 43.378124 241.30171L43.378124 242.70796Q43.378124 244.17671 43.440624 244.56734Q43.51875 244.95796 43.721874 245.31734L42.6125 245.31734Q42.45625 244.98921 42.409374 244.55171ZM42.315624 242.19234Q41.7375 242.42671 40.596874 242.59859Q39.940624 242.69234 39.675 242.81734Q39.409374 242.92671 39.253124 243.14546Q39.1125 243.36421 39.1125 243.64546Q39.1125 244.06734 39.425 244.34859Q39.753124 244.62984 40.3625 244.62984Q40.971874 244.62984 41.440624 244.36421Q41.925 244.09859 42.14375 243.62984Q42.315624 243.27046 42.315624 242.58296L42.315624 242.19234ZM48.096874 242.55171L49.159374 242.45796Q49.2375 243.11421 49.51875 243.52046Q49.8 243.92671 50.378124 244.19234Q50.971874 244.44234 51.70625 244.44234Q52.346874 244.44234 52.846874 244.25484Q53.346874 244.05171 53.58125 243.72359Q53.83125 243.37984 53.83125 242.98921Q53.83125 242.58296 53.596874 242.28609Q53.3625 241.97359 52.83125 241.77046Q52.471874 241.62984 51.284374 241.34859Q50.1125 241.06734 49.64375 240.81734Q49.01875 240.48921 48.721874 240.02046Q48.425 239.53609 48.425 238.94234Q48.425 238.30171 48.784374 237.73921Q49.159374 237.16109 49.8625 236.87984Q50.58125 236.58296 51.440624 236.58296Q52.39375 236.58296 53.128124 236.89546Q53.8625 237.19234 54.253124 237.80171Q54.64375 238.39546 54.675 239.14546L53.58125 239.22359Q53.4875 238.41109 52.971874 238.00484Q52.471874 237.58296 51.4875 237.58296Q50.45625 237.58296 49.9875 237.95796Q49.51875 238.33296 49.51875 238.86421Q49.51875 239.33296 49.846874 239.62984Q50.175 239.92671 51.55 240.23921Q52.940624 240.55171 53.45625 240.78609Q54.20625 241.14546 54.565624 241.67671Q54.925 242.19234 54.925 242.89546Q54.925 243.58296 54.534374 244.19234Q54.14375 244.78609 53.409374 245.12984Q52.675 245.45796 51.753124 245.45796Q50.58125 245.45796 49.784374 245.12984Q49.003124 244.78609 48.55 244.09859Q48.1125 243.41109 48.096874 242.55171ZM60.409374 243.03609L61.440624 243.17671Q61.26875 244.23921 60.565624 244.84859Q59.8625 245.45796 58.846874 245.45796Q57.565624 245.45796 56.784374 244.62984Q56.01875 243.78609 56.01875 242.22359Q56.01875 241.22359 56.346874 240.47359Q56.690624 239.70796 57.3625 239.33296Q58.05 238.95796 58.8625 238.95796Q59.8625 238.95796 60.503124 239.47359Q61.159374 239.97359 61.346874 240.92671L60.315624 241.08296Q60.175 240.45796 59.8 240.14546Q59.425 239.81734 58.89375 239.81734Q58.096874 239.81734 57.596874 240.39546Q57.096874 240.95796 57.096874 242.19234Q57.096874 243.45796 57.58125 244.02046Q58.065624 244.58296 58.83125 244.58296Q59.45625 244.58296 59.8625 244.20796Q60.284374 243.83296 60.409374 243.03609ZM62.346874 237.94234L62.346874 236.72359L63.409374 236.72359L63.409374 237.94234L62.346874 237.94234ZM62.346874 245.31734L62.346874 239.09859L63.409374 239.09859L63.409374 245.31734L62.346874 245.31734ZM69.59688 243.31734L70.69063 243.44234Q70.44063 244.39546 69.7375 244.92671Q69.03438 245.45796 67.95625 245.45796Q66.59688 245.45796 65.78438 244.61421Q64.9875 243.77046 64.9875 242.25484Q64.9875 240.69234 65.8 239.83296Q66.6125 238.95796 67.89375 238.95796Q69.14375 238.95796 69.925 239.80171Q70.72188 240.64546 70.72188 242.19234Q70.72188 242.28609 70.72188 242.47359L66.08125 242.47359Q66.14375 243.50484 66.65938 244.05171Q67.175 244.58296 67.95625 244.58296Q68.53438 244.58296 68.94063 244.28609Q69.3625 243.97359 69.59688 243.31734ZM66.14375 241.61421L69.6125 241.61421Q69.55 240.81734 69.22188 240.42671Q68.70625 239.81734 67.90938 239.81734Q67.175 239.81734 66.675 240.30171Q66.19063 240.78609 66.14375 241.61421ZM72.34688 245.31734L72.34688 239.09859L73.28438 239.09859L73.28438 239.97359Q73.97188 238.95796 75.26875 238.95796Q75.83125 238.95796 76.3 239.16109Q76.78438 239.36421 77.01875 239.69234Q77.25313 240.02046 77.34688 240.45796Q77.39375 240.75484 77.39375 241.48921L77.39375 245.31734L76.34688 245.31734L76.34688 241.53609Q76.34688 240.87984 76.22188 240.56734Q76.09688 240.25484 75.78438 240.06734Q75.47188 239.86421 75.05 239.86421Q74.37813 239.86421 73.87813 240.30171Q73.39375 240.72359 73.39375 241.91109L73.39375 245.31734L72.34688 245.31734ZM83.40938 243.03609L84.44063 243.17671Q84.26875 244.23921 83.56563 244.84859Q82.8625 245.45796 81.84688 245.45796Q80.56563 245.45796 79.78438 244.62984Q79.01875 243.78609 79.01875 242.22359Q79.01875 241.22359 79.34688 240.47359Q79.69063 239.70796 80.3625 239.33296Q81.05 238.95796 81.8625 238.95796Q82.8625 238.95796 83.50313 239.47359Q84.15938 239.97359 84.34688 240.92671L83.31563 241.08296Q83.175 240.45796 82.8 240.14546Q82.425 239.81734 81.89375 239.81734Q81.09688 239.81734 80.59688 240.39546Q80.09688 240.95796 80.09688 242.19234Q80.09688 243.45796 80.58125 244.02046Q81.06563 244.58296 81.83125 244.58296Q82.45625 244.58296 82.8625 244.20796Q83.28438 243.83296 83.40938 243.03609ZM89.59688 243.31734L90.69063 243.44234Q90.44063 244.39546 89.7375 244.92671Q89.03438 245.45796 87.95625 245.45796Q86.59688 245.45796 85.78438 244.61421Q84.9875 243.77046 84.9875 242.25484Q84.9875 240.69234 85.8 239.83296Q86.6125 238.95796 87.89375 238.95796Q89.14375 238.95796 89.925 239.80171Q90.72188 240.64546 90.72188 242.19234Q90.72188 242.28609 90.72188 242.47359L86.08125 242.47359Q86.14375 243.50484 86.65938 244.05171Q87.175 244.58296 87.95625 244.58296Q88.53438 244.58296 88.94063 244.28609Q89.3625 243.97359 89.59688 243.31734ZM86.14375 241.61421L89.6125 241.61421Q89.55 240.81734 89.22188 240.42671Q88.70625 239.81734 87.90938 239.81734Q87.175 239.81734 86.675 240.30171Q86.19063 240.78609 86.14375 241.61421ZM94.55 245.45796L97.03438 236.58296L97.87813 236.58296L95.39375 245.45796L94.55 245.45796ZM101.44063 245.31734L101.44063 236.72359L103.15938 236.72359L105.19063 242.80171Q105.47188 243.66109 105.59688 244.08296Q105.7375 243.61421 106.05 242.70796L108.1125 236.72359L109.64375 236.72359L109.64375 245.31734L108.55 245.31734L108.55 238.12984L106.05 245.31734L105.01875 245.31734L102.53438 238.00484L102.53438 245.31734L101.44063 245.31734ZM110.425 245.31734L110.425 236.72359L111.56563 236.72359L111.56563 244.30171L115.8 244.30171L115.8 245.31734L110.425 245.31734Z" fill-rule="nonzero"/><path fill="#9e9e9e" d="M24.596874 261.3017L24.596874 262.31732L18.909374 262.31732Q18.909374 261.94232 19.034374 261.58295Q19.253124 261.00482 19.721874 260.44232Q20.20625 259.87982 21.1125 259.14545Q22.51875 257.9892 23.003124 257.31732Q23.503124 256.64545 23.503124 256.0517Q23.503124 255.4267 23.05 255.00482Q22.596874 254.56732 21.878124 254.56732Q21.1125 254.56732 20.659374 255.02045Q20.20625 255.47357 20.190624 256.28607L19.1125 256.1767Q19.221874 254.95795 19.940624 254.33295Q20.675 253.69232 21.909374 253.69232Q23.14375 253.69232 23.8625 254.37982Q24.58125 255.06732 24.58125 256.08295Q24.58125 256.59857 24.3625 257.09857Q24.159374 257.58295 23.659374 258.14545Q23.175 258.69232 22.05 259.64545Q21.096874 260.44232 20.815624 260.7392Q20.55 261.02045 20.378124 261.3017L24.596874 261.3017ZM31.596874 261.3017L31.596874 262.31732L25.909374 262.31732Q25.909374 261.94232 26.034374 261.58295Q26.253124 261.00482 26.721874 260.44232Q27.20625 259.87982 28.1125 259.14545Q29.51875 257.9892 30.003124 257.31732Q30.503124 256.64545 30.503124 256.0517Q30.503124 255.4267 30.05 255.00482Q29.596874 254.56732 28.878124 254.56732Q28.1125 254.56732 27.659374 255.02045Q27.20625 255.47357 27.190624 256.28607L26.1125 256.1767Q26.221874 254.95795 26.940624 254.33295Q27.675 253.69232 28.909374 253.69232Q30.14375 253.69232 30.8625 254.37982Q31.58125 255.06732 31.58125 256.08295Q31.58125 256.59857 31.3625 257.09857Q31.159374 257.58295 30.659374 258.14545Q30.175 258.69232 29.05 259.64545Q28.096874 260.44232 27.815624 260.7392Q27.55 261.02045 27.378124 261.3017L31.596874 261.3017ZM33.64375 262.31732L33.64375 261.1142L34.846874 261.1142L34.846874 262.31732L33.64375 262.31732ZM37.675 257.66107Q37.01875 257.41107 36.690624 256.97357Q36.378124 256.52045 36.378124 255.91107Q36.378124 254.97357 37.05 254.33295Q37.7375 253.69232 38.846874 253.69232Q39.971874 253.69232 40.659374 254.34857Q41.346874 255.00482 41.346874 255.94232Q41.346874 256.53607 41.034374 256.97357Q40.721874 257.41107 40.08125 257.66107Q40.878124 257.91107 41.284374 258.4892Q41.690624 259.06732 41.690624 259.8642Q41.690624 260.95795 40.909374 261.70795Q40.14375 262.45795 38.8625 262.45795Q37.596874 262.45795 36.815624 261.70795Q36.034374 260.95795 36.034374 259.83295Q36.034374 258.9892 36.45625 258.4267Q36.89375 257.8642 37.675 257.66107ZM37.45625 255.8642Q37.45625 256.47357 37.846874 256.8642Q38.253124 257.25482 38.878124 257.25482Q39.4875 257.25482 39.878124 256.87982Q40.26875 256.4892 40.26875 255.9267Q40.26875 255.34857 39.8625 254.95795Q39.45625 254.5517 38.8625 254.5517Q38.253124 254.5517 37.846874 254.94232Q37.45625 255.33295 37.45625 255.8642ZM37.128124 259.83295Q37.128124 260.28607 37.33125 260.70795Q37.55 261.12982 37.971874 261.3642Q38.39375 261.59857 38.878124 261.59857Q39.628124 261.59857 40.1125 261.1142Q40.6125 260.62982 40.6125 259.87982Q40.6125 259.1142 40.1125 258.6142Q39.6125 258.1142 38.846874 258.1142Q38.096874 258.1142 37.6125 258.6142Q37.128124 259.09857 37.128124 259.83295ZM43.253124 255.78607Q43.253124 254.8642 43.70625 254.22357Q44.175 253.58295 45.05 253.58295Q45.8625 253.58295 46.39375 254.16107Q46.925 254.7392 46.925 255.84857Q46.925 256.94232 46.378124 257.53607Q45.846874 258.1142 45.065624 258.1142Q44.284374 258.1142 43.76875 257.53607Q43.253124 256.95795 43.253124 255.78607ZM45.08125 254.3017Q44.690624 254.3017 44.425 254.64545Q44.175 254.9892 44.175 255.89545Q44.175 256.72357 44.425 257.06732Q44.690624 257.39545 45.08125 257.39545Q45.4875 257.39545 45.7375 257.0517Q46.003124 256.70795 46.003124 255.81732Q46.003124 254.97357 45.7375 254.64545Q45.471874 254.3017 45.08125 254.3017ZM45.08125 262.62982L49.784374 253.58295L50.64375 253.58295L45.95625 262.62982L45.08125 262.62982ZM48.8 260.3017Q48.8 259.37982 49.253124 258.7392Q49.721874 258.09857 50.6125 258.09857Q51.425 258.09857 51.95625 258.6767Q52.4875 259.2392 52.4875 260.3642Q52.4875 261.45795 51.940624 262.0517Q51.409374 262.62982 50.6125 262.62982Q49.846874 262.62982 49.315624 262.0517Q48.8 261.47357 48.8 260.3017ZM50.64375 258.81732Q50.2375 258.81732 49.971874 259.16107Q49.721874 259.50482 49.721874 260.41107Q49.721874 261.22357 49.9875 261.56732Q50.253124 261.91107 50.64375 261.91107Q51.034374 261.91107 51.3 261.56732Q51.565624 261.22357 51.565624 260.31732Q51.565624 259.4892 51.3 259.16107Q51.034374 258.81732 50.64375 258.81732Z" fill-rule="nonzero"/><path stroke="#757575" stroke-width="1.0" stroke-linecap="butt" d="M18.55 249.81734L127.05 249.81734L155.02402 249.81734" fill-rule="nonzero"/><path fill="#9e9e9e" d="M157.02402 249.81734C157.02402 248.71275 156.12859 247.81734 155.02402 247.81734C153.91945 247.81734 153.02402 248.71275 153.02402 249.81734C153.02402 250.9219 153.91945 251.81734 155.02402 251.81734C156.12859 251.81734 157.02402 250.9219 157.02402 249.81734" fill-rule="nonzero"/><path fill="#1a1a1a" d="M19.096874 329.6844L20.159374 329.59064Q20.2375 330.2469 20.51875 330.65314Q20.8 331.0594 21.378124 331.325Q21.971874 331.575 22.70625 331.575Q23.346874 331.575 23.846874 331.3875Q24.346874 331.1844 24.58125 330.85626Q24.83125 330.5125 24.83125 330.1219Q24.83125 329.71564 24.596874 329.41876Q24.3625 329.10626 23.83125 328.90314Q23.471874 328.7625 22.284374 328.48126Q21.1125 328.2 20.64375 327.95Q20.01875 327.6219 19.721874 327.15314Q19.425 326.66876 19.425 326.075Q19.425 325.4344 19.784374 324.8719Q20.159374 324.29376 20.8625 324.0125Q21.58125 323.71564 22.440624 323.71564Q23.39375 323.71564 24.128124 324.02814Q24.8625 324.325 25.253124 324.9344Q25.64375 325.52814 25.675 326.27814L24.58125 326.35626Q24.4875 325.54376 23.971874 325.1375Q23.471874 324.71564 22.4875 324.71564Q21.45625 324.71564 20.9875 325.09064Q20.51875 325.46564 20.51875 325.9969Q20.51875 326.46564 20.846874 326.7625Q21.175 327.0594 22.55 327.3719Q23.940624 327.6844 24.45625 327.91876Q25.20625 328.27814 25.565624 328.8094Q25.925 329.325 25.925 330.02814Q25.925 330.71564 25.534374 331.325Q25.14375 331.91876 24.409374 332.2625Q23.675 332.59064 22.753124 332.59064Q21.58125 332.59064 20.784374 332.2625Q20.003124 331.91876 19.55 331.23126Q19.1125 330.54376 19.096874 329.6844ZM31.409374 330.16876L32.440624 330.3094Q32.26875 331.3719 31.565624 331.98126Q30.8625 332.59064 29.846874 332.59064Q28.565624 332.59064 27.784374 331.7625Q27.01875 330.91876 27.01875 329.35626Q27.01875 328.35626 27.346874 327.60626Q27.690624 326.84064 28.3625 326.46564Q29.05 326.09064 29.8625 326.09064Q30.8625 326.09064 31.503124 326.60626Q32.159374 327.10626 32.346874 328.0594L31.315624 328.21564Q31.175 327.59064 30.8 327.27814Q30.425 326.95 29.89375 326.95Q29.096874 326.95 28.596874 327.52814Q28.096874 328.09064 28.096874 329.325Q28.096874 330.59064 28.58125 331.15314Q29.065624 331.71564 29.83125 331.71564Q30.45625 331.71564 30.8625 331.34064Q31.284374 330.96564 31.409374 330.16876ZM33.346874 325.075L33.346874 323.85626L34.409374 323.85626L34.409374 325.075L33.346874 325.075ZM33.346874 332.45L33.346874 326.23126L34.409374 326.23126L34.409374 332.45L33.346874 332.45ZM40.596874 330.45L41.690624 330.575Q41.440624 331.52814 40.7375 332.0594Q40.034374 332.59064 38.95625 332.59064Q37.596874 332.59064 36.784374 331.7469Q35.9875 330.90314 35.9875 329.3875Q35.9875 327.825 36.8 326.96564Q37.6125 326.09064 38.89375 326.09064Q40.14375 326.09064 40.925 326.9344Q41.721874 327.77814 41.721874 329.325Q41.721874 329.41876 41.721874 329.60626L37.08125 329.60626Q37.14375 330.6375 37.659374 331.1844Q38.175 331.71564 38.95625 331.71564Q39.534374 331.71564 39.940624 331.41876Q40.3625 331.10626 40.596874 330.45ZM37.14375 328.7469L40.6125 328.7469Q40.55 327.95 40.221874 327.5594Q39.70625 326.95 38.909374 326.95Q38.175 326.95 37.675 327.4344Q37.190624 327.91876 37.14375 328.7469ZM43.346874 332.45L43.346874 326.23126L44.284374 326.23126L44.284374 327.10626Q44.971874 326.09064 46.26875 326.09064Q46.83125 326.09064 47.3 326.29376Q47.784374 326.4969 48.01875 326.825Q48.253124 327.15314 48.346874 327.59064Q48.39375 327.8875 48.39375 328.6219L48.39375 332.45L47.346874 332.45L47.346874 328.66876Q47.346874 328.0125 47.221874 327.7Q47.096874 327.3875 46.784374 327.2Q46.471874 326.9969 46.05 326.9969Q45.378124 326.9969 44.878124 327.4344Q44.39375 327.85626 44.39375 329.04376L44.39375 332.45L43.346874 332.45ZM54.409374 330.16876L55.440624 330.3094Q55.26875 331.3719 54.565624 331.98126Q53.8625 332.59064 52.846874 332.59064Q51.565624 332.59064 50.784374 331.7625Q50.01875 330.91876 50.01875 329.35626Q50.01875 328.35626 50.346874 327.60626Q50.690624 326.84064 51.3625 326.46564Q52.05 326.09064 52.8625 326.09064Q53.8625 326.09064 54.503124 326.60626Q55.159374 327.10626 55.346874 328.0594L54.315624 328.21564Q54.175 327.59064 53.8 327.27814Q53.425 326.95 52.89375 326.95Q52.096874 326.95 51.596874 327.52814Q51.096874 328.09064 51.096874 329.325Q51.096874 330.59064 51.58125 331.15314Q52.065624 331.71564 52.83125 331.71564Q53.45625 331.71564 53.8625 331.34064Q54.284374 330.96564 54.409374 330.16876ZM60.596874 330.45L61.690624 330.575Q61.440624 331.52814 60.7375 332.0594Q60.034374 332.59064 58.95625 332.59064Q57.596874 332.59064 56.784374 331.7469Q55.9875 330.90314 55.9875 329.3875Q55.9875 327.825 56.8 326.96564Q57.6125 326.09064 58.89375 326.09064Q60.14375 326.09064 60.925 326.9344Q61.721874 327.77814 61.721874 329.325Q61.721874 329.41876 61.721874 329.60626L57.08125 329.60626Q57.14375 330.6375 57.659374 331.1844Q58.175 331.71564 58.95625 331.71564Q59.534374 331.71564 59.940624 331.41876Q60.3625 331.10626 60.596874 330.45ZM57.14375 328.7469L60.6125 328.7469Q60.55 327.95 60.221874 327.5594Q59.70625 326.95 58.909374 326.95Q58.175 326.95 57.675 327.4344Q57.190624 327.91876 57.14375 328.7469Z" fill-rule="nonzero"/><path fill="#9e9e9e" d="M23.01875 349.45L21.971874 349.45L21.971874 342.73126Q21.58125 343.09064 20.95625 343.46564Q20.346874 343.825 19.8625 343.9969L19.8625 342.98126Q20.7375 342.5594 21.39375 341.98126Q22.065624 341.3875 22.346874 340.825L23.01875 340.825L23.01875 349.45ZM30.01875 349.45L28.971874 349.45L28.971874 342.73126Q28.58125 343.09064 27.95625 343.46564Q27.346874 343.825 26.8625 343.9969L26.8625 342.98126Q27.7375 342.5594 28.39375 341.98126Q29.065624 341.3875 29.346874 340.825L30.01875 340.825L30.01875 349.45ZM33.64375 349.45L33.64375 348.2469L34.846874 348.2469L34.846874 349.45L33.64375 349.45ZM39.425 349.45L39.425 347.3875L35.70625 347.3875L35.70625 346.41876L39.628124 340.85626L40.4875 340.85626L40.4875 346.41876L41.64375 346.41876L41.64375 347.3875L40.4875 347.3875L40.4875 349.45L39.425 349.45ZM39.425 346.41876L39.425 342.5594L36.7375 346.41876L39.425 346.41876ZM43.253124 342.91876Q43.253124 341.9969 43.70625 341.35626Q44.175 340.71564 45.05 340.71564Q45.8625 340.71564 46.39375 341.29376Q46.925 341.8719 46.925 342.98126Q46.925 344.075 46.378124 344.66876Q45.846874 345.2469 45.065624 345.2469Q44.284374 345.2469 43.76875 344.66876Q43.253124 344.09064 43.253124 342.91876ZM45.08125 341.4344Q44.690624 341.4344 44.425 341.77814Q44.175 342.1219 44.175 343.02814Q44.175 343.85626 44.425 344.2Q44.690624 344.52814 45.08125 344.52814Q45.4875 344.52814 45.7375 344.1844Q46.003124 343.84064 46.003124 342.95Q46.003124 342.10626 45.7375 341.77814Q45.471874 341.4344 45.08125 341.4344ZM45.08125 349.7625L49.784374 340.71564L50.64375 340.71564L45.95625 349.7625L45.08125 349.7625ZM48.8 347.4344Q48.8 346.5125 49.253124 345.8719Q49.721874 345.23126 50.6125 345.23126Q51.425 345.23126 51.95625 345.8094Q52.4875 346.3719 52.4875 347.4969Q52.4875 348.59064 51.940624 349.1844Q51.409374 349.7625 50.6125 349.7625Q49.846874 349.7625 49.315624 349.1844Q48.8 348.60626 48.8 347.4344ZM50.64375 345.95Q50.2375 345.95 49.971874 346.29376Q49.721874 346.6375 49.721874 347.54376Q49.721874 348.35626 49.9875 348.7Q50.253124 349.04376 50.64375 349.04376Q51.034374 349.04376 51.3 348.7Q51.565624 348.35626 51.565624 347.45Q51.565624 346.6219 51.3 346.29376Q51.034374 345.95 50.64375 345.95Z" fill-rule="nonzero"/><path stroke="#757575" stroke-width="1.0" stroke-linecap="butt" d="M18.55 336.95L127.05 336.95L287.39902 343.60114" fill-rule="nonzero"/><path fill="#9e9e9e" d="M289.39902 343.60114C289.39902 342.49655 288.50357 341.60114 287.39902 341.60114C286.29443 341.60114 285.39902 342.49655 285.39902 343.60114C285.39902 344.7057 286.29443 345.60114 287.39902 345.60114C288.50357 345.60114 289.39902 344.7057 289.39902 343.60114" fill-rule="nonzero"/><path fill="#1a1a1a" d="M529.325 158.9962L529.325 150.40245L532.5594 150.40245Q533.54376 150.40245 534.1375 150.66808Q534.73126 150.9337 535.0594 151.48058Q535.40314 152.01183 535.40314 152.60558Q535.40314 153.15245 535.10626 153.63683Q534.8094 154.1212 534.2 154.41808Q534.98126 154.65245 535.3875 155.21495Q535.8094 155.76183 535.8094 156.51183Q535.8094 157.10558 535.5594 157.63683Q535.3094 158.15245 534.9344 158.4337Q534.5594 158.71495 533.98126 158.85558Q533.41876 158.9962 532.60626 158.9962L529.325 158.9962ZM530.46564 154.01183L532.325 154.01183Q533.075 154.01183 533.40314 153.91808Q533.84064 153.79308 534.0594 153.4962Q534.27814 153.1837 534.27814 152.73058Q534.27814 152.3087 534.075 151.98058Q533.8719 151.65245 533.48126 151.54308Q533.10626 151.41808 532.1844 151.41808L530.46564 151.41808L530.46564 154.01183ZM530.46564 157.98058L532.60626 157.98058Q533.15314 157.98058 533.3719 157.9337Q533.77814 157.8712 534.02814 157.71495Q534.29376 157.54308 534.46564 157.23058Q534.6375 156.91808 534.6375 156.51183Q534.6375 156.02745 534.3875 155.66808Q534.15314 155.3087 533.71564 155.16808Q533.27814 155.02745 532.45 155.02745L530.46564 155.02745L530.46564 157.98058ZM541.325 158.9962L541.325 158.07433Q540.59064 159.13683 539.34064 159.13683Q538.79376 159.13683 538.3094 158.9337Q537.84064 158.71495 537.60626 158.40245Q537.3719 158.07433 537.27814 157.60558Q537.21564 157.3087 537.21564 156.6212L537.21564 152.77745L538.27814 152.77745L538.27814 156.23058Q538.27814 157.04308 538.34064 157.33995Q538.4344 157.7462 538.7469 157.9962Q539.075 158.23058 539.5594 158.23058Q540.02814 158.23058 540.4344 157.9962Q540.85626 157.7462 541.02814 157.32433Q541.21564 156.90245 541.21564 156.10558L541.21564 152.77745L542.2625 152.77745L542.2625 158.9962L541.325 158.9962ZM543.825 157.13683L544.85626 156.98058Q544.95 157.60558 545.34064 157.9337Q545.7469 158.26183 546.48126 158.26183Q547.2 158.26183 547.54376 157.98058Q547.90314 157.6837 547.90314 157.27745Q547.90314 156.91808 547.59064 156.71495Q547.3719 156.57433 546.5125 156.35558Q545.35626 156.0587 544.90314 155.85558Q544.46564 155.63683 544.23126 155.26183Q543.9969 154.88683 543.9969 154.41808Q543.9969 154.01183 544.1844 153.65245Q544.3719 153.29308 544.7 153.0587Q544.95 152.88683 545.3719 152.76183Q545.79376 152.63683 546.29376 152.63683Q547.0125 152.63683 547.5594 152.85558Q548.1219 153.0587 548.3875 153.41808Q548.65314 153.77745 548.7469 154.3712L547.71564 154.51183Q547.65314 154.04308 547.3094 153.77745Q546.98126 153.4962 546.35626 153.4962Q545.6375 153.4962 545.325 153.7462Q545.0125 153.98058 545.0125 154.3087Q545.0125 154.51183 545.1375 154.66808Q545.27814 154.83995 545.54376 154.94933Q545.7 155.01183 546.48126 155.21495Q547.60626 155.52745 548.04376 155.71495Q548.48126 155.90245 548.73126 156.26183Q548.98126 156.6212 548.98126 157.16808Q548.98126 157.69933 548.66876 158.16808Q548.3719 158.6212 547.79376 158.88683Q547.21564 159.13683 546.48126 159.13683Q545.2625 159.13683 544.6219 158.63683Q543.9969 158.1212 543.825 157.13683ZM551.2469 151.6212L551.2469 150.40245L552.3094 150.40245L552.3094 151.6212L551.2469 151.6212ZM551.2469 158.9962L551.2469 152.77745L552.3094 152.77745L552.3094 158.9962L551.2469 158.9962ZM554.2469 158.9962L554.2469 152.77745L555.1844 152.77745L555.1844 153.65245Q555.8719 152.63683 557.16876 152.63683Q557.73126 152.63683 558.2 152.83995Q558.6844 153.04308 558.91876 153.3712Q559.15314 153.69933 559.2469 154.13683Q559.29376 154.4337 559.29376 155.16808L559.29376 158.9962L558.2469 158.9962L558.2469 155.21495Q558.2469 154.5587 558.1219 154.2462Q557.9969 153.9337 557.6844 153.7462Q557.3719 153.54308 556.95 153.54308Q556.27814 153.54308 555.77814 153.98058Q555.29376 154.40245 555.29376 155.58995L555.29376 158.9962L554.2469 158.9962ZM565.4969 156.9962L566.59064 157.1212Q566.34064 158.07433 565.6375 158.60558Q564.9344 159.13683 563.85626 159.13683Q562.4969 159.13683 561.6844 158.29308Q560.8875 157.44933 560.8875 155.9337Q560.8875 154.3712 561.7 153.51183Q562.5125 152.63683 563.79376 152.63683Q565.04376 152.63683 565.825 153.48058Q566.6219 154.32433 566.6219 155.8712Q566.6219 155.96495 566.6219 156.15245L561.98126 156.15245Q562.04376 157.1837 562.5594 157.73058Q563.075 158.26183 563.85626 158.26183Q564.4344 158.26183 564.84064 157.96495Q565.2625 157.65245 565.4969 156.9962ZM562.04376 155.29308L565.5125 155.29308Q565.45 154.4962 565.1219 154.10558Q564.60626 153.4962 563.8094 153.4962Q563.075 153.4962 562.575 153.98058Q562.09064 154.46495 562.04376 155.29308ZM567.825 157.13683L568.85626 156.98058Q568.95 157.60558 569.34064 157.9337Q569.7469 158.26183 570.48126 158.26183Q571.2 158.26183 571.54376 157.98058Q571.90314 157.6837 571.90314 157.27745Q571.90314 156.91808 571.59064 156.71495Q571.3719 156.57433 570.5125 156.35558Q569.35626 156.0587 568.90314 155.85558Q568.46564 155.63683 568.23126 155.26183Q567.9969 154.88683 567.9969 154.41808Q567.9969 154.01183 568.1844 153.65245Q568.3719 153.29308 568.7 153.0587Q568.95 152.88683 569.3719 152.76183Q569.79376 152.63683 570.29376 152.63683Q571.0125 152.63683 571.5594 152.85558Q572.1219 153.0587 572.3875 153.41808Q572.65314 153.77745 572.7469 154.3712L571.71564 154.51183Q571.65314 154.04308 571.3094 153.77745Q570.98126 153.4962 570.35626 153.4962Q569.6375 153.4962 569.325 153.7462Q569.0125 153.98058 569.0125 154.3087Q569.0125 154.51183 569.1375 154.66808Q569.27814 154.83995 569.54376 154.94933Q569.7 155.01183 570.48126 155.21495Q571.60626 155.52745 572.04376 155.71495Q572.48126 155.90245 572.73126 156.26183Q572.98126 156.6212 572.98126 157.16808Q572.98126 157.69933 572.66876 158.16808Q572.3719 158.6212 571.79376 158.88683Q571.21564 159.13683 570.48126 159.13683Q569.2625 159.13683 568.6219 158.63683Q567.9969 158.1212 567.825 157.13683ZM574.825 157.13683L575.85626 156.98058Q575.95 157.60558 576.34064 157.9337Q576.7469 158.26183 577.48126 158.26183Q578.2 158.26183 578.54376 157.98058Q578.90314 157.6837 578.90314 157.27745Q578.90314 156.91808 578.59064 156.71495Q578.3719 156.57433 577.5125 156.35558Q576.35626 156.0587 575.90314 155.85558Q575.46564 155.63683 575.23126 155.26183Q574.9969 154.88683 574.9969 154.41808Q574.9969 154.01183 575.1844 153.65245Q575.3719 153.29308 575.7 153.0587Q575.95 152.88683 576.3719 152.76183Q576.79376 152.63683 577.29376 152.63683Q578.0125 152.63683 578.5594 152.85558Q579.1219 153.0587 579.3875 153.41808Q579.65314 153.77745 579.7469 154.3712L578.71564 154.51183Q578.65314 154.04308 578.3094 153.77745Q577.98126 153.4962 577.35626 153.4962Q576.6375 153.4962 576.325 153.7462Q576.0125 153.98058 576.0125 154.3087Q576.0125 154.51183 576.1375 154.66808Q576.27814 154.83995 576.54376 154.94933Q576.7 155.01183 577.48126 155.21495Q578.60626 155.52745 579.04376 155.71495Q579.48126 155.90245 579.73126 156.26183Q579.98126 156.6212 579.98126 157.16808Q579.98126 157.69933 579.66876 158.16808Q579.3719 158.6212 578.79376 158.88683Q578.21564 159.13683 577.48126 159.13683Q576.2625 159.13683 575.6219 158.63683Q574.9969 158.1212 574.825 157.13683Z" fill-rule="nonzero"/><path fill="#9e9e9e" d="M550.325 175.9962L550.325 173.9337L546.60626 173.9337L546.60626 172.96495L550.52814 167.40245L551.3875 167.40245L551.3875 172.96495L552.54376 172.96495L552.54376 173.9337L551.3875 173.9337L551.3875 175.9962L550.325 175.9962ZM550.325 172.96495L550.325 169.10558L547.6375 172.96495L550.325 172.96495ZM553.95 173.7462L555.0594 173.65245Q555.1844 174.46495 555.6219 174.8712Q556.075 175.27745 556.71564 175.27745Q557.46564 175.27745 557.9969 174.69933Q558.52814 174.1212 558.52814 173.1837Q558.52814 172.27745 558.0125 171.76183Q557.5125 171.23058 556.6844 171.23058Q556.1844 171.23058 555.7625 171.46495Q555.35626 171.69933 555.1219 172.0587L554.1375 171.9337L554.96564 167.52745L559.2469 167.52745L559.2469 168.52745L555.8094 168.52745L555.35626 170.83995Q556.1219 170.29308 556.96564 170.29308Q558.09064 170.29308 558.85626 171.07433Q559.6375 171.85558 559.6375 173.08995Q559.6375 174.2462 558.96564 175.10558Q558.1375 176.13683 556.71564 176.13683Q555.54376 176.13683 554.79376 175.48058Q554.0594 174.82433 553.95 173.7462ZM561.54376 175.9962L561.54376 174.79308L562.7469 174.79308L562.7469 175.9962L561.54376 175.9962ZM569.41876 169.51183L568.3719 169.58995Q568.23126 168.96495 567.98126 168.6837Q567.54376 168.23058 566.91876 168.23058Q566.41876 168.23058 566.02814 168.51183Q565.54376 168.88683 565.2469 169.58995Q564.96564 170.27745 564.95 171.5587Q565.325 170.98058 565.8719 170.69933Q566.4344 170.41808 567.04376 170.41808Q568.09064 170.41808 568.825 171.19933Q569.575 171.98058 569.575 173.19933Q569.575 174.01183 569.21564 174.71495Q568.8719 175.40245 568.2625 175.77745Q567.65314 176.13683 566.8875 176.13683Q565.5594 176.13683 564.73126 175.16808Q563.90314 174.19933 563.90314 171.98058Q563.90314 169.48058 564.825 168.35558Q565.6219 167.3712 566.98126 167.3712Q567.9969 167.3712 568.6375 167.94933Q569.29376 168.51183 569.41876 169.51183ZM565.1219 173.21495Q565.1219 173.76183 565.34064 174.26183Q565.575 174.7462 565.98126 175.01183Q566.40314 175.27745 566.8719 175.27745Q567.52814 175.27745 568.0125 174.7462Q568.4969 174.19933 568.4969 173.27745Q568.4969 172.38683 568.0125 171.8712Q567.54376 171.35558 566.825 171.35558Q566.10626 171.35558 565.60626 171.8712Q565.1219 172.38683 565.1219 173.21495ZM571.15314 169.46495Q571.15314 168.54308 571.60626 167.90245Q572.075 167.26183 572.95 167.26183Q573.7625 167.26183 574.29376 167.83995Q574.825 168.41808 574.825 169.52745Q574.825 170.6212 574.27814 171.21495Q573.7469 171.79308 572.96564 171.79308Q572.1844 171.79308 571.66876 171.21495Q571.15314 170.63683 571.15314 169.46495ZM572.98126 167.98058Q572.59064 167.98058 572.325 168.32433Q572.075 168.66808 572.075 169.57433Q572.075 170.40245 572.325 170.7462Q572.59064 171.07433 572.98126 171.07433Q573.3875 171.07433 573.6375 170.73058Q573.90314 170.38683 573.90314 169.4962Q573.90314 168.65245 573.6375 168.32433Q573.3719 167.98058 572.98126 167.98058ZM572.98126 176.3087L577.6844 167.26183L578.54376 167.26183L573.85626 176.3087L572.98126 176.3087ZM576.7 173.98058Q576.7 173.0587 577.15314 172.41808Q577.6219 171.77745 578.5125 171.77745Q579.325 171.77745 579.85626 172.35558Q580.3875 172.91808 580.3875 174.04308Q580.3875 175.13683 579.84064 175.73058Q579.3094 176.3087 578.5125 176.3087Q577.7469 176.3087 577.21564 175.73058Q576.7 175.15245 576.7 173.98058ZM578.54376 172.4962Q578.1375 172.4962 577.8719 172.83995Q577.6219 173.1837 577.6219 174.08995Q577.6219 174.90245 577.8875 175.2462Q578.15314 175.58995 578.54376 175.58995Q578.9344 175.58995 579.2 175.2462Q579.46564 174.90245 579.46564 173.9962Q579.46564 173.16808 579.2 172.83995Q578.9344 172.4962 578.54376 172.4962Z" fill-rule="nonzero"/><path stroke="#757575" stroke-width="1.0" stroke-linecap="butt" d="M581.45 163.4962L472.95 163.4962L457.06873 163.4962" fill-rule="nonzero"/><path fill="#9e9e9e" d="M459.06873 163.4962C459.06873 162.39163 458.1733 161.4962 457.06873 161.4962C455.96417 161.4962 455.06873 162.39163 455.06873 163.4962C455.06873 164.60077 455.96417 165.4962 457.06873 165.4962C458.1733 165.4962 459.06873 164.60077 459.06873 163.4962" fill-rule="nonzero"/></svg>