<svg version="1.1" viewBox="0.0 0.0 600.0 371.0" fill="none" stroke="none" stroke-linecap="square" stroke-miterlimit="10" width="600" height="371" xmlns:xlink="http://www.w3.org/1999/xlink" xmlns="http://www.w3.org/2000/svg"><path fill="#ffffff" d="M0 0L600.0 0L600.0 371.0L0 371.0L0 0Z" fill-rule="nonzero"/><path fill="#a4c2f4" d="M300.0 18.55C370.5539 18.55 433.4911 62.901928 457.2225 129.34494L300.0 185.5Z" fill-rule="nonzero"/><path fill="#3c78d8" d="M457.2225 129.34494C483.965 204.21835 454.19693 287.5627 386.07172 328.5523L300.0 185.5Z" fill-rule="nonzero"/><path fill="#8e7cc3" d="M287.95328 18.9852C291.96228 18.695162 295.9805 18.55 300.0 18.55L300.0 185.5Z" fill-rule="nonzero"/><path fill="#999999" d="M386.07172 328.5523C326.87796 364.168 251.8626 359.64786 197.37375 317.182C142.8849 274.7162 120.17862 203.07709 140.25705 136.97688C160.33548 70.87668 219.05093 23.970032 287.95328 18.9852L300.0 185.5Z" fill-rule="nonzero"/><path fill="#1a1a1a" d="M19.096874 26.784374L20.159374 26.690624Q20.2375 27.346874 20.51875 27.753124Q20.8 28.159374 21.378124 28.425Q21.971874 28.675 22.70625 28.675Q23.346874 28.675 23.846874 28.4875Q24.346874 28.284374 24.58125 27.95625Q24.83125 27.6125 24.83125 27.221874Q24.83125 26.815624 24.596874 26.51875Q24.3625 26.20625 23.83125 26.003124Q23.471874 25.8625 22.284374 25.58125Q21.1125 25.3 20.64375 25.05Q20.01875 24.721874 19.721874 24.253124Q19.425 23.76875 19.425 23.175Q19.425 22.534374 19.784374 21.971874Q20.159374 21.39375 20.8625 21.1125Q21.58125 20.815624 22.440624 20.815624Q23.39375 20.815624 24.128124 21.128124Q24.8625 21.425 25.253124 22.034374Q25.64375 22.628124 25.675 23.378124L24.58125 23.45625Q24.4875 22.64375 23.971874 22.2375Q23.471874 21.815624 22.4875 21.815624Q21.45625 21.815624 20.9875 22.190624Q20.51875 22.565624 20.51875 23.096874Q20.51875 23.565624 20.846874 23.8625Q21.175 24.159374 22.55 24.471874Q23.940624 24.784374 24.45625 25.01875Q25.20625 25.378124 25.565624 25.909374Q25.925 26.425 25.925 27.128124Q25.925 27.815624 25.534374 28.425Q25.14375 29.01875 24.409374 29.3625Q23.675 29.690624 22.753124 29.690624Q21.58125 29.690624 20.784374 29.3625Q20.003124 29.01875 19.55 28.33125Q19.1125 27.64375 19.096874 26.784374ZM31.596874 27.55L32.690624 27.675Q32.440624 28.628124 31.7375 29.159374Q31.034374 29.690624 29.95625 29.690624Q28.596874 29.690624 27.784374 28.846874Q26.9875 28.003124 26.9875 26.4875Q26.9875 24.925 27.8 24.065624Q28.6125 23.190624 29.89375 23.190624Q31.14375 23.190624 31.925 24.034374Q32.721874 24.878124 32.721874 26.425Q32.721874 26.51875 32.721874 26.70625L28.08125 26.70625Q28.14375 27.7375 28.659374 28.284374Q29.175 28.815624 29.95625 28.815624Q30.534374 28.815624 30.940624 28.51875Q31.3625 28.20625 31.596874 27.55ZM28.14375 25.846874L31.6125 25.846874Q31.55 25.05 31.221874 24.659374Q30.70625 24.05 29.909374 24.05Q29.175 24.05 28.675 24.534374Q28.190624 25.01875 28.14375 25.846874ZM34.33125 29.55L34.33125 23.33125L35.284374 23.33125L35.284374 24.26875Q35.64375 23.6125 35.940624 23.409374Q36.253124 23.190624 36.628124 23.190624Q37.159374 23.190624 37.70625 23.51875L37.346874 24.503124Q36.95625 24.26875 36.58125 24.26875Q36.221874 24.26875 35.940624 24.4875Q35.675 24.690624 35.565624 25.065624Q35.378124 25.628124 35.378124 26.284374L35.378124 29.55L34.33125 29.55ZM40.065624 29.55L37.70625 23.33125L38.815624 23.33125L40.159374 27.05Q40.3625 27.659374 40.55 28.3Q40.690624 27.815624 40.940624 27.128124L42.33125 23.33125L43.409374 23.33125L41.05 29.55L40.065624 29.55ZM47.596874 27.55L48.690624 27.675Q48.440624 28.628124 47.7375 29.159374Q47.034374 29.690624 45.95625 29.690624Q44.596874 29.690624 43.784374 28.846874Q42.9875 28.003124 42.9875 26.4875Q42.9875 24.925 43.8 24.065624Q44.6125 23.190624 45.89375 23.190624Q47.14375 23.190624 47.925 24.034374Q48.721874 24.878124 48.721874 26.425Q48.721874 26.51875 48.721874 26.70625L44.08125 26.70625Q44.14375 27.7375 44.659374 28.284374Q45.175 28.815624 45.95625 28.815624Q46.534374 28.815624 46.940624 28.51875Q47.3625 28.20625 47.596874 27.55ZM44.14375 25.846874L47.6125 25.846874Q47.55 25.05 47.221874 24.659374Q46.70625 24.05 45.909374 24.05Q45.175 24.05 44.675 24.534374Q44.190624 25.01875 44.14375 25.846874ZM50.33125 29.55L50.33125 23.33125L51.284374 23.33125L51.284374 24.26875Q51.64375 23.6125 51.940624 23.409374Q52.253124 23.190624 52.628124 23.190624Q53.159374 23.190624 53.70625 23.51875L53.346874 24.503124Q52.95625 24.26875 52.58125 24.26875Q52.221874 24.26875 51.940624 24.4875Q51.675 24.690624 51.565624 25.065624Q51.378124 25.628124 51.378124 26.284374L51.378124 29.55L50.33125 29.55ZM54.315624 29.55L54.315624 20.95625L55.378124 20.95625L55.378124 29.55L54.315624 29.55ZM61.596874 27.55L62.690624 27.675Q62.440624 28.628124 61.7375 29.159374Q61.034374 29.690624 59.95625 29.690624Q58.596874 29.690624 57.784374 28.846874Q56.9875 28.003124 56.9875 26.4875Q56.9875 24.925 57.8 24.065624Q58.6125 23.190624 59.89375 23.190624Q61.14375 23.190624 61.925 24.034374Q62.721874 24.878124 62.721874 26.425Q62.721874 26.51875 62.721874 26.70625L58.08125 26.70625Q58.14375 27.7375 58.659374 28.284374Q59.175 28.815624 59.95625 28.815624Q60.534374 28.815624 60.940624 28.51875Q61.3625 28.20625 61.596874 27.55ZM58.14375 25.846874L61.6125 25.846874Q61.55 25.05 61.221874 24.659374Q60.70625 24.05 59.909374 24.05Q59.175 24.05 58.675 24.534374Q58.190624 25.01875 58.14375 25.846874ZM63.925 27.690624L64.95625 27.534374Q65.05 28.159374 65.44063 28.4875Q65.84688 28.815624 66.58125 28.815624Q67.3 28.815624 67.64375 28.534374Q68.00313 28.2375 68.00313 27.83125Q68.00313 27.471874 67.69063 27.26875Q67.47188 27.128124 66.6125 26.909374Q65.45625 26.6125 65.00313 26.409374Q64.56563 26.190624 64.33125 25.815624Q64.09688 25.440624 64.09688 24.971874Q64.09688 24.565624 64.28438 24.20625Q64.47188 23.846874 64.8 23.6125Q65.05 23.440624 65.47188 23.315624Q65.89375 23.190624 66.39375 23.190624Q67.1125 23.190624 67.65938 23.409374Q68.22188 23.6125 68.4875 23.971874Q68.75313 24.33125 68.84688 24.925L67.81563 25.065624Q67.75313 24.596874 67.40938 24.33125Q67.08125 24.05 66.45625 24.05Q65.7375 24.05 65.425 24.3Q65.1125 24.534374 65.1125 24.8625Q65.1125 25.065624 65.2375 25.221874Q65.37813 25.39375 65.64375 25.503124Q65.8 25.565624 66.58125 25.76875Q67.70625 26.08125 68.14375 26.26875Q68.58125 26.45625 68.83125 26.815624Q69.08125 27.175 69.08125 27.721874Q69.08125 28.253124 68.76875 28.721874Q68.47188 29.175 67.89375 29.440624Q67.31563 29.690624 66.58125 29.690624Q65.3625 29.690624 64.72188 29.190624Q64.09688 28.675 63.925 27.690624ZM70.925 27.690624L71.95625 27.534374Q72.05 28.159374 72.44063 28.4875Q72.84688 28.815624 73.58125 28.815624Q74.3 28.815624 74.64375 28.534374Q75.00313 28.2375 75.00313 27.83125Q75.00313 27.471874 74.69063 27.26875Q74.47188 27.128124 73.6125 26.909374Q72.45625 26.6125 72.00313 26.409374Q71.56563 26.190624 71.33125 25.815624Q71.09688 25.440624 71.09688 24.971874Q71.09688 24.565624 71.28438 24.20625Q71.47188 23.846874 71.8 23.6125Q72.05 23.440624 72.47188 23.315624Q72.89375 23.190624 73.39375 23.190624Q74.1125 23.190624 74.65938 23.409374Q75.22188 23.6125 75.4875 23.971874Q75.75313 24.33125 75.84688 24.925L74.81563 25.065624Q74.75313 24.596874 74.40938 24.33125Q74.08125 24.05 73.45625 24.05Q72.7375 24.05 72.425 24.3Q72.1125 24.534374 72.1125 24.8625Q72.1125 25.065624 72.2375 25.221874Q72.37813 25.39375 72.64375 25.503124Q72.8 25.565624 73.58125 25.76875Q74.70625 26.08125 75.14375 26.26875Q75.58125 26.45625 75.83125 26.815624Q76.08125 27.175 76.08125 27.721874Q76.08125 28.253124 75.76875 28.721874Q75.47188 29.175 74.89375 29.440624Q74.31563 29.690624 73.58125 29.690624Q72.3625 29.690624 71.72188 29.190624Q71.09688 28.675 70.925 27.690624Z" fill-rule="nonzero"/><path fill="#9e9e9e" d="M23.01875 46.55L21.971874 46.55L21.971874 39.83125Q21.58125 40.190624 20.95625 40.565624Q20.346874 40.925 19.8625 41.096874L19.8625 40.08125Q20.7375 39.659374 21.39375 39.08125Q22.065624 38.4875 22.346874 37.925L23.01875 37.925L23.01875 46.55ZM26.64375 46.55L26.64375 45.346874L27.846874 45.346874L27.846874 46.55L26.64375 46.55ZM33.01875 46.55L31.971874 46.55L31.971874 39.83125Q31.58125 40.190624 30.95625 40.565624Q30.346874 40.925 29.8625 41.096874L29.8625 40.08125Q30.7375 39.659374 31.39375 39.08125Q32.065624 38.4875 32.346874 37.925L33.01875 37.925L33.01875 46.55ZM36.253124 40.01875Q36.253124 39.096874 36.70625 38.45625Q37.175 37.815624 38.05 37.815624Q38.8625 37.815624 39.39375 38.39375Q39.925 38.971874 39.925 40.08125Q39.925 41.175 39.378124 41.76875Q38.846874 42.346874 38.065624 42.346874Q37.284374 42.346874 36.76875 41.76875Q36.253124 41.190624 36.253124 40.01875ZM38.08125 38.534374Q37.690624 38.534374 37.425 38.878124Q37.175 39.221874 37.175 40.128124Q37.175 40.95625 37.425 41.3Q37.690624 41.628124 38.08125 41.628124Q38.4875 41.628124 38.7375 41.284374Q39.003124 40.940624 39.003124 40.05Q39.003124 39.20625 38.7375 38.878124Q38.471874 38.534374 38.08125 38.534374ZM38.08125 46.8625L42.784374 37.815624L43.64375 37.815624L38.95625 46.8625L38.08125 46.8625ZM41.8 44.534374Q41.8 43.6125 42.253124 42.971874Q42.721874 42.33125 43.6125 42.33125Q44.425 42.33125 44.95625 42.909374Q45.4875 43.471874 45.4875 44.596874Q45.4875 45.690624 44.940624 46.284374Q44.409374 46.8625 43.6125 46.8625Q42.846874 46.8625 42.315624 46.284374Q41.8 45.70625 41.8 44.534374ZM43.64375 43.05Q43.2375 43.05 42.971874 43.39375Q42.721874 43.7375 42.721874 44.64375Q42.721874 45.45625 42.9875 45.8Q43.253124 46.14375 43.64375 46.14375Q44.034374 46.14375 44.3 45.8Q44.565624 45.45625 44.565624 44.55Q44.565624 43.721874 44.3 43.39375Q44.034374 43.05 43.64375 43.05Z" fill-rule="nonzero"/><path stroke="#757575" stroke-width="1.0" stroke-linecap="butt" d="M18.55 34.05L127.05 34.05L294.27408 27.000895" fill-rule="nonzero"/><path fill="#9e9e9e" d="M296.27408 27.000895C296.27408 25.896324 295.37863 25.000895 294.27408 25.000895C293.1695 25.000895 292.27408 25.896324 292.27408 27.000895C292.27408 28.105463 293.1695 29.000895 294.27408 29.000895C295.37863 29.000895 296.27408 28.105463 296.27408 27.000895" fill-rule="nonzero"/><path fill="#1a1a1a" d="M25.6125 225.9046L26.7375 226.20148Q26.378124 227.5921 25.45625 228.32648Q24.534374 229.06085 23.190624 229.06085Q21.8 229.06085 20.925 228.49835Q20.05 227.93585 19.596874 226.87335Q19.14375 225.79523 19.14375 224.56085Q19.14375 223.2171 19.659374 222.2171Q20.175 221.2171 21.1125 220.70148Q22.065624 220.18585 23.20625 220.18585Q24.4875 220.18585 25.3625 220.8421Q26.253124 221.49835 26.596874 222.68585L25.471874 222.95148Q25.175 222.01398 24.596874 221.5921Q24.034374 221.1546 23.175 221.1546Q22.190624 221.1546 21.51875 221.63898Q20.8625 222.10773 20.58125 222.9046Q20.315624 223.70148 20.315624 224.56085Q20.315624 225.6546 20.628124 226.4671Q20.95625 227.2796 21.628124 227.68585Q22.3 228.0921 23.096874 228.0921Q24.05 228.0921 24.70625 227.54523Q25.378124 226.99835 25.6125 225.9046ZM32.425 228.92023L32.425 227.99835Q31.690624 229.06085 30.440624 229.06085Q29.89375 229.06085 29.409374 228.85773Q28.940624 228.63898 28.70625 228.32648Q28.471874 227.99835 28.378124 227.5296Q28.315624 227.23273 28.315624 226.54523L28.315624 222.70148L29.378124 222.70148L29.378124 226.1546Q29.378124 226.9671 29.440624 227.26398Q29.534374 227.67023 29.846874 227.92023Q30.175 228.1546 30.659374 228.1546Q31.128124 228.1546 31.534374 227.92023Q31.95625 227.67023 32.128124 227.24835Q32.315624 226.82648 32.315624 226.0296L32.315624 222.70148L33.3625 222.70148L33.3625 228.92023L32.425 228.92023ZM34.925 227.06085L35.95625 226.9046Q36.05 227.5296 36.440624 227.85773Q36.846874 228.18585 37.58125 228.18585Q38.3 228.18585 38.64375 227.9046Q39.003124 227.60773 39.003124 227.20148Q39.003124 226.8421 38.690624 226.63898Q38.471874 226.49835 37.6125 226.2796Q36.45625 225.98273 36.003124 225.7796Q35.565624 225.56085 35.33125 225.18585Q35.096874 224.81085 35.096874 224.3421Q35.096874 223.93585 35.284374 223.57648Q35.471874 223.2171 35.8 222.98273Q36.05 222.81085 36.471874 222.68585Q36.89375 222.56085 37.39375 222.56085Q38.1125 222.56085 38.659374 222.7796Q39.221874 222.98273 39.4875 223.3421Q39.753124 223.70148 39.846874 224.29523L38.815624 224.43585Q38.753124 223.9671 38.409374 223.70148Q38.08125 223.42023 37.45625 223.42023Q36.7375 223.42023 36.425 223.67023Q36.1125 223.9046 36.1125 224.23273Q36.1125 224.43585 36.2375 224.5921Q36.378124 224.76398 36.64375 224.87335Q36.8 224.93585 37.58125 225.13898Q38.70625 225.45148 39.14375 225.63898Q39.58125 225.82648 39.83125 226.18585Q40.08125 226.54523 40.08125 227.0921Q40.08125 227.62335 39.76875 228.0921Q39.471874 228.54523 38.89375 228.81085Q38.315624 229.06085 37.58125 229.06085Q36.3625 229.06085 35.721874 228.56085Q35.096874 228.04523 34.925 227.06085ZM44.64375 227.98273L44.8 228.9046Q44.346874 228.99835 44.003124 228.99835Q43.425 228.99835 43.1125 228.82648Q42.8 228.63898 42.659374 228.3421Q42.534374 228.04523 42.534374 227.0921L42.534374 223.51398L41.76875 223.51398L41.76875 222.70148L42.534374 222.70148L42.534374 221.1546L43.58125 220.5296L43.58125 222.70148L44.64375 222.70148L44.64375 223.51398L43.58125 223.51398L43.58125 227.1546Q43.58125 227.60773 43.628124 227.73273Q43.690624 227.85773 43.815624 227.93585Q43.940624 228.01398 44.175 228.01398Q44.3625 228.01398 44.64375 227.98273ZM44.95625 225.81085Q44.95625 224.07648 45.909374 223.24835Q46.70625 222.56085 47.8625 222.56085Q49.14375 222.56085 49.95625 223.4046Q50.784374 224.23273 50.784374 225.7171Q50.784374 226.92023 50.425 227.60773Q50.065624 228.29523 49.3625 228.68585Q48.675 229.06085 47.8625 229.06085Q46.565624 229.06085 45.753124 228.23273Q44.95625 227.38898 44.95625 225.81085ZM46.034374 225.81085Q46.034374 226.99835 46.55 227.5921Q47.08125 228.18585 47.8625 228.18585Q48.659374 228.18585 49.175 227.5921Q49.690624 226.99835 49.690624 225.7796Q49.690624 224.62335 49.159374 224.0296Q48.64375 223.43585 47.8625 223.43585Q47.08125 223.43585 46.55 224.0296Q46.034374 224.60773 46.034374 225.81085ZM52.346874 228.92023L52.346874 222.70148L53.284374 222.70148L53.284374 223.57648Q53.58125 223.10773 54.065624 222.8421Q54.55 222.56085 55.175 222.56085Q55.8625 222.56085 56.3 222.8421Q56.753124 223.12335 56.925 223.63898Q57.675 222.56085 58.846874 222.56085Q59.784374 222.56085 60.26875 223.07648Q60.76875 223.57648 60.76875 224.6546L60.76875 228.92023L59.721874 228.92023L59.721874 224.99835Q59.721874 224.37335 59.6125 224.0921Q59.51875 223.81085 59.253124 223.63898Q58.9875 223.4671 58.6125 223.4671Q57.95625 223.4671 57.51875 223.9046Q57.096874 224.3421 57.096874 225.31085L57.096874 228.92023L56.034374 228.92023L56.034374 224.87335Q56.034374 224.17023 55.76875 223.82648Q55.51875 223.4671 54.940624 223.4671Q54.4875 223.4671 54.1125 223.70148Q53.7375 223.93585 53.565624 224.38898Q53.39375 224.8421 53.39375 225.68585L53.39375 228.92023L52.346874 228.92023Z" fill-rule="nonzero"/><path fill="#9e9e9e" d="M19.05 243.67023L20.159374 243.57648Q20.284374 244.38898 20.721874 244.79523Q21.175 245.20148 21.815624 245.20148Q22.565624 245.20148 23.096874 244.62335Q23.628124 244.04523 23.628124 243.10773Q23.628124 242.20148 23.1125 241.68585Q22.6125 241.1546 21.784374 241.1546Q21.284374 241.1546 20.8625 241.38898Q20.45625 241.62335 20.221874 241.98273L19.2375 241.85773L20.065624 237.45148L24.346874 237.45148L24.346874 238.45148L20.909374 238.45148L20.45625 240.76398Q21.221874 240.2171 22.065624 240.2171Q23.190624 240.2171 23.95625 240.99835Q24.7375 241.7796 24.7375 243.01398Q24.7375 244.17023 24.065624 245.0296Q23.2375 246.06085 21.815624 246.06085Q20.64375 246.06085 19.89375 245.4046Q19.159374 244.74835 19.05 243.67023ZM26.1125 238.45148L26.1125 237.43585L31.675 237.43585L31.675 238.26398Q30.8625 239.13898 30.05 240.5921Q29.253124 242.0296 28.815624 243.56085Q28.4875 244.63898 28.409374 245.92023L27.315624 245.92023Q27.33125 244.9046 27.70625 243.4671Q28.096874 242.0296 28.8 240.70148Q29.51875 239.37335 30.33125 238.45148L26.1125 238.45148ZM33.64375 245.92023L33.64375 244.7171L34.846874 244.7171L34.846874 245.92023L33.64375 245.92023ZM36.05 243.67023L37.159374 243.57648Q37.284374 244.38898 37.721874 244.79523Q38.175 245.20148 38.815624 245.20148Q39.565624 245.20148 40.096874 244.62335Q40.628124 244.04523 40.628124 243.10773Q40.628124 242.20148 40.1125 241.68585Q39.6125 241.1546 38.784374 241.1546Q38.284374 241.1546 37.8625 241.38898Q37.45625 241.62335 37.221874 241.98273L36.2375 241.85773L37.065624 237.45148L41.346874 237.45148L41.346874 238.45148L37.909374 238.45148L37.45625 240.76398Q38.221874 240.2171 39.065624 240.2171Q40.190624 240.2171 40.95625 240.99835Q41.7375 241.7796 41.7375 243.01398Q41.7375 244.17023 41.065624 245.0296Q40.2375 246.06085 38.815624 246.06085Q37.64375 246.06085 36.89375 245.4046Q36.159374 244.74835 36.05 243.67023ZM43.253124 239.38898Q43.253124 238.4671 43.70625 237.82648Q44.175 237.18585 45.05 237.18585Q45.8625 237.18585 46.39375 237.76398Q46.925 238.3421 46.925 239.45148Q46.925 240.54523 46.378124 241.13898Q45.846874 241.7171 45.065624 241.7171Q44.284374 241.7171 43.76875 241.13898Q43.253124 240.56085 43.253124 239.38898ZM45.08125 237.9046Q44.690624 237.9046 44.425 238.24835Q44.175 238.5921 44.175 239.49835Q44.175 240.32648 44.425 240.67023Q44.690624 240.99835 45.08125 240.99835Q45.4875 240.99835 45.7375 240.6546Q46.003124 240.31085 46.003124 239.42023Q46.003124 238.57648 45.7375 238.24835Q45.471874 237.9046 45.08125 237.9046ZM45.08125 246.23273L49.784374 237.18585L50.64375 237.18585L45.95625 246.23273L45.08125 246.23273ZM48.8 243.9046Q48.8 242.98273 49.253124 242.3421Q49.721874 241.70148 50.6125 241.70148Q51.425 241.70148 51.95625 242.2796Q52.4875 242.8421 52.4875 243.9671Q52.4875 245.06085 51.940624 245.6546Q51.409374 246.23273 50.6125 246.23273Q49.846874 246.23273 49.315624 245.6546Q48.8 245.07648 48.8 243.9046ZM50.64375 242.42023Q50.2375 242.42023 49.971874 242.76398Q49.721874 243.10773 49.721874 244.01398Q49.721874 244.82648 49.9875 245.17023Q50.253124 245.51398 50.64375 245.51398Q51.034374 245.51398 51.3 245.17023Q51.565624 244.82648 51.565624 243.92023Q51.565624 243.0921 51.3 242.76398Q51.034374 242.42023 50.64375 242.42023Z" fill-rule="nonzero"/><path stroke="#757575" stroke-width="1.0" stroke-linecap="butt" d="M18.55 233.42023L127.05 233.42023L148.81004 233.42023" fill-rule="nonzero"/><path fill="#9e9e9e" d="M150.81004 233.42023C150.81004 232.31566 149.91461 231.42023 148.81004 231.42023C147.70546 231.42023 146.81004 232.31566 146.81004 233.42023C146.81004 234.5248 147.70546 235.42023 148.81004 235.42023C149.91461 235.42023 150.81004 234.5248 150.81004 233.42023" fill-rule="nonzero"/><path fill="#1a1a1a" d="M543.3719 51.354774L543.3719 42.761024L546.34064 42.761024Q547.34064 42.761024 547.8719 42.886024Q548.60626 43.0579 549.1219 43.4954Q549.8094 44.073524 550.1375 44.979774Q550.48126 45.8704 550.48126 47.011024Q550.48126 47.9954 550.2469 48.7454Q550.02814 49.4954 549.66876 49.9954Q549.3094 50.4954 548.8719 50.77665Q548.45 51.0579 547.85626 51.21415Q547.2625 51.354774 546.48126 51.354774L543.3719 51.354774ZM544.5125 50.33915L546.34064 50.33915Q547.2 50.33915 547.6844 50.1829Q548.16876 50.02665 548.45 49.729774Q548.85626 49.33915 549.075 48.65165Q549.3094 47.96415 549.3094 46.9954Q549.3094 45.65165 548.85626 44.9329Q548.41876 44.198524 547.79376 43.948524Q547.325 43.77665 546.325 43.77665L544.5125 43.77665L544.5125 50.33915ZM551.85626 48.2454Q551.85626 46.511024 552.8094 45.6829Q553.60626 44.9954 554.7625 44.9954Q556.04376 44.9954 556.85626 45.83915Q557.6844 46.667274 557.6844 48.15165Q557.6844 49.354774 557.325 50.042274Q556.96564 50.729774 556.2625 51.1204Q555.575 51.4954 554.7625 51.4954Q553.46564 51.4954 552.65314 50.667274Q551.85626 49.823524 551.85626 48.2454ZM552.9344 48.2454Q552.9344 49.4329 553.45 50.02665Q553.98126 50.6204 554.7625 50.6204Q555.5594 50.6204 556.075 50.02665Q556.59064 49.4329 556.59064 48.21415Q556.59064 47.0579 556.0594 46.46415Q555.54376 45.8704 554.7625 45.8704Q553.98126 45.8704 553.45 46.46415Q552.9344 47.042274 552.9344 48.2454ZM563.3094 49.073524L564.34064 49.21415Q564.16876 50.27665 563.46564 50.886024Q562.7625 51.4954 561.7469 51.4954Q560.46564 51.4954 559.6844 50.667274Q558.91876 49.823524 558.91876 48.261024Q558.91876 47.261024 559.2469 46.511024Q559.59064 45.7454 560.2625 45.3704Q560.95 44.9954 561.7625 44.9954Q562.7625 44.9954 563.40314 45.511024Q564.0594 46.011024 564.2469 46.96415L563.21564 47.1204Q563.075 46.4954 562.7 46.1829Q562.325 45.854774 561.79376 45.854774Q560.9969 45.854774 560.4969 46.4329Q559.9969 46.9954 559.9969 48.229774Q559.9969 49.4954 560.48126 50.0579Q560.96564 50.6204 561.73126 50.6204Q562.35626 50.6204 562.7625 50.2454Q563.1844 49.8704 563.3094 49.073524ZM565.2469 51.354774L565.2469 42.761024L566.3094 42.761024L566.3094 47.667274L568.79376 45.136024L570.16876 45.136024L567.77814 47.4329L570.40314 51.354774L569.10626 51.354774L567.04376 48.167274L566.3094 48.886024L566.3094 51.354774L565.2469 51.354774ZM575.4969 49.354774L576.59064 49.479774Q576.34064 50.4329 575.6375 50.96415Q574.9344 51.4954 573.85626 51.4954Q572.4969 51.4954 571.6844 50.65165Q570.8875 49.8079 570.8875 48.292274Q570.8875 46.729774 571.7 45.8704Q572.5125 44.9954 573.79376 44.9954Q575.04376 44.9954 575.825 45.83915Q576.6219 46.6829 576.6219 48.229774Q576.6219 48.323524 576.6219 48.511024L571.98126 48.511024Q572.04376 49.542274 572.5594 50.08915Q573.075 50.6204 573.85626 50.6204Q574.4344 50.6204 574.84064 50.323524Q575.2625 50.011024 575.4969 49.354774ZM572.04376 47.65165L575.5125 47.65165Q575.45 46.854774 575.1219 46.46415Q574.60626 45.854774 573.8094 45.854774Q573.075 45.854774 572.575 46.33915Q572.09064 46.823524 572.04376 47.65165ZM578.23126 51.354774L578.23126 45.136024L579.1844 45.136024L579.1844 46.073524Q579.54376 45.417274 579.84064 45.21415Q580.15314 44.9954 580.52814 44.9954Q581.0594 44.9954 581.60626 45.323524L581.2469 46.3079Q580.85626 46.073524 580.48126 46.073524Q580.1219 46.073524 579.84064 46.292274Q579.575 46.4954 579.46564 46.8704Q579.27814 47.4329 579.27814 48.08915L579.27814 51.354774L578.23126 51.354774Z" fill-rule="nonzero"/><path fill="#9e9e9e" d="M550.91876 68.354774L549.8719 68.354774L549.8719 61.636024Q549.48126 61.9954 548.85626 62.3704Q548.2469 62.729774 547.7625 62.90165L547.7625 61.886024Q548.6375 61.46415 549.29376 60.886024Q549.96564 60.292274 550.2469 59.729774L550.91876 59.729774L550.91876 68.354774ZM554.10626 66.3704L555.1219 66.27665Q555.2469 66.9954 555.60626 67.323524Q555.98126 67.636024 556.54376 67.636024Q557.02814 67.636024 557.3875 67.417274Q557.7625 67.1829 557.9969 66.823524Q558.23126 66.448524 558.3875 65.823524Q558.54376 65.1829 558.54376 64.52665Q558.54376 64.448524 558.54376 64.3079Q558.23126 64.8079 557.6844 65.136024Q557.1375 65.448524 556.4969 65.448524Q555.41876 65.448524 554.6844 64.6829Q553.95 63.90165 553.95 62.636024Q553.95 61.323524 554.71564 60.52665Q555.4969 59.729774 556.65314 59.729774Q557.48126 59.729774 558.16876 60.1829Q558.8719 60.636024 559.23126 61.479774Q559.59064 62.3079 559.59064 63.886024Q559.59064 65.52665 559.23126 66.511024Q558.8875 67.479774 558.16876 67.9954Q557.46564 68.4954 556.52814 68.4954Q555.5125 68.4954 554.8719 67.948524Q554.23126 67.386024 554.10626 66.3704ZM558.41876 62.573524Q558.41876 61.667274 557.9344 61.136024Q557.46564 60.604774 556.77814 60.604774Q556.075 60.604774 555.54376 61.1829Q555.02814 61.7454 555.02814 62.667274Q555.02814 63.479774 555.52814 63.9954Q556.02814 64.511024 556.7469 64.511024Q557.48126 64.511024 557.95 63.9954Q558.41876 63.479774 558.41876 62.573524ZM561.54376 68.354774L561.54376 67.15165L562.7469 67.15165L562.7469 68.354774L561.54376 68.354774ZM563.95 66.104774L565.0594 66.011024Q565.1844 66.823524 565.6219 67.229774Q566.075 67.636024 566.71564 67.636024Q567.46564 67.636024 567.9969 67.0579Q568.52814 66.479774 568.52814 65.542274Q568.52814 64.636024 568.0125 64.1204Q567.5125 63.58915 566.6844 63.58915Q566.1844 63.58915 565.7625 63.823524Q565.35626 64.0579 565.1219 64.417274L564.1375 64.292274L564.96564 59.886024L569.2469 59.886024L569.2469 60.886024L565.8094 60.886024L565.35626 63.198524Q566.1219 62.65165 566.96564 62.65165Q568.09064 62.65165 568.85626 63.4329Q569.6375 64.21415 569.6375 65.448524Q569.6375 66.604774 568.96564 67.46415Q568.1375 68.4954 566.71564 68.4954Q565.54376 68.4954 564.79376 67.83915Q564.0594 67.1829 563.95 66.104774ZM571.15314 61.823524Q571.15314 60.90165 571.60626 60.261024Q572.075 59.6204 572.95 59.6204Q573.7625 59.6204 574.29376 60.198524Q574.825 60.77665 574.825 61.886024Q574.825 62.979774 574.27814 63.573524Q573.7469 64.15165 572.96564 64.15165Q572.1844 64.15165 571.66876 63.573524Q571.15314 62.9954 571.15314 61.823524ZM572.98126 60.33915Q572.59064 60.33915 572.325 60.6829Q572.075 61.02665 572.075 61.9329Q572.075 62.761024 572.325 63.104774Q572.59064 63.4329 572.98126 63.4329Q573.3875 63.4329 573.6375 63.08915Q573.90314 62.7454 573.90314 61.854774Q573.90314 61.011024 573.6375 60.6829Q573.3719 60.33915 572.98126 60.33915ZM572.98126 68.667274L577.6844 59.6204L578.54376 59.6204L573.85626 68.667274L572.98126 68.667274ZM576.7 66.33915Q576.7 65.417274 577.15314 64.77665Q577.6219 64.136024 578.5125 64.136024Q579.325 64.136024 579.85626 64.71415Q580.3875 65.27665 580.3875 66.40165Q580.3875 67.4954 579.84064 68.08915Q579.3094 68.667274 578.5125 68.667274Q577.7469 68.667274 577.21564 68.08915Q576.7 67.511024 576.7 66.33915ZM578.54376 64.854774Q578.1375 64.854774 577.8719 65.198524Q577.6219 65.542274 577.6219 66.448524Q577.6219 67.261024 577.8875 67.604774Q578.15314 67.948524 578.54376 67.948524Q578.9344 67.948524 579.2 67.604774Q579.46564 67.261024 579.46564 66.354774Q579.46564 65.52665 579.2 65.198524Q578.9344 64.854774 578.54376 64.854774Z" fill-rule="nonzero"/><path stroke="#757575" stroke-width="1.0" stroke-linecap="butt" d="M581.45 55.854774L472.95 55.854774L391.3612 55.854774" fill-rule="nonzero"/><path fill="#9e9e9e" d="M393.3612 55.854774C393.3612 54.750202 392.46576 53.854774 391.3612 53.854774C390.25662 53.854774 389.3612 54.750202 389.3612 55.854774C389.3612 56.959343 390.25662 57.854774 391.3612 57.854774C392.46576 57.854774 393.3612 56.959343 393.3612 55.854774" fill-rule="nonzero"/><path fill="#1a1a1a" d="M518.325 234.3473L518.325 225.75356L519.46564 225.75356L519.46564 230.01918L523.73126 225.75356L525.27814 225.75356L521.66876 229.23793L525.4344 234.3473L523.9344 234.3473L520.8719 230.00356L519.46564 231.36293L519.46564 234.3473L518.325 234.3473ZM530.325 234.3473L530.325 233.42543Q529.59064 234.48793 528.34064 234.48793Q527.79376 234.48793 527.3094 234.2848Q526.84064 234.06606 526.60626 233.75356Q526.3719 233.42543 526.27814 232.95668Q526.21564 232.6598 526.21564 231.9723L526.21564 228.12856L527.27814 228.12856L527.27814 231.58168Q527.27814 232.39418 527.34064 232.69106Q527.4344 233.0973 527.7469 233.3473Q528.075 233.58168 528.5594 233.58168Q529.02814 233.58168 529.4344 233.3473Q529.85626 233.0973 530.02814 232.67543Q530.21564 232.25356 530.21564 231.45668L530.21564 228.12856L531.2625 228.12856L531.2625 234.3473L530.325 234.3473ZM534.21564 234.3473L533.23126 234.3473L533.23126 225.75356L534.29376 225.75356L534.29376 228.81606Q534.96564 227.98793 535.9969 227.98793Q536.575 227.98793 537.075 228.2223Q537.59064 228.44106 537.91876 228.86293Q538.2625 229.2848 538.45 229.87856Q538.6375 230.4723 538.6375 231.14418Q538.6375 232.73793 537.84064 233.61293Q537.04376 234.48793 535.95 234.48793Q534.84064 234.48793 534.21564 233.56606L534.21564 234.3473ZM534.2 231.19106Q534.2 232.30043 534.5125 232.80043Q535.0125 233.61293 535.85626 233.61293Q536.54376 233.61293 537.04376 233.01918Q537.5594 232.42543 537.5594 231.2223Q537.5594 230.00356 537.075 229.42543Q536.59064 228.8473 535.90314 228.8473Q535.21564 228.8473 534.7 229.45668Q534.2 230.05043 534.2 231.19106ZM544.4969 232.3473L545.59064 232.4723Q545.34064 233.42543 544.6375 233.95668Q543.9344 234.48793 542.85626 234.48793Q541.4969 234.48793 540.6844 233.64418Q539.8875 232.80043 539.8875 231.2848Q539.8875 229.7223 540.7 228.86293Q541.5125 227.98793 542.79376 227.98793Q544.04376 227.98793 544.825 228.83168Q545.6219 229.67543 545.6219 231.2223Q545.6219 231.31606 545.6219 231.50356L540.98126 231.50356Q541.04376 232.5348 541.5594 233.08168Q542.075 233.61293 542.85626 233.61293Q543.4344 233.61293 543.84064 233.31606Q544.2625 233.00356 544.4969 232.3473ZM541.04376 230.64418L544.5125 230.64418Q544.45 229.8473 544.1219 229.45668Q543.60626 228.8473 542.8094 228.8473Q542.075 228.8473 541.575 229.33168Q541.09064 229.81606 541.04376 230.64418ZM547.23126 234.3473L547.23126 228.12856L548.1844 228.12856L548.1844 229.06606Q548.54376 228.4098 548.84064 228.20668Q549.15314 227.98793 549.52814 227.98793Q550.0594 227.98793 550.60626 228.31606L550.2469 229.30043Q549.85626 229.06606 549.48126 229.06606Q549.1219 229.06606 548.84064 229.2848Q548.575 229.48793 548.46564 229.86293Q548.27814 230.42543 548.27814 231.08168L548.27814 234.3473L547.23126 234.3473ZM551.2469 234.3473L551.2469 228.12856L552.1844 228.12856L552.1844 229.00356Q552.8719 227.98793 554.16876 227.98793Q554.73126 227.98793 555.2 228.19106Q555.6844 228.39418 555.91876 228.7223Q556.15314 229.05043 556.2469 229.48793Q556.29376 229.7848 556.29376 230.51918L556.29376 234.3473L555.2469 234.3473L555.2469 230.56606Q555.2469 229.9098 555.1219 229.5973Q554.9969 229.2848 554.6844 229.0973Q554.3719 228.89418 553.95 228.89418Q553.27814 228.89418 552.77814 229.33168Q552.29376 229.75356 552.29376 230.94106L552.29376 234.3473L551.2469 234.3473ZM562.4969 232.3473L563.59064 232.4723Q563.34064 233.42543 562.6375 233.95668Q561.9344 234.48793 560.85626 234.48793Q559.4969 234.48793 558.6844 233.64418Q557.8875 232.80043 557.8875 231.2848Q557.8875 229.7223 558.7 228.86293Q559.5125 227.98793 560.79376 227.98793Q562.04376 227.98793 562.825 228.83168Q563.6219 229.67543 563.6219 231.2223Q563.6219 231.31606 563.6219 231.50356L558.98126 231.50356Q559.04376 232.5348 559.5594 233.08168Q560.075 233.61293 560.85626 233.61293Q561.4344 233.61293 561.84064 233.31606Q562.2625 233.00356 562.4969 232.3473ZM559.04376 230.64418L562.5125 230.64418Q562.45 229.8473 562.1219 229.45668Q561.60626 228.8473 560.8094 228.8473Q560.075 228.8473 559.575 229.33168Q559.09064 229.81606 559.04376 230.64418ZM567.54376 233.4098L567.7 234.33168Q567.2469 234.42543 566.90314 234.42543Q566.325 234.42543 566.0125 234.25356Q565.7 234.06606 565.5594 233.76918Q565.4344 233.4723 565.4344 232.51918L565.4344 228.94106L564.66876 228.94106L564.66876 228.12856L565.4344 228.12856L565.4344 226.58168L566.48126 225.95668L566.48126 228.12856L567.54376 228.12856L567.54376 228.94106L566.48126 228.94106L566.48126 232.58168Q566.48126 233.0348 566.52814 233.1598Q566.59064 233.2848 566.71564 233.36293Q566.84064 233.44106 567.075 233.44106Q567.2625 233.44106 567.54376 233.4098ZM572.4969 232.3473L573.59064 232.4723Q573.34064 233.42543 572.6375 233.95668Q571.9344 234.48793 570.85626 234.48793Q569.4969 234.48793 568.6844 233.64418Q567.8875 232.80043 567.8875 231.2848Q567.8875 229.7223 568.7 228.86293Q569.5125 227.98793 570.79376 227.98793Q572.04376 227.98793 572.825 228.83168Q573.6219 229.67543 573.6219 231.2223Q573.6219 231.31606 573.6219 231.50356L568.98126 231.50356Q569.04376 232.5348 569.5594 233.08168Q570.075 233.61293 570.85626 233.61293Q571.4344 233.61293 571.84064 233.31606Q572.2625 233.00356 572.4969 232.3473ZM569.04376 230.64418L572.5125 230.64418Q572.45 229.8473 572.1219 229.45668Q571.60626 228.8473 570.8094 228.8473Q570.075 228.8473 569.575 229.33168Q569.09064 229.81606 569.04376 230.64418ZM574.825 232.48793L575.85626 232.33168Q575.95 232.95668 576.34064 233.2848Q576.7469 233.61293 577.48126 233.61293Q578.2 233.61293 578.54376 233.33168Q578.90314 233.0348 578.90314 232.62856Q578.90314 232.26918 578.59064 232.06606Q578.3719 231.92543 577.5125 231.70668Q576.35626 231.4098 575.90314 231.20668Q575.46564 230.98793 575.23126 230.61293Q574.9969 230.23793 574.9969 229.76918Q574.9969 229.36293 575.1844 229.00356Q575.3719 228.64418 575.7 228.4098Q575.95 228.23793 576.3719 228.11293Q576.79376 227.98793 577.29376 227.98793Q578.0125 227.98793 578.5594 228.20668Q579.1219 228.4098 579.3875 228.76918Q579.65314 229.12856 579.7469 229.7223L578.71564 229.86293Q578.65314 229.39418 578.3094 229.12856Q577.98126 228.8473 577.35626 228.8473Q576.6375 228.8473 576.325 229.0973Q576.0125 229.33168 576.0125 229.6598Q576.0125 229.86293 576.1375 230.01918Q576.27814 230.19106 576.54376 230.30043Q576.7 230.36293 577.48126 230.56606Q578.60626 230.87856 579.04376 231.06606Q579.48126 231.25356 579.73126 231.61293Q579.98126 231.9723 579.98126 232.51918Q579.98126 233.05043 579.66876 233.51918Q579.3719 233.9723 578.79376 234.23793Q578.21564 234.48793 577.48126 234.48793Q576.2625 234.48793 575.6219 233.98793Q574.9969 233.4723 574.825 232.48793Z" fill-rule="nonzero"/><path fill="#9e9e9e" d="M552.4969 250.33168L552.4969 251.3473L546.8094 251.3473Q546.8094 250.9723 546.9344 250.61293Q547.15314 250.0348 547.6219 249.4723Q548.10626 248.9098 549.0125 248.17543Q550.41876 247.01918 550.90314 246.3473Q551.40314 245.67543 551.40314 245.08168Q551.40314 244.45668 550.95 244.0348Q550.4969 243.5973 549.77814 243.5973Q549.0125 243.5973 548.5594 244.05043Q548.10626 244.50356 548.09064 245.31606L547.0125 245.20668Q547.1219 243.98793 547.84064 243.36293Q548.575 242.7223 549.8094 242.7223Q551.04376 242.7223 551.7625 243.4098Q552.48126 244.0973 552.48126 245.11293Q552.48126 245.62856 552.2625 246.12856Q552.0594 246.61293 551.5594 247.17543Q551.075 247.7223 549.95 248.67543Q548.9969 249.4723 548.71564 249.76918Q548.45 250.05043 548.27814 250.33168L552.4969 250.33168ZM557.91876 251.3473L556.8719 251.3473L556.8719 244.62856Q556.48126 244.98793 555.85626 245.36293Q555.2469 245.7223 554.7625 245.89418L554.7625 244.87856Q555.6375 244.45668 556.29376 243.87856Q556.96564 243.2848 557.2469 242.7223L557.91876 242.7223L557.91876 251.3473ZM561.54376 251.3473L561.54376 250.14418L562.7469 250.14418L562.7469 251.3473L561.54376 251.3473ZM565.575 246.69106Q564.91876 246.44106 564.59064 246.00356Q564.27814 245.55043 564.27814 244.94106Q564.27814 244.00356 564.95 243.36293Q565.6375 242.7223 566.7469 242.7223Q567.8719 242.7223 568.5594 243.37856Q569.2469 244.0348 569.2469 244.9723Q569.2469 245.56606 568.9344 246.00356Q568.6219 246.44106 567.98126 246.69106Q568.77814 246.94106 569.1844 247.51918Q569.59064 248.0973 569.59064 248.89418Q569.59064 249.98793 568.8094 250.73793Q568.04376 251.48793 566.7625 251.48793Q565.4969 251.48793 564.71564 250.73793Q563.9344 249.98793 563.9344 248.86293Q563.9344 248.01918 564.35626 247.45668Q564.79376 246.89418 565.575 246.69106ZM565.35626 244.89418Q565.35626 245.50356 565.7469 245.89418Q566.15314 246.2848 566.77814 246.2848Q567.3875 246.2848 567.77814 245.9098Q568.16876 245.51918 568.16876 244.95668Q568.16876 244.37856 567.7625 243.98793Q567.35626 243.58168 566.7625 243.58168Q566.15314 243.58168 565.7469 243.9723Q565.35626 244.36293 565.35626 244.89418ZM565.02814 248.86293Q565.02814 249.31606 565.23126 249.73793Q565.45 250.1598 565.8719 250.39418Q566.29376 250.62856 566.77814 250.62856Q567.52814 250.62856 568.0125 250.14418Q568.5125 249.6598 568.5125 248.9098Q568.5125 248.14418 568.0125 247.64418Q567.5125 247.14418 566.7469 247.14418Q565.9969 247.14418 565.5125 247.64418Q565.02814 248.12856 565.02814 248.86293ZM571.15314 244.81606Q571.15314 243.89418 571.60626 243.25356Q572.075 242.61293 572.95 242.61293Q573.7625 242.61293 574.29376 243.19106Q574.825 243.76918 574.825 244.87856Q574.825 245.9723 574.27814 246.56606Q573.7469 247.14418 572.96564 247.14418Q572.1844 247.14418 571.66876 246.56606Q571.15314 245.98793 571.15314 244.81606ZM572.98126 243.33168Q572.59064 243.33168 572.325 243.67543Q572.075 244.01918 572.075 244.92543Q572.075 245.75356 572.325 246.0973Q572.59064 246.42543 572.98126 246.42543Q573.3875 246.42543 573.6375 246.08168Q573.90314 245.73793 573.90314 244.8473Q573.90314 244.00356 573.6375 243.67543Q573.3719 243.33168 572.98126 243.33168ZM572.98126 251.6598L577.6844 242.61293L578.54376 242.61293L573.85626 251.6598L572.98126 251.6598ZM576.7 249.33168Q576.7 248.4098 577.15314 247.76918Q577.6219 247.12856 578.5125 247.12856Q579.325 247.12856 579.85626 247.70668Q580.3875 248.26918 580.3875 249.39418Q580.3875 250.48793 579.84064 251.08168Q579.3094 251.6598 578.5125 251.6598Q577.7469 251.6598 577.21564 251.08168Q576.7 250.50356 576.7 249.33168ZM578.54376 247.8473Q578.1375 247.8473 577.8719 248.19106Q577.6219 248.5348 577.6219 249.44106Q577.6219 250.25356 577.8875 250.5973Q578.15314 250.94106 578.54376 250.94106Q578.9344 250.94106 579.2 250.5973Q579.46564 250.25356 579.46564 249.3473Q579.46564 248.51918 579.2 248.19106Q578.9344 247.8473 578.54376 247.8473Z" fill-rule="nonzero"/><path stroke="#757575" stroke-width="1.0" stroke-linecap="butt" d="M581.45 238.8473L472.95 238.8473L449.36136 238.8473" fill-rule="nonzero"/><path fill="#9e9e9e" d="M451.36136 238.8473C451.36136 237.74274 450.46594 236.8473 449.36136 236.8473C448.2568 236.8473 447.36136 237.74274 447.36136 238.8473C447.36136 239.95187 448.2568 240.8473 449.36136 240.8473C450.46594 240.8473 451.36136 239.95187 451.36136 238.8473" fill-rule="nonzero"/></svg>