<svg version="1.1" viewBox="0.0 0.0 600.0 371.0" fill="none" stroke="none" stroke-linecap="square" stroke-miterlimit="10" width="600" height="371" xmlns:xlink="http://www.w3.org/1999/xlink" xmlns="http://www.w3.org/2000/svg"><path fill="#ffffff" d="M0 0L600.0 0L600.0 371.0L0 371.0L0 0Z" fill-rule="nonzero"/><path fill="#a4c2f4" d="M300.0 18.55C337.82126 18.55 374.52176 31.392063 404.0916 54.973232L300.0 185.5Z" fill-rule="nonzero"/><path fill="#3c78d8" d="M404.0916 54.973232C459.5618 99.20921 481.01428 173.67252 457.58133 240.64009C434.14835 307.60767 370.949 352.45 300.0 352.45L300.0 185.5Z" fill-rule="nonzero"/><path fill="#999999" d="M300.0 352.45C207.79607 352.45 133.05 277.70395 133.05 185.5C133.05 93.29606 207.79607 18.55 300.0 18.55L300.0 185.5Z" fill-rule="nonzero"/><path fill="#1a1a1a" d="M25.6125 177.98438L26.7375 178.28125Q26.378124 179.67188 25.45625 180.40625Q24.534374 181.14062 23.190624 181.14062Q21.8 181.14062 20.925 180.57812Q20.05 180.01562 19.596874 178.95312Q19.14375 177.875 19.14375 176.64062Q19.14375 175.29688 19.659374 174.29688Q20.175 173.29688 21.1125 172.78125Q22.065624 172.26562 23.20625 172.26562Q24.4875 172.26562 25.3625 172.92188Q26.253124 173.57812 26.596874 174.76562L25.471874 175.03125Q25.175 174.09375 24.596874 173.67188Q24.034374 173.23438 23.175 173.23438Q22.190624 173.23438 21.51875 173.71875Q20.8625 174.1875 20.58125 174.98438Q20.315624 175.78125 20.315624 176.64062Q20.315624 177.73438 20.628124 178.54688Q20.95625 179.35938 21.628124 179.76562Q22.3 180.17188 23.096874 180.17188Q24.05 180.17188 24.70625 179.625Q25.378124 179.07812 25.6125 177.98438ZM32.425 181.0L32.425 180.07812Q31.690624 181.14062 30.440624 181.14062Q29.89375 181.14062 29.409374 180.9375Q28.940624 180.71875 28.70625 180.40625Q28.471874 180.07812 28.378124 179.60938Q28.315624 179.3125 28.315624 178.625L28.315624 174.78125L29.378124 174.78125L29.378124 178.23438Q29.378124 179.04688 29.440624 179.34375Q29.534374 179.75 29.846874 180.0Q30.175 180.23438 30.659374 180.23438Q31.128124 180.23438 31.534374 180.0Q31.95625 179.75 32.128124 179.32812Q32.315624 178.90625 32.315624 178.10938L32.315624 174.78125L33.3625 174.78125L33.3625 181.0L32.425 181.0ZM34.925 179.14062L35.95625 178.98438Q36.05 179.60938 36.440624 179.9375Q36.846874 180.26562 37.58125 180.26562Q38.3 180.26562 38.64375 179.98438Q39.003124 179.6875 39.003124 179.28125Q39.003124 178.92188 38.690624 178.71875Q38.471874 178.57812 37.6125 178.35938Q36.45625 178.0625 36.003124 177.85938Q35.565624 177.64062 35.33125 177.26562Q35.096874 176.89062 35.096874 176.42188Q35.096874 176.01562 35.284374 175.65625Q35.471874 175.29688 35.8 175.0625Q36.05 174.89062 36.471874 174.76562Q36.89375 174.64062 37.39375 174.64062Q38.1125 174.64062 38.659374 174.85938Q39.221874 175.0625 39.4875 175.42188Q39.753124 175.78125 39.846874 176.375L38.815624 176.51562Q38.753124 176.04688 38.409374 175.78125Q38.08125 175.5 37.45625 175.5Q36.7375 175.5 36.425 175.75Q36.1125 175.98438 36.1125 176.3125Q36.1125 176.51562 36.2375 176.67188Q36.378124 176.84375 36.64375 176.95312Q36.8 177.01562 37.58125 177.21875Q38.70625 177.53125 39.14375 177.71875Q39.58125 177.90625 39.83125 178.26562Q40.08125 178.625 40.08125 179.17188Q40.08125 179.70312 39.76875 180.17188Q39.471874 180.625 38.89375 180.89062Q38.315624 181.14062 37.58125 181.14062Q36.3625 181.14062 35.721874 180.64062Q35.096874 180.125 34.925 179.14062ZM44.64375 180.0625L44.8 180.98438Q44.346874 181.07812 44.003124 181.07812Q43.425 181.07812 43.1125 180.90625Q42.8 180.71875 42.659374 180.42188Q42.534374 180.125 42.534374 179.17188L42.534374 175.59375L41.76875 175.59375L41.76875 174.78125L42.534374 174.78125L42.534374 173.23438L43.58125 172.60938L43.58125 174.78125L44.64375 174.78125L44.64375 175.59375L43.58125 175.59375L43.58125 179.23438Q43.58125 179.6875 43.628124 179.8125Q43.690624 179.9375 43.815624 180.01562Q43.940624 180.09375 44.175 180.09375Q44.3625 180.09375 44.64375 180.0625ZM44.95625 177.89062Q44.95625 176.15625 45.909374 175.32812Q46.70625 174.64062 47.8625 174.64062Q49.14375 174.64062 49.95625 175.48438Q50.784374 176.3125 50.784374 177.79688Q50.784374 179.0 50.425 179.6875Q50.065624 180.375 49.3625 180.76562Q48.675 181.14062 47.8625 181.14062Q46.565624 181.14062 45.753124 180.3125Q44.95625 179.46875 44.95625 177.89062ZM46.034374 177.89062Q46.034374 179.07812 46.55 179.67188Q47.08125 180.26562 47.8625 180.26562Q48.659374 180.26562 49.175 179.67188Q49.690624 179.07812 49.690624 177.85938Q49.690624 176.70312 49.159374 176.10938Q48.64375 175.51562 47.8625 175.51562Q47.08125 175.51562 46.55 176.10938Q46.034374 176.6875 46.034374 177.89062ZM52.346874 181.0L52.346874 174.78125L53.284374 174.78125L53.284374 175.65625Q53.58125 175.1875 54.065624 174.92188Q54.55 174.64062 55.175 174.64062Q55.8625 174.64062 56.3 174.92188Q56.753124 175.20312 56.925 175.71875Q57.675 174.64062 58.846874 174.64062Q59.784374 174.64062 60.26875 175.15625Q60.76875 175.65625 60.76875 176.73438L60.76875 181.0L59.721874 181.0L59.721874 177.07812Q59.721874 176.45312 59.6125 176.17188Q59.51875 175.89062 59.253124 175.71875Q58.9875 175.54688 58.6125 175.54688Q57.95625 175.54688 57.51875 175.98438Q57.096874 176.42188 57.096874 177.39062L57.096874 181.0L56.034374 181.0L56.034374 176.95312Q56.034374 176.25 55.76875 175.90625Q55.51875 175.54688 54.940624 175.54688Q54.4875 175.54688 54.1125 175.78125Q53.7375 176.01562 53.565624 176.46875Q53.39375 176.92188 53.39375 177.76562L53.39375 181.0L52.346874 181.0Z" fill-rule="nonzero"/><path fill="#9e9e9e" d="M19.05 195.75L20.159374 195.65625Q20.284374 196.46875 20.721874 196.875Q21.175 197.28125 21.815624 197.28125Q22.565624 197.28125 23.096874 196.70312Q23.628124 196.125 23.628124 195.1875Q23.628124 194.28125 23.1125 193.76562Q22.6125 193.23438 21.784374 193.23438Q21.284374 193.23438 20.8625 193.46875Q20.45625 193.70312 20.221874 194.0625L19.2375 193.9375L20.065624 189.53125L24.346874 189.53125L24.346874 190.53125L20.909374 190.53125L20.45625 192.84375Q21.221874 192.29688 22.065624 192.29688Q23.190624 192.29688 23.95625 193.07812Q24.7375 193.85938 24.7375 195.09375Q24.7375 196.25 24.065624 197.10938Q23.2375 198.14062 21.815624 198.14062Q20.64375 198.14062 19.89375 197.48438Q19.159374 196.82812 19.05 195.75ZM26.05 193.76562Q26.05 192.23438 26.3625 191.3125Q26.675 190.375 27.284374 189.875Q27.909374 189.375 28.846874 189.375Q29.534374 189.375 30.05 189.65625Q30.58125 189.9375 30.925 190.46875Q31.26875 190.98438 31.45625 191.73438Q31.64375 192.48438 31.64375 193.76562Q31.64375 195.28125 31.33125 196.20312Q31.034374 197.125 30.409374 197.64062Q29.8 198.14062 28.846874 198.14062Q27.6125 198.14062 26.89375 197.25Q26.05 196.1875 26.05 193.76562ZM27.128124 193.76562Q27.128124 195.875 27.628124 196.57812Q28.128124 197.28125 28.846874 197.28125Q29.58125 197.28125 30.065624 196.57812Q30.565624 195.875 30.565624 193.76562Q30.565624 191.64062 30.065624 190.95312Q29.58125 190.25 28.83125 190.25Q28.1125 190.25 27.675 190.85938Q27.128124 191.64062 27.128124 193.76562ZM33.64375 198.0L33.64375 196.79688L34.846874 196.79688L34.846874 198.0L33.64375 198.0ZM36.05 193.76562Q36.05 192.23438 36.3625 191.3125Q36.675 190.375 37.284374 189.875Q37.909374 189.375 38.846874 189.375Q39.534374 189.375 40.05 189.65625Q40.58125 189.9375 40.925 190.46875Q41.26875 190.98438 41.45625 191.73438Q41.64375 192.48438 41.64375 193.76562Q41.64375 195.28125 41.33125 196.20312Q41.034374 197.125 40.409374 197.64062Q39.8 198.14062 38.846874 198.14062Q37.6125 198.14062 36.89375 197.25Q36.05 196.1875 36.05 193.76562ZM37.128124 193.76562Q37.128124 195.875 37.628124 196.57812Q38.128124 197.28125 38.846874 197.28125Q39.58125 197.28125 40.065624 196.57812Q40.565624 195.875 40.565624 193.76562Q40.565624 191.64062 40.065624 190.95312Q39.58125 190.25 38.83125 190.25Q38.1125 190.25 37.675 190.85938Q37.128124 191.64062 37.128124 193.76562ZM43.253124 191.46875Q43.253124 190.54688 43.70625 189.90625Q44.175 189.26562 45.05 189.26562Q45.8625 189.26562 46.39375 189.84375Q46.925 190.42188 46.925 191.53125Q46.925 192.625 46.378124 193.21875Q45.846874 193.79688 45.065624 193.79688Q44.284374 193.79688 43.76875 193.21875Q43.253124 192.64062 43.253124 191.46875ZM45.08125 189.98438Q44.690624 189.98438 44.425 190.32812Q44.175 190.67188 44.175 191.57812Q44.175 192.40625 44.425 192.75Q44.690624 193.07812 45.08125 193.07812Q45.4875 193.07812 45.7375 192.73438Q46.003124 192.39062 46.003124 191.5Q46.003124 190.65625 45.7375 190.32812Q45.471874 189.98438 45.08125 189.98438ZM45.08125 198.3125L49.784374 189.26562L50.64375 189.26562L45.95625 198.3125L45.08125 198.3125ZM48.8 195.98438Q48.8 195.0625 49.253124 194.42188Q49.721874 193.78125 50.6125 193.78125Q51.425 193.78125 51.95625 194.35938Q52.4875 194.92188 52.4875 196.04688Q52.4875 197.14062 51.940624 197.73438Q51.409374 198.3125 50.6125 198.3125Q49.846874 198.3125 49.315624 197.73438Q48.8 197.15625 48.8 195.98438ZM50.64375 194.5Q50.2375 194.5 49.971874 194.84375Q49.721874 195.1875 49.721874 196.09375Q49.721874 196.90625 49.9875 197.25Q50.253124 197.59375 50.64375 197.59375Q51.034374 197.59375 51.3 197.25Q51.565624 196.90625 51.565624 196.0Q51.565624 195.17188 51.3 194.84375Q51.034374 194.5 50.64375 194.5Z" fill-rule="nonzero"/><path stroke="#757575" stroke-width="1.0" stroke-linecap="butt" d="M18.55 185.5L127.05 185.5L141.3975 185.5" fill-rule="nonzero"/><path fill="#9e9e9e" d="M143.3975 185.5C143.3975 184.39543 142.50208 183.5 141.3975 183.5C140.29292 183.5 139.3975 184.39543 139.3975 185.5C139.3975 186.60457 140.29292 187.5 141.3975 187.5C142.50208 187.5 143.3975 186.60457 143.3975 185.5" fill-rule="nonzero"/><path fill="#1a1a1a" d="M543.3719 31.297745L543.3719 22.703995L546.34064 22.703995Q547.34064 22.703995 547.8719 22.828995Q548.60626 23.00087 549.1219 23.43837Q549.8094 24.016495 550.1375 24.922745Q550.48126 25.81337 550.48126 26.953995Q550.48126 27.93837 550.2469 28.68837Q550.02814 29.43837 549.66876 29.93837Q549.3094 30.43837 548.8719 30.71962Q548.45 31.00087 547.85626 31.15712Q547.2625 31.297745 546.48126 31.297745L543.3719 31.297745ZM544.5125 30.28212L546.34064 30.28212Q547.2 30.28212 547.6844 30.12587Q548.16876 29.96962 548.45 29.672745Q548.85626 29.28212 549.075 28.59462Q549.3094 27.90712 549.3094 26.93837Q549.3094 25.59462 548.85626 24.87587Q548.41876 24.141495 547.79376 23.891495Q547.325 23.71962 546.325 23.71962L544.5125 23.71962L544.5125 30.28212ZM551.85626 28.18837Q551.85626 26.453995 552.8094 25.62587Q553.60626 24.93837 554.7625 24.93837Q556.04376 24.93837 556.85626 25.78212Q557.6844 26.610245 557.6844 28.09462Q557.6844 29.297745 557.325 29.985245Q556.96564 30.672745 556.2625 31.06337Q555.575 31.43837 554.7625 31.43837Q553.46564 31.43837 552.65314 30.610245Q551.85626 29.766495 551.85626 28.18837ZM552.9344 28.18837Q552.9344 29.37587 553.45 29.96962Q553.98126 30.56337 554.7625 30.56337Q555.5594 30.56337 556.075 29.96962Q556.59064 29.37587 556.59064 28.15712Q556.59064 27.00087 556.0594 26.40712Q555.54376 25.81337 554.7625 25.81337Q553.98126 25.81337 553.45 26.40712Q552.9344 26.985245 552.9344 28.18837ZM563.3094 29.016495L564.34064 29.15712Q564.16876 30.21962 563.46564 30.828995Q562.7625 31.43837 561.7469 31.43837Q560.46564 31.43837 559.6844 30.610245Q558.91876 29.766495 558.91876 28.203995Q558.91876 27.203995 559.2469 26.453995Q559.59064 25.68837 560.2625 25.31337Q560.95 24.93837 561.7625 24.93837Q562.7625 24.93837 563.40314 25.453995Q564.0594 25.953995 564.2469 26.90712L563.21564 27.06337Q563.075 26.43837 562.7 26.12587Q562.325 25.797745 561.79376 25.797745Q560.9969 25.797745 560.4969 26.37587Q559.9969 26.93837 559.9969 28.172745Q559.9969 29.43837 560.48126 30.00087Q560.96564 30.56337 561.73126 30.56337Q562.35626 30.56337 562.7625 30.18837Q563.1844 29.81337 563.3094 29.016495ZM565.2469 31.297745L565.2469 22.703995L566.3094 22.703995L566.3094 27.610245L568.79376 25.078995L570.16876 25.078995L567.77814 27.37587L570.40314 31.297745L569.10626 31.297745L567.04376 28.110245L566.3094 28.828995L566.3094 31.297745L565.2469 31.297745ZM575.4969 29.297745L576.59064 29.422745Q576.34064 30.37587 575.6375 30.90712Q574.9344 31.43837 573.85626 31.43837Q572.4969 31.43837 571.6844 30.59462Q570.8875 29.75087 570.8875 28.235245Q570.8875 26.672745 571.7 25.81337Q572.5125 24.93837 573.79376 24.93837Q575.04376 24.93837 575.825 25.78212Q576.6219 26.62587 576.6219 28.172745Q576.6219 28.266495 576.6219 28.453995L571.98126 28.453995Q572.04376 29.485245 572.5594 30.03212Q573.075 30.56337 573.85626 30.56337Q574.4344 30.56337 574.84064 30.266495Q575.2625 29.953995 575.4969 29.297745ZM572.04376 27.59462L575.5125 27.59462Q575.45 26.797745 575.1219 26.40712Q574.60626 25.797745 573.8094 25.797745Q573.075 25.797745 572.575 26.28212Q572.09064 26.766495 572.04376 27.59462ZM578.23126 31.297745L578.23126 25.078995L579.1844 25.078995L579.1844 26.016495Q579.54376 25.360245 579.84064 25.15712Q580.15314 24.93837 580.52814 24.93837Q581.0594 24.93837 581.60626 25.266495L581.2469 26.25087Q580.85626 26.016495 580.48126 26.016495Q580.1219 26.016495 579.84064 26.235245Q579.575 26.43837 579.46564 26.81337Q579.27814 27.37587 579.27814 28.03212L579.27814 31.297745L578.23126 31.297745Z" fill-rule="nonzero"/><path fill="#9e9e9e" d="M550.91876 48.297745L549.8719 48.297745L549.8719 41.578995Q549.48126 41.93837 548.85626 42.31337Q548.2469 42.672745 547.7625 42.84462L547.7625 41.828995Q548.6375 41.40712 549.29376 40.828995Q549.96564 40.235245 550.2469 39.672745L550.91876 39.672745L550.91876 48.297745ZM553.95 44.06337Q553.95 42.53212 554.2625 41.610245Q554.575 40.672745 555.1844 40.172745Q555.8094 39.672745 556.7469 39.672745Q557.4344 39.672745 557.95 39.953995Q558.48126 40.235245 558.825 40.766495Q559.16876 41.28212 559.35626 42.03212Q559.54376 42.78212 559.54376 44.06337Q559.54376 45.578995 559.23126 46.50087Q558.9344 47.422745 558.3094 47.93837Q557.7 48.43837 556.7469 48.43837Q555.5125 48.43837 554.79376 47.547745Q553.95 46.485245 553.95 44.06337ZM555.02814 44.06337Q555.02814 46.172745 555.52814 46.87587Q556.02814 47.578995 556.7469 47.578995Q557.48126 47.578995 557.96564 46.87587Q558.46564 46.172745 558.46564 44.06337Q558.46564 41.93837 557.96564 41.25087Q557.48126 40.547745 556.73126 40.547745Q556.0125 40.547745 555.575 41.15712Q555.02814 41.93837 555.02814 44.06337ZM561.54376 48.297745L561.54376 47.09462L562.7469 47.09462L562.7469 48.297745L561.54376 48.297745ZM564.0125 40.828995L564.0125 39.81337L569.575 39.81337L569.575 40.641495Q568.7625 41.516495 567.95 42.96962Q567.15314 44.40712 566.71564 45.93837Q566.3875 47.016495 566.3094 48.297745L565.21564 48.297745Q565.23126 47.28212 565.60626 45.84462Q565.9969 44.40712 566.7 43.078995Q567.41876 41.75087 568.23126 40.828995L564.0125 40.828995ZM571.15314 41.766495Q571.15314 40.84462 571.60626 40.203995Q572.075 39.56337 572.95 39.56337Q573.7625 39.56337 574.29376 40.141495Q574.825 40.71962 574.825 41.828995Q574.825 42.922745 574.27814 43.516495Q573.7469 44.09462 572.96564 44.09462Q572.1844 44.09462 571.66876 43.516495Q571.15314 42.93837 571.15314 41.766495ZM572.98126 40.28212Q572.59064 40.28212 572.325 40.62587Q572.075 40.96962 572.075 41.87587Q572.075 42.703995 572.325 43.047745Q572.59064 43.37587 572.98126 43.37587Q573.3875 43.37587 573.6375 43.03212Q573.90314 42.68837 573.90314 41.797745Q573.90314 40.953995 573.6375 40.62587Q573.3719 40.28212 572.98126 40.28212ZM572.98126 48.610245L577.6844 39.56337L578.54376 39.56337L573.85626 48.610245L572.98126 48.610245ZM576.7 46.28212Q576.7 45.360245 577.15314 44.71962Q577.6219 44.078995 578.5125 44.078995Q579.325 44.078995 579.85626 44.65712Q580.3875 45.21962 580.3875 46.34462Q580.3875 47.43837 579.84064 48.03212Q579.3094 48.610245 578.5125 48.610245Q577.7469 48.610245 577.21564 48.03212Q576.7 47.453995 576.7 46.28212ZM578.54376 44.797745Q578.1375 44.797745 577.8719 45.141495Q577.6219 45.485245 577.6219 46.391495Q577.6219 47.203995 577.8875 47.547745Q578.15314 47.891495 578.54376 47.891495Q578.9344 47.891495 579.2 47.547745Q579.46564 47.203995 579.46564 46.297745Q579.46564 45.46962 579.2 45.141495Q578.9344 44.797745 578.54376 44.797745Z" fill-rule="nonzero"/><path stroke="#757575" stroke-width="1.0" stroke-linecap="butt" d="M581.45 35.797745L472.95 35.797745L352.3831 35.797745" fill-rule="nonzero"/><path fill="#9e9e9e" d="M354.3831 35.797745C354.3831 34.693176 353.48764 33.797745 352.3831 33.797745C351.2785 33.797745 350.3831 34.693176 350.3831 35.797745C350.3831 36.902313 351.2785 37.797745 352.3831 37.797745C353.48764 37.797745 354.3831 36.902313 354.3831 35.797745" fill-rule="nonzero"/><path fill="#1a1a1a" d="M518.325 233.38309L518.325 224.78934L519.46564 224.78934L519.46564 229.05496L523.73126 224.78934L525.27814 224.78934L521.66876 228.27371L525.4344 233.38309L523.9344 233.38309L520.8719 229.03934L519.46564 230.39871L519.46564 233.38309L518.325 233.38309ZM530.325 233.38309L530.325 232.46121Q529.59064 233.52371 528.34064 233.52371Q527.79376 233.52371 527.3094 233.32059Q526.84064 233.10184 526.60626 232.78934Q526.3719 232.46121 526.27814 231.99246Q526.21564 231.69559 526.21564 231.00809L526.21564 227.16434L527.27814 227.16434L527.27814 230.61746Q527.27814 231.42996 527.34064 231.72684Q527.4344 232.13309 527.7469 232.38309Q528.075 232.61746 528.5594 232.61746Q529.02814 232.61746 529.4344 232.38309Q529.85626 232.13309 530.02814 231.71121Q530.21564 231.28934 530.21564 230.49246L530.21564 227.16434L531.2625 227.16434L531.2625 233.38309L530.325 233.38309ZM534.21564 233.38309L533.23126 233.38309L533.23126 224.78934L534.29376 224.78934L534.29376 227.85184Q534.96564 227.02371 535.9969 227.02371Q536.575 227.02371 537.075 227.25809Q537.59064 227.47684 537.91876 227.89871Q538.2625 228.32059 538.45 228.91434Q538.6375 229.50809 538.6375 230.17996Q538.6375 231.77371 537.84064 232.64871Q537.04376 233.52371 535.95 233.52371Q534.84064 233.52371 534.21564 232.60184L534.21564 233.38309ZM534.2 230.22684Q534.2 231.33621 534.5125 231.83621Q535.0125 232.64871 535.85626 232.64871Q536.54376 232.64871 537.04376 232.05496Q537.5594 231.46121 537.5594 230.25809Q537.5594 229.03934 537.075 228.46121Q536.59064 227.88309 535.90314 227.88309Q535.21564 227.88309 534.7 228.49246Q534.2 229.08621 534.2 230.22684ZM544.4969 231.38309L545.59064 231.50809Q545.34064 232.46121 544.6375 232.99246Q543.9344 233.52371 542.85626 233.52371Q541.4969 233.52371 540.6844 232.67996Q539.8875 231.83621 539.8875 230.32059Q539.8875 228.75809 540.7 227.89871Q541.5125 227.02371 542.79376 227.02371Q544.04376 227.02371 544.825 227.86746Q545.6219 228.71121 545.6219 230.25809Q545.6219 230.35184 545.6219 230.53934L540.98126 230.53934Q541.04376 231.57059 541.5594 232.11746Q542.075 232.64871 542.85626 232.64871Q543.4344 232.64871 543.84064 232.35184Q544.2625 232.03934 544.4969 231.38309ZM541.04376 229.67996L544.5125 229.67996Q544.45 228.88309 544.1219 228.49246Q543.60626 227.88309 542.8094 227.88309Q542.075 227.88309 541.575 228.36746Q541.09064 228.85184 541.04376 229.67996ZM547.23126 233.38309L547.23126 227.16434L548.1844 227.16434L548.1844 228.10184Q548.54376 227.44559 548.84064 227.24246Q549.15314 227.02371 549.52814 227.02371Q550.0594 227.02371 550.60626 227.35184L550.2469 228.33621Q549.85626 228.10184 549.48126 228.10184Q549.1219 228.10184 548.84064 228.32059Q548.575 228.52371 548.46564 228.89871Q548.27814 229.46121 548.27814 230.11746L548.27814 233.38309L547.23126 233.38309ZM551.2469 233.38309L551.2469 227.16434L552.1844 227.16434L552.1844 228.03934Q552.8719 227.02371 554.16876 227.02371Q554.73126 227.02371 555.2 227.22684Q555.6844 227.42996 555.91876 227.75809Q556.15314 228.08621 556.2469 228.52371Q556.29376 228.82059 556.29376 229.55496L556.29376 233.38309L555.2469 233.38309L555.2469 229.60184Q555.2469 228.94559 555.1219 228.63309Q554.9969 228.32059 554.6844 228.13309Q554.3719 227.92996 553.95 227.92996Q553.27814 227.92996 552.77814 228.36746Q552.29376 228.78934 552.29376 229.97684L552.29376 233.38309L551.2469 233.38309ZM562.4969 231.38309L563.59064 231.50809Q563.34064 232.46121 562.6375 232.99246Q561.9344 233.52371 560.85626 233.52371Q559.4969 233.52371 558.6844 232.67996Q557.8875 231.83621 557.8875 230.32059Q557.8875 228.75809 558.7 227.89871Q559.5125 227.02371 560.79376 227.02371Q562.04376 227.02371 562.825 227.86746Q563.6219 228.71121 563.6219 230.25809Q563.6219 230.35184 563.6219 230.53934L558.98126 230.53934Q559.04376 231.57059 559.5594 232.11746Q560.075 232.64871 560.85626 232.64871Q561.4344 232.64871 561.84064 232.35184Q562.2625 232.03934 562.4969 231.38309ZM559.04376 229.67996L562.5125 229.67996Q562.45 228.88309 562.1219 228.49246Q561.60626 227.88309 560.8094 227.88309Q560.075 227.88309 559.575 228.36746Q559.09064 228.85184 559.04376 229.67996ZM567.54376 232.44559L567.7 233.36746Q567.2469 233.46121 566.90314 233.46121Q566.325 233.46121 566.0125 233.28934Q565.7 233.10184 565.5594 232.80496Q565.4344 232.50809 565.4344 231.55496L565.4344 227.97684L564.66876 227.97684L564.66876 227.16434L565.4344 227.16434L565.4344 225.61746L566.48126 224.99246L566.48126 227.16434L567.54376 227.16434L567.54376 227.97684L566.48126 227.97684L566.48126 231.61746Q566.48126 232.07059 566.52814 232.19559Q566.59064 232.32059 566.71564 232.39871Q566.84064 232.47684 567.075 232.47684Q567.2625 232.47684 567.54376 232.44559ZM572.4969 231.38309L573.59064 231.50809Q573.34064 232.46121 572.6375 232.99246Q571.9344 233.52371 570.85626 233.52371Q569.4969 233.52371 568.6844 232.67996Q567.8875 231.83621 567.8875 230.32059Q567.8875 228.75809 568.7 227.89871Q569.5125 227.02371 570.79376 227.02371Q572.04376 227.02371 572.825 227.86746Q573.6219 228.71121 573.6219 230.25809Q573.6219 230.35184 573.6219 230.53934L568.98126 230.53934Q569.04376 231.57059 569.5594 232.11746Q570.075 232.64871 570.85626 232.64871Q571.4344 232.64871 571.84064 232.35184Q572.2625 232.03934 572.4969 231.38309ZM569.04376 229.67996L572.5125 229.67996Q572.45 228.88309 572.1219 228.49246Q571.60626 227.88309 570.8094 227.88309Q570.075 227.88309 569.575 228.36746Q569.09064 228.85184 569.04376 229.67996ZM574.825 231.52371L575.85626 231.36746Q575.95 231.99246 576.34064 232.32059Q576.7469 232.64871 577.48126 232.64871Q578.2 232.64871 578.54376 232.36746Q578.90314 232.07059 578.90314 231.66434Q578.90314 231.30496 578.59064 231.10184Q578.3719 230.96121 577.5125 230.74246Q576.35626 230.44559 575.90314 230.24246Q575.46564 230.02371 575.23126 229.64871Q574.9969 229.27371 574.9969 228.80496Q574.9969 228.39871 575.1844 228.03934Q575.3719 227.67996 575.7 227.44559Q575.95 227.27371 576.3719 227.14871Q576.79376 227.02371 577.29376 227.02371Q578.0125 227.02371 578.5594 227.24246Q579.1219 227.44559 579.3875 227.80496Q579.65314 228.16434 579.7469 228.75809L578.71564 228.89871Q578.65314 228.42996 578.3094 228.16434Q577.98126 227.88309 577.35626 227.88309Q576.6375 227.88309 576.325 228.13309Q576.0125 228.36746 576.0125 228.69559Q576.0125 228.89871 576.1375 229.05496Q576.27814 229.22684 576.54376 229.33621Q576.7 229.39871 577.48126 229.60184Q578.60626 229.91434 579.04376 230.10184Q579.48126 230.28934 579.73126 230.64871Q579.98126 231.00809 579.98126 231.55496Q579.98126 232.08621 579.66876 232.55496Q579.3719 233.00809 578.79376 233.27371Q578.21564 233.52371 577.48126 233.52371Q576.2625 233.52371 575.6219 233.02371Q574.9969 232.50809 574.825 231.52371Z" fill-rule="nonzero"/><path fill="#9e9e9e" d="M546.95 248.11746L548.0125 247.97684Q548.1844 248.86746 548.6219 249.27371Q549.0594 249.66434 549.6844 249.66434Q550.4344 249.66434 550.95 249.14871Q551.46564 248.63309 551.46564 247.86746Q551.46564 247.14871 550.98126 246.67996Q550.5125 246.19559 549.77814 246.19559Q549.48126 246.19559 549.02814 246.32059L549.15314 245.38309Q549.2625 245.39871 549.325 245.39871Q549.9969 245.39871 550.52814 245.05496Q551.075 244.69559 551.075 243.96121Q551.075 243.38309 550.6844 243.00809Q550.29376 242.61746 549.66876 242.61746Q549.0594 242.61746 548.6375 243.00809Q548.23126 243.39871 548.1219 244.16434L547.0594 243.97684Q547.2469 242.92996 547.9344 242.35184Q548.6219 241.75809 549.6375 241.75809Q550.34064 241.75809 550.9344 242.07059Q551.52814 242.36746 551.84064 242.88309Q552.15314 243.39871 552.15314 243.99246Q552.15314 244.53934 551.85626 245.00809Q551.5594 245.46121 550.98126 245.72684Q551.73126 245.89871 552.15314 246.46121Q552.575 247.00809 552.575 247.85184Q552.575 248.97684 551.7469 249.75809Q550.9344 250.53934 549.6844 250.53934Q548.5594 250.53934 547.8094 249.86746Q547.0594 249.17996 546.95 248.11746ZM554.10626 248.39871L555.1219 248.30496Q555.2469 249.02371 555.60626 249.35184Q555.98126 249.66434 556.54376 249.66434Q557.02814 249.66434 557.3875 249.44559Q557.7625 249.21121 557.9969 248.85184Q558.23126 248.47684 558.3875 247.85184Q558.54376 247.21121 558.54376 246.55496Q558.54376 246.47684 558.54376 246.33621Q558.23126 246.83621 557.6844 247.16434Q557.1375 247.47684 556.4969 247.47684Q555.41876 247.47684 554.6844 246.71121Q553.95 245.92996 553.95 244.66434Q553.95 243.35184 554.71564 242.55496Q555.4969 241.75809 556.65314 241.75809Q557.48126 241.75809 558.16876 242.21121Q558.8719 242.66434 559.23126 243.50809Q559.59064 244.33621 559.59064 245.91434Q559.59064 247.55496 559.23126 248.53934Q558.8875 249.50809 558.16876 250.02371Q557.46564 250.52371 556.52814 250.52371Q555.5125 250.52371 554.8719 249.97684Q554.23126 249.41434 554.10626 248.39871ZM558.41876 244.60184Q558.41876 243.69559 557.9344 243.16434Q557.46564 242.63309 556.77814 242.63309Q556.075 242.63309 555.54376 243.21121Q555.02814 243.77371 555.02814 244.69559Q555.02814 245.50809 555.52814 246.02371Q556.02814 246.53934 556.7469 246.53934Q557.48126 246.53934 557.95 246.02371Q558.41876 245.50809 558.41876 244.60184ZM561.54376 250.38309L561.54376 249.17996L562.7469 249.17996L562.7469 250.38309L561.54376 250.38309ZM563.95 248.11746L565.0125 247.97684Q565.1844 248.86746 565.6219 249.27371Q566.0594 249.66434 566.6844 249.66434Q567.4344 249.66434 567.95 249.14871Q568.46564 248.63309 568.46564 247.86746Q568.46564 247.14871 567.98126 246.67996Q567.5125 246.19559 566.77814 246.19559Q566.48126 246.19559 566.02814 246.32059L566.15314 245.38309Q566.2625 245.39871 566.325 245.39871Q566.9969 245.39871 567.52814 245.05496Q568.075 244.69559 568.075 243.96121Q568.075 243.38309 567.6844 243.00809Q567.29376 242.61746 566.66876 242.61746Q566.0594 242.61746 565.6375 243.00809Q565.23126 243.39871 565.1219 244.16434L564.0594 243.97684Q564.2469 242.92996 564.9344 242.35184Q565.6219 241.75809 566.6375 241.75809Q567.34064 241.75809 567.9344 242.07059Q568.52814 242.36746 568.84064 242.88309Q569.15314 243.39871 569.15314 243.99246Q569.15314 244.53934 568.85626 245.00809Q568.5594 245.46121 567.98126 245.72684Q568.73126 245.89871 569.15314 246.46121Q569.575 247.00809 569.575 247.85184Q569.575 248.97684 568.7469 249.75809Q567.9344 250.53934 566.6844 250.53934Q565.5594 250.53934 564.8094 249.86746Q564.0594 249.17996 563.95 248.11746ZM571.15314 243.85184Q571.15314 242.92996 571.60626 242.28934Q572.075 241.64871 572.95 241.64871Q573.7625 241.64871 574.29376 242.22684Q574.825 242.80496 574.825 243.91434Q574.825 245.00809 574.27814 245.60184Q573.7469 246.17996 572.96564 246.17996Q572.1844 246.17996 571.66876 245.60184Q571.15314 245.02371 571.15314 243.85184ZM572.98126 242.36746Q572.59064 242.36746 572.325 242.71121Q572.075 243.05496 572.075 243.96121Q572.075 244.78934 572.325 245.13309Q572.59064 245.46121 572.98126 245.46121Q573.3875 245.46121 573.6375 245.11746Q573.90314 244.77371 573.90314 243.88309Q573.90314 243.03934 573.6375 242.71121Q573.3719 242.36746 572.98126 242.36746ZM572.98126 250.69559L577.6844 241.64871L578.54376 241.64871L573.85626 250.69559L572.98126 250.69559ZM576.7 248.36746Q576.7 247.44559 577.15314 246.80496Q577.6219 246.16434 578.5125 246.16434Q579.325 246.16434 579.85626 246.74246Q580.3875 247.30496 580.3875 248.42996Q580.3875 249.52371 579.84064 250.11746Q579.3094 250.69559 578.5125 250.69559Q577.7469 250.69559 577.21564 250.11746Q576.7 249.53934 576.7 248.36746ZM578.54376 246.88309Q578.1375 246.88309 577.8719 247.22684Q577.6219 247.57059 577.6219 248.47684Q577.6219 249.28934 577.8875 249.63309Q578.15314 249.97684 578.54376 249.97684Q578.9344 249.97684 579.2 249.63309Q579.46564 249.28934 579.46564 248.38309Q579.46564 247.55496 579.2 247.22684Q578.9344 246.88309 578.54376 246.88309Z" fill-rule="nonzero"/><path stroke="#757575" stroke-width="1.0" stroke-linecap="butt" d="M581.45 237.88309L472.95 237.88309L449.70227 237.88309" fill-rule="nonzero"/><path fill="#9e9e9e" d="M451.70227 237.88309C451.70227 236.77852 450.80682 235.88309 449.70227 235.88309C448.5977 235.88309 447.70227 236.77852 447.70227 237.88309C447.70227 238.98766 448.5977 239.88309 449.70227 239.88309C450.80682 239.88309 451.70227 238.98766 451.70227 237.88309" fill-rule="nonzero"/></svg>