<svg version="1.1" viewBox="0.0 0.0 507.79527559055117 118.22834645669292" fill="none" stroke="none" stroke-linecap="square" stroke-miterlimit="10" xmlns:xlink="http://www.w3.org/1999/xlink" xmlns="http://www.w3.org/2000/svg"><clipPath id="p.0"><path d="m0 0l507.7953 0l0 118.22835l-507.7953 0l0 -118.22835z" clip-rule="nonzero"/></clipPath><g clip-path="url(#p.0)"><path fill="#000000" fill-opacity="0.0" d="m0 0l507.7953 0l0 118.22835l-507.7953 0z" fill-rule="evenodd"/><path fill="#000000" d="m74.414696 58.207348l0 0c0 -8.906136 6.754509 -16.125984 15.0866165 -16.125984l0 0c4.0012207 0 7.838562 1.6989822 10.667847 4.723194c2.8292923 3.024208 4.41877 7.1259155 4.41877 11.40279l0 0c0 8.906139 -6.754509 16.125988 -15.0866165 16.125988l0 0c-8.332108 0 -15.0866165 -7.2198486 -15.0866165 -16.125988zm7.543312 0l0 0c0 4.740082 3.3772507 8.582676 7.5433044 8.582676c4.166054 0 7.5433044 -3.8425941 7.5433044 -8.582676c0 -4.740082 -3.3772507 -8.582676 -7.5433044 -8.582676l0 0c-4.166054 0 -7.5433044 3.8425941 -7.5433044 8.582676z" fill-rule="evenodd"/><path stroke="#000000" stroke-width="1.0" stroke-linejoin="round" stroke-linecap="butt" d="m74.414696 58.207348l0 0c0 -8.906136 6.754509 -16.125984 15.0866165 -16.125984l0 0c4.0012207 0 7.838562 1.6989822 10.667847 4.723194c2.8292923 3.024208 4.41877 7.1259155 4.41877 11.40279l0 0c0 8.906139 -6.754509 16.125988 -15.0866165 16.125988l0 0c-8.332108 0 -15.0866165 -7.2198486 -15.0866165 -16.125988zm7.543312 0l0 0c0 4.740082 3.3772507 8.582676 7.5433044 8.582676c4.166054 0 7.5433044 -3.8425941 7.5433044 -8.582676c0 -4.740082 -3.3772507 -8.582676 -7.5433044 -8.582676l0 0c-4.166054 0 -7.5433044 3.8425941 -7.5433044 8.582676z" fill-rule="evenodd"/><path fill="#000000" d="m410.51968 58.207348l0 0c0 -8.906136 6.7545166 -16.125984 15.086609 -16.125984l0 0c4.0012207 0 7.838562 1.6989822 10.667847 4.723194c2.8292847 3.024208 4.418762 7.1259155 4.418762 11.40279l0 0c0 8.906139 -6.754486 16.125988 -15.086609 16.125988l0 0c-8.332092 0 -15.086609 -7.2198486 -15.086609 -16.125988zm7.5433044 0l0 0c0 4.740082 3.3772583 8.582676 7.5433044 8.582676c4.166046 0 7.5433044 -3.8425941 7.5433044 -8.582676c0 -4.740082 -3.3772583 -8.582676 -7.5433044 -8.582676l0 0c-4.166046 0 -7.5433044 3.8425941 -7.5433044 8.582676z" fill-rule="evenodd"/><path stroke="#000000" stroke-width="1.0" stroke-linejoin="round" stroke-linecap="butt" d="m410.51968 58.207348l0 0c0 -8.906136 6.7545166 -16.125984 15.086609 -16.125984l0 0c4.0012207 0 7.838562 1.6989822 10.667847 4.723194c2.8292847 3.024208 4.418762 7.1259155 4.418762 11.40279l0 0c0 8.906139 -6.754486 16.125988 -15.086609 16.125988l0 0c-8.332092 0 -15.086609 -7.2198486 -15.086609 -16.125988zm7.5433044 0l0 0c0 4.740082 3.3772583 8.582676 7.5433044 8.582676c4.166046 0 7.5433044 -3.8425941 7.5433044 -8.582676c0 -4.740082 -3.3772583 -8.582676 -7.5433044 -8.582676l0 0c-4.166046 0 -7.5433044 3.8425941 -7.5433044 8.582676z" fill-rule="evenodd"/><path fill="#cfe2f3" d="m139.94489 46.070988l0 0c0 -3.3514633 2.7168884 -6.068363 6.0683594 -6.068363l38.8239 0c1.609436 0 3.152954 0.63934326 4.290985 1.7773819c1.1380463 1.1380386 1.7773895 2.681553 1.7773895 4.2909813l0 24.272724c0 3.3514633 -2.7169037 6.0683594 -6.0683746 6.0683594l-38.8239 0l0 0c-3.351471 0 -6.0683594 -2.716896 -6.0683594 -6.0683594z" fill-rule="evenodd"/><path stroke="#000000" stroke-width="1.0" stroke-linejoin="round" stroke-linecap="butt" d="m139.94489 46.070988l0 0c0 -3.3514633 2.7168884 -6.068363 6.0683594 -6.068363l38.8239 0c1.609436 0 3.152954 0.63934326 4.290985 1.7773819c1.1380463 1.1380386 1.7773895 2.681553 1.7773895 4.2909813l0 24.272724c0 3.3514633 -2.7169037 6.0683594 -6.0683746 6.0683594l-38.8239 0l0 0c-3.351471 0 -6.0683594 -2.716896 -6.0683594 -6.0683594z" fill-rule="evenodd"/><path fill="#000000" d="m172.09497 65.12735l-2.9375 0l-1.171875 -3.0312538l-5.328125 0l-1.109375 3.0312538l-2.859375 0l5.203125 -13.359379l2.84375 0l5.359375 13.359379zm-4.96875 -5.281254l-1.84375 -4.953125l-1.796875 4.953125l3.640625 0z" fill-rule="nonzero"/><path fill="#cfe2f3" d="m232.0748 13.821644l0 0c0 -3.3514643 2.7169037 -6.068363 6.0683746 -6.068363l38.8239 0c1.609436 0 3.152954 0.63934326 4.290985 1.7773829c1.138031 1.1380386 1.7773743 2.68155 1.7773743 4.2909803l0 24.272724c0 3.3514633 -2.7168884 6.068363 -6.0683594 6.068363l-38.8239 0l0 0c-3.351471 0 -6.0683746 -2.7168999 -6.0683746 -6.068363z" fill-rule="evenodd"/><path stroke="#000000" stroke-width="1.0" stroke-linejoin="round" stroke-linecap="butt" d="m232.0748 13.821644l0 0c0 -3.3514643 2.7169037 -6.068363 6.0683746 -6.068363l38.8239 0c1.609436 0 3.152954 0.63934326 4.290985 1.7773829c1.138031 1.1380386 1.7773743 2.68155 1.7773743 4.2909803l0 24.272724c0 3.3514633 -2.7168884 6.068363 -6.0683594 6.068363l-38.8239 0l0 0c-3.351471 0 -6.0683746 -2.7168999 -6.0683746 -6.068363z" fill-rule="evenodd"/><path fill="#000000" d="m252.17802 19.518627l5.3437347 0q1.59375 0 2.359375 0.140625q0.78125 0.125 1.390625 0.546875q0.625 0.421875 1.03125 1.125q0.40625 0.6875 0.40625 1.546875q0 0.9375 -0.5 1.734375q-0.5 0.78125 -1.375 1.171875q1.21875 0.359375 1.875 1.21875q0.65625 0.84375 0.65625 2.0q0 0.921875 -0.421875 1.78125q-0.421875 0.859375 -1.15625 1.375q-0.734375 0.515625 -1.796875 0.625q-0.6875 0.078125 -3.265625 0.09375l-4.5468597 0l0 -13.359375zm2.703125 2.234375l0 3.078125l1.7656097 0q1.578125 0 1.953125 -0.046875q0.703125 -0.078125 1.09375 -0.46875q0.40625 -0.40625 0.40625 -1.046875q0 -0.625 -0.34375 -1.0q-0.34375 -0.390625 -1.015625 -0.484375q-0.40625 -0.03125 -2.3125 -0.03125l-1.5468597 0zm0 5.296875l0 3.578125l2.4999847 0q1.453125 0 1.84375 -0.078125q0.609375 -0.109375 0.984375 -0.53125q0.375 -0.421875 0.375 -1.140625q0 -0.59375 -0.296875 -1.015625q-0.28125 -0.421875 -0.84375 -0.609375q-0.546875 -0.203125 -2.390625 -0.203125l-2.1718597 0z" fill-rule="nonzero"/><path fill="#cfe2f3" d="m232.07349 75.58543l0 0c0 -3.351471 2.7169037 -6.068367 6.0683746 -6.068367l38.8239 0c1.609436 0 3.152954 0.63934326 4.290985 1.7773819c1.138031 1.1380386 1.7773743 2.681549 1.7773743 4.290985l0 24.27272c0 3.3514633 -2.7168884 6.0683594 -6.0683594 6.0683594l-38.8239 0l0 0c-3.351471 0 -6.0683746 -2.716896 -6.0683746 -6.0683594z" fill-rule="evenodd"/><path stroke="#000000" stroke-width="1.0" stroke-linejoin="round" stroke-linecap="butt" d="m232.07349 75.58543l0 0c0 -3.351471 2.7169037 -6.068367 6.0683746 -6.068367l38.8239 0c1.609436 0 3.152954 0.63934326 4.290985 1.7773819c1.138031 1.1380386 1.7773743 2.681549 1.7773743 4.290985l0 24.27272c0 3.3514633 -2.7168884 6.0683594 -6.0683594 6.0683594l-38.8239 0l0 0c-3.351471 0 -6.0683746 -2.716896 -6.0683746 -6.0683594z" fill-rule="evenodd"/><path fill="#000000" d="m260.72357 89.735535l2.609375 0.828125q-0.59375 2.1875 -2.0 3.25q-1.390625 1.0625 -3.546875 1.0625q-2.6562347 0 -4.3749847 -1.8125q-1.703125 -1.828125 -1.703125 -4.984375q0 -3.328125 1.71875 -5.171875q1.71875 -1.84375 4.5156097 -1.84375q2.453125 0 3.984375 1.4375q0.921875 0.859375 1.375 2.46875l-2.671875 0.640625q-0.234375 -1.046875 -0.984375 -1.640625q-0.75 -0.609375 -1.828125 -0.609375q-1.484375 0 -2.4218597 1.078125q-0.921875 1.0625 -0.921875 3.4375q0 2.53125 0.90625 3.609375q0.92185974 1.078125 2.3749847 1.078125q1.078125 0 1.84375 -0.671875q0.78125 -0.6875 1.125 -2.15625z" fill-rule="nonzero"/><path fill="#cfe2f3" d="m321.2966 75.58543l0 0c0 -3.351471 2.7168884 -6.068367 6.0683594 -6.068367l38.823883 0c1.609436 0 3.152954 0.63934326 4.290985 1.7773819c1.1380615 1.1380386 1.7774048 2.681549 1.7774048 4.290985l0 24.27272c0 3.3514633 -2.716919 6.0683594 -6.06839 6.0683594l-38.823883 0l0 0c-3.351471 0 -6.0683594 -2.716896 -6.0683594 -6.0683594z" fill-rule="evenodd"/><path stroke="#000000" stroke-width="1.0" stroke-linejoin="round" stroke-linecap="butt" d="m321.2966 75.58543l0 0c0 -3.351471 2.7168884 -6.068367 6.0683594 -6.068367l38.823883 0c1.609436 0 3.152954 0.63934326 4.290985 1.7773819c1.1380615 1.1380386 1.7774048 2.681549 1.7774048 4.290985l0 24.27272c0 3.3514633 -2.716919 6.0683594 -6.06839 6.0683594l-38.823883 0l0 0c-3.351471 0 -6.0683594 -2.716896 -6.0683594 -6.0683594z" fill-rule="evenodd"/><path fill="#000000" d="m341.3842 81.28241l4.9375 0q1.65625 0 2.53125 0.265625q1.1875 0.34375 2.015625 1.234375q0.84375 0.875 1.28125 2.15625q0.4375 1.28125 0.4375 3.15625q0 1.640625 -0.40625 2.84375q-0.5 1.453125 -1.4375 2.359375q-0.703125 0.671875 -1.890625 1.0625q-0.890625 0.28125 -2.390625 0.28125l-5.078125 0l0 -13.359375zm2.703125 2.265625l0 8.84375l2.015625 0q1.125 0 1.625 -0.125q0.65625 -0.171875 1.078125 -0.5625q0.4375 -0.390625 0.703125 -1.28125q0.28125 -0.90625 0.28125 -2.453125q0 -1.546875 -0.28125 -2.375q-0.265625 -0.828125 -0.765625 -1.28125q-0.484375 -0.46875 -1.234375 -0.640625q-0.5625 -0.125 -2.21875 -0.125l-1.203125 0z" fill-rule="nonzero"/><path fill="#000000" fill-opacity="0.0" d="m104.58793 58.207348l35.37008 0" fill-rule="evenodd"/><path stroke="#000000" stroke-width="1.0" stroke-linejoin="round" stroke-linecap="butt" d="m104.58793 58.207348l29.370079 0" fill-rule="evenodd"/><path fill="#000000" stroke="#000000" stroke-width="1.0" stroke-linecap="butt" d="m133.95801 59.85908l4.538101 -1.6517334l-4.538101 -1.6517296z" fill-rule="evenodd"/><path fill="#000000" fill-opacity="0.0" d="m190.90552 58.207348l41.165344 -32.25197" fill-rule="evenodd"/><path stroke="#000000" stroke-width="1.0" stroke-linejoin="round" stroke-linecap="butt" d="m190.90552 58.207348l36.44229 -28.551584" fill-rule="evenodd"/><path fill="#000000" stroke="#000000" stroke-width="1.0" stroke-linecap="butt" d="m228.3665 30.955965l2.5535889 -4.0989857l-4.5909424 1.4985828z" fill-rule="evenodd"/><path fill="#000000" fill-opacity="0.0" d="m190.90552 58.207348l41.165344 29.511814" fill-rule="evenodd"/><path stroke="#000000" stroke-width="1.0" stroke-linejoin="round" stroke-linecap="butt" d="m190.90552 58.207348l36.289 26.015919" fill-rule="evenodd"/><path fill="#000000" stroke="#000000" stroke-width="1.0" stroke-linecap="butt" d="m226.23215 85.56567l4.650589 1.3017197l-2.72583 -3.9865189z" fill-rule="evenodd"/><path fill="#000000" fill-opacity="0.0" d="m283.03412 87.72179l38.26773 0" fill-rule="evenodd"/><path stroke="#000000" stroke-width="1.0" stroke-linejoin="round" stroke-linecap="butt" d="m283.03412 87.72179l32.26773 0" fill-rule="evenodd"/><path fill="#000000" stroke="#000000" stroke-width="1.0" stroke-linecap="butt" d="m315.30185 89.37352l4.538086 -1.6517334l-4.538086 -1.6517334z" fill-rule="evenodd"/><path fill="#000000" fill-opacity="0.0" d="m372.25723 87.72179l42.677155 -18.110237" fill-rule="evenodd"/><path stroke="#000000" stroke-width="1.0" stroke-linejoin="round" stroke-linecap="butt" d="m372.25723 87.72179l37.1539 -15.766418" fill-rule="evenodd"/><path fill="#000000" stroke="#000000" stroke-width="1.0" stroke-linecap="butt" d="m410.05634 73.47587l3.5322876 -3.2932434l-4.8227234 0.25225067z" fill-rule="evenodd"/><path fill="#000000" fill-opacity="0.0" d="m283.03543 25.958006l127.49606 32.25197" fill-rule="evenodd"/><path stroke="#000000" stroke-width="1.0" stroke-linejoin="round" stroke-linecap="butt" d="m283.03543 25.958006l121.67929 30.78053" fill-rule="evenodd"/><path fill="#000000" stroke="#000000" stroke-width="1.0" stroke-linecap="butt" d="m404.30966 58.33983l4.8045654 -0.4883728l-3.9944458 -2.7142105z" fill-rule="evenodd"/><path fill="#000000" fill-opacity="0.0" d="m7.8635173 42.081364l66.55118 0l0 32.251972l-66.55118 0z" fill-rule="evenodd"/><path fill="#000000" d="m17.535393 60.5836l2.625 -0.25q0.234375 1.3125 0.953125 1.9375q0.734375 0.609375 1.96875 0.609375q1.296875 0 1.953125 -0.546875q0.671875 -0.546875 0.671875 -1.28125q0 -0.484375 -0.28125 -0.8125q-0.28125 -0.328125 -0.96875 -0.578125q-0.484375 -0.15625 -2.171875 -0.578125q-2.15625 -0.546875 -3.03125 -1.328125q-1.234375 -1.09375 -1.234375 -2.6875q0 -1.015625 0.578125 -1.90625q0.578125 -0.890625 1.65625 -1.34375q1.09375 -0.46875 2.640625 -0.46875q2.515625 0 3.78125 1.109375q1.28125 1.09375 1.34375 2.9375l-2.703125 0.109375q-0.171875 -1.03125 -0.75 -1.46875q-0.5625 -0.453125 -1.703125 -0.453125q-1.171875 0 -1.84375 0.46875q-0.421875 0.3125 -0.421875 0.84375q0 0.46875 0.40625 0.796875q0.5 0.4375 2.46875 0.90625q1.96875 0.453125 2.90625 0.953125q0.953125 0.5 1.484375 1.359375q0.53125 0.859375 0.53125 2.125q0 1.15625 -0.640625 2.15625q-0.640625 0.9999962 -1.8125 1.4843712q-1.15625 0.484375 -2.890625 0.484375q-2.53125 0 -3.890625 -1.1718712q-1.359375 -1.171875 -1.625 -3.40625zm17.552948 -5.328125l0 2.03125l-1.75 0l0 3.90625q0 1.1875 0.046875 1.390625q0.046875 0.1875 0.21875 0.3125q0.1875 0.125 0.4375 0.125q0.359375 0 1.03125 -0.25l0.21875 1.9999962q-0.890625 0.375 -2.015625 0.375q-0.703125 0 -1.265625 -0.234375q-0.546875 -0.234375 -0.8125 -0.59375q-0.25 -0.3749962 -0.34375 -0.9999962q-0.09375 -0.453125 -0.09375 -1.8125l0 -4.21875l-1.171875 0l0 -2.03125l1.171875 0l0 -1.921875l2.578125 -1.5l0 3.421875l1.75 0zm3.681427 2.953125l-2.328125 -0.421875q0.40625 -1.40625 1.359375 -2.078125q0.953125 -0.671875 2.84375 -0.671875q1.703125 0 2.546875 0.40625q0.84375 0.40625 1.171875 1.03125q0.34375 0.625 0.34375 2.28125l-0.015625 3.0q0 1.265625 0.109375 1.875q0.125 0.6093712 0.46875 1.2968712l-2.53125 0q-0.109375 -0.25 -0.25 -0.75q-0.0625 -0.23437119 -0.09375 -0.3124962q-0.65625 0.6406212 -1.40625 0.9687462q-0.734375 0.3125 -1.59375 0.3125q-1.484375 0 -2.34375 -0.8125q-0.859375 -0.8124962 -0.859375 -2.0468712q0 -0.828125 0.390625 -1.46875q0.390625 -0.640625 1.09375 -0.96875q0.703125 -0.34375 2.03125 -0.609375q1.796875 -0.328125 2.484375 -0.625l0 -0.25q0 -0.75 -0.359375 -1.0625q-0.359375 -0.3125 -1.375 -0.3125q-0.6875 0 -1.078125 0.28125q-0.375 0.265625 -0.609375 0.9375zm3.421875 2.078125q-0.484375 0.15625 -1.5625 0.390625q-1.0625 0.21875 -1.390625 0.4375q-0.5 0.359375 -0.5 0.90625q0 0.53125 0.40625 0.9375q0.40625 0.390625 1.015625 0.390625q0.703125 0 1.328125 -0.46875q0.46875 -0.34375 0.609375 -0.84375q0.09375 -0.328125 0.09375 -1.25l0 -0.5zm7.500717 4.640621l-2.5625 0l0 -9.671871l2.375 0l0 1.375q0.609375 -0.984375 1.09375 -1.28125q0.484375 -0.3125 1.109375 -0.3125q0.875 0 1.6875 0.484375l-0.796875 2.234375q-0.640625 -0.421875 -1.203125 -0.421875q-0.53125 0 -0.90625 0.296875q-0.375 0.296875 -0.59375 1.078125q-0.203125 0.765625 -0.203125 3.234375l0 2.9843712zm9.244644 -9.671871l0 2.03125l-1.75 0l0 3.90625q0 1.1875 0.046875 1.390625q0.046875 0.1875 0.21875 0.3125q0.1875 0.125 0.4375 0.125q0.359375 0 1.03125 -0.25l0.21875 1.9999962q-0.890625 0.375 -2.015625 0.375q-0.703125 0 -1.265625 -0.234375q-0.546875 -0.234375 -0.8125 -0.59375q-0.25 -0.3749962 -0.34375 -0.9999962q-0.09375 -0.453125 -0.09375 -1.8125l0 -4.21875l-1.171875 0l0 -2.03125l1.171875 0l0 -1.921875l2.578125 -1.5l0 3.421875l1.75 0z" fill-rule="nonzero"/><path fill="#000000" fill-opacity="0.0" d="m440.6929 42.081364l59.275604 0l0 32.251972l-59.275604 0z" fill-rule="evenodd"/><path fill="#000000" d="m451.05228 64.927345l0 -13.359371l9.90625 0l0 2.265625l-7.21875 0l0 2.953125l6.71875 0l0 2.25l-6.71875 0l0 3.640625l7.46875 0l0 2.2499962l-10.15625 0zm21.224823 0l-2.5625 0l0 -4.937496q0 -1.5625 -0.171875 -2.015625q-0.15625 -0.46875 -0.53125 -0.71875q-0.359375 -0.265625 -0.875 -0.265625q-0.671875 0 -1.203125 0.375q-0.53125 0.359375 -0.734375 0.96875q-0.1875 0.59375 -0.1875 2.21875l0 4.374996l-2.546875 0l0 -9.671871l2.375 0l0 1.421875q1.265625 -1.640625 3.1875 -1.640625q0.84375 0 1.546875 0.3125q0.703125 0.296875 1.0625 0.78125q0.359375 0.46875 0.5 1.078125q0.140625 0.59375 0.140625 1.703125l0 6.015621zm11.474121 0l-2.390625 0l0 -1.4218712q-0.59375 0.8281212 -1.40625 1.2343712q-0.796875 0.40625 -1.609375 0.40625q-1.671875 0 -2.859375 -1.3437462q-1.1875 -1.34375 -1.1875 -3.75q0 -2.453125 1.15625 -3.734375q1.15625 -1.28125 2.921875 -1.28125q1.625 0 2.8125 1.34375l0 -4.8125l2.5625 0l0 13.359371zm-6.84375 -5.046871q0 1.546875 0.4375 2.234375q0.609375 1.015625 1.71875 1.015625q0.890625 0 1.5 -0.75q0.625 -0.765625 0.625 -2.25q0 -1.671875 -0.609375 -2.40625q-0.59375 -0.734375 -1.53125 -0.734375q-0.90625 0 -1.53125 0.734375q-0.609375 0.71875 -0.609375 2.15625z" fill-rule="nonzero"/></g></svg>