<svg version="1.1" viewBox="0.0 0.0 600.0 371.0" fill="none" stroke="none" stroke-linecap="square" stroke-miterlimit="10" width="600" height="371" xmlns:xlink="http://www.w3.org/1999/xlink" xmlns="http://www.w3.org/2000/svg"><path fill="#ffffff" d="M0 0L600.0 0L600.0 371.0L0 371.0L0 0Z" fill-rule="nonzero"/><path stroke="#333333" stroke-width="1.0" stroke-linecap="butt" d="M56.5 286.5L581.5 286.5" fill-rule="nonzero"/><path stroke="#cccccc" stroke-width="1.0" stroke-linecap="butt" d="M56.5 227.5L581.5 227.5" fill-rule="nonzero"/><path stroke="#cccccc" stroke-width="1.0" stroke-linecap="butt" d="M56.5 169.5L581.5 169.5" fill-rule="nonzero"/><path stroke="#cccccc" stroke-width="1.0" stroke-linecap="butt" d="M56.5 110.5L581.5 110.5" fill-rule="nonzero"/><path stroke="#cccccc" stroke-width="1.0" stroke-linecap="butt" d="M56.5 51.5L581.5 51.5" fill-rule="nonzero"/><clipPath id="id_0"><path d="M56.55 51.916668L581.45 51.916668L581.45 286.45L56.55 286.45L56.55 51.916668Z" clip-rule="nonzero"/></clipPath><path stroke="#000000" stroke-width="2.0" stroke-linecap="butt" stroke-opacity="0.0" clip-path="url(#id_0)" d="M155.0 286.0L91.0 286.0L91.0 91.0L155.0 91.0Z" fill-rule="nonzero"/><path fill="#999999" clip-path="url(#id_0)" d="M155.0 286.0L91.0 286.0L91.0 91.0L155.0 91.0Z" fill-rule="nonzero"/><path stroke="#000000" stroke-width="2.0" stroke-linecap="butt" stroke-opacity="0.0" clip-path="url(#id_0)" d="M253.0 286.0L189.0 286.0L189.0 111.0L253.0 111.0Z" fill-rule="nonzero"/><path fill="#999999" clip-path="url(#id_0)" d="M253.0 286.0L189.0 286.0L189.0 111.0L253.0 111.0Z" fill-rule="nonzero"/><path stroke="#000000" stroke-width="2.0" stroke-linecap="butt" stroke-opacity="0.0" clip-path="url(#id_0)" d="M351.0 286.0L287.0 286.0L287.0 130.0L351.0 130.0Z" fill-rule="nonzero"/><path fill="#999999" clip-path="url(#id_0)" d="M351.0 286.0L287.0 286.0L287.0 130.0L351.0 130.0Z" fill-rule="nonzero"/><path stroke="#000000" stroke-width="2.0" stroke-linecap="butt" stroke-opacity="0.0" clip-path="url(#id_0)" d="M449.0 286.0L385.0 286.0L385.0 111.0L449.0 111.0Z" fill-rule="nonzero"/><path fill="#999999" clip-path="url(#id_0)" d="M449.0 286.0L385.0 286.0L385.0 111.0L449.0 111.0Z" fill-rule="nonzero"/><path stroke="#000000" stroke-width="2.0" stroke-linecap="butt" stroke-opacity="0.0" clip-path="url(#id_0)" d="M547.0 286.0L483.0 286.0L483.0 52.0L547.0 52.0Z" fill-rule="nonzero"/><path fill="#999999" clip-path="url(#id_0)" d="M547.0 286.0L483.0 286.0L483.0 52.0L547.0 52.0Z" fill-rule="nonzero"/><path stroke="#000000" stroke-width="2.0" stroke-linecap="butt" stroke-opacity="0.0" clip-path="url(#id_0)" d="M155.0 91.0L91.0 91.0L91.0 54.0C91.0 52.89543 91.89543 52.0 93.0 52.0L153.0 52.0C154.10457 52.0 155.0 52.89543 155.0 54.0Z" fill-rule="nonzero"/><path fill="#93c47d" clip-path="url(#id_0)" d="M155.0 91.0L91.0 91.0L91.0 54.0C91.0 52.89543 91.89543 52.0 93.0 52.0L153.0 52.0C154.10457 52.0 155.0 52.89543 155.0 54.0Z" fill-rule="nonzero"/><path stroke="#000000" stroke-width="2.0" stroke-linecap="butt" stroke-opacity="0.0" clip-path="url(#id_0)" d="M253.0 111.0L189.0 111.0L189.0 54.0C189.0 52.89543 189.89543 52.0 191.0 52.0L251.0 52.0C252.10457 52.0 253.0 52.89543 253.0 54.0Z" fill-rule="nonzero"/><path fill="#93c47d" clip-path="url(#id_0)" d="M253.0 111.0L189.0 111.0L189.0 54.0C189.0 52.89543 189.89543 52.0 191.0 52.0L251.0 52.0C252.10457 52.0 253.0 52.89543 253.0 54.0Z" fill-rule="nonzero"/><path stroke="#000000" stroke-width="2.0" stroke-linecap="butt" stroke-opacity="0.0" clip-path="url(#id_0)" d="M351.0 130.0L287.0 130.0L287.0 54.0C287.0 52.89543 287.89542 52.0 289.0 52.0L349.0 52.0C350.10458 52.0 351.0 52.89543 351.0 54.0Z" fill-rule="nonzero"/><path fill="#93c47d" clip-path="url(#id_0)" d="M351.0 130.0L287.0 130.0L287.0 54.0C287.0 52.89543 287.89542 52.0 289.0 52.0L349.0 52.0C350.10458 52.0 351.0 52.89543 351.0 54.0Z" fill-rule="nonzero"/><path stroke="#000000" stroke-width="2.0" stroke-linecap="butt" stroke-opacity="0.0" clip-path="url(#id_0)" d="M449.0 111.0L385.0 111.0L385.0 54.0C385.0 52.89543 385.89542 52.0 387.0 52.0L447.0 52.0C448.10458 52.0 449.0 52.89543 449.0 54.0Z" fill-rule="nonzero"/><path fill="#93c47d" clip-path="url(#id_0)" d="M449.0 111.0L385.0 111.0L385.0 54.0C385.0 52.89543 385.89542 52.0 387.0 52.0L447.0 52.0C448.10458 52.0 449.0 52.89543 449.0 54.0Z" fill-rule="nonzero"/><path stroke="#000000" stroke-width="2.0" stroke-linecap="butt" stroke-opacity="0.0" clip-path="url(#id_0)" d="M547.0 52.0L483.0 52.0L483.0 52.0L547.0 52.0Z" fill-rule="nonzero"/><path fill="#93c47d" clip-path="url(#id_0)" d="M547.0 52.0L483.0 52.0L483.0 52.0L547.0 52.0Z" fill-rule="nonzero"/><path fill="#000000" d="M301.5625 346.4344L302.6875 346.73126Q302.32812 348.1219 301.40625 348.85626Q300.48438 349.59064 299.14062 349.59064Q297.75 349.59064 296.875 349.02814Q296.0 348.46564 295.54688 347.40314Q295.09375 346.325 295.09375 345.09064Q295.09375 343.7469 295.60938 342.7469Q296.125 341.7469 297.0625 341.23126Q298.01562 340.71564 299.15625 340.71564Q300.4375 340.71564 301.3125 341.3719Q302.20312 342.02814 302.54688 343.21564L301.42188 343.48126Q301.125 342.54376 300.54688 342.1219Q299.98438 341.6844 299.125 341.6844Q298.14062 341.6844 297.46875 342.16876Q296.8125 342.6375 296.53125 343.4344Q296.26562 344.23126 296.26562 345.09064Q296.26562 346.1844 296.57812 346.9969Q296.90625 347.8094 297.57812 348.21564Q298.25 348.6219 299.04688 348.6219Q300.0 348.6219 300.65625 348.075Q301.32812 347.52814 301.5625 346.4344ZM308.35938 348.6844Q307.76562 349.1844 307.21875 349.3875Q306.6875 349.59064 306.0625 349.59064Q305.03125 349.59064 304.48438 349.09064Q303.9375 348.59064 303.9375 347.8094Q303.9375 347.35626 304.14062 346.98126Q304.34375 346.59064 304.6875 346.3719Q305.03125 346.1375 305.45312 346.02814Q305.75 345.9344 306.39062 345.85626Q307.65625 345.71564 308.26562 345.4969Q308.26562 345.27814 308.26562 345.23126Q308.26562 344.575 307.96875 344.3094Q307.5625 343.96564 306.76562 343.96564Q306.03125 343.96564 305.67188 344.23126Q305.3125 344.48126 305.14062 345.1375L304.10938 344.9969Q304.25 344.34064 304.57812 343.9344Q304.90625 343.52814 305.51562 343.3094Q306.125 343.09064 306.92188 343.09064Q307.71875 343.09064 308.21875 343.27814Q308.71875 343.46564 308.95312 343.7469Q309.1875 344.02814 309.28125 344.46564Q309.32812 344.73126 309.32812 345.4344L309.32812 346.84064Q309.32812 348.3094 309.39062 348.7Q309.46875 349.09064 309.67188 349.45L308.5625 349.45Q308.40625 349.1219 308.35938 348.6844ZM308.26562 346.325Q307.6875 346.5594 306.54688 346.73126Q305.89062 346.825 305.625 346.95Q305.35938 347.0594 305.20312 347.27814Q305.0625 347.4969 305.0625 347.77814Q305.0625 348.2 305.375 348.48126Q305.70312 348.7625 306.3125 348.7625Q306.92188 348.7625 307.39062 348.4969Q307.875 348.23126 308.09375 347.7625Q308.26562 347.40314 308.26562 346.71564L308.26562 346.325ZM313.59375 348.5125L313.75 349.4344Q313.29688 349.52814 312.95312 349.52814Q312.375 349.52814 312.0625 349.35626Q311.75 349.16876 311.60938 348.8719Q311.48438 348.575 311.48438 347.6219L311.48438 344.04376L310.71875 344.04376L310.71875 343.23126L311.48438 343.23126L311.48438 341.6844L312.53125 341.0594L312.53125 343.23126L313.59375 343.23126L313.59375 344.04376L312.53125 344.04376L312.53125 347.6844Q312.53125 348.1375 312.57812 348.2625Q312.64062 348.3875 312.76562 348.46564Q312.89062 348.54376 313.125 348.54376Q313.3125 348.54376 313.59375 348.5125ZM318.54688 347.45L319.64062 347.575Q319.39062 348.52814 318.6875 349.0594Q317.98438 349.59064 316.90625 349.59064Q315.54688 349.59064 314.73438 348.7469Q313.9375 347.90314 313.9375 346.3875Q313.9375 344.825 314.75 343.96564Q315.5625 343.09064 316.84375 343.09064Q318.09375 343.09064 318.875 343.9344Q319.67188 344.77814 319.67188 346.325Q319.67188 346.41876 319.67188 346.60626L315.03125 346.60626Q315.09375 347.6375 315.60938 348.1844Q316.125 348.71564 316.90625 348.71564Q317.48438 348.71564 317.89062 348.41876Q318.3125 348.10626 318.54688 347.45ZM315.09375 345.7469L318.5625 345.7469Q318.5 344.95 318.17188 344.5594Q317.65625 343.95 316.85938 343.95Q316.125 343.95 315.625 344.4344Q315.14062 344.91876 315.09375 345.7469ZM321.09375 349.96564L322.125 350.1219Q322.1875 350.59064 322.48438 350.8094Q322.875 351.10626 323.54688 351.10626Q324.28125 351.10626 324.67188 350.8094Q325.07812 350.5125 325.21875 349.9969Q325.3125 349.66876 325.29688 348.6375Q324.60938 349.45 323.57812 349.45Q322.29688 349.45 321.59375 348.52814Q320.89062 347.59064 320.89062 346.3094Q320.89062 345.41876 321.20312 344.66876Q321.53125 343.90314 322.14062 343.4969Q322.75 343.09064 323.57812 343.09064Q324.6875 343.09064 325.40625 343.98126L325.40625 343.23126L326.375 343.23126L326.375 348.60626Q326.375 350.0594 326.07812 350.66876Q325.78125 351.27814 325.14062 351.6219Q324.5 351.98126 323.5625 351.98126Q322.45312 351.98126 321.76562 351.48126Q321.07812 350.98126 321.09375 349.96564ZM321.96875 346.23126Q321.96875 347.45 322.45312 348.0125Q322.9375 348.575 323.67188 348.575Q324.40625 348.575 324.89062 348.0125Q325.39062 347.45 325.39062 346.2625Q325.39062 345.1219 324.875 344.54376Q324.375 343.96564 323.65625 343.96564Q322.95312 343.96564 322.45312 344.54376Q321.96875 345.10626 321.96875 346.23126ZM327.90625 346.34064Q327.90625 344.60626 328.85938 343.77814Q329.65625 343.09064 330.8125 343.09064Q332.09375 343.09064 332.90625 343.9344Q333.73438 344.7625 333.73438 346.2469Q333.73438 347.45 333.375 348.1375Q333.01562 348.825 332.3125 349.21564Q331.625 349.59064 330.8125 349.59064Q329.51562 349.59064 328.70312 348.7625Q327.90625 347.91876 327.90625 346.34064ZM328.98438 346.34064Q328.98438 347.52814 329.5 348.1219Q330.03125 348.71564 330.8125 348.71564Q331.60938 348.71564 332.125 348.1219Q332.64062 347.52814 332.64062 346.3094Q332.64062 345.15314 332.10938 344.5594Q331.59375 343.96564 330.8125 343.96564Q330.03125 343.96564 329.5 344.5594Q328.98438 345.1375 328.98438 346.34064ZM335.28125 349.45L335.28125 343.23126L336.23438 343.23126L336.23438 344.16876Q336.59375 343.5125 336.89062 343.3094Q337.20312 343.09064 337.57812 343.09064Q338.10938 343.09064 338.65625 343.41876L338.29688 344.40314Q337.90625 344.16876 337.53125 344.16876Q337.17188 344.16876 336.89062 344.3875Q336.625 344.59064 336.51562 344.96564Q336.32812 345.52814 336.32812 346.1844L336.32812 349.45L335.28125 349.45ZM339.25 351.84064L339.125 350.85626Q339.46875 350.95 339.73438 350.95Q340.07812 350.95 340.28125 350.825Q340.5 350.71564 340.64062 350.5125Q340.73438 350.34064 340.96875 349.71564Q340.98438 349.6375 341.0625 349.46564L338.6875 343.23126L339.82812 343.23126L341.125 346.825Q341.375 347.5125 341.57812 348.27814Q341.76562 347.54376 342.01562 346.85626L343.34375 343.23126L344.39062 343.23126L342.03125 349.5594Q341.64062 350.575 341.4375 350.96564Q341.15625 351.4969 340.78125 351.73126Q340.42188 351.98126 339.92188 351.98126Q339.625 351.98126 339.25 351.84064Z" fill-rule="nonzero"/><path fill="#000000" d="M33.05 286.21564Q33.05 284.6844 33.3625 283.7625Q33.675 282.825 34.284374 282.325Q34.909374 281.825 35.846874 281.825Q36.534374 281.825 37.05 282.10626Q37.58125 282.3875 37.925 282.91876Q38.26875 283.4344 38.45625 284.1844Q38.64375 284.9344 38.64375 286.21564Q38.64375 287.73126 38.33125 288.65314Q38.034374 289.575 37.409374 290.09064Q36.8 290.59064 35.846874 290.59064Q34.6125 290.59064 33.89375 289.7Q33.05 288.6375 33.05 286.21564ZM34.128124 286.21564Q34.128124 288.325 34.628124 289.02814Q35.128124 289.73126 35.846874 289.73126Q36.58125 289.73126 37.065624 289.02814Q37.565624 288.325 37.565624 286.21564Q37.565624 284.09064 37.065624 283.40314Q36.58125 282.7 35.83125 282.7Q35.1125 282.7 34.675 283.3094Q34.128124 284.09064 34.128124 286.21564ZM40.253124 283.91876Q40.253124 282.9969 40.70625 282.35626Q41.175 281.71564 42.05 281.71564Q42.8625 281.71564 43.39375 282.29376Q43.925 282.8719 43.925 283.98126Q43.925 285.075 43.378124 285.66876Q42.846874 286.2469 42.065624 286.2469Q41.284374 286.2469 40.76875 285.66876Q40.253124 285.09064 40.253124 283.91876ZM42.08125 282.4344Q41.690624 282.4344 41.425 282.77814Q41.175 283.1219 41.175 284.02814Q41.175 284.85626 41.425 285.2Q41.690624 285.52814 42.08125 285.52814Q42.4875 285.52814 42.7375 285.1844Q43.003124 284.84064 43.003124 283.95Q43.003124 283.10626 42.7375 282.77814Q42.471874 282.4344 42.08125 282.4344ZM42.08125 290.7625L46.784374 281.71564L47.64375 281.71564L42.95625 290.7625L42.08125 290.7625ZM45.8 288.4344Q45.8 287.5125 46.253124 286.8719Q46.721874 286.23126 47.6125 286.23126Q48.425 286.23126 48.95625 286.8094Q49.4875 287.3719 49.4875 288.4969Q49.4875 289.59064 48.940624 290.1844Q48.409374 290.7625 47.6125 290.7625Q46.846874 290.7625 46.315624 290.1844Q45.8 289.60626 45.8 288.4344ZM47.64375 286.95Q47.2375 286.95 46.971874 287.29376Q46.721874 287.6375 46.721874 288.54376Q46.721874 289.35626 46.9875 289.7Q47.253124 290.04376 47.64375 290.04376Q48.034374 290.04376 48.3 289.7Q48.565624 289.35626 48.565624 288.45Q48.565624 287.6219 48.3 287.29376Q48.034374 286.95 47.64375 286.95Z" fill-rule="nonzero"/><path fill="#000000" d="M31.596874 230.80104L31.596874 231.81667L25.909374 231.81667Q25.909374 231.44167 26.034374 231.08229Q26.253124 230.50417 26.721874 229.94167Q27.20625 229.37917 28.1125 228.64479Q29.51875 227.48854 30.003124 226.81667Q30.503124 226.14479 30.503124 225.55104Q30.503124 224.92604 30.05 224.50417Q29.596874 224.06667 28.878124 224.06667Q28.1125 224.06667 27.659374 224.51979Q27.20625 224.97292 27.190624 225.78542L26.1125 225.67604Q26.221874 224.45729 26.940624 223.83229Q27.675 223.19167 28.909374 223.19167Q30.14375 223.19167 30.8625 223.87917Q31.58125 224.56667 31.58125 225.58229Q31.58125 226.09792 31.3625 226.59792Q31.159374 227.08229 30.659374 227.64479Q30.175 228.19167 29.05 229.14479Q28.096874 229.94167 27.815624 230.23854Q27.55 230.51979 27.378124 230.80104L31.596874 230.80104ZM33.05 229.56667L34.159374 229.47292Q34.284374 230.28542 34.721874 230.69167Q35.175 231.09792 35.815624 231.09792Q36.565624 231.09792 37.096874 230.51979Q37.628124 229.94167 37.628124 229.00417Q37.628124 228.09792 37.1125 227.58229Q36.6125 227.05104 35.784374 227.05104Q35.284374 227.05104 34.8625 227.28542Q34.45625 227.51979 34.221874 227.87917L33.2375 227.75417L34.065624 223.34792L38.346874 223.34792L38.346874 224.34792L34.909374 224.34792L34.45625 226.66042Q35.221874 226.11354 36.065624 226.11354Q37.190624 226.11354 37.95625 226.89479Q38.7375 227.67604 38.7375 228.91042Q38.7375 230.06667 38.065624 230.92604Q37.2375 231.95729 35.815624 231.95729Q34.64375 231.95729 33.89375 231.30104Q33.159374 230.64479 33.05 229.56667ZM40.253124 225.28542Q40.253124 224.36354 40.70625 223.72292Q41.175 223.08229 42.05 223.08229Q42.8625 223.08229 43.39375 223.66042Q43.925 224.23854 43.925 225.34792Q43.925 226.44167 43.378124 227.03542Q42.846874 227.61354 42.065624 227.61354Q41.284374 227.61354 40.76875 227.03542Q40.253124 226.45729 40.253124 225.28542ZM42.08125 223.80104Q41.690624 223.80104 41.425 224.14479Q41.175 224.48854 41.175 225.39479Q41.175 226.22292 41.425 226.56667Q41.690624 226.89479 42.08125 226.89479Q42.4875 226.89479 42.7375 226.55104Q43.003124 226.20729 43.003124 225.31667Q43.003124 224.47292 42.7375 224.14479Q42.471874 223.80104 42.08125 223.80104ZM42.08125 232.12917L46.784374 223.08229L47.64375 223.08229L42.95625 232.12917L42.08125 232.12917ZM45.8 229.80104Q45.8 228.87917 46.253124 228.23854Q46.721874 227.59792 47.6125 227.59792Q48.425 227.59792 48.95625 228.17604Q49.4875 228.73854 49.4875 229.86354Q49.4875 230.95729 48.940624 231.55104Q48.409374 232.12917 47.6125 232.12917Q46.846874 232.12917 46.315624 231.55104Q45.8 230.97292 45.8 229.80104ZM47.64375 228.31667Q47.2375 228.31667 46.971874 228.66042Q46.721874 229.00417 46.721874 229.91042Q46.721874 230.72292 46.9875 231.06667Q47.253124 231.41042 47.64375 231.41042Q48.034374 231.41042 48.3 231.06667Q48.565624 230.72292 48.565624 229.81667Q48.565624 228.98854 48.3 228.66042Q48.034374 228.31667 47.64375 228.31667Z" fill-rule="nonzero"/><path fill="#000000" d="M26.05 170.93333L27.159374 170.83958Q27.284374 171.65208 27.721874 172.05833Q28.175 172.46458 28.815624 172.46458Q29.565624 172.46458 30.096874 171.88646Q30.628124 171.30833 30.628124 170.37083Q30.628124 169.46458 30.1125 168.94896Q29.6125 168.41771 28.784374 168.41771Q28.284374 168.41771 27.8625 168.65208Q27.45625 168.88646 27.221874 169.24583L26.2375 169.12083L27.065624 164.71458L31.346874 164.71458L31.346874 165.71458L27.909374 165.71458L27.45625 168.02708Q28.221874 167.48021 29.065624 167.48021Q30.190624 167.48021 30.95625 168.26146Q31.7375 169.04271 31.7375 170.27708Q31.7375 171.43333 31.065624 172.29271Q30.2375 173.32396 28.815624 173.32396Q27.64375 173.32396 26.89375 172.66771Q26.159374 172.01146 26.05 170.93333ZM33.05 168.94896Q33.05 167.41771 33.3625 166.49583Q33.675 165.55833 34.284374 165.05833Q34.909374 164.55833 35.846874 164.55833Q36.534374 164.55833 37.05 164.83958Q37.58125 165.12083 37.925 165.65208Q38.26875 166.16771 38.45625 166.91771Q38.64375 167.66771 38.64375 168.94896Q38.64375 170.46458 38.33125 171.38646Q38.034374 172.30833 37.409374 172.82396Q36.8 173.32396 35.846874 173.32396Q34.6125 173.32396 33.89375 172.43333Q33.05 171.37083 33.05 168.94896ZM34.128124 168.94896Q34.128124 171.05833 34.628124 171.76146Q35.128124 172.46458 35.846874 172.46458Q36.58125 172.46458 37.065624 171.76146Q37.565624 171.05833 37.565624 168.94896Q37.565624 166.82396 37.065624 166.13646Q36.58125 165.43333 35.83125 165.43333Q35.1125 165.43333 34.675 166.04271Q34.128124 166.82396 34.128124 168.94896ZM40.253124 166.65208Q40.253124 165.73021 40.70625 165.08958Q41.175 164.44896 42.05 164.44896Q42.8625 164.44896 43.39375 165.02708Q43.925 165.60521 43.925 166.71458Q43.925 167.80833 43.378124 168.40208Q42.846874 168.98021 42.065624 168.98021Q41.284374 168.98021 40.76875 168.40208Q40.253124 167.82396 40.253124 166.65208ZM42.08125 165.16771Q41.690624 165.16771 41.425 165.51146Q41.175 165.85521 41.175 166.76146Q41.175 167.58958 41.425 167.93333Q41.690624 168.26146 42.08125 168.26146Q42.4875 168.26146 42.7375 167.91771Q43.003124 167.57396 43.003124 166.68333Q43.003124 165.83958 42.7375 165.51146Q42.471874 165.16771 42.08125 165.16771ZM42.08125 173.49583L46.784374 164.44896L47.64375 164.44896L42.95625 173.49583L42.08125 173.49583ZM45.8 171.16771Q45.8 170.24583 46.253124 169.60521Q46.721874 168.96458 47.6125 168.96458Q48.425 168.96458 48.95625 169.54271Q49.4875 170.10521 49.4875 171.23021Q49.4875 172.32396 48.940624 172.91771Q48.409374 173.49583 47.6125 173.49583Q46.846874 173.49583 46.315624 172.91771Q45.8 172.33958 45.8 171.16771ZM47.64375 169.68333Q47.2375 169.68333 46.971874 170.02708Q46.721874 170.37083 46.721874 171.27708Q46.721874 172.08958 46.9875 172.43333Q47.253124 172.77708 47.64375 172.77708Q48.034374 172.77708 48.3 172.43333Q48.565624 172.08958 48.565624 171.18333Q48.565624 170.35521 48.3 170.02708Q48.034374 169.68333 47.64375 169.68333Z" fill-rule="nonzero"/><path fill="#000000" d="M26.1125 107.08125L26.1125 106.06563L31.675 106.06563L31.675 106.89375Q30.8625 107.76875 30.05 109.22188Q29.253124 110.65938 28.815624 112.19063Q28.4875 113.26875 28.409374 114.55L27.315624 114.55Q27.33125 113.53438 27.70625 112.09688Q28.096874 110.65938 28.8 109.33125Q29.51875 108.00313 30.33125 107.08125L26.1125 107.08125ZM33.05 112.3L34.159374 112.20625Q34.284374 113.01875 34.721874 113.425Q35.175 113.83125 35.815624 113.83125Q36.565624 113.83125 37.096874 113.25313Q37.628124 112.675 37.628124 111.7375Q37.628124 110.83125 37.1125 110.31563Q36.6125 109.78438 35.784374 109.78438Q35.284374 109.78438 34.8625 110.01875Q34.45625 110.25313 34.221874 110.6125L33.2375 110.4875L34.065624 106.08125L38.346874 106.08125L38.346874 107.08125L34.909374 107.08125L34.45625 109.39375Q35.221874 108.84688 36.065624 108.84688Q37.190624 108.84688 37.95625 109.62813Q38.7375 110.40938 38.7375 111.64375Q38.7375 112.8 38.065624 113.65938Q37.2375 114.69063 35.815624 114.69063Q34.64375 114.69063 33.89375 114.03438Q33.159374 113.37813 33.05 112.3ZM40.253124 108.01875Q40.253124 107.09688 40.70625 106.45625Q41.175 105.81563 42.05 105.81563Q42.8625 105.81563 43.39375 106.39375Q43.925 106.97188 43.925 108.08125Q43.925 109.175 43.378124 109.76875Q42.846874 110.34688 42.065624 110.34688Q41.284374 110.34688 40.76875 109.76875Q40.253124 109.19063 40.253124 108.01875ZM42.08125 106.53438Q41.690624 106.53438 41.425 106.87813Q41.175 107.22188 41.175 108.12813Q41.175 108.95625 41.425 109.3Q41.690624 109.62813 42.08125 109.62813Q42.4875 109.62813 42.7375 109.28438Q43.003124 108.94063 43.003124 108.05Q43.003124 107.20625 42.7375 106.87813Q42.471874 106.53438 42.08125 106.53438ZM42.08125 114.8625L46.784374 105.81563L47.64375 105.81563L42.95625 114.8625L42.08125 114.8625ZM45.8 112.53438Q45.8 111.6125 46.253124 110.97188Q46.721874 110.33125 47.6125 110.33125Q48.425 110.33125 48.95625 110.90938Q49.4875 111.47188 49.4875 112.59688Q49.4875 113.69063 48.940624 114.28438Q48.409374 114.8625 47.6125 114.8625Q46.846874 114.8625 46.315624 114.28438Q45.8 113.70625 45.8 112.53438ZM47.64375 111.05Q47.2375 111.05 46.971874 111.39375Q46.721874 111.7375 46.721874 112.64375Q46.721874 113.45625 46.9875 113.8Q47.253124 114.14375 47.64375 114.14375Q48.034374 114.14375 48.3 113.8Q48.565624 113.45625 48.565624 112.55Q48.565624 111.72188 48.3 111.39375Q48.034374 111.05 47.64375 111.05Z" fill-rule="nonzero"/><path fill="#000000" d="M23.01875 55.916668L21.971874 55.916668L21.971874 49.197918Q21.58125 49.557293 20.95625 49.932293Q20.346874 50.291668 19.8625 50.463543L19.8625 49.447918Q20.7375 49.026043 21.39375 48.447918Q22.065624 47.854168 22.346874 47.291668L23.01875 47.291668L23.01875 55.916668ZM26.05 51.682293Q26.05 50.151043 26.3625 49.229168Q26.675 48.291668 27.284374 47.791668Q27.909374 47.291668 28.846874 47.291668Q29.534374 47.291668 30.05 47.572918Q30.58125 47.854168 30.925 48.385418Q31.26875 48.901043 31.45625 49.651043Q31.64375 50.401043 31.64375 51.682293Q31.64375 53.197918 31.33125 54.119793Q31.034374 55.041668 30.409374 55.557293Q29.8 56.057293 28.846874 56.057293Q27.6125 56.057293 26.89375 55.166668Q26.05 54.104168 26.05 51.682293ZM27.128124 51.682293Q27.128124 53.791668 27.628124 54.494793Q28.128124 55.197918 28.846874 55.197918Q29.58125 55.197918 30.065624 54.494793Q30.565624 53.791668 30.565624 51.682293Q30.565624 49.557293 30.065624 48.869793Q29.58125 48.166668 28.83125 48.166668Q28.1125 48.166668 27.675 48.776043Q27.128124 49.557293 27.128124 51.682293ZM33.05 51.682293Q33.05 50.151043 33.3625 49.229168Q33.675 48.291668 34.284374 47.791668Q34.909374 47.291668 35.846874 47.291668Q36.534374 47.291668 37.05 47.572918Q37.58125 47.854168 37.925 48.385418Q38.26875 48.901043 38.45625 49.651043Q38.64375 50.401043 38.64375 51.682293Q38.64375 53.197918 38.33125 54.119793Q38.034374 55.041668 37.409374 55.557293Q36.8 56.057293 35.846874 56.057293Q34.6125 56.057293 33.89375 55.166668Q33.05 54.104168 33.05 51.682293ZM34.128124 51.682293Q34.128124 53.791668 34.628124 54.494793Q35.128124 55.197918 35.846874 55.197918Q36.58125 55.197918 37.065624 54.494793Q37.565624 53.791668 37.565624 51.682293Q37.565624 49.557293 37.065624 48.869793Q36.58125 48.166668 35.83125 48.166668Q35.1125 48.166668 34.675 48.776043Q34.128124 49.557293 34.128124 51.682293ZM40.253124 49.385418Q40.253124 48.463543 40.70625 47.822918Q41.175 47.182293 42.05 47.182293Q42.8625 47.182293 43.39375 47.760418Q43.925 48.338543 43.925 49.447918Q43.925 50.541668 43.378124 51.135418Q42.846874 51.713543 42.065624 51.713543Q41.284374 51.713543 40.76875 51.135418Q40.253124 50.557293 40.253124 49.385418ZM42.08125 47.901043Q41.690624 47.901043 41.425 48.244793Q41.175 48.588543 41.175 49.494793Q41.175 50.322918 41.425 50.666668Q41.690624 50.994793 42.08125 50.994793Q42.4875 50.994793 42.7375 50.651043Q43.003124 50.307293 43.003124 49.416668Q43.003124 48.572918 42.7375 48.244793Q42.471874 47.901043 42.08125 47.901043ZM42.08125 56.229168L46.784374 47.182293L47.64375 47.182293L42.95625 56.229168L42.08125 56.229168ZM45.8 53.901043Q45.8 52.979168 46.253124 52.338543Q46.721874 51.697918 47.6125 51.697918Q48.425 51.697918 48.95625 52.276043Q49.4875 52.838543 49.4875 53.963543Q49.4875 55.057293 48.940624 55.651043Q48.409374 56.229168 47.6125 56.229168Q46.846874 56.229168 46.315624 55.651043Q45.8 55.072918 45.8 53.901043ZM47.64375 52.416668Q47.2375 52.416668 46.971874 52.760418Q46.721874 53.104168 46.721874 54.010418Q46.721874 54.822918 46.9875 55.166668Q47.253124 55.510418 47.64375 55.510418Q48.034374 55.510418 48.3 55.166668Q48.565624 54.822918 48.565624 53.916668Q48.565624 53.088543 48.3 52.760418Q48.034374 52.416668 47.64375 52.416668Z" fill-rule="nonzero"/><path fill="#000000" d="M97.1507 303.45L97.1507 294.85626L100.38508 294.85626Q101.36945 294.85626 101.9632 295.1219Q102.55695 295.3875 102.88508 295.9344Q103.22883 296.46564 103.22883 297.0594Q103.22883 297.60626 102.93195 298.09064Q102.63508 298.575 102.0257 298.8719Q102.80695 299.10626 103.2132 299.66876Q103.63508 300.21564 103.63508 300.96564Q103.63508 301.5594 103.38508 302.09064Q103.13508 302.60626 102.76008 302.8875Q102.38508 303.16876 101.80695 303.3094Q101.24445 303.45 100.43195 303.45L97.1507 303.45ZM98.29133 298.46564L100.1507 298.46564Q100.9007 298.46564 101.22883 298.3719Q101.66633 298.2469 101.88508 297.95Q102.10383 297.6375 102.10383 297.1844Q102.10383 296.7625 101.9007 296.4344Q101.69758 296.10626 101.30695 295.9969Q100.93195 295.8719 100.01008 295.8719L98.29133 295.8719L98.29133 298.46564ZM98.29133 302.4344L100.43195 302.4344Q100.97883 302.4344 101.19758 302.3875Q101.60383 302.325 101.85383 302.16876Q102.11945 301.9969 102.29133 301.6844Q102.4632 301.3719 102.4632 300.96564Q102.4632 300.48126 102.2132 300.1219Q101.97883 299.7625 101.54133 299.6219Q101.10383 299.48126 100.2757 299.48126L98.29133 299.48126L98.29133 302.4344ZM109.1507 303.45L109.1507 302.52814Q108.41633 303.59064 107.16633 303.59064Q106.61945 303.59064 106.13508 303.3875Q105.66633 303.16876 105.43195 302.85626Q105.19758 302.52814 105.10383 302.0594Q105.04133 301.7625 105.04133 301.075L105.04133 297.23126L106.10383 297.23126L106.10383 300.6844Q106.10383 301.4969 106.16633 301.79376Q106.26008 302.2 106.57258 302.45Q106.9007 302.6844 107.38508 302.6844Q107.85383 302.6844 108.26008 302.45Q108.68195 302.2 108.85383 301.77814Q109.04133 301.35626 109.04133 300.5594L109.04133 297.23126L110.0882 297.23126L110.0882 303.45L109.1507 303.45ZM111.6507 301.59064L112.68195 301.4344Q112.7757 302.0594 113.16633 302.3875Q113.57258 302.71564 114.30695 302.71564Q115.0257 302.71564 115.36945 302.4344Q115.72883 302.1375 115.72883 301.73126Q115.72883 301.3719 115.41633 301.16876Q115.19758 301.02814 114.3382 300.8094Q113.18195 300.5125 112.72883 300.3094Q112.29133 300.09064 112.05695 299.71564Q111.82258 299.34064 111.82258 298.8719Q111.82258 298.46564 112.01008 298.10626Q112.19758 297.7469 112.5257 297.5125Q112.7757 297.34064 113.19758 297.21564Q113.61945 297.09064 114.11945 297.09064Q114.8382 297.09064 115.38508 297.3094Q115.94758 297.5125 116.2132 297.8719Q116.47883 298.23126 116.57258 298.825L115.54133 298.96564Q115.47883 298.4969 115.13508 298.23126Q114.80695 297.95 114.18195 297.95Q113.4632 297.95 113.1507 298.2Q112.8382 298.4344 112.8382 298.7625Q112.8382 298.96564 112.9632 299.1219Q113.10383 299.29376 113.36945 299.40314Q113.5257 299.46564 114.30695 299.66876Q115.43195 299.98126 115.86945 300.16876Q116.30695 300.35626 116.55695 300.71564Q116.80695 301.075 116.80695 301.6219Q116.80695 302.15314 116.49445 302.6219Q116.19758 303.075 115.61945 303.34064Q115.04133 303.59064 114.30695 303.59064Q113.0882 303.59064 112.44758 303.09064Q111.82258 302.575 111.6507 301.59064ZM119.07258 296.075L119.07258 294.85626L120.13508 294.85626L120.13508 296.075L119.07258 296.075ZM119.07258 303.45L119.07258 297.23126L120.13508 297.23126L120.13508 303.45L119.07258 303.45ZM122.07258 303.45L122.07258 297.23126L123.01008 297.23126L123.01008 298.10626Q123.69758 297.09064 124.99445 297.09064Q125.55695 297.09064 126.0257 297.29376Q126.51008 297.4969 126.74445 297.825Q126.97883 298.15314 127.07258 298.59064Q127.11945 298.8875 127.11945 299.6219L127.11945 303.45L126.07258 303.45L126.07258 299.66876Q126.07258 299.0125 125.94758 298.7Q125.82258 298.3875 125.51008 298.2Q125.19758 297.9969 124.7757 297.9969Q124.10383 297.9969 123.60383 298.4344Q123.11945 298.85626 123.11945 300.04376L123.11945 303.45L122.07258 303.45ZM133.32257 301.45L134.41632 301.575Q134.16632 302.52814 133.4632 303.0594Q132.76007 303.59064 131.68195 303.59064Q130.32257 303.59064 129.51007 302.7469Q128.7132 301.90314 128.7132 300.3875Q128.7132 298.825 129.5257 297.96564Q130.3382 297.09064 131.61945 297.09064Q132.86945 297.09064 133.6507 297.9344Q134.44757 298.77814 134.44757 300.325Q134.44757 300.41876 134.44757 300.60626L129.80695 300.60626Q129.86945 301.6375 130.38507 302.1844Q130.9007 302.71564 131.68195 302.71564Q132.26007 302.71564 132.66632 302.41876Q133.0882 302.10626 133.32257 301.45ZM129.86945 299.7469L133.3382 299.7469Q133.2757 298.95 132.94757 298.5594Q132.43195 297.95 131.63507 297.95Q130.9007 297.95 130.4007 298.4344Q129.91632 298.91876 129.86945 299.7469ZM135.6507 301.59064L136.68195 301.4344Q136.7757 302.0594 137.16632 302.3875Q137.57257 302.71564 138.30695 302.71564Q139.0257 302.71564 139.36945 302.4344Q139.72882 302.1375 139.72882 301.73126Q139.72882 301.3719 139.41632 301.16876Q139.19757 301.02814 138.3382 300.8094Q137.18195 300.5125 136.72882 300.3094Q136.29132 300.09064 136.05695 299.71564Q135.82257 299.34064 135.82257 298.8719Q135.82257 298.46564 136.01007 298.10626Q136.19757 297.7469 136.5257 297.5125Q136.7757 297.34064 137.19757 297.21564Q137.61945 297.09064 138.11945 297.09064Q138.8382 297.09064 139.38507 297.3094Q139.94757 297.5125 140.2132 297.8719Q140.47882 298.23126 140.57257 298.825L139.54132 298.96564Q139.47882 298.4969 139.13507 298.23126Q138.80695 297.95 138.18195 297.95Q137.4632 297.95 137.1507 298.2Q136.8382 298.4344 136.8382 298.7625Q136.8382 298.96564 136.9632 299.1219Q137.10382 299.29376 137.36945 299.40314Q137.5257 299.46564 138.30695 299.66876Q139.43195 299.98126 139.86945 300.16876Q140.30695 300.35626 140.55695 300.71564Q140.80695 301.075 140.80695 301.6219Q140.80695 302.15314 140.49445 302.6219Q140.19757 303.075 139.61945 303.34064Q139.04132 303.59064 138.30695 303.59064Q137.0882 303.59064 136.44757 303.09064Q135.82257 302.575 135.6507 301.59064ZM142.6507 301.59064L143.68195 301.4344Q143.7757 302.0594 144.16632 302.3875Q144.57257 302.71564 145.30695 302.71564Q146.0257 302.71564 146.36945 302.4344Q146.72882 302.1375 146.72882 301.73126Q146.72882 301.3719 146.41632 301.16876Q146.19757 301.02814 145.3382 300.8094Q144.18195 300.5125 143.72882 300.3094Q143.29132 300.09064 143.05695 299.71564Q142.82257 299.34064 142.82257 298.8719Q142.82257 298.46564 143.01007 298.10626Q143.19757 297.7469 143.5257 297.5125Q143.7757 297.34064 144.19757 297.21564Q144.61945 297.09064 145.11945 297.09064Q145.8382 297.09064 146.38507 297.3094Q146.94757 297.5125 147.2132 297.8719Q147.47882 298.23126 147.57257 298.825L146.54132 298.96564Q146.47882 298.4969 146.13507 298.23126Q145.80695 297.95 145.18195 297.95Q144.4632 297.95 144.1507 298.2Q143.8382 298.4344 143.8382 298.7625Q143.8382 298.96564 143.9632 299.1219Q144.10382 299.29376 144.36945 299.40314Q144.5257 299.46564 145.30695 299.66876Q146.43195 299.98126 146.86945 300.16876Q147.30695 300.35626 147.55695 300.71564Q147.80695 301.075 147.80695 301.6219Q147.80695 302.15314 147.49445 302.6219Q147.19757 303.075 146.61945 303.34064Q146.04132 303.59064 145.30695 303.59064Q144.0882 303.59064 143.44757 303.09064Q142.82257 302.575 142.6507 301.59064Z" fill-rule="nonzero"/><path fill="#000000" d="M92.19758 317.45L92.19758 308.85626L95.44758 308.85626Q96.29133 308.85626 96.74445 308.9344Q97.38508 309.04376 97.80695 309.34064Q98.24445 309.6375 98.49445 310.16876Q98.76008 310.7 98.76008 311.34064Q98.76008 312.4344 98.05695 313.2Q97.36945 313.95 95.54133 313.95L93.3382 313.95L93.3382 317.45L92.19758 317.45ZM93.3382 312.95L95.55695 312.95Q96.66633 312.95 97.11945 312.54376Q97.5882 312.1219 97.5882 311.3719Q97.5882 310.84064 97.30695 310.46564Q97.04133 310.075 96.60383 309.95Q96.30695 309.8719 95.54133 309.8719L93.3382 309.8719L93.3382 312.95ZM100.05695 317.45L100.05695 311.23126L101.01008 311.23126L101.01008 312.16876Q101.36945 311.5125 101.66633 311.3094Q101.97883 311.09064 102.35383 311.09064Q102.88508 311.09064 103.43195 311.41876L103.07258 312.40314Q102.68195 312.16876 102.30695 312.16876Q101.94758 312.16876 101.66633 312.3875Q101.4007 312.59064 101.29133 312.96564Q101.10383 313.52814 101.10383 314.1844L101.10383 317.45L100.05695 317.45ZM103.68195 314.34064Q103.68195 312.60626 104.63508 311.77814Q105.43195 311.09064 106.5882 311.09064Q107.86945 311.09064 108.68195 311.9344Q109.51008 312.7625 109.51008 314.2469Q109.51008 315.45 109.1507 316.1375Q108.79133 316.825 108.0882 317.21564Q107.4007 317.59064 106.5882 317.59064Q105.29133 317.59064 104.47883 316.7625Q103.68195 315.91876 103.68195 314.34064ZM104.76008 314.34064Q104.76008 315.52814 105.2757 316.1219Q105.80695 316.71564 106.5882 316.71564Q107.38508 316.71564 107.9007 316.1219Q108.41633 315.52814 108.41633 314.3094Q108.41633 313.15314 107.88508 312.5594Q107.36945 311.96564 106.5882 311.96564Q105.80695 311.96564 105.2757 312.5594Q104.76008 313.1375 104.76008 314.34064ZM115.13508 315.16876L116.16633 315.3094Q115.99445 316.3719 115.29133 316.98126Q114.5882 317.59064 113.57258 317.59064Q112.29133 317.59064 111.51008 316.7625Q110.74445 315.91876 110.74445 314.35626Q110.74445 313.35626 111.07258 312.60626Q111.41633 311.84064 112.0882 311.46564Q112.7757 311.09064 113.5882 311.09064Q114.5882 311.09064 115.22883 311.60626Q115.88508 312.10626 116.07258 313.0594L115.04133 313.21564Q114.9007 312.59064 114.5257 312.27814Q114.1507 311.95 113.61945 311.95Q112.82258 311.95 112.32258 312.52814Q111.82258 313.09064 111.82258 314.325Q111.82258 315.59064 112.30695 316.15314Q112.79133 316.71564 113.55695 316.71564Q114.18195 316.71564 114.5882 316.34064Q115.01008 315.96564 115.13508 315.16876ZM121.32258 315.45L122.41633 315.575Q122.16633 316.52814 121.4632 317.0594Q120.76008 317.59064 119.68195 317.59064Q118.32258 317.59064 117.51008 316.7469Q116.7132 315.90314 116.7132 314.3875Q116.7132 312.825 117.5257 311.96564Q118.3382 311.09064 119.61945 311.09064Q120.86945 311.09064 121.6507 311.9344Q122.44758 312.77814 122.44758 314.325Q122.44758 314.41876 122.44758 314.60626L117.80695 314.60626Q117.86945 315.6375 118.38508 316.1844Q118.9007 316.71564 119.68195 316.71564Q120.26008 316.71564 120.66633 316.41876Q121.0882 316.10626 121.32258 315.45ZM117.86945 313.7469L121.3382 313.7469Q121.2757 312.95 120.94758 312.5594Q120.43195 311.95 119.63508 311.95Q118.9007 311.95 118.4007 312.4344Q117.91633 312.91876 117.86945 313.7469ZM123.6507 315.59064L124.68195 315.4344Q124.7757 316.0594 125.16633 316.3875Q125.57258 316.71564 126.30695 316.71564Q127.0257 316.71564 127.36945 316.4344Q127.72883 316.1375 127.72883 315.73126Q127.72883 315.3719 127.41633 315.16876Q127.19758 315.02814 126.3382 314.8094Q125.18195 314.5125 124.72883 314.3094Q124.29133 314.09064 124.05695 313.71564Q123.82258 313.34064 123.82258 312.8719Q123.82258 312.46564 124.01008 312.10626Q124.19758 311.7469 124.5257 311.5125Q124.7757 311.34064 125.19758 311.21564Q125.61945 311.09064 126.11945 311.09064Q126.8382 311.09064 127.38508 311.3094Q127.94758 311.5125 128.2132 311.8719Q128.47882 312.23126 128.57257 312.825L127.54133 312.96564Q127.47883 312.4969 127.13508 312.23126Q126.80695 311.95 126.18195 311.95Q125.4632 311.95 125.1507 312.2Q124.8382 312.4344 124.8382 312.7625Q124.8382 312.96564 124.9632 313.1219Q125.10383 313.29376 125.36945 313.40314Q125.5257 313.46564 126.30695 313.66876Q127.43195 313.98126 127.86945 314.16876Q128.30695 314.35626 128.55695 314.71564Q128.80695 315.075 128.80695 315.6219Q128.80695 316.15314 128.49445 316.6219Q128.19757 317.075 127.61945 317.34064Q127.04133 317.59064 126.30695 317.59064Q125.0882 317.59064 124.44758 317.09064Q123.82258 316.575 123.6507 315.59064ZM130.6507 315.59064L131.68195 315.4344Q131.7757 316.0594 132.16632 316.3875Q132.57257 316.71564 133.30695 316.71564Q134.0257 316.71564 134.36945 316.4344Q134.72882 316.1375 134.72882 315.73126Q134.72882 315.3719 134.41632 315.16876Q134.19757 315.02814 133.3382 314.8094Q132.18195 314.5125 131.72882 314.3094Q131.29132 314.09064 131.05695 313.71564Q130.82257 313.34064 130.82257 312.8719Q130.82257 312.46564 131.01007 312.10626Q131.19757 311.7469 131.5257 311.5125Q131.7757 311.34064 132.19757 311.21564Q132.61945 311.09064 133.11945 311.09064Q133.8382 311.09064 134.38507 311.3094Q134.94757 311.5125 135.2132 311.8719Q135.47882 312.23126 135.57257 312.825L134.54132 312.96564Q134.47882 312.4969 134.13507 312.23126Q133.80695 311.95 133.18195 311.95Q132.4632 311.95 132.1507 312.2Q131.8382 312.4344 131.8382 312.7625Q131.8382 312.96564 131.9632 313.1219Q132.10382 313.29376 132.36945 313.40314Q132.5257 313.46564 133.30695 313.66876Q134.43195 313.98126 134.86945 314.16876Q135.30695 314.35626 135.55695 314.71564Q135.80695 315.075 135.80695 315.6219Q135.80695 316.15314 135.49445 316.6219Q135.19757 317.075 134.61945 317.34064Q134.04132 317.59064 133.30695 317.59064Q132.0882 317.59064 131.44757 317.09064Q130.82257 316.575 130.6507 315.59064ZM138.07257 310.075L138.07257 308.85626L139.13507 308.85626L139.13507 310.075L138.07257 310.075ZM138.07257 317.45L138.07257 311.23126L139.13507 311.23126L139.13507 317.45L138.07257 317.45ZM141.07257 317.45L141.07257 311.23126L142.01007 311.23126L142.01007 312.10626Q142.69757 311.09064 143.99445 311.09064Q144.55695 311.09064 145.0257 311.29376Q145.51007 311.4969 145.74445 311.825Q145.97882 312.15314 146.07257 312.59064Q146.11945 312.8875 146.11945 313.6219L146.11945 317.45L145.07257 317.45L145.07257 313.66876Q145.07257 313.0125 144.94757 312.7Q144.82257 312.3875 144.51007 312.2Q144.19757 311.9969 143.7757 311.9969Q143.10382 311.9969 142.60382 312.4344Q142.11945 312.85626 142.11945 314.04376L142.11945 317.45L141.07257 317.45ZM147.86945 317.96564L148.9007 318.1219Q148.9632 318.59064 149.26007 318.8094Q149.6507 319.10626 150.32257 319.10626Q151.05695 319.10626 151.44757 318.8094Q151.85382 318.5125 151.99445 317.9969Q152.0882 317.66876 152.07257 316.6375Q151.38507 317.45 150.35382 317.45Q149.07257 317.45 148.36945 316.52814Q147.66632 315.59064 147.66632 314.3094Q147.66632 313.41876 147.97882 312.66876Q148.30695 311.90314 148.91632 311.4969Q149.5257 311.09064 150.35382 311.09064Q151.4632 311.09064 152.18195 311.98126L152.18195 311.23126L153.1507 311.23126L153.1507 316.60626Q153.1507 318.0594 152.85382 318.66876Q152.55695 319.27814 151.91632 319.6219Q151.2757 319.98126 150.3382 319.98126Q149.22882 319.98126 148.54132 319.48126Q147.85382 318.98126 147.86945 317.96564ZM148.74445 314.23126Q148.74445 315.45 149.22882 316.0125Q149.7132 316.575 150.44757 316.575Q151.18195 316.575 151.66632 316.0125Q152.16632 315.45 152.16632 314.2625Q152.16632 313.1219 151.6507 312.54376Q151.1507 311.96564 150.43195 311.96564Q149.72882 311.96564 149.22882 312.54376Q148.74445 313.10626 148.74445 314.23126Z" fill-rule="nonzero"/><path fill="#000000" d="M208.80972 303.45L208.80972 294.85626L211.77847 294.85626Q212.77847 294.85626 213.30972 294.98126Q214.0441 295.15314 214.55972 295.59064Q215.24722 296.16876 215.57535 297.075Q215.9191 297.96564 215.9191 299.10626Q215.9191 300.09064 215.68472 300.84064Q215.46597 301.59064 215.1066 302.09064Q214.74722 302.59064 214.30972 302.8719Q213.88785 303.15314 213.2941 303.3094Q212.70035 303.45 211.9191 303.45L208.80972 303.45ZM209.95035 302.4344L211.77847 302.4344Q212.63785 302.4344 213.12222 302.27814Q213.6066 302.1219 213.88785 301.825Q214.2941 301.4344 214.51285 300.7469Q214.74722 300.0594 214.74722 299.09064Q214.74722 297.7469 214.2941 297.02814Q213.8566 296.29376 213.2316 296.04376Q212.76285 295.8719 211.76285 295.8719L209.95035 295.8719L209.95035 302.4344ZM221.74722 302.6844Q221.15347 303.1844 220.6066 303.3875Q220.07535 303.59064 219.45035 303.59064Q218.4191 303.59064 217.87222 303.09064Q217.32535 302.59064 217.32535 301.8094Q217.32535 301.35626 217.52847 300.98126Q217.7316 300.59064 218.07535 300.3719Q218.4191 300.1375 218.84097 300.02814Q219.13785 299.9344 219.77847 299.85626Q221.0441 299.71564 221.65347 299.4969Q221.65347 299.27814 221.65347 299.23126Q221.65347 298.575 221.3566 298.3094Q220.95035 297.96564 220.15347 297.96564Q219.4191 297.96564 219.05972 298.23126Q218.70035 298.48126 218.52847 299.1375L217.49722 298.9969Q217.63785 298.34064 217.96597 297.9344Q218.2941 297.52814 218.90347 297.3094Q219.51285 297.09064 220.30972 297.09064Q221.1066 297.09064 221.6066 297.27814Q222.1066 297.46564 222.34097 297.7469Q222.57535 298.02814 222.6691 298.46564Q222.71597 298.73126 222.71597 299.4344L222.71597 300.84064Q222.71597 302.3094 222.77847 302.7Q222.8566 303.09064 223.05972 303.45L221.95035 303.45Q221.7941 303.1219 221.74722 302.6844ZM221.65347 300.325Q221.07535 300.5594 219.93472 300.73126Q219.27847 300.825 219.01285 300.95Q218.74722 301.0594 218.59097 301.27814Q218.45035 301.4969 218.45035 301.77814Q218.45035 302.2 218.76285 302.48126Q219.09097 302.7625 219.70035 302.7625Q220.30972 302.7625 220.77847 302.4969Q221.26285 302.23126 221.4816 301.7625Q221.65347 301.40314 221.65347 300.71564L221.65347 300.325ZM226.9816 302.5125L227.13785 303.4344Q226.68472 303.52814 226.34097 303.52814Q225.76285 303.52814 225.45035 303.35626Q225.13785 303.16876 224.99722 302.8719Q224.87222 302.575 224.87222 301.6219L224.87222 298.04376L224.1066 298.04376L224.1066 297.23126L224.87222 297.23126L224.87222 295.6844L225.9191 295.0594L225.9191 297.23126L226.9816 297.23126L226.9816 298.04376L225.9191 298.04376L225.9191 301.6844Q225.9191 302.1375 225.96597 302.2625Q226.02847 302.3875 226.15347 302.46564Q226.27847 302.54376 226.51285 302.54376Q226.70035 302.54376 226.9816 302.5125ZM231.74722 302.6844Q231.15347 303.1844 230.6066 303.3875Q230.07535 303.59064 229.45035 303.59064Q228.4191 303.59064 227.87222 303.09064Q227.32535 302.59064 227.32535 301.8094Q227.32535 301.35626 227.52847 300.98126Q227.7316 300.59064 228.07535 300.3719Q228.4191 300.1375 228.84097 300.02814Q229.13785 299.9344 229.77847 299.85626Q231.0441 299.71564 231.65347 299.4969Q231.65347 299.27814 231.65347 299.23126Q231.65347 298.575 231.3566 298.3094Q230.95035 297.96564 230.15347 297.96564Q229.4191 297.96564 229.05972 298.23126Q228.70035 298.48126 228.52847 299.1375L227.49722 298.9969Q227.63785 298.34064 227.96597 297.9344Q228.2941 297.52814 228.90347 297.3094Q229.51285 297.09064 230.30972 297.09064Q231.1066 297.09064 231.6066 297.27814Q232.1066 297.46564 232.34097 297.7469Q232.57535 298.02814 232.6691 298.46564Q232.71597 298.73126 232.71597 299.4344L232.71597 300.84064Q232.71597 302.3094 232.77847 302.7Q232.8566 303.09064 233.05972 303.45L231.95035 303.45Q231.7941 303.1219 231.74722 302.6844ZM231.65347 300.325Q231.07535 300.5594 229.93472 300.73126Q229.27847 300.825 229.01285 300.95Q228.74722 301.0594 228.59097 301.27814Q228.45035 301.4969 228.45035 301.77814Q228.45035 302.2 228.76285 302.48126Q229.09097 302.7625 229.70035 302.7625Q230.30972 302.7625 230.77847 302.4969Q231.26285 302.23126 231.4816 301.7625Q231.65347 301.40314 231.65347 300.71564L231.65347 300.325Z" fill-rule="nonzero"/><path fill="#000000" d="M188.34097 317.45L188.34097 308.85626L194.5441 308.85626L194.5441 309.8719L189.4816 309.8719L189.4816 312.4969L194.2316 312.4969L194.2316 313.5125L189.4816 313.5125L189.4816 316.4344L194.74722 316.4344L194.74722 317.45L188.34097 317.45ZM196.18472 317.45L196.18472 311.23126L197.12222 311.23126L197.12222 312.10626Q197.80972 311.09064 199.1066 311.09064Q199.6691 311.09064 200.13785 311.29376Q200.62222 311.4969 200.8566 311.825Q201.09097 312.15314 201.18472 312.59064Q201.2316 312.8875 201.2316 313.6219L201.2316 317.45L200.18472 317.45L200.18472 313.66876Q200.18472 313.0125 200.05972 312.7Q199.93472 312.3875 199.62222 312.2Q199.30972 311.9969 198.88785 311.9969Q198.21597 311.9969 197.71597 312.4344Q197.2316 312.85626 197.2316 314.04376L197.2316 317.45L196.18472 317.45ZM202.9816 317.96564L204.01285 318.1219Q204.07535 318.59064 204.37222 318.8094Q204.76285 319.10626 205.43472 319.10626Q206.1691 319.10626 206.55972 318.8094Q206.96597 318.5125 207.1066 317.9969Q207.20035 317.66876 207.18472 316.6375Q206.49722 317.45 205.46597 317.45Q204.18472 317.45 203.4816 316.52814Q202.77847 315.59064 202.77847 314.3094Q202.77847 313.41876 203.09097 312.66876Q203.4191 311.90314 204.02847 311.4969Q204.63785 311.09064 205.46597 311.09064Q206.57535 311.09064 207.2941 311.98126L207.2941 311.23126L208.26285 311.23126L208.26285 316.60626Q208.26285 318.0594 207.96597 318.66876Q207.6691 319.27814 207.02847 319.6219Q206.38785 319.98126 205.45035 319.98126Q204.34097 319.98126 203.65347 319.48126Q202.96597 318.98126 202.9816 317.96564ZM203.8566 314.23126Q203.8566 315.45 204.34097 316.0125Q204.82535 316.575 205.55972 316.575Q206.2941 316.575 206.77847 316.0125Q207.27847 315.45 207.27847 314.2625Q207.27847 313.1219 206.76285 312.54376Q206.26285 311.96564 205.5441 311.96564Q204.84097 311.96564 204.34097 312.54376Q203.8566 313.10626 203.8566 314.23126ZM210.18472 310.075L210.18472 308.85626L211.24722 308.85626L211.24722 310.075L210.18472 310.075ZM210.18472 317.45L210.18472 311.23126L211.24722 311.23126L211.24722 317.45L210.18472 317.45ZM213.18472 317.45L213.18472 311.23126L214.12222 311.23126L214.12222 312.10626Q214.80972 311.09064 216.1066 311.09064Q216.6691 311.09064 217.13785 311.29376Q217.62222 311.4969 217.8566 311.825Q218.09097 312.15314 218.18472 312.59064Q218.2316 312.8875 218.2316 313.6219L218.2316 317.45L217.18472 317.45L217.18472 313.66876Q217.18472 313.0125 217.05972 312.7Q216.93472 312.3875 216.62222 312.2Q216.30972 311.9969 215.88785 311.9969Q215.21597 311.9969 214.71597 312.4344Q214.2316 312.85626 214.2316 314.04376L214.2316 317.45L213.18472 317.45ZM224.43472 315.45L225.52847 315.575Q225.27847 316.52814 224.57535 317.0594Q223.87222 317.59064 222.7941 317.59064Q221.43472 317.59064 220.62222 316.7469Q219.82535 315.90314 219.82535 314.3875Q219.82535 312.825 220.63785 311.96564Q221.45035 311.09064 222.7316 311.09064Q223.9816 311.09064 224.76285 311.9344Q225.55972 312.77814 225.55972 314.325Q225.55972 314.41876 225.55972 314.60626L220.9191 314.60626Q220.9816 315.6375 221.49722 316.1844Q222.01285 316.71564 222.7941 316.71564Q223.37222 316.71564 223.77847 316.41876Q224.20035 316.10626 224.43472 315.45ZM220.9816 313.7469L224.45035 313.7469Q224.38785 312.95 224.05972 312.5594Q223.5441 311.95 222.74722 311.95Q222.01285 311.95 221.51285 312.4344Q221.02847 312.91876 220.9816 313.7469ZM231.43472 315.45L232.52847 315.575Q232.27847 316.52814 231.57535 317.0594Q230.87222 317.59064 229.7941 317.59064Q228.43472 317.59064 227.62222 316.7469Q226.82535 315.90314 226.82535 314.3875Q226.82535 312.825 227.63785 311.96564Q228.45035 311.09064 229.7316 311.09064Q230.9816 311.09064 231.76285 311.9344Q232.55972 312.77814 232.55972 314.325Q232.55972 314.41876 232.55972 314.60626L227.9191 314.60626Q227.9816 315.6375 228.49722 316.1844Q229.01285 316.71564 229.7941 316.71564Q230.37222 316.71564 230.77847 316.41876Q231.20035 316.10626 231.43472 315.45ZM227.9816 313.7469L231.45035 313.7469Q231.38785 312.95 231.05972 312.5594Q230.5441 311.95 229.74722 311.95Q229.01285 311.95 228.51285 312.4344Q228.02847 312.91876 227.9816 313.7469ZM234.1691 317.45L234.1691 311.23126L235.12222 311.23126L235.12222 312.16876Q235.4816 311.5125 235.77847 311.3094Q236.09097 311.09064 236.46597 311.09064Q236.99722 311.09064 237.5441 311.41876L237.18472 312.40314Q236.7941 312.16876 236.4191 312.16876Q236.05972 312.16876 235.77847 312.3875Q235.51285 312.59064 235.40347 312.96564Q235.21597 313.52814 235.21597 314.1844L235.21597 317.45L234.1691 317.45ZM238.18472 310.075L238.18472 308.85626L239.24722 308.85626L239.24722 310.075L238.18472 310.075ZM238.18472 317.45L238.18472 311.23126L239.24722 311.23126L239.24722 317.45L238.18472 317.45ZM241.18472 317.45L241.18472 311.23126L242.12222 311.23126L242.12222 312.10626Q242.80972 311.09064 244.1066 311.09064Q244.6691 311.09064 245.13785 311.29376Q245.62222 311.4969 245.8566 311.825Q246.09097 312.15314 246.18472 312.59064Q246.2316 312.8875 246.2316 313.6219L246.2316 317.45L245.18472 317.45L245.18472 313.66876Q245.18472 313.0125 245.05972 312.7Q244.93472 312.3875 244.62222 312.2Q244.30972 311.9969 243.88785 311.9969Q243.21597 311.9969 242.71597 312.4344Q242.2316 312.85626 242.2316 314.04376L242.2316 317.45L241.18472 317.45ZM247.9816 317.96564L249.01285 318.1219Q249.07535 318.59064 249.37222 318.8094Q249.76285 319.10626 250.43472 319.10626Q251.1691 319.10626 251.55972 318.8094Q251.96597 318.5125 252.1066 317.9969Q252.20035 317.66876 252.18472 316.6375Q251.49722 317.45 250.46597 317.45Q249.18472 317.45 248.4816 316.52814Q247.77847 315.59064 247.77847 314.3094Q247.77847 313.41876 248.09097 312.66876Q248.4191 311.90314 249.02847 311.4969Q249.63785 311.09064 250.46597 311.09064Q251.57535 311.09064 252.2941 311.98126L252.2941 311.23126L253.26285 311.23126L253.26285 316.60626Q253.26285 318.0594 252.96597 318.66876Q252.6691 319.27814 252.02847 319.6219Q251.38785 319.98126 250.45035 319.98126Q249.34097 319.98126 248.65347 319.48126Q247.96597 318.98126 247.9816 317.96564ZM248.8566 314.23126Q248.8566 315.45 249.34097 316.0125Q249.82535 316.575 250.55972 316.575Q251.2941 316.575 251.77847 316.0125Q252.27847 315.45 252.27847 314.2625Q252.27847 313.1219 251.76285 312.54376Q251.26285 311.96564 250.5441 311.96564Q249.84097 311.96564 249.34097 312.54376Q248.8566 313.10626 248.8566 314.23126Z" fill-rule="nonzero"/><path fill="#000000" d="M280.42188 303.45L280.42188 294.85626L283.39062 294.85626Q284.39062 294.85626 284.92188 294.98126Q285.65625 295.15314 286.17188 295.59064Q286.85938 296.16876 287.1875 297.075Q287.53125 297.96564 287.53125 299.10626Q287.53125 300.09064 287.29688 300.84064Q287.07812 301.59064 286.71875 302.09064Q286.35938 302.59064 285.92188 302.8719Q285.5 303.15314 284.90625 303.3094Q284.3125 303.45 283.53125 303.45L280.42188 303.45ZM281.5625 302.4344L283.39062 302.4344Q284.25 302.4344 284.73438 302.27814Q285.21875 302.1219 285.5 301.825Q285.90625 301.4344 286.125 300.7469Q286.35938 300.0594 286.35938 299.09064Q286.35938 297.7469 285.90625 297.02814Q285.46875 296.29376 284.84375 296.04376Q284.375 295.8719 283.375 295.8719L281.5625 295.8719L281.5625 302.4344ZM293.35938 302.6844Q292.76562 303.1844 292.21875 303.3875Q291.6875 303.59064 291.0625 303.59064Q290.03125 303.59064 289.48438 303.09064Q288.9375 302.59064 288.9375 301.8094Q288.9375 301.35626 289.14062 300.98126Q289.34375 300.59064 289.6875 300.3719Q290.03125 300.1375 290.45312 300.02814Q290.75 299.9344 291.39062 299.85626Q292.65625 299.71564 293.26562 299.4969Q293.26562 299.27814 293.26562 299.23126Q293.26562 298.575 292.96875 298.3094Q292.5625 297.96564 291.76562 297.96564Q291.03125 297.96564 290.67188 298.23126Q290.3125 298.48126 290.14062 299.1375L289.10938 298.9969Q289.25 298.34064 289.57812 297.9344Q289.90625 297.52814 290.51562 297.3094Q291.125 297.09064 291.92188 297.09064Q292.71875 297.09064 293.21875 297.27814Q293.71875 297.46564 293.95312 297.7469Q294.1875 298.02814 294.28125 298.46564Q294.32812 298.73126 294.32812 299.4344L294.32812 300.84064Q294.32812 302.3094 294.39062 302.7Q294.46875 303.09064 294.67188 303.45L293.5625 303.45Q293.40625 303.1219 293.35938 302.6844ZM293.26562 300.325Q292.6875 300.5594 291.54688 300.73126Q290.89062 300.825 290.625 300.95Q290.35938 301.0594 290.20312 301.27814Q290.0625 301.4969 290.0625 301.77814Q290.0625 302.2 290.375 302.48126Q290.70312 302.7625 291.3125 302.7625Q291.92188 302.7625 292.39062 302.4969Q292.875 302.23126 293.09375 301.7625Q293.26562 301.40314 293.26562 300.71564L293.26562 300.325ZM298.59375 302.5125L298.75 303.4344Q298.29688 303.52814 297.95312 303.52814Q297.375 303.52814 297.0625 303.35626Q296.75 303.16876 296.60938 302.8719Q296.48438 302.575 296.48438 301.6219L296.48438 298.04376L295.71875 298.04376L295.71875 297.23126L296.48438 297.23126L296.48438 295.6844L297.53125 295.0594L297.53125 297.23126L298.59375 297.23126L298.59375 298.04376L297.53125 298.04376L297.53125 301.6844Q297.53125 302.1375 297.57812 302.2625Q297.64062 302.3875 297.76562 302.46564Q297.89062 302.54376 298.125 302.54376Q298.3125 302.54376 298.59375 302.5125ZM303.35938 302.6844Q302.76562 303.1844 302.21875 303.3875Q301.6875 303.59064 301.0625 303.59064Q300.03125 303.59064 299.48438 303.09064Q298.9375 302.59064 298.9375 301.8094Q298.9375 301.35626 299.14062 300.98126Q299.34375 300.59064 299.6875 300.3719Q300.03125 300.1375 300.45312 300.02814Q300.75 299.9344 301.39062 299.85626Q302.65625 299.71564 303.26562 299.4969Q303.26562 299.27814 303.26562 299.23126Q303.26562 298.575 302.96875 298.3094Q302.5625 297.96564 301.76562 297.96564Q301.03125 297.96564 300.67188 298.23126Q300.3125 298.48126 300.14062 299.1375L299.10938 298.9969Q299.25 298.34064 299.57812 297.9344Q299.90625 297.52814 300.51562 297.3094Q301.125 297.09064 301.92188 297.09064Q302.71875 297.09064 303.21875 297.27814Q303.71875 297.46564 303.95312 297.7469Q304.1875 298.02814 304.28125 298.46564Q304.32812 298.73126 304.32812 299.4344L304.32812 300.84064Q304.32812 302.3094 304.39062 302.7Q304.46875 303.09064 304.67188 303.45L303.5625 303.45Q303.40625 303.1219 303.35938 302.6844ZM303.26562 300.325Q302.6875 300.5594 301.54688 300.73126Q300.89062 300.825 300.625 300.95Q300.35938 301.0594 300.20312 301.27814Q300.0625 301.4969 300.0625 301.77814Q300.0625 302.2 300.375 302.48126Q300.70312 302.7625 301.3125 302.7625Q301.92188 302.7625 302.39062 302.4969Q302.875 302.23126 303.09375 301.7625Q303.26562 301.40314 303.26562 300.71564L303.26562 300.325ZM309.04688 300.6844L310.10938 300.59064Q310.1875 301.2469 310.46875 301.65314Q310.75 302.0594 311.32812 302.325Q311.92188 302.575 312.65625 302.575Q313.29688 302.575 313.79688 302.3875Q314.29688 302.1844 314.53125 301.85626Q314.78125 301.5125 314.78125 301.1219Q314.78125 300.71564 314.54688 300.41876Q314.3125 300.10626 313.78125 299.90314Q313.42188 299.7625 312.23438 299.48126Q311.0625 299.2 310.59375 298.95Q309.96875 298.6219 309.67188 298.15314Q309.375 297.66876 309.375 297.075Q309.375 296.4344 309.73438 295.8719Q310.10938 295.29376 310.8125 295.0125Q311.53125 294.71564 312.39062 294.71564Q313.34375 294.71564 314.07812 295.02814Q314.8125 295.325 315.20312 295.9344Q315.59375 296.52814 315.625 297.27814L314.53125 297.35626Q314.4375 296.54376 313.92188 296.1375Q313.42188 295.71564 312.4375 295.71564Q311.40625 295.71564 310.9375 296.09064Q310.46875 296.46564 310.46875 296.9969Q310.46875 297.46564 310.79688 297.7625Q311.125 298.0594 312.5 298.3719Q313.89062 298.6844 314.40625 298.91876Q315.15625 299.27814 315.51562 299.8094Q315.875 300.325 315.875 301.02814Q315.875 301.71564 315.48438 302.325Q315.09375 302.91876 314.35938 303.2625Q313.625 303.59064 312.70312 303.59064Q311.53125 303.59064 310.73438 303.2625Q309.95312 302.91876 309.5 302.23126Q309.0625 301.54376 309.04688 300.6844ZM321.35938 301.16876L322.39062 301.3094Q322.21875 302.3719 321.51562 302.98126Q320.8125 303.59064 319.79688 303.59064Q318.51562 303.59064 317.73438 302.7625Q316.96875 301.91876 316.96875 300.35626Q316.96875 299.35626 317.29688 298.60626Q317.64062 297.84064 318.3125 297.46564Q319.0 297.09064 319.8125 297.09064Q320.8125 297.09064 321.45312 297.60626Q322.10938 298.10626 322.29688 299.0594L321.26562 299.21564Q321.125 298.59064 320.75 298.27814Q320.375 297.95 319.84375 297.95Q319.04688 297.95 318.54688 298.52814Q318.04688 299.09064 318.04688 300.325Q318.04688 301.59064 318.53125 302.15314Q319.01562 302.71564 319.78125 302.71564Q320.40625 302.71564 320.8125 302.34064Q321.23438 301.96564 321.35938 301.16876ZM323.29688 296.075L323.29688 294.85626L324.35938 294.85626L324.35938 296.075L323.29688 296.075ZM323.29688 303.45L323.29688 297.23126L324.35938 297.23126L324.35938 303.45L323.29688 303.45ZM330.54688 301.45L331.64062 301.575Q331.39062 302.52814 330.6875 303.0594Q329.98438 303.59064 328.90625 303.59064Q327.54688 303.59064 326.73438 302.7469Q325.9375 301.90314 325.9375 300.3875Q325.9375 298.825 326.75 297.96564Q327.5625 297.09064 328.84375 297.09064Q330.09375 297.09064 330.875 297.9344Q331.67188 298.77814 331.67188 300.325Q331.67188 300.41876 331.67188 300.60626L327.03125 300.60626Q327.09375 301.6375 327.60938 302.1844Q328.125 302.71564 328.90625 302.71564Q329.48438 302.71564 329.89062 302.41876Q330.3125 302.10626 330.54688 301.45ZM327.09375 299.7469L330.5625 299.7469Q330.5 298.95 330.17188 298.5594Q329.65625 297.95 328.85938 297.95Q328.125 297.95 327.625 298.4344Q327.14062 298.91876 327.09375 299.7469ZM333.29688 303.45L333.29688 297.23126L334.23438 297.23126L334.23438 298.10626Q334.92188 297.09064 336.21875 297.09064Q336.78125 297.09064 337.25 297.29376Q337.73438 297.4969 337.96875 297.825Q338.20312 298.15314 338.29688 298.59064Q338.34375 298.8875 338.34375 299.6219L338.34375 303.45L337.29688 303.45L337.29688 299.66876Q337.29688 299.0125 337.17188 298.7Q337.04688 298.3875 336.73438 298.2Q336.42188 297.9969 336.0 297.9969Q335.32812 297.9969 334.82812 298.4344Q334.34375 298.85626 334.34375 300.04376L334.34375 303.45L333.29688 303.45ZM344.35938 301.16876L345.39062 301.3094Q345.21875 302.3719 344.51562 302.98126Q343.8125 303.59064 342.79688 303.59064Q341.51562 303.59064 340.73438 302.7625Q339.96875 301.91876 339.96875 300.35626Q339.96875 299.35626 340.29688 298.60626Q340.64062 297.84064 341.3125 297.46564Q342.0 297.09064 342.8125 297.09064Q343.8125 297.09064 344.45312 297.60626Q345.10938 298.10626 345.29688 299.0594L344.26562 299.21564Q344.125 298.59064 343.75 298.27814Q343.375 297.95 342.84375 297.95Q342.04688 297.95 341.54688 298.52814Q341.04688 299.09064 341.04688 300.325Q341.04688 301.59064 341.53125 302.15314Q342.01562 302.71564 342.78125 302.71564Q343.40625 302.71564 343.8125 302.34064Q344.23438 301.96564 344.35938 301.16876ZM350.54688 301.45L351.64062 301.575Q351.39062 302.52814 350.6875 303.0594Q349.98438 303.59064 348.90625 303.59064Q347.54688 303.59064 346.73438 302.7469Q345.9375 301.90314 345.9375 300.3875Q345.9375 298.825 346.75 297.96564Q347.5625 297.09064 348.84375 297.09064Q350.09375 297.09064 350.875 297.9344Q351.67188 298.77814 351.67188 300.325Q351.67188 300.41876 351.67188 300.60626L347.03125 300.60626Q347.09375 301.6375 347.60938 302.1844Q348.125 302.71564 348.90625 302.71564Q349.48438 302.71564 349.89062 302.41876Q350.3125 302.10626 350.54688 301.45ZM347.09375 299.7469L350.5625 299.7469Q350.5 298.95 350.17188 298.5594Q349.65625 297.95 348.85938 297.95Q348.125 297.95 347.625 298.4344Q347.14062 298.91876 347.09375 299.7469ZM355.5 303.59064L357.98438 294.71564L358.82812 294.71564L356.34375 303.59064L355.5 303.59064Z" fill-rule="nonzero"/><path fill="#000000" d="M311.89062 317.45L311.89062 308.85626L313.60938 308.85626L315.64062 314.9344Q315.92188 315.79376 316.04688 316.21564Q316.1875 315.7469 316.5 314.84064L318.5625 308.85626L320.09375 308.85626L320.09375 317.45L319.0 317.45L319.0 310.2625L316.5 317.45L315.46875 317.45L312.98438 310.1375L312.98438 317.45L311.89062 317.45ZM320.875 317.45L320.875 308.85626L322.01562 308.85626L322.01562 316.4344L326.25 316.4344L326.25 317.45L320.875 317.45Z" fill-rule="nonzero"/><path fill="#000000" d="M387.19028 299.2625Q387.19028 297.1219 388.3309 295.91876Q389.48715 294.7 391.29965 294.7Q392.50278 294.7 393.4559 295.27814Q394.40903 295.84064 394.90903 296.85626Q395.40903 297.8719 395.40903 299.16876Q395.40903 300.46564 394.87778 301.4969Q394.34653 302.52814 393.37778 303.0594Q392.42465 303.59064 391.29965 303.59064Q390.0809 303.59064 389.12778 303.0125Q388.17465 302.41876 387.67465 301.41876Q387.19028 300.40314 387.19028 299.2625ZM388.36215 299.27814Q388.36215 300.84064 389.19028 301.73126Q390.03403 302.6219 391.29965 302.6219Q392.5809 302.6219 393.40903 301.73126Q394.23715 300.825 394.23715 299.15314Q394.23715 298.10626 393.87778 297.325Q393.53403 296.54376 392.84653 296.1219Q392.15903 295.6844 391.31528 295.6844Q390.11215 295.6844 389.23715 296.5125Q388.36215 297.34064 388.36215 299.27814ZM396.40903 305.84064L396.40903 297.23126L397.36215 297.23126L397.36215 298.02814Q397.7059 297.5594 398.12778 297.325Q398.56528 297.09064 399.17465 297.09064Q399.97153 297.09064 400.5809 297.4969Q401.19028 297.90314 401.48715 298.65314Q401.79965 299.40314 401.79965 300.29376Q401.79965 301.2469 401.4559 302.0125Q401.12778 302.77814 400.47153 303.1844Q399.81528 303.59064 399.09653 303.59064Q398.56528 303.59064 398.1434 303.3719Q397.72153 303.1375 397.4559 302.8094L397.4559 305.84064L396.40903 305.84064ZM397.36215 300.3719Q397.36215 301.575 397.84653 302.15314Q398.3309 302.71564 399.0184 302.71564Q399.72153 302.71564 400.22153 302.1219Q400.72153 301.52814 400.72153 300.27814Q400.72153 299.09064 400.23715 298.5125Q399.75278 297.91876 399.06528 297.91876Q398.3934 297.91876 397.87778 298.54376Q397.36215 299.16876 397.36215 300.3719ZM407.65903 301.45L408.75278 301.575Q408.50278 302.52814 407.79965 303.0594Q407.09653 303.59064 406.0184 303.59064Q404.65903 303.59064 403.84653 302.7469Q403.04965 301.90314 403.04965 300.3875Q403.04965 298.825 403.86215 297.96564Q404.67465 297.09064 405.9559 297.09064Q407.2059 297.09064 407.98715 297.9344Q408.78403 298.77814 408.78403 300.325Q408.78403 300.41876 408.78403 300.60626L404.1434 300.60626Q404.2059 301.6375 404.72153 302.1844Q405.23715 302.71564 406.0184 302.71564Q406.59653 302.71564 407.00278 302.41876Q407.42465 302.10626 407.65903 301.45ZM404.2059 299.7469L407.67465 299.7469Q407.61215 298.95 407.28403 298.5594Q406.7684 297.95 405.97153 297.95Q405.23715 297.95 404.73715 298.4344Q404.25278 298.91876 404.2059 299.7469ZM410.3934 303.45L410.3934 297.23126L411.34653 297.23126L411.34653 298.16876Q411.7059 297.5125 412.00278 297.3094Q412.31528 297.09064 412.69028 297.09064Q413.22153 297.09064 413.7684 297.41876L413.40903 298.40314Q413.0184 298.16876 412.6434 298.16876Q412.28403 298.16876 412.00278 298.3875Q411.73715 298.59064 411.62778 298.96564Q411.44028 299.52814 411.44028 300.1844L411.44028 303.45L410.3934 303.45ZM418.47153 302.6844Q417.87778 303.1844 417.3309 303.3875Q416.79965 303.59064 416.17465 303.59064Q415.1434 303.59064 414.59653 303.09064Q414.04965 302.59064 414.04965 301.8094Q414.04965 301.35626 414.25278 300.98126Q414.4559 300.59064 414.79965 300.3719Q415.1434 300.1375 415.56528 300.02814Q415.86215 299.9344 416.50278 299.85626Q417.7684 299.71564 418.37778 299.4969Q418.37778 299.27814 418.37778 299.23126Q418.37778 298.575 418.0809 298.3094Q417.67465 297.96564 416.87778 297.96564Q416.1434 297.96564 415.78403 298.23126Q415.42465 298.48126 415.25278 299.1375L414.22153 298.9969Q414.36215 298.34064 414.69028 297.9344Q415.0184 297.52814 415.62778 297.3094Q416.23715 297.09064 417.03403 297.09064Q417.8309 297.09064 418.3309 297.27814Q418.8309 297.46564 419.06528 297.7469Q419.29965 298.02814 419.3934 298.46564Q419.44028 298.73126 419.44028 299.4344L419.44028 300.84064Q419.44028 302.3094 419.50278 302.7Q419.5809 303.09064 419.78403 303.45L418.67465 303.45Q418.5184 303.1219 418.47153 302.6844ZM418.37778 300.325Q417.79965 300.5594 416.65903 300.73126Q416.00278 300.825 415.73715 300.95Q415.47153 301.0594 415.31528 301.27814Q415.17465 301.4969 415.17465 301.77814Q415.17465 302.2 415.48715 302.48126Q415.81528 302.7625 416.42465 302.7625Q417.03403 302.7625 417.50278 302.4969Q417.98715 302.23126 418.2059 301.7625Q418.37778 301.40314 418.37778 300.71564L418.37778 300.325ZM423.7059 302.5125L423.86215 303.4344Q423.40903 303.52814 423.06528 303.52814Q422.48715 303.52814 422.17465 303.35626Q421.86215 303.16876 421.72153 302.8719Q421.59653 302.575 421.59653 301.6219L421.59653 298.04376L420.8309 298.04376L420.8309 297.23126L421.59653 297.23126L421.59653 295.6844L422.6434 295.0594L422.6434 297.23126L423.7059 297.23126L423.7059 298.04376L422.6434 298.04376L422.6434 301.6844Q422.6434 302.1375 422.69028 302.2625Q422.75278 302.3875 422.87778 302.46564Q423.00278 302.54376 423.23715 302.54376Q423.42465 302.54376 423.7059 302.5125ZM424.40903 296.075L424.40903 294.85626L425.47153 294.85626L425.47153 296.075L424.40903 296.075ZM424.40903 303.45L424.40903 297.23126L425.47153 297.23126L425.47153 303.45L424.40903 303.45ZM427.0184 300.34064Q427.0184 298.60626 427.97153 297.77814Q428.7684 297.09064 429.92465 297.09064Q431.2059 297.09064 432.0184 297.9344Q432.84653 298.7625 432.84653 300.2469Q432.84653 301.45 432.48715 302.1375Q432.12778 302.825 431.42465 303.21564Q430.73715 303.59064 429.92465 303.59064Q428.62778 303.59064 427.81528 302.7625Q427.0184 301.91876 427.0184 300.34064ZM428.09653 300.34064Q428.09653 301.52814 428.61215 302.1219Q429.1434 302.71564 429.92465 302.71564Q430.72153 302.71564 431.23715 302.1219Q431.75278 301.52814 431.75278 300.3094Q431.75278 299.15314 431.22153 298.5594Q430.7059 297.96564 429.92465 297.96564Q429.1434 297.96564 428.61215 298.5594Q428.09653 299.1375 428.09653 300.34064ZM434.40903 303.45L434.40903 297.23126L435.34653 297.23126L435.34653 298.10626Q436.03403 297.09064 437.3309 297.09064Q437.8934 297.09064 438.36215 297.29376Q438.84653 297.4969 439.0809 297.825Q439.31528 298.15314 439.40903 298.59064Q439.4559 298.8875 439.4559 299.6219L439.4559 303.45L438.40903 303.45L438.40903 299.66876Q438.40903 299.0125 438.28403 298.7Q438.15903 298.3875 437.84653 298.2Q437.53403 297.9969 437.11215 297.9969Q436.44028 297.9969 435.94028 298.4344Q435.4559 298.85626 435.4559 300.04376L435.4559 303.45L434.40903 303.45ZM440.98715 301.59064L442.0184 301.4344Q442.11215 302.0594 442.50278 302.3875Q442.90903 302.71564 443.6434 302.71564Q444.36215 302.71564 444.7059 302.4344Q445.06528 302.1375 445.06528 301.73126Q445.06528 301.3719 444.75278 301.16876Q444.53403 301.02814 443.67465 300.8094Q442.5184 300.5125 442.06528 300.3094Q441.62778 300.09064 441.3934 299.71564Q441.15903 299.34064 441.15903 298.8719Q441.15903 298.46564 441.34653 298.10626Q441.53403 297.7469 441.86215 297.5125Q442.11215 297.34064 442.53403 297.21564Q442.9559 297.09064 443.4559 297.09064Q444.17465 297.09064 444.72153 297.3094Q445.28403 297.5125 445.54965 297.8719Q445.81528 298.23126 445.90903 298.825L444.87778 298.96564Q444.81528 298.4969 444.47153 298.23126Q444.1434 297.95 443.5184 297.95Q442.79965 297.95 442.48715 298.2Q442.17465 298.4344 442.17465 298.7625Q442.17465 298.96564 442.29965 299.1219Q442.44028 299.29376 442.7059 299.40314Q442.86215 299.46564 443.6434 299.66876Q444.7684 299.98126 445.2059 300.16876Q445.6434 300.35626 445.8934 300.71564Q446.1434 301.075 446.1434 301.6219Q446.1434 302.15314 445.8309 302.6219Q445.53403 303.075 444.9559 303.34064Q444.37778 303.59064 443.6434 303.59064Q442.42465 303.59064 441.78403 303.09064Q441.15903 302.575 440.98715 301.59064Z" fill-rule="nonzero"/><path fill="#000000" d="M493.77118 300.6844L494.83368 300.59064Q494.9118 301.2469 495.19305 301.65314Q495.4743 302.0594 496.05243 302.325Q496.64618 302.575 497.38055 302.575Q498.02118 302.575 498.52118 302.3875Q499.02118 302.1844 499.25555 301.85626Q499.50555 301.5125 499.50555 301.1219Q499.50555 300.71564 499.27118 300.41876Q499.0368 300.10626 498.50555 299.90314Q498.14618 299.7625 496.95868 299.48126Q495.7868 299.2 495.31805 298.95Q494.69305 298.6219 494.39618 298.15314Q494.0993 297.66876 494.0993 297.075Q494.0993 296.4344 494.45868 295.8719Q494.83368 295.29376 495.5368 295.0125Q496.25555 294.71564 497.11493 294.71564Q498.06805 294.71564 498.80243 295.02814Q499.5368 295.325 499.92743 295.9344Q500.31805 296.52814 500.3493 297.27814L499.25555 297.35626Q499.1618 296.54376 498.64618 296.1375Q498.14618 295.71564 497.1618 295.71564Q496.13055 295.71564 495.6618 296.09064Q495.19305 296.46564 495.19305 296.9969Q495.19305 297.46564 495.52118 297.7625Q495.8493 298.0594 497.2243 298.3719Q498.61493 298.6844 499.13055 298.91876Q499.88055 299.27814 500.23993 299.8094Q500.5993 300.325 500.5993 301.02814Q500.5993 301.71564 500.20868 302.325Q499.81805 302.91876 499.08368 303.2625Q498.3493 303.59064 497.42743 303.59064Q496.25555 303.59064 495.45868 303.2625Q494.67743 302.91876 494.2243 302.23126Q493.7868 301.54376 493.77118 300.6844ZM506.08368 301.16876L507.11493 301.3094Q506.94305 302.3719 506.23993 302.98126Q505.5368 303.59064 504.52118 303.59064Q503.23993 303.59064 502.45868 302.7625Q501.69305 301.91876 501.69305 300.35626Q501.69305 299.35626 502.02118 298.60626Q502.36493 297.84064 503.0368 297.46564Q503.7243 297.09064 504.5368 297.09064Q505.5368 297.09064 506.17743 297.60626Q506.83368 298.10626 507.02118 299.0594L505.98993 299.21564Q505.8493 298.59064 505.4743 298.27814Q505.0993 297.95 504.56805 297.95Q503.77118 297.95 503.27118 298.52814Q502.77118 299.09064 502.77118 300.325Q502.77118 301.59064 503.25555 302.15314Q503.73993 302.71564 504.50555 302.71564Q505.13055 302.71564 505.5368 302.34064Q505.95868 301.96564 506.08368 301.16876ZM508.02118 296.075L508.02118 294.85626L509.08368 294.85626L509.08368 296.075L508.02118 296.075ZM508.02118 303.45L508.02118 297.23126L509.08368 297.23126L509.08368 303.45L508.02118 303.45ZM515.2712 301.45L516.3649 301.575Q516.1149 302.52814 515.4118 303.0594Q514.7087 303.59064 513.63055 303.59064Q512.2712 303.59064 511.45868 302.7469Q510.6618 301.90314 510.6618 300.3875Q510.6618 298.825 511.4743 297.96564Q512.2868 297.09064 513.56805 297.09064Q514.81805 297.09064 515.5993 297.9344Q516.3962 298.77814 516.3962 300.325Q516.3962 300.41876 516.3962 300.60626L511.75555 300.60626Q511.81805 301.6375 512.3337 302.1844Q512.8493 302.71564 513.63055 302.71564Q514.2087 302.71564 514.6149 302.41876Q515.0368 302.10626 515.2712 301.45ZM511.81805 299.7469L515.2868 299.7469Q515.2243 298.95 514.8962 298.5594Q514.38055 297.95 513.5837 297.95Q512.8493 297.95 512.3493 298.4344Q511.86493 298.91876 511.81805 299.7469ZM518.0212 303.45L518.0212 297.23126L518.9587 297.23126L518.9587 298.10626Q519.6462 297.09064 520.94305 297.09064Q521.50555 297.09064 521.9743 297.29376Q522.4587 297.4969 522.69305 297.825Q522.9274 298.15314 523.0212 298.59064Q523.06805 298.8875 523.06805 299.6219L523.06805 303.45L522.0212 303.45L522.0212 299.66876Q522.0212 299.0125 521.8962 298.7Q521.7712 298.3875 521.4587 298.2Q521.1462 297.9969 520.7243 297.9969Q520.0524 297.9969 519.5524 298.4344Q519.06805 298.85626 519.06805 300.04376L519.06805 303.45L518.0212 303.45ZM529.0837 301.16876L530.1149 301.3094Q529.94305 302.3719 529.2399 302.98126Q528.5368 303.59064 527.5212 303.59064Q526.2399 303.59064 525.4587 302.7625Q524.69305 301.91876 524.69305 300.35626Q524.69305 299.35626 525.0212 298.60626Q525.3649 297.84064 526.0368 297.46564Q526.7243 297.09064 527.5368 297.09064Q528.5368 297.09064 529.1774 297.60626Q529.8337 298.10626 530.0212 299.0594L528.9899 299.21564Q528.8493 298.59064 528.4743 298.27814Q528.0993 297.95 527.56805 297.95Q526.7712 297.95 526.2712 298.52814Q525.7712 299.09064 525.7712 300.325Q525.7712 301.59064 526.25555 302.15314Q526.7399 302.71564 527.50555 302.71564Q528.13055 302.71564 528.5368 302.34064Q528.9587 301.96564 529.0837 301.16876ZM535.2712 301.45L536.3649 301.575Q536.1149 302.52814 535.4118 303.0594Q534.7087 303.59064 533.63055 303.59064Q532.2712 303.59064 531.4587 302.7469Q530.6618 301.90314 530.6618 300.3875Q530.6618 298.825 531.4743 297.96564Q532.2868 297.09064 533.56805 297.09064Q534.81805 297.09064 535.5993 297.9344Q536.3962 298.77814 536.3962 300.325Q536.3962 300.41876 536.3962 300.60626L531.75555 300.60626Q531.81805 301.6375 532.3337 302.1844Q532.8493 302.71564 533.63055 302.71564Q534.2087 302.71564 534.6149 302.41876Q535.0368 302.10626 535.2712 301.45ZM531.81805 299.7469L535.2868 299.7469Q535.2243 298.95 534.8962 298.5594Q534.38055 297.95 533.5837 297.95Q532.8493 297.95 532.3493 298.4344Q531.8649 298.91876 531.81805 299.7469Z" fill-rule="nonzero"/><path fill="#93c47d" d="M253.5 20.55C253.5 19.997715 253.94771 19.55 254.5 19.55L264.5 19.55C265.05228 19.55 265.5 19.997715 265.5 20.55L265.5 30.55C265.5 31.102285 265.05228 31.55 264.5 31.55L254.5 31.55C253.94771 31.55 253.5 31.102285 253.5 30.55Z" fill-rule="nonzero"/><path fill="#1a1a1a" d="M276.84375 29.55L276.84375 25.909374L273.53125 20.95625L274.92188 20.95625L276.60938 23.55Q277.07812 24.26875 277.48438 25.003124Q277.875 24.33125 278.42188 23.4875L280.09375 20.95625L281.40625 20.95625L277.98438 25.909374L277.98438 29.55L276.84375 29.55ZM285.54688 27.55L286.64062 27.675Q286.39062 28.628124 285.6875 29.159374Q284.98438 29.690624 283.90625 29.690624Q282.54688 29.690624 281.73438 28.846874Q280.9375 28.003124 280.9375 26.4875Q280.9375 24.925 281.75 24.065624Q282.5625 23.190624 283.84375 23.190624Q285.09375 23.190624 285.875 24.034374Q286.67188 24.878124 286.67188 26.425Q286.67188 26.51875 286.67188 26.70625L282.03125 26.70625Q282.09375 27.7375 282.60938 28.284374Q283.125 28.815624 283.90625 28.815624Q284.48438 28.815624 284.89062 28.51875Q285.3125 28.20625 285.54688 27.55ZM282.09375 25.846874L285.5625 25.846874Q285.5 25.05 285.17188 24.659374Q284.65625 24.05 283.85938 24.05Q283.125 24.05 282.625 24.534374Q282.14062 25.01875 282.09375 25.846874ZM287.875 27.690624L288.90625 27.534374Q289.0 28.159374 289.39062 28.4875Q289.79688 28.815624 290.53125 28.815624Q291.25 28.815624 291.59375 28.534374Q291.95312 28.2375 291.95312 27.83125Q291.95312 27.471874 291.64062 27.26875Q291.42188 27.128124 290.5625 26.909374Q289.40625 26.6125 288.95312 26.409374Q288.51562 26.190624 288.28125 25.815624Q288.04688 25.440624 288.04688 24.971874Q288.04688 24.565624 288.23438 24.20625Q288.42188 23.846874 288.75 23.6125Q289.0 23.440624 289.42188 23.315624Q289.84375 23.190624 290.34375 23.190624Q291.0625 23.190624 291.60938 23.409374Q292.17188 23.6125 292.4375 23.971874Q292.70312 24.33125 292.79688 24.925L291.76562 25.065624Q291.70312 24.596874 291.35938 24.33125Q291.03125 24.05 290.40625 24.05Q289.6875 24.05 289.375 24.3Q289.0625 24.534374 289.0625 24.8625Q289.0625 25.065624 289.1875 25.221874Q289.32812 25.39375 289.59375 25.503124Q289.75 25.565624 290.53125 25.76875Q291.65625 26.08125 292.09375 26.26875Q292.53125 26.45625 292.78125 26.815624Q293.03125 27.175 293.03125 27.721874Q293.03125 28.253124 292.71875 28.721874Q292.42188 29.175 291.84375 29.440624Q291.26562 29.690624 290.53125 29.690624Q289.3125 29.690624 288.67188 29.190624Q288.04688 28.675 287.875 27.690624Z" fill-rule="nonzero"/><path fill="#999999" d="M310.5 20.55C310.5 19.997715 310.94772 19.55 311.5 19.55L321.5 19.55C322.05228 19.55 322.5 19.997715 322.5 20.55L322.5 30.55C322.5 31.102285 322.05228 31.55 321.5 31.55L311.5 31.55C310.94772 31.55 310.5 31.102285 310.5 30.55Z" fill-rule="nonzero"/><path fill="#1a1a1a" d="M331.42188 29.55L331.42188 20.95625L332.57812 20.95625L337.09375 27.70625L337.09375 20.95625L338.1875 20.95625L338.1875 29.55L337.01562 29.55L332.5 22.8L332.5 29.55L331.42188 29.55ZM339.90625 26.440624Q339.90625 24.70625 340.85938 23.878124Q341.65625 23.190624 342.8125 23.190624Q344.09375 23.190624 344.90625 24.034374Q345.73438 24.8625 345.73438 26.346874Q345.73438 27.55 345.375 28.2375Q345.01562 28.925 344.3125 29.315624Q343.625 29.690624 342.8125 29.690624Q341.51562 29.690624 340.70312 28.8625Q339.90625 28.01875 339.90625 26.440624ZM340.98438 26.440624Q340.98438 27.628124 341.5 28.221874Q342.03125 28.815624 342.8125 28.815624Q343.60938 28.815624 344.125 28.221874Q344.64062 27.628124 344.64062 26.409374Q344.64062 25.253124 344.10938 24.659374Q343.59375 24.065624 342.8125 24.065624Q342.03125 24.065624 341.5 24.659374Q340.98438 25.2375 340.98438 26.440624Z" fill-rule="nonzero"/></svg>