<svg version="1.1" viewBox="0.0 0.0 805.0 498.0" fill="none" stroke="none" stroke-linecap="square" stroke-miterlimit="10" width="805" height="498" xmlns:xlink="http://www.w3.org/1999/xlink" xmlns="http://www.w3.org/2000/svg"><path fill="#ffffff" d="M0 0L805.0 0L805.0 498.0L0 498.0L0 0Z" fill-rule="nonzero"/><path fill="#4285f4" d="M402.5 24.9C483.5389 24.9 558.2644 68.65151 597.9263 139.32146C637.5882 209.99141 636.00665 296.56845 593.7902 365.74274L402.5 249.0Z" fill-rule="nonzero"/><path fill="#ea4335" d="M593.7902 365.74274C590.94684 370.40182 587.93414 374.95547 584.75824 379.3946L402.5 249.0Z" fill-rule="nonzero"/><path fill="#fbbc04" d="M584.75824 379.3946C581.58234 383.83368 578.2453 388.15527 574.75385 392.35074L402.5 249.0Z" fill-rule="nonzero"/><path fill="#34a853" d="M574.75385 392.35074C571.2623 396.54617 567.6188 400.61264 563.8304 404.54202L402.5 249.0Z" fill-rule="nonzero"/><path fill="#ff6d01" d="M563.8304 404.54202C560.042 408.4714 556.11127 412.26108 552.04614 415.90344L402.5 249.0Z" fill-rule="nonzero"/><path fill="#46bdc6" d="M552.04614 415.90344C547.981 419.5458 543.7842 423.03845 539.46405 426.37436L402.5 249.0Z" fill-rule="nonzero"/><path fill="#7ed1d7" d="M178.54951 240.81541C182.9534 120.31388 281.91803 24.9 402.5 24.9L402.5 249.0Z" fill-rule="nonzero"/><path fill="#ff994d" d="M190.40285 321.3575C181.5675 295.45898 177.55011 268.1613 178.54951 240.81541L402.5 249.0Z" fill-rule="nonzero"/><path fill="#71c287" d="M230.24617 392.35074C212.74208 371.31735 199.23819 347.256 190.40285 321.3575L402.5 249.0Z" fill-rule="nonzero"/><path fill="#fcd04f" d="M278.84885 435.89893C260.60986 423.83212 244.2354 409.16052 230.24617 392.35074L402.5 249.0Z" fill-rule="nonzero"/><path fill="#f07b72" d="M337.93698 463.5983C316.9949 457.29776 297.08783 447.9657 278.84885 435.89893L402.5 249.0Z" fill-rule="nonzero"/><path fill="#7baaf7" d="M539.46405 426.37436C482.22855 470.57016 407.18396 484.4316 337.93698 463.5983L402.5 249.0Z" fill-rule="nonzero"/><path fill="#1a1a1a" d="M25.821875 91.23615L25.821875 82.6424L29.071875 82.6424Q29.915625 82.6424 30.36875 82.72053Q31.009375 82.8299 31.43125 83.12678Q31.86875 83.42365 32.11875 83.9549Q32.384377 84.48615 32.384377 85.12678Q32.384377 86.22053 31.68125 86.98615Q30.99375 87.73615 29.165625 87.73615L26.9625 87.73615L26.9625 91.23615L25.821875 91.23615ZM26.9625 86.73615L29.18125 86.73615Q30.290625 86.73615 30.74375 86.3299Q31.2125 85.90803 31.2125 85.15803Q31.2125 84.62678 30.93125 84.25178Q30.665625 83.86115 30.228125 83.73615Q29.93125 83.65803 29.165625 83.65803L26.9625 83.65803L26.9625 86.73615ZM33.65 93.62678L33.525 92.6424Q33.86875 92.73615 34.134377 92.73615Q34.478127 92.73615 34.68125 92.61115Q34.9 92.50178 35.040627 92.29865Q35.134377 92.12678 35.36875 91.50178Q35.384377 91.42365 35.4625 91.25178L33.0875 85.0174L34.228127 85.0174L35.525 88.61115Q35.775 89.29865 35.978127 90.06428Q36.165627 89.3299 36.415627 88.6424L37.74375 85.0174L38.790627 85.0174L36.43125 91.34553Q36.040627 92.36115 35.8375 92.75178Q35.55625 93.28303 35.18125 93.5174Q34.821877 93.7674 34.321877 93.7674Q34.025 93.7674 33.65 93.62678ZM40.99375 90.29865L41.15 91.22053Q40.696877 91.31428 40.353127 91.31428Q39.775 91.31428 39.4625 91.1424Q39.15 90.9549 39.009377 90.65803Q38.884377 90.36115 38.884377 89.40803L38.884377 85.8299L38.11875 85.8299L38.11875 85.0174L38.884377 85.0174L38.884377 83.47053L39.93125 82.84553L39.93125 85.0174L40.99375 85.0174L40.99375 85.8299L39.93125 85.8299L39.93125 89.47053Q39.93125 89.92365 39.978127 90.04865Q40.040627 90.17365 40.165627 90.25178Q40.290627 90.3299 40.525 90.3299Q40.7125 90.3299 40.99375 90.29865ZM41.696877 91.23615L41.696877 82.6424L42.74375 82.6424L42.74375 85.72053Q43.478127 84.87678 44.603127 84.87678Q45.30625 84.87678 45.80625 85.15803Q46.321877 85.42365 46.540627 85.90803Q46.759377 86.37678 46.759377 87.29865L46.759377 91.23615L45.7125 91.23615L45.7125 87.29865Q45.7125 86.50178 45.36875 86.1424Q45.025 85.78303 44.4 85.78303Q43.93125 85.78303 43.509377 86.03303Q43.103127 86.2674 42.915627 86.68928Q42.74375 87.09553 42.74375 87.8299L42.74375 91.23615L41.696877 91.23615ZM48.30625 88.12678Q48.30625 86.3924 49.259377 85.56428Q50.05625 84.87678 51.2125 84.87678Q52.49375 84.87678 53.30625 85.72053Q54.134377 86.54865 54.134377 88.03303Q54.134377 89.23615 53.775 89.92365Q53.415627 90.61115 52.7125 91.00178Q52.025 91.37678 51.2125 91.37678Q49.915627 91.37678 49.103127 90.54865Q48.30625 89.7049 48.30625 88.12678ZM49.384377 88.12678Q49.384377 89.31428 49.9 89.90803Q50.43125 90.50178 51.2125 90.50178Q52.009377 90.50178 52.525 89.90803Q53.040627 89.31428 53.040627 88.09553Q53.040627 86.93928 52.509377 86.34553Q51.99375 85.75178 51.2125 85.75178Q50.43125 85.75178 49.9 86.34553Q49.384377 86.92365 49.384377 88.12678ZM55.696877 91.23615L55.696877 85.0174L56.634377 85.0174L56.634377 85.8924Q57.321877 84.87678 58.61875 84.87678Q59.18125 84.87678 59.65 85.0799Q60.134377 85.28303 60.36875 85.61115Q60.603127 85.93928 60.696877 86.37678Q60.74375 86.67365 60.74375 87.40803L60.74375 91.23615L59.696877 91.23615L59.696877 87.4549Q59.696877 86.79865 59.571877 86.48615Q59.446877 86.17365 59.134377 85.98615Q58.821877 85.78303 58.4 85.78303Q57.728127 85.78303 57.228127 86.22053Q56.74375 86.6424 56.74375 87.8299L56.74375 91.23615L55.696877 91.23615Z" fill-rule="nonzero"/><path fill="#9e9e9e" d="M30.946875 107.22053L30.946875 108.23615L25.259375 108.23615Q25.259375 107.86115 25.384375 107.50178Q25.603125 106.92365 26.071875 106.36115Q26.55625 105.79865 27.4625 105.06428Q28.86875 103.90803 29.353125 103.23615Q29.853125 102.56428 29.853125 101.97053Q29.853125 101.34553 29.4 100.92365Q28.946875 100.48615 28.228125 100.48615Q27.4625 100.48615 27.009375 100.93928Q26.55625 101.3924 26.540625 102.2049L25.4625 102.09553Q25.571875 100.87678 26.290625 100.25178Q27.025 99.61115 28.259375 99.61115Q29.49375 99.61115 30.2125 100.29865Q30.93125 100.98615 30.93125 102.00178Q30.93125 102.5174 30.7125 103.0174Q30.509375 103.50178 30.009375 104.06428Q29.525 104.61115 28.4 105.56428Q27.446875 106.36115 27.165625 106.65803Q26.9 106.93928 26.728125 107.22053L30.946875 107.22053ZM35.775 108.23615L35.775 106.17365L32.05625 106.17365L32.05625 105.2049L35.978127 99.6424L36.8375 99.6424L36.8375 105.2049L37.99375 105.2049L37.99375 106.17365L36.8375 106.17365L36.8375 108.23615L35.775 108.23615ZM35.775 105.2049L35.775 101.34553L33.0875 105.2049L35.775 105.2049ZM39.99375 108.23615L39.99375 107.03303L41.196877 107.03303L41.196877 108.23615L39.99375 108.23615ZM45.775 108.23615L45.775 106.17365L42.05625 106.17365L42.05625 105.2049L45.978127 99.6424L46.8375 99.6424L46.8375 105.2049L47.99375 105.2049L47.99375 106.17365L46.8375 106.17365L46.8375 108.23615L45.775 108.23615ZM45.775 105.2049L45.775 101.34553L43.0875 105.2049L45.775 105.2049ZM49.603127 101.7049Q49.603127 100.78303 50.05625 100.1424Q50.525 99.50178 51.4 99.50178Q52.2125 99.50178 52.74375 100.0799Q53.275 100.65803 53.275 101.7674Q53.275 102.86115 52.728127 103.4549Q52.196877 104.03303 51.415627 104.03303Q50.634377 104.03303 50.11875 103.4549Q49.603127 102.87678 49.603127 101.7049ZM51.43125 100.22053Q51.040627 100.22053 50.775 100.56428Q50.525 100.90803 50.525 101.81428Q50.525 102.6424 50.775 102.98615Q51.040627 103.31428 51.43125 103.31428Q51.8375 103.31428 52.0875 102.97053Q52.353127 102.62678 52.353127 101.73615Q52.353127 100.8924 52.0875 100.56428Q51.821877 100.22053 51.43125 100.22053ZM51.43125 108.54865L56.134377 99.50178L56.99375 99.50178L52.30625 108.54865L51.43125 108.54865ZM55.15 106.22053Q55.15 105.29865 55.603127 104.65803Q56.071877 104.0174 56.9625 104.0174Q57.775 104.0174 58.30625 104.59553Q58.8375 105.15803 58.8375 106.28303Q58.8375 107.37678 58.290627 107.97053Q57.759377 108.54865 56.9625 108.54865Q56.196877 108.54865 55.665627 107.97053Q55.15 107.3924 55.15 106.22053ZM56.99375 104.73615Q56.5875 104.73615 56.321877 105.0799Q56.071877 105.42365 56.071877 106.3299Q56.071877 107.1424 56.3375 107.48615Q56.603127 107.8299 56.99375 107.8299Q57.384377 107.8299 57.65 107.48615Q57.915627 107.1424 57.915627 106.23615Q57.915627 105.40803 57.65 105.0799Q57.384377 104.73615 56.99375 104.73615Z" fill-rule="nonzero"/><path stroke="#757575" stroke-width="1.0" stroke-linecap="butt" d="M24.9 95.73615L172.4 95.73615L254.73508 95.73615" fill-rule="nonzero"/><path fill="#9e9e9e" d="M256.73508 95.73615C256.73508 94.631584 255.83965 93.73615 254.73508 93.73615C253.63051 93.73615 252.73508 94.631584 252.73508 95.73615C252.73508 96.84072 253.63051 97.73615 254.73508 97.73615C255.83965 97.73615 256.73508 96.84072 256.73508 95.73615" fill-rule="nonzero"/><path fill="#1a1a1a" d="M29.853125 272.12277L29.853125 271.12277L33.478127 271.10715L33.478127 274.29465Q32.65 274.96652 31.759375 275.31027Q30.86875 275.6384 29.93125 275.6384Q28.665625 275.6384 27.61875 275.10715Q26.5875 274.56027 26.05625 273.54465Q25.540625 272.5134 25.540625 271.24777Q25.540625 269.98215 26.05625 268.90402Q26.5875 267.81027 27.571875 267.29465Q28.55625 266.7634 29.8375 266.7634Q30.775 266.7634 31.525 267.06027Q32.275 267.35715 32.696877 267.90402Q33.134377 268.43527 33.353127 269.31027L32.3375 269.59152Q32.134377 268.93527 31.8375 268.56027Q31.55625 268.18527 31.025 267.96652Q30.49375 267.73215 29.853125 267.73215Q29.071875 267.73215 28.49375 267.96652Q27.93125 268.2009 27.571875 268.59152Q27.228125 268.98215 27.040625 269.4509Q26.7125 270.24777 26.7125 271.16965Q26.7125 272.3259 27.103125 273.10715Q27.509375 273.87277 28.259375 274.24777Q29.009375 274.62277 29.86875 274.62277Q30.603125 274.62277 31.30625 274.34152Q32.009377 274.04465 32.36875 273.73215L32.36875 272.12277L29.853125 272.12277ZM34.30625 272.3884Q34.30625 270.65402 35.259377 269.8259Q36.05625 269.1384 37.2125 269.1384Q38.49375 269.1384 39.30625 269.98215Q40.134377 270.81027 40.134377 272.29465Q40.134377 273.49777 39.775 274.18527Q39.415627 274.87277 38.7125 275.2634Q38.025 275.6384 37.2125 275.6384Q35.915627 275.6384 35.103127 274.81027Q34.30625 273.96652 34.30625 272.3884ZM35.384377 272.3884Q35.384377 273.5759 35.9 274.16965Q36.43125 274.7634 37.2125 274.7634Q38.009377 274.7634 38.525 274.16965Q39.040627 273.5759 39.040627 272.35715Q39.040627 271.2009 38.509377 270.60715Q37.99375 270.0134 37.2125 270.0134Q36.43125 270.0134 35.9 270.60715Q35.384377 271.18527 35.384377 272.3884Z" fill-rule="nonzero"/><path fill="#9e9e9e" d="M25.4 290.24777L26.509375 290.15402Q26.634375 290.96652 27.071875 291.37277Q27.525 291.77902 28.165625 291.77902Q28.915625 291.77902 29.446875 291.2009Q29.978125 290.62277 29.978125 289.68527Q29.978125 288.77902 29.4625 288.2634Q28.9625 287.73215 28.134375 287.73215Q27.634375 287.73215 27.2125 287.96652Q26.80625 288.2009 26.571875 288.56027L25.5875 288.43527L26.415625 284.02902L30.696875 284.02902L30.696875 285.02902L27.259375 285.02902L26.80625 287.34152Q27.571875 286.79465 28.415625 286.79465Q29.540625 286.79465 30.30625 287.5759Q31.0875 288.35715 31.0875 289.59152Q31.0875 290.74777 30.415625 291.60715Q29.5875 292.6384 28.165625 292.6384Q26.99375 292.6384 26.24375 291.98215Q25.509375 291.3259 25.4 290.24777ZM32.99375 292.49777L32.99375 291.29465L34.196877 291.29465L34.196877 292.49777L32.99375 292.49777ZM37.025 287.84152Q36.36875 287.59152 36.040627 287.15402Q35.728127 286.7009 35.728127 286.09152Q35.728127 285.15402 36.4 284.5134Q37.0875 283.87277 38.196877 283.87277Q39.321877 283.87277 40.009377 284.52902Q40.696877 285.18527 40.696877 286.12277Q40.696877 286.71652 40.384377 287.15402Q40.071877 287.59152 39.43125 287.84152Q40.228127 288.09152 40.634377 288.66965Q41.040627 289.24777 41.040627 290.04465Q41.040627 291.1384 40.259377 291.8884Q39.49375 292.6384 38.2125 292.6384Q36.946877 292.6384 36.165627 291.8884Q35.384377 291.1384 35.384377 290.0134Q35.384377 289.16965 35.80625 288.60715Q36.24375 288.04465 37.025 287.84152ZM36.80625 286.04465Q36.80625 286.65402 37.196877 287.04465Q37.603127 287.43527 38.228127 287.43527Q38.8375 287.43527 39.228127 287.06027Q39.61875 286.66965 39.61875 286.10715Q39.61875 285.52902 39.2125 285.1384Q38.80625 284.73215 38.2125 284.73215Q37.603127 284.73215 37.196877 285.12277Q36.80625 285.5134 36.80625 286.04465ZM36.478127 290.0134Q36.478127 290.46652 36.68125 290.8884Q36.9 291.31027 37.321877 291.54465Q37.74375 291.77902 38.228127 291.77902Q38.978127 291.77902 39.4625 291.29465Q39.9625 290.81027 39.9625 290.06027Q39.9625 289.29465 39.4625 288.79465Q38.9625 288.29465 38.196877 288.29465Q37.446877 288.29465 36.9625 288.79465Q36.478127 289.27902 36.478127 290.0134ZM42.603127 285.96652Q42.603127 285.04465 43.05625 284.40402Q43.525 283.7634 44.4 283.7634Q45.2125 283.7634 45.74375 284.34152Q46.275 284.91965 46.275 286.02902Q46.275 287.12277 45.728127 287.71652Q45.196877 288.29465 44.415627 288.29465Q43.634377 288.29465 43.11875 287.71652Q42.603127 287.1384 42.603127 285.96652ZM44.43125 284.48215Q44.040627 284.48215 43.775 284.8259Q43.525 285.16965 43.525 286.0759Q43.525 286.90402 43.775 287.24777Q44.040627 287.5759 44.43125 287.5759Q44.8375 287.5759 45.0875 287.23215Q45.353127 286.8884 45.353127 285.99777Q45.353127 285.15402 45.0875 284.8259Q44.821877 284.48215 44.43125 284.48215ZM44.43125 292.81027L49.134377 283.7634L49.99375 283.7634L45.30625 292.81027L44.43125 292.81027ZM48.15 290.48215Q48.15 289.56027 48.603127 288.91965Q49.071877 288.27902 49.9625 288.27902Q50.775 288.27902 51.30625 288.85715Q51.8375 289.41965 51.8375 290.54465Q51.8375 291.6384 51.290627 292.23215Q50.759377 292.81027 49.9625 292.81027Q49.196877 292.81027 48.665627 292.23215Q48.15 291.65402 48.15 290.48215ZM49.99375 288.99777Q49.5875 288.99777 49.321877 289.34152Q49.071877 289.68527 49.071877 290.59152Q49.071877 291.40402 49.3375 291.74777Q49.603127 292.09152 49.99375 292.09152Q50.384377 292.09152 50.65 291.74777Q50.915627 291.40402 50.915627 290.49777Q50.915627 289.66965 50.65 289.34152Q50.384377 288.99777 49.99375 288.99777Z" fill-rule="nonzero"/><path stroke="#757575" stroke-width="1.0" stroke-linecap="butt" d="M24.9 279.99777L172.4 279.99777L191.87375 279.99777" fill-rule="nonzero"/><path fill="#9e9e9e" d="M193.87375 279.99777C193.87375 278.8932 192.97832 277.99777 191.87375 277.99777C190.76918 277.99777 189.87375 278.8932 189.87375 279.99777C189.87375 281.10233 190.76918 281.99777 191.87375 281.99777C192.97832 281.99777 193.87375 281.10233 193.87375 279.99777" fill-rule="nonzero"/><path fill="#1a1a1a" d="M25.99375 348.6946L25.99375 347.4915L27.196875 347.4915L27.196875 348.6946L25.99375 348.6946ZM28.821875 348.6946L28.821875 340.10086L29.978125 340.10086L34.49375 346.85086L34.49375 340.10086L35.5875 340.10086L35.5875 348.6946L34.415627 348.6946L29.9 341.9446L29.9 348.6946L28.821875 348.6946ZM41.946877 346.6946L43.040627 346.8196Q42.790627 347.77274 42.0875 348.304Q41.384377 348.83524 40.30625 348.83524Q38.946877 348.83524 38.134377 347.9915Q37.3375 347.14774 37.3375 345.6321Q37.3375 344.0696 38.15 343.21024Q38.9625 342.33524 40.24375 342.33524Q41.49375 342.33524 42.275 343.179Q43.071877 344.02274 43.071877 345.5696Q43.071877 345.66336 43.071877 345.85086L38.43125 345.85086Q38.49375 346.8821 39.009377 347.429Q39.525 347.96024 40.30625 347.96024Q40.884377 347.96024 41.290627 347.66336Q41.7125 347.35086 41.946877 346.6946ZM38.49375 344.9915L41.9625 344.9915Q41.9 344.1946 41.571877 343.804Q41.05625 343.1946 40.259377 343.1946Q39.525 343.1946 39.025 343.679Q38.540627 344.16336 38.49375 344.9915ZM46.99375 347.7571L47.15 348.679Q46.696877 348.77274 46.353127 348.77274Q45.775 348.77274 45.4625 348.60086Q45.15 348.41336 45.009377 348.1165Q44.884377 347.8196 44.884377 346.8665L44.884377 343.28836L44.11875 343.28836L44.11875 342.47586L44.884377 342.47586L44.884377 340.929L45.93125 340.304L45.93125 342.47586L46.99375 342.47586L46.99375 343.28836L45.93125 343.28836L45.93125 346.929Q45.93125 347.3821 45.978127 347.5071Q46.040627 347.6321 46.165627 347.71024Q46.290627 347.78836 46.525 347.78836Q46.7125 347.78836 46.99375 347.7571Z" fill-rule="nonzero"/><path fill="#9e9e9e" d="M25.4 363.4446L26.509375 363.35086Q26.634375 364.16336 27.071875 364.5696Q27.525 364.97586 28.165625 364.97586Q28.915625 364.97586 29.446875 364.39774Q29.978125 363.8196 29.978125 362.8821Q29.978125 361.97586 29.4625 361.46024Q28.9625 360.929 28.134375 360.929Q27.634375 360.929 27.2125 361.16336Q26.80625 361.39774 26.571875 361.7571L25.5875 361.6321L26.415625 357.22586L30.696875 357.22586L30.696875 358.22586L27.259375 358.22586L26.80625 360.53836Q27.571875 359.9915 28.415625 359.9915Q29.540625 359.9915 30.30625 360.77274Q31.0875 361.554 31.0875 362.78836Q31.0875 363.9446 30.415625 364.804Q29.5875 365.83524 28.165625 365.83524Q26.99375 365.83524 26.24375 365.179Q25.509375 364.52274 25.4 363.4446ZM32.99375 365.6946L32.99375 364.4915L34.196877 364.4915L34.196877 365.6946L32.99375 365.6946ZM37.025 361.03836Q36.36875 360.78836 36.040627 360.35086Q35.728127 359.89774 35.728127 359.28836Q35.728127 358.35086 36.4 357.71024Q37.0875 357.0696 38.196877 357.0696Q39.321877 357.0696 40.009377 357.72586Q40.696877 358.3821 40.696877 359.3196Q40.696877 359.91336 40.384377 360.35086Q40.071877 360.78836 39.43125 361.03836Q40.228127 361.28836 40.634377 361.8665Q41.040627 362.4446 41.040627 363.2415Q41.040627 364.33524 40.259377 365.08524Q39.49375 365.83524 38.2125 365.83524Q36.946877 365.83524 36.165627 365.08524Q35.384377 364.33524 35.384377 363.21024Q35.384377 362.3665 35.80625 361.804Q36.24375 361.2415 37.025 361.03836ZM36.80625 359.2415Q36.80625 359.85086 37.196877 360.2415Q37.603127 360.6321 38.228127 360.6321Q38.8375 360.6321 39.228127 360.2571Q39.61875 359.8665 39.61875 359.304Q39.61875 358.72586 39.2125 358.33524Q38.80625 357.929 38.2125 357.929Q37.603127 357.929 37.196877 358.3196Q36.80625 358.71024 36.80625 359.2415ZM36.478127 363.21024Q36.478127 363.66336 36.68125 364.08524Q36.9 364.5071 37.321877 364.7415Q37.74375 364.97586 38.228127 364.97586Q38.978127 364.97586 39.4625 364.4915Q39.9625 364.0071 39.9625 363.2571Q39.9625 362.4915 39.4625 361.9915Q38.9625 361.4915 38.196877 361.4915Q37.446877 361.4915 36.9625 361.9915Q36.478127 362.47586 36.478127 363.21024ZM42.603127 359.16336Q42.603127 358.2415 43.05625 357.60086Q43.525 356.96024 44.4 356.96024Q45.2125 356.96024 45.74375 357.53836Q46.275 358.1165 46.275 359.22586Q46.275 360.3196 45.728127 360.91336Q45.196877 361.4915 44.415627 361.4915Q43.634377 361.4915 43.11875 360.91336Q42.603127 360.33524 42.603127 359.16336ZM44.43125 357.679Q44.040627 357.679 43.775 358.02274Q43.525 358.3665 43.525 359.27274Q43.525 360.10086 43.775 360.4446Q44.040627 360.77274 44.43125 360.77274Q44.8375 360.77274 45.0875 360.429Q45.353127 360.08524 45.353127 359.1946Q45.353127 358.35086 45.0875 358.02274Q44.821877 357.679 44.43125 357.679ZM44.43125 366.0071L49.134377 356.96024L49.99375 356.96024L45.30625 366.0071L44.43125 366.0071ZM48.15 363.679Q48.15 362.7571 48.603127 362.1165Q49.071877 361.47586 49.9625 361.47586Q50.775 361.47586 51.30625 362.054Q51.8375 362.6165 51.8375 363.7415Q51.8375 364.83524 51.290627 365.429Q50.759377 366.0071 49.9625 366.0071Q49.196877 366.0071 48.665627 365.429Q48.15 364.85086 48.15 363.679ZM49.99375 362.1946Q49.5875 362.1946 49.321877 362.53836Q49.071877 362.8821 49.071877 363.78836Q49.071877 364.60086 49.3375 364.9446Q49.603127 365.28836 49.99375 365.28836Q50.384377 365.28836 50.65 364.9446Q50.915627 364.60086 50.915627 363.6946Q50.915627 362.8665 50.65 362.53836Q50.384377 362.1946 49.99375 362.1946Z" fill-rule="nonzero"/><path stroke="#757575" stroke-width="1.0" stroke-linecap="butt" d="M24.9 353.1946L172.4 353.1946L216.84505 353.1946" fill-rule="nonzero"/><path fill="#9e9e9e" d="M218.84505 353.1946C218.84505 352.09006 217.94962 351.1946 216.84505 351.1946C215.74048 351.1946 214.84505 352.09006 214.84505 353.1946C214.84505 354.2992 215.74048 355.1946 216.84505 355.1946C217.94962 355.1946 218.84505 354.2992 218.84505 353.1946" fill-rule="nonzero"/><path fill="#1a1a1a" d="M25.8375 403.0583L25.8375 394.46454L29.65 394.46454Q30.80625 394.46454 31.4 394.6989Q31.99375 394.9333 32.353127 395.52704Q32.7125 396.10516 32.7125 396.8083Q32.7125 397.73016 32.11875 398.35516Q31.525 398.98016 30.290625 399.15204Q30.74375 399.3708 30.978125 399.5739Q31.478125 400.02704 31.915625 400.71454L33.415627 403.0583L31.978125 403.0583L30.853125 401.27704Q30.353125 400.4958 30.025 400.08954Q29.7125 399.6833 29.446875 399.52704Q29.196875 399.35516 28.93125 399.27704Q28.74375 399.2458 28.30625 399.2458L26.978125 399.2458L26.978125 403.0583L25.8375 403.0583ZM26.978125 398.2614L29.43125 398.2614Q30.196875 398.2614 30.634375 398.10516Q31.0875 397.9333 31.30625 397.58954Q31.540625 397.23016 31.540625 396.8083Q31.540625 396.1989 31.0875 395.8083Q30.65 395.41766 29.696875 395.41766L26.978125 395.41766L26.978125 398.2614ZM38.775 403.0583L38.775 402.1364Q38.040627 403.1989 36.790627 403.1989Q36.24375 403.1989 35.759377 402.9958Q35.290627 402.77704 35.05625 402.46454Q34.821877 402.1364 34.728127 401.66766Q34.665627 401.3708 34.665627 400.6833L34.665627 396.83954L35.728127 396.83954L35.728127 400.29266Q35.728127 401.10516 35.790627 401.40204Q35.884377 401.8083 36.196877 402.0583Q36.525 402.29266 37.009377 402.29266Q37.478127 402.29266 37.884377 402.0583Q38.30625 401.8083 38.478127 401.3864Q38.665627 400.96454 38.665627 400.16766L38.665627 396.83954L39.7125 396.83954L39.7125 403.0583L38.775 403.0583ZM42.665627 403.0583L41.68125 403.0583L41.68125 394.46454L42.74375 394.46454L42.74375 397.52704Q43.415627 396.6989 44.446877 396.6989Q45.025 396.6989 45.525 396.9333Q46.040627 397.15204 46.36875 397.5739Q46.7125 397.9958 46.9 398.58954Q47.0875 399.1833 47.0875 399.85516Q47.0875 401.4489 46.290627 402.3239Q45.49375 403.1989 44.4 403.1989Q43.290627 403.1989 42.665627 402.27704L42.665627 403.0583ZM42.65 399.90204Q42.65 401.0114 42.9625 401.5114Q43.4625 402.3239 44.30625 402.3239Q44.99375 402.3239 45.49375 401.73016Q46.009377 401.1364 46.009377 399.9333Q46.009377 398.71454 45.525 398.1364Q45.040627 397.5583 44.353127 397.5583Q43.665627 397.5583 43.15 398.16766Q42.65 398.7614 42.65 399.90204ZM48.65 405.4489L48.525 404.46454Q48.86875 404.5583 49.134377 404.5583Q49.478127 404.5583 49.68125 404.4333Q49.9 404.3239 50.040627 404.1208Q50.134377 403.9489 50.36875 403.3239Q50.384377 403.2458 50.4625 403.0739L48.0875 396.83954L49.228127 396.83954L50.525 400.4333Q50.775 401.1208 50.978127 401.8864Q51.165627 401.15204 51.415627 400.46454L52.74375 396.83954L53.790627 396.83954L51.43125 403.16766Q51.040627 404.1833 50.8375 404.5739Q50.55625 405.10516 50.18125 405.33954Q49.821877 405.58954 49.321877 405.58954Q49.025 405.58954 48.65 405.4489Z" fill-rule="nonzero"/><path fill="#9e9e9e" d="M28.775 420.0583L28.775 417.9958L25.05625 417.9958L25.05625 417.02704L28.978125 411.46454L29.8375 411.46454L29.8375 417.02704L30.99375 417.02704L30.99375 417.9958L29.8375 417.9958L29.8375 420.0583L28.775 420.0583ZM28.775 417.02704L28.775 413.16766L26.0875 417.02704L28.775 417.02704ZM32.99375 420.0583L32.99375 418.85516L34.196877 418.85516L34.196877 420.0583L32.99375 420.0583ZM35.4625 412.58954L35.4625 411.5739L41.025 411.5739L41.025 412.40204Q40.2125 413.27704 39.4 414.73016Q38.603127 416.16766 38.165627 417.6989Q37.8375 418.77704 37.759377 420.0583L36.665627 420.0583Q36.68125 419.04266 37.05625 417.60516Q37.446877 416.16766 38.15 414.83954Q38.86875 413.5114 39.68125 412.58954L35.4625 412.58954ZM42.603127 413.52704Q42.603127 412.60516 43.05625 411.96454Q43.525 411.3239 44.4 411.3239Q45.2125 411.3239 45.74375 411.90204Q46.275 412.48016 46.275 413.58954Q46.275 414.6833 45.728127 415.27704Q45.196877 415.85516 44.415627 415.85516Q43.634377 415.85516 43.11875 415.27704Q42.603127 414.6989 42.603127 413.52704ZM44.43125 412.04266Q44.040627 412.04266 43.775 412.3864Q43.525 412.73016 43.525 413.6364Q43.525 414.46454 43.775 414.8083Q44.040627 415.1364 44.43125 415.1364Q44.8375 415.1364 45.0875 414.79266Q45.353127 414.4489 45.353127 413.5583Q45.353127 412.71454 45.0875 412.3864Q44.821877 412.04266 44.43125 412.04266ZM44.43125 420.3708L49.134377 411.3239L49.99375 411.3239L45.30625 420.3708L44.43125 420.3708ZM48.15 418.04266Q48.15 417.1208 48.603127 416.48016Q49.071877 415.83954 49.9625 415.83954Q50.775 415.83954 51.30625 416.41766Q51.8375 416.98016 51.8375 418.10516Q51.8375 419.1989 51.290627 419.79266Q50.759377 420.3708 49.9625 420.3708Q49.196877 420.3708 48.665627 419.79266Q48.15 419.21454 48.15 418.04266ZM49.99375 416.5583Q49.5875 416.5583 49.321877 416.90204Q49.071877 417.2458 49.071877 418.15204Q49.071877 418.96454 49.3375 419.3083Q49.603127 419.65204 49.99375 419.65204Q50.384377 419.65204 50.65 419.3083Q50.915627 418.96454 50.915627 418.0583Q50.915627 417.23016 50.65 416.90204Q50.384377 416.5583 49.99375 416.5583Z" fill-rule="nonzero"/><path stroke="#757575" stroke-width="1.0" stroke-linecap="butt" d="M24.9 407.5583L172.4 407.5583L260.43115 407.5583" fill-rule="nonzero"/><path fill="#9e9e9e" d="M262.43115 407.5583C262.43115 406.4537 261.53574 405.5583 260.43115 405.5583C259.3266 405.5583 258.43115 406.4537 258.43115 407.5583C258.43115 408.66284 259.3266 409.5583 260.43115 409.5583C261.53574 409.5583 262.43115 408.66284 262.43115 407.5583" fill-rule="nonzero"/><path fill="#1a1a1a" d="M25.24375 434.8279L26.275 434.6873Q26.30625 435.67166 26.634375 436.03104Q26.9625 436.3904 27.55625 436.3904Q27.978125 436.3904 28.290625 436.2029Q28.603125 435.9998 28.7125 435.67166Q28.8375 435.3279 28.8375 434.59354L28.8375 428.67166L29.9625 428.67166L29.9625 434.53104Q29.9625 435.60916 29.696875 436.2029Q29.446875 436.79666 28.884375 437.10916Q28.321875 437.40604 27.55625 437.40604Q26.43125 437.40604 25.821875 436.7654Q25.228125 436.10916 25.24375 434.8279ZM35.759377 436.4998Q35.165627 436.9998 34.61875 437.2029Q34.0875 437.40604 33.4625 437.40604Q32.43125 437.40604 31.884375 436.90604Q31.3375 436.40604 31.3375 435.6248Q31.3375 435.17166 31.540625 434.79666Q31.74375 434.40604 32.0875 434.1873Q32.43125 433.9529 32.853127 433.84354Q33.15 433.7498 33.790627 433.67166Q35.05625 433.53104 35.665627 433.3123Q35.665627 433.09354 35.665627 433.04666Q35.665627 432.3904 35.36875 432.1248Q34.9625 431.78104 34.165627 431.78104Q33.43125 431.78104 33.071877 432.04666Q32.7125 432.29666 32.540627 432.9529L31.509375 432.8123Q31.65 432.15604 31.978125 431.7498Q32.30625 431.34354 32.915627 431.1248Q33.525 430.90604 34.321877 430.90604Q35.11875 430.90604 35.61875 431.09354Q36.11875 431.28104 36.353127 431.5623Q36.5875 431.84354 36.68125 432.28104Q36.728127 432.54666 36.728127 433.2498L36.728127 434.65604Q36.728127 436.1248 36.790627 436.5154Q36.86875 436.90604 37.071877 437.2654L35.9625 437.2654Q35.80625 436.9373 35.759377 436.4998ZM35.665627 434.1404Q35.0875 434.3748 33.946877 434.54666Q33.290627 434.6404 33.025 434.7654Q32.759377 434.8748 32.603127 435.09354Q32.4625 435.3123 32.4625 435.59354Q32.4625 436.0154 32.775 436.29666Q33.103127 436.5779 33.7125 436.5779Q34.321877 436.5779 34.790627 436.3123Q35.275 436.04666 35.49375 435.5779Q35.665627 435.21854 35.665627 434.53104L35.665627 434.1404ZM40.415627 437.2654L38.05625 431.04666L39.165627 431.04666L40.509377 434.7654Q40.7125 435.3748 40.9 436.0154Q41.040627 435.53104 41.290627 434.84354L42.68125 431.04666L43.759377 431.04666L41.4 437.2654L40.415627 437.2654ZM47.759377 436.4998Q47.165627 436.9998 46.61875 437.2029Q46.0875 437.40604 45.4625 437.40604Q44.43125 437.40604 43.884377 436.90604Q43.3375 436.40604 43.3375 435.6248Q43.3375 435.17166 43.540627 434.79666Q43.74375 434.40604 44.0875 434.1873Q44.43125 433.9529 44.853127 433.84354Q45.15 433.7498 45.790627 433.67166Q47.05625 433.53104 47.665627 433.3123Q47.665627 433.09354 47.665627 433.04666Q47.665627 432.3904 47.36875 432.1248Q46.9625 431.78104 46.165627 431.78104Q45.43125 431.78104 45.071877 432.04666Q44.7125 432.29666 44.540627 432.9529L43.509377 432.8123Q43.65 432.15604 43.978127 431.7498Q44.30625 431.34354 44.915627 431.1248Q45.525 430.90604 46.321877 430.90604Q47.11875 430.90604 47.61875 431.09354Q48.11875 431.28104 48.353127 431.5623Q48.5875 431.84354 48.68125 432.28104Q48.728127 432.54666 48.728127 433.2498L48.728127 434.65604Q48.728127 436.1248 48.790627 436.5154Q48.86875 436.90604 49.071877 437.2654L47.9625 437.2654Q47.80625 436.9373 47.759377 436.4998ZM47.665627 434.1404Q47.0875 434.3748 45.946877 434.54666Q45.290627 434.6404 45.025 434.7654Q44.759377 434.8748 44.603127 435.09354Q44.4625 435.3123 44.4625 435.59354Q44.4625 436.0154 44.775 436.29666Q45.103127 436.5779 45.7125 436.5779Q46.321877 436.5779 46.790627 436.3123Q47.275 436.04666 47.49375 435.5779Q47.665627 435.21854 47.665627 434.53104L47.665627 434.1404ZM50.275 435.40604L51.30625 435.2498Q51.4 435.8748 51.790627 436.2029Q52.196877 436.53104 52.93125 436.53104Q53.65 436.53104 53.99375 436.2498Q54.353127 435.9529 54.353127 435.54666Q54.353127 435.1873 54.040627 434.98416Q53.821877 434.84354 52.9625 434.6248Q51.80625 434.3279 51.353127 434.1248Q50.915627 433.90604 50.68125 433.53104Q50.446877 433.15604 50.446877 432.6873Q50.446877 432.28104 50.634377 431.92166Q50.821877 431.5623 51.15 431.3279Q51.4 431.15604 51.821877 431.03104Q52.24375 430.90604 52.74375 430.90604Q53.4625 430.90604 54.009377 431.1248Q54.571877 431.3279 54.8375 431.6873Q55.103127 432.04666 55.196877 432.6404L54.165627 432.78104Q54.103127 432.3123 53.759377 432.04666Q53.43125 431.7654 52.80625 431.7654Q52.0875 431.7654 51.775 432.0154Q51.4625 432.2498 51.4625 432.5779Q51.4625 432.78104 51.5875 432.9373Q51.728127 433.10916 51.99375 433.21854Q52.15 433.28104 52.93125 433.48416Q54.05625 433.79666 54.49375 433.98416Q54.93125 434.17166 55.18125 434.53104Q55.43125 434.8904 55.43125 435.4373Q55.43125 435.96854 55.11875 436.4373Q54.821877 436.8904 54.24375 437.15604Q53.665627 437.40604 52.93125 437.40604Q51.7125 437.40604 51.071877 436.90604Q50.446877 436.3904 50.275 435.40604ZM61.759377 434.98416L62.790627 435.1248Q62.61875 436.1873 61.915627 436.79666Q61.2125 437.40604 60.196877 437.40604Q58.915627 437.40604 58.134377 436.5779Q57.36875 435.73416 57.36875 434.17166Q57.36875 433.17166 57.696877 432.42166Q58.040627 431.65604 58.7125 431.28104Q59.4 430.90604 60.2125 430.90604Q61.2125 430.90604 61.853127 431.42166Q62.509377 431.92166 62.696877 432.8748L61.665627 433.03104Q61.525 432.40604 61.15 432.09354Q60.775 431.7654 60.24375 431.7654Q59.446877 431.7654 58.946877 432.34354Q58.446877 432.90604 58.446877 434.1404Q58.446877 435.40604 58.93125 435.96854Q59.415627 436.53104 60.18125 436.53104Q60.80625 436.53104 61.2125 436.15604Q61.634377 435.78104 61.759377 434.98416ZM63.68125 437.2654L63.68125 431.04666L64.63438 431.04666L64.63438 431.98416Q64.99375 431.3279 65.29063 431.1248Q65.60313 430.90604 65.97813 430.90604Q66.50938 430.90604 67.05625 431.23416L66.69688 432.21854Q66.30625 431.98416 65.93125 431.98416Q65.57188 431.98416 65.29063 432.2029Q65.025 432.40604 64.91563 432.78104Q64.72813 433.34354 64.72813 433.9998L64.72813 437.2654L63.68125 437.2654ZM67.69688 429.8904L67.69688 428.67166L68.75938 428.67166L68.75938 429.8904L67.69688 429.8904ZM67.69688 437.2654L67.69688 431.04666L68.75938 431.04666L68.75938 437.2654L67.69688 437.2654ZM70.69688 439.65604L70.69688 431.04666L71.65 431.04666L71.65 431.84354Q71.99375 431.3748 72.41563 431.1404Q72.85313 430.90604 73.4625 430.90604Q74.25938 430.90604 74.86875 431.3123Q75.47813 431.71854 75.775 432.46854Q76.0875 433.21854 76.0875 434.10916Q76.0875 435.0623 75.74375 435.8279Q75.41563 436.59354 74.75938 436.9998Q74.10313 437.40604 73.38438 437.40604Q72.85313 437.40604 72.43125 437.1873Q72.00938 436.9529 71.74375 436.6248L71.74375 439.65604L70.69688 439.65604ZM71.65 434.1873Q71.65 435.3904 72.13438 435.96854Q72.61875 436.53104 73.30625 436.53104Q74.00938 436.53104 74.50938 435.9373Q75.00938 435.34354 75.00938 434.09354Q75.00938 432.90604 74.525 432.3279Q74.04063 431.73416 73.35313 431.73416Q72.68125 431.73416 72.16563 432.35916Q71.65 432.98416 71.65 434.1873ZM79.99375 436.3279L80.15 437.2498Q79.69688 437.34354 79.35313 437.34354Q78.775 437.34354 78.4625 437.17166Q78.15 436.98416 78.00938 436.6873Q77.88438 436.3904 77.88438 435.4373L77.88438 431.85916L77.11875 431.85916L77.11875 431.04666L77.88438 431.04666L77.88438 429.4998L78.93125 428.8748L78.93125 431.04666L79.99375 431.04666L79.99375 431.85916L78.93125 431.85916L78.93125 435.4998Q78.93125 435.9529 78.97813 436.0779Q79.04063 436.2029 79.16563 436.28104Q79.29063 436.35916 79.525 436.35916Q79.7125 436.35916 79.99375 436.3279Z" fill-rule="nonzero"/><path fill="#9e9e9e" d="M28.775 454.2654L28.775 452.2029L25.05625 452.2029L25.05625 451.23416L28.978125 445.67166L29.8375 445.67166L29.8375 451.23416L30.99375 451.23416L30.99375 452.2029L29.8375 452.2029L29.8375 454.2654L28.775 454.2654ZM28.775 451.23416L28.775 447.3748L26.0875 451.23416L28.775 451.23416ZM32.99375 454.2654L32.99375 453.0623L34.196877 453.0623L34.196877 454.2654L32.99375 454.2654ZM35.4625 446.79666L35.4625 445.78104L41.025 445.78104L41.025 446.60916Q40.2125 447.48416 39.4 448.9373Q38.603127 450.3748 38.165627 451.90604Q37.8375 452.98416 37.759377 454.2654L36.665627 454.2654Q36.68125 453.2498 37.05625 451.8123Q37.446877 450.3748 38.15 449.04666Q38.86875 447.71854 39.68125 446.79666L35.4625 446.79666ZM42.603127 447.73416Q42.603127 446.8123 43.05625 446.17166Q43.525 445.53104 44.4 445.53104Q45.2125 445.53104 45.74375 446.10916Q46.275 446.6873 46.275 447.79666Q46.275 448.8904 45.728127 449.48416Q45.196877 450.0623 44.415627 450.0623Q43.634377 450.0623 43.11875 449.48416Q42.603127 448.90604 42.603127 447.73416ZM44.43125 446.2498Q44.040627 446.2498 43.775 446.59354Q43.525 446.9373 43.525 447.84354Q43.525 448.67166 43.775 449.0154Q44.040627 449.34354 44.43125 449.34354Q44.8375 449.34354 45.0875 448.9998Q45.353127 448.65604 45.353127 447.7654Q45.353127 446.92166 45.0875 446.59354Q44.821877 446.2498 44.43125 446.2498ZM44.43125 454.5779L49.134377 445.53104L49.99375 445.53104L45.30625 454.5779L44.43125 454.5779ZM48.15 452.2498Q48.15 451.3279 48.603127 450.6873Q49.071877 450.04666 49.9625 450.04666Q50.775 450.04666 51.30625 450.6248Q51.8375 451.1873 51.8375 452.3123Q51.8375 453.40604 51.290627 453.9998Q50.759377 454.5779 49.9625 454.5779Q49.196877 454.5779 48.665627 453.9998Q48.15 453.42166 48.15 452.2498ZM49.99375 450.7654Q49.5875 450.7654 49.321877 451.10916Q49.071877 451.4529 49.071877 452.35916Q49.071877 453.17166 49.3375 453.5154Q49.603127 453.85916 49.99375 453.85916Q50.384377 453.85916 50.65 453.5154Q50.915627 453.17166 50.915627 452.2654Q50.915627 451.4373 50.65 451.10916Q50.384377 450.7654 49.99375 450.7654Z" fill-rule="nonzero"/><path stroke="#757575" stroke-width="1.0" stroke-linecap="butt" d="M24.9 441.7654L172.4 441.7654L312.13528 441.7654" fill-rule="nonzero"/><path fill="#9e9e9e" d="M314.13528 441.7654C314.13528 440.66083 313.23987 439.7654 312.13528 439.7654C311.03073 439.7654 310.13528 440.66083 310.13528 441.7654C310.13528 442.86996 311.03073 443.7654 312.13528 443.7654C313.23987 443.7654 314.13528 442.86996 314.13528 441.7654" fill-rule="nonzero"/><path fill="#1a1a1a" d="M761.08435 140.30539L764.3812 131.71164L765.6 131.71164L769.1156 140.30539L767.83435 140.30539L766.8187 137.69601L763.2406 137.69601L762.2875 140.30539L761.08435 140.30539ZM763.5687 136.77414L766.475 136.77414L765.58435 134.39914Q765.1625 133.32101 764.975 132.61789Q764.8031 133.44601 764.5062 134.25851L763.5687 136.77414ZM768.89685 140.30539L768.89685 134.08664L769.83435 134.08664L769.83435 134.96164Q770.52185 133.94601 771.8187 133.94601Q772.3812 133.94601 772.85 134.14914Q773.33435 134.35226 773.5687 134.68039Q773.8031 135.00851 773.89685 135.44601Q773.9437 135.74289 773.9437 136.47726L773.9437 140.30539L772.89685 140.30539L772.89685 136.52414Q772.89685 135.86789 772.77185 135.55539Q772.64685 135.24289 772.33435 135.05539Q772.02185 134.85226 771.6 134.85226Q770.9281 134.85226 770.4281 135.28976Q769.9437 135.71164 769.9437 136.89914L769.9437 140.30539L768.89685 140.30539ZM775.85 142.69601L775.725 141.71164Q776.0687 141.80539 776.33435 141.80539Q776.6781 141.80539 776.8812 141.68039Q777.1 141.57101 777.2406 141.36789Q777.33435 141.19601 777.5687 140.57101Q777.58435 140.49289 777.6625 140.32101L775.2875 134.08664L776.4281 134.08664L777.725 137.68039Q777.975 138.36789 778.1781 139.13351Q778.3656 138.39914 778.6156 137.71164L779.9437 134.08664L780.9906 134.08664L778.6312 140.41476Q778.2406 141.43039 778.0375 141.82101Q777.7562 142.35226 777.3812 142.58664Q777.02185 142.83664 776.52185 142.83664Q776.225 142.83664 775.85 142.69601Z" fill-rule="nonzero"/><path fill="#9e9e9e" d="M745.6 155.03976L746.6625 154.89914Q746.83435 155.78976 747.27185 156.19601Q747.70935 156.58664 748.33435 156.58664Q749.08435 156.58664 749.6 156.07101Q750.1156 155.55539 750.1156 154.78976Q750.1156 154.07101 749.6312 153.60226Q749.1625 153.11789 748.4281 153.11789Q748.1312 153.11789 747.6781 153.24289L747.8031 152.30539Q747.9125 152.32101 747.975 152.32101Q748.64685 152.32101 749.1781 151.97726Q749.725 151.61789 749.725 150.88351Q749.725 150.30539 749.33435 149.93039Q748.9437 149.53976 748.3187 149.53976Q747.70935 149.53976 747.2875 149.93039Q746.8812 150.32101 746.77185 151.08664L745.70935 150.89914Q745.89685 149.85226 746.58435 149.27414Q747.27185 148.68039 748.2875 148.68039Q748.9906 148.68039 749.58435 148.99289Q750.1781 149.28976 750.4906 149.80539Q750.8031 150.32101 750.8031 150.91476Q750.8031 151.46164 750.5062 151.93039Q750.20935 152.38351 749.6312 152.64914Q750.3812 152.82101 750.8031 153.38351Q751.225 153.93039 751.225 154.77414Q751.225 155.89914 750.39685 156.68039Q749.58435 157.46164 748.33435 157.46164Q747.20935 157.46164 746.45935 156.78976Q745.70935 156.10226 745.6 155.03976ZM752.6 155.03976L753.6625 154.89914Q753.83435 155.78976 754.27185 156.19601Q754.70935 156.58664 755.33435 156.58664Q756.08435 156.58664 756.6 156.07101Q757.1156 155.55539 757.1156 154.78976Q757.1156 154.07101 756.6312 153.60226Q756.1625 153.11789 755.4281 153.11789Q755.1312 153.11789 754.6781 153.24289L754.8031 152.30539Q754.9125 152.32101 754.975 152.32101Q755.64685 152.32101 756.1781 151.97726Q756.725 151.61789 756.725 150.88351Q756.725 150.30539 756.33435 149.93039Q755.9437 149.53976 755.3187 149.53976Q754.70935 149.53976 754.2875 149.93039Q753.8812 150.32101 753.77185 151.08664L752.70935 150.89914Q752.89685 149.85226 753.58435 149.27414Q754.27185 148.68039 755.2875 148.68039Q755.9906 148.68039 756.58435 148.99289Q757.1781 149.28976 757.4906 149.80539Q757.8031 150.32101 757.8031 150.91476Q757.8031 151.46164 757.5062 151.93039Q757.20935 152.38351 756.6312 152.64914Q757.3812 152.82101 757.8031 153.38351Q758.225 153.93039 758.225 154.77414Q758.225 155.89914 757.39685 156.68039Q756.58435 157.46164 755.33435 157.46164Q754.20935 157.46164 753.45935 156.78976Q752.70935 156.10226 752.6 155.03976ZM760.1937 157.30539L760.1937 156.10226L761.39685 156.10226L761.39685 157.30539L760.1937 157.30539ZM762.6625 149.83664L762.6625 148.82101L768.225 148.82101L768.225 149.64914Q767.4125 150.52414 766.6 151.97726Q765.8031 153.41476 765.3656 154.94601Q765.0375 156.02414 764.95935 157.30539L763.8656 157.30539Q763.8812 156.28976 764.2562 154.85226Q764.64685 153.41476 765.35 152.08664Q766.0687 150.75851 766.8812 149.83664L762.6625 149.83664ZM769.8031 150.77414Q769.8031 149.85226 770.2562 149.21164Q770.725 148.57101 771.6 148.57101Q772.4125 148.57101 772.9437 149.14914Q773.475 149.72726 773.475 150.83664Q773.475 151.93039 772.9281 152.52414Q772.39685 153.10226 771.6156 153.10226Q770.83435 153.10226 770.3187 152.52414Q769.8031 151.94601 769.8031 150.77414ZM771.6312 149.28976Q771.2406 149.28976 770.975 149.63351Q770.725 149.97726 770.725 150.88351Q770.725 151.71164 770.975 152.05539Q771.2406 152.38351 771.6312 152.38351Q772.0375 152.38351 772.2875 152.03976Q772.5531 151.69601 772.5531 150.80539Q772.5531 149.96164 772.2875 149.63351Q772.02185 149.28976 771.6312 149.28976ZM771.6312 157.61789L776.33435 148.57101L777.1937 148.57101L772.5062 157.61789L771.6312 157.61789ZM775.35 155.28976Q775.35 154.36789 775.8031 153.72726Q776.27185 153.08664 777.1625 153.08664Q777.975 153.08664 778.5062 153.66476Q779.0375 154.22726 779.0375 155.35226Q779.0375 156.44601 778.4906 157.03976Q777.95935 157.61789 777.1625 157.61789Q776.39685 157.61789 775.8656 157.03976Q775.35 156.46164 775.35 155.28976ZM777.1937 153.80539Q776.7875 153.80539 776.52185 154.14914Q776.27185 154.49289 776.27185 155.39914Q776.27185 156.21164 776.5375 156.55539Q776.8031 156.89914 777.1937 156.89914Q777.58435 156.89914 777.85 156.55539Q778.1156 156.21164 778.1156 155.30539Q778.1156 154.47726 777.85 154.14914Q777.58435 153.80539 777.1937 153.80539Z" fill-rule="nonzero"/><path stroke="#757575" stroke-width="1.0" stroke-linecap="butt" d="M780.1 144.80539L632.6 144.80539L588.15497 144.80539" fill-rule="nonzero"/><path fill="#9e9e9e" d="M590.15497 144.80539C590.15497 143.70082 589.2595 142.80539 588.15497 142.80539C587.0504 142.80539 586.15497 143.70082 586.15497 144.80539C586.15497 145.90996 587.0504 146.80539 588.15497 146.80539C589.2595 146.80539 590.15497 145.90996 590.15497 144.80539" fill-rule="nonzero"/><path fill="#1a1a1a" d="M727.20935 298.1L727.20935 290.52188L724.3812 290.52188L724.3812 289.50626L731.1937 289.50626L731.1937 290.52188L728.35 290.52188L728.35 298.1L727.20935 298.1ZM731.85 300.49063L731.725 299.50626Q732.0687 299.6 732.33435 299.6Q732.6781 299.6 732.8812 299.475Q733.1 299.36563 733.2406 299.1625Q733.33435 298.99063 733.5687 298.36563Q733.58435 298.2875 733.6625 298.11563L731.2875 291.88126L732.4281 291.88126L733.725 295.475Q733.975 296.1625 734.1781 296.92813Q734.3656 296.19376 734.6156 295.50626L735.9437 291.88126L736.9906 291.88126L734.6312 298.20938Q734.2406 299.225 734.0375 299.61563Q733.7562 300.14688 733.3812 300.38126Q733.02185 300.63126 732.52185 300.63126Q732.225 300.63126 731.85 300.49063ZM736.89685 300.49063L736.89685 291.88126L737.85 291.88126L737.85 292.67813Q738.1937 292.20938 738.6156 291.975Q739.0531 291.74063 739.6625 291.74063Q740.45935 291.74063 741.0687 292.14688Q741.6781 292.55313 741.975 293.30313Q742.2875 294.05313 742.2875 294.94376Q742.2875 295.89688 741.9437 296.6625Q741.6156 297.42813 740.95935 297.83438Q740.3031 298.24063 739.58435 298.24063Q739.0531 298.24063 738.6312 298.02188Q738.20935 297.7875 737.9437 297.45938L737.9437 300.49063L736.89685 300.49063ZM737.85 295.02188Q737.85 296.225 738.33435 296.80313Q738.8187 297.36563 739.5062 297.36563Q740.20935 297.36563 740.70935 296.77188Q741.20935 296.17813 741.20935 294.92813Q741.20935 293.74063 740.725 293.1625Q740.2406 292.56876 739.5531 292.56876Q738.8812 292.56876 738.3656 293.19376Q737.85 293.81876 737.85 295.02188ZM748.14685 296.1L749.2406 296.225Q748.9906 297.17813 748.2875 297.70938Q747.58435 298.24063 746.5062 298.24063Q745.14685 298.24063 744.33435 297.39688Q743.5375 296.55313 743.5375 295.0375Q743.5375 293.475 744.35 292.61563Q745.1625 291.74063 746.4437 291.74063Q747.6937 291.74063 748.475 292.58438Q749.27185 293.42813 749.27185 294.975Q749.27185 295.06876 749.27185 295.25626L744.6312 295.25626Q744.6937 296.2875 745.20935 296.83438Q745.725 297.36563 746.5062 297.36563Q747.08435 297.36563 747.4906 297.06876Q747.9125 296.75626 748.14685 296.1ZM744.6937 294.39688L748.1625 294.39688Q748.1 293.6 747.77185 293.20938Q747.2562 292.6 746.45935 292.6Q745.725 292.6 745.225 293.08438Q744.7406 293.56876 744.6937 294.39688ZM750.475 296.24063L751.5062 296.08438Q751.6 296.70938 751.9906 297.0375Q752.39685 297.36563 753.1312 297.36563Q753.85 297.36563 754.1937 297.08438Q754.5531 296.7875 754.5531 296.38126Q754.5531 296.02188 754.2406 295.81876Q754.02185 295.67813 753.1625 295.45938Q752.0062 295.1625 751.5531 294.95938Q751.1156 294.74063 750.8812 294.36563Q750.64685 293.99063 750.64685 293.52188Q750.64685 293.11563 750.83435 292.75626Q751.02185 292.39688 751.35 292.1625Q751.6 291.99063 752.02185 291.86563Q752.4437 291.74063 752.9437 291.74063Q753.6625 291.74063 754.20935 291.95938Q754.77185 292.1625 755.0375 292.52188Q755.3031 292.88126 755.39685 293.475L754.3656 293.61563Q754.3031 293.14688 753.95935 292.88126Q753.6312 292.6 753.0062 292.6Q752.2875 292.6 751.975 292.85Q751.6625 293.08438 751.6625 293.4125Q751.6625 293.61563 751.7875 293.77188Q751.9281 293.94376 752.1937 294.05313Q752.35 294.11563 753.1312 294.31876Q754.2562 294.63126 754.6937 294.81876Q755.1312 295.00626 755.3812 295.36563Q755.6312 295.725 755.6312 296.27188Q755.6312 296.80313 755.3187 297.27188Q755.02185 297.725 754.4437 297.99063Q753.8656 298.24063 753.1312 298.24063Q751.9125 298.24063 751.27185 297.74063Q750.64685 297.225 750.475 296.24063ZM761.95935 295.81876L762.9906 295.95938Q762.8187 297.02188 762.1156 297.63126Q761.4125 298.24063 760.39685 298.24063Q759.1156 298.24063 758.33435 297.4125Q757.5687 296.56876 757.5687 295.00626Q757.5687 294.00626 757.89685 293.25626Q758.2406 292.49063 758.9125 292.11563Q759.6 291.74063 760.4125 291.74063Q761.4125 291.74063 762.0531 292.25626Q762.70935 292.75626 762.89685 293.70938L761.8656 293.86563Q761.725 293.24063 761.35 292.92813Q760.975 292.6 760.4437 292.6Q759.64685 292.6 759.14685 293.17813Q758.64685 293.74063 758.64685 294.975Q758.64685 296.24063 759.1312 296.80313Q759.6156 297.36563 760.3812 297.36563Q761.0062 297.36563 761.4125 296.99063Q761.83435 296.61563 761.95935 295.81876ZM763.8812 298.1L763.8812 291.88126L764.83435 291.88126L764.83435 292.81876Q765.1937 292.1625 765.4906 291.95938Q765.8031 291.74063 766.1781 291.74063Q766.70935 291.74063 767.2562 292.06876L766.89685 293.05313Q766.5062 292.81876 766.1312 292.81876Q765.77185 292.81876 765.4906 293.0375Q765.225 293.24063 765.1156 293.61563Q764.9281 294.17813 764.9281 294.83438L764.9281 298.1L763.8812 298.1ZM767.89685 290.725L767.89685 289.50626L768.95935 289.50626L768.95935 290.725L767.89685 290.725ZM767.89685 298.1L767.89685 291.88126L768.95935 291.88126L768.95935 298.1L767.89685 298.1ZM770.89685 300.49063L770.89685 291.88126L771.85 291.88126L771.85 292.67813Q772.1937 292.20938 772.6156 291.975Q773.0531 291.74063 773.6625 291.74063Q774.45935 291.74063 775.0687 292.14688Q775.6781 292.55313 775.975 293.30313Q776.2875 294.05313 776.2875 294.94376Q776.2875 295.89688 775.9437 296.6625Q775.6156 297.42813 774.95935 297.83438Q774.3031 298.24063 773.58435 298.24063Q773.0531 298.24063 772.6312 298.02188Q772.20935 297.7875 771.9437 297.45938L771.9437 300.49063L770.89685 300.49063ZM771.85 295.02188Q771.85 296.225 772.33435 296.80313Q772.8187 297.36563 773.5062 297.36563Q774.20935 297.36563 774.70935 296.77188Q775.20935 296.17813 775.20935 294.92813Q775.20935 293.74063 774.725 293.1625Q774.2406 292.56876 773.5531 292.56876Q772.8812 292.56876 772.3656 293.19376Q771.85 293.81876 771.85 295.02188ZM780.1937 297.1625L780.35 298.08438Q779.89685 298.17813 779.5531 298.17813Q778.975 298.17813 778.6625 298.00626Q778.35 297.81876 778.20935 297.52188Q778.08435 297.225 778.08435 296.27188L778.08435 292.69376L777.3187 292.69376L777.3187 291.88126L778.08435 291.88126L778.08435 290.33438L779.1312 289.70938L779.1312 291.88126L780.1937 291.88126L780.1937 292.69376L779.1312 292.69376L779.1312 296.33438Q779.1312 296.7875 779.1781 296.9125Q779.2406 297.0375 779.3656 297.11563Q779.4906 297.19376 779.725 297.19376Q779.9125 297.19376 780.1937 297.1625Z" fill-rule="nonzero"/><path fill="#9e9e9e" d="M756.5687 315.1L755.52185 315.1L755.52185 308.38126Q755.1312 308.74063 754.5062 309.11563Q753.89685 309.475 753.4125 309.64688L753.4125 308.63126Q754.2875 308.20938 754.9437 307.63126Q755.6156 307.0375 755.89685 306.475L756.5687 306.475L756.5687 315.1ZM760.1937 315.1L760.1937 313.89688L761.39685 313.89688L761.39685 315.1L760.1937 315.1ZM768.14685 314.08438L768.14685 315.1L762.45935 315.1Q762.45935 314.725 762.58435 314.36563Q762.8031 313.7875 763.27185 313.225Q763.7562 312.6625 764.6625 311.92813Q766.0687 310.77188 766.5531 310.1Q767.0531 309.42813 767.0531 308.83438Q767.0531 308.20938 766.6 307.7875Q766.14685 307.35 765.4281 307.35Q764.6625 307.35 764.20935 307.80313Q763.7562 308.25626 763.7406 309.06876L762.6625 308.95938Q762.77185 307.74063 763.4906 307.11563Q764.225 306.475 765.45935 306.475Q766.6937 306.475 767.4125 307.1625Q768.1312 307.85 768.1312 308.86563Q768.1312 309.38126 767.9125 309.88126Q767.70935 310.36563 767.20935 310.92813Q766.725 311.475 765.6 312.42813Q764.64685 313.225 764.3656 313.52188Q764.1 313.80313 763.9281 314.08438L768.14685 314.08438ZM769.8031 308.56876Q769.8031 307.64688 770.2562 307.00626Q770.725 306.36563 771.6 306.36563Q772.4125 306.36563 772.9437 306.94376Q773.475 307.52188 773.475 308.63126Q773.475 309.725 772.9281 310.31876Q772.39685 310.89688 771.6156 310.89688Q770.83435 310.89688 770.3187 310.31876Q769.8031 309.74063 769.8031 308.56876ZM771.6312 307.08438Q771.2406 307.08438 770.975 307.42813Q770.725 307.77188 770.725 308.67813Q770.725 309.50626 770.975 309.85Q771.2406 310.17813 771.6312 310.17813Q772.0375 310.17813 772.2875 309.83438Q772.5531 309.49063 772.5531 308.6Q772.5531 307.75626 772.2875 307.42813Q772.02185 307.08438 771.6312 307.08438ZM771.6312 315.4125L776.33435 306.36563L777.1937 306.36563L772.5062 315.4125L771.6312 315.4125ZM775.35 313.08438Q775.35 312.1625 775.8031 311.52188Q776.27185 310.88126 777.1625 310.88126Q777.975 310.88126 778.5062 311.45938Q779.0375 312.02188 779.0375 313.14688Q779.0375 314.24063 778.4906 314.83438Q777.95935 315.4125 777.1625 315.4125Q776.39685 315.4125 775.8656 314.83438Q775.35 314.25626 775.35 313.08438ZM777.1937 311.6Q776.7875 311.6 776.52185 311.94376Q776.27185 312.2875 776.27185 313.19376Q776.27185 314.00626 776.5375 314.35Q776.8031 314.69376 777.1937 314.69376Q777.58435 314.69376 777.85 314.35Q778.1156 314.00626 778.1156 313.1Q778.1156 312.27188 777.85 311.94376Q777.58435 311.6 777.1937 311.6Z" fill-rule="nonzero"/><path stroke="#757575" stroke-width="1.0" stroke-linecap="butt" d="M780.1 302.6L632.6 302.6L580.05396 366.4686" fill-rule="nonzero"/><path fill="#9e9e9e" d="M582.05396 366.4686C582.05396 365.364 581.1585 364.4686 580.05396 364.4686C578.9494 364.4686 578.05396 365.364 578.05396 366.4686C578.05396 367.57315 578.9494 368.4686 580.05396 368.4686C581.1585 368.4686 582.05396 367.57315 582.05396 366.4686" fill-rule="nonzero"/><path fill="#1a1a1a" d="M764.1625 326.08438L765.2875 326.38126Q764.9281 327.77188 764.0062 328.50626Q763.08435 329.24063 761.7406 329.24063Q760.35 329.24063 759.475 328.67813Q758.6 328.11563 758.14685 327.05313Q757.6937 325.975 757.6937 324.74063Q757.6937 323.39688 758.20935 322.39688Q758.725 321.39688 759.6625 320.88126Q760.6156 320.36563 761.7562 320.36563Q763.0375 320.36563 763.9125 321.02188Q764.8031 321.67813 765.14685 322.86563L764.02185 323.13126Q763.725 322.19376 763.14685 321.77188Q762.58435 321.33438 761.725 321.33438Q760.7406 321.33438 760.0687 321.81876Q759.4125 322.2875 759.1312 323.08438Q758.8656 323.88126 758.8656 324.74063Q758.8656 325.83438 759.1781 326.64688Q759.5062 327.45938 760.1781 327.86563Q760.85 328.27188 761.64685 328.27188Q762.6 328.27188 763.2562 327.725Q763.9281 327.17813 764.1625 326.08438ZM769.1 327.70938L769.1 325.35L766.77185 325.35L766.77185 324.36563L769.1 324.36563L769.1 322.0375L770.1 322.0375L770.1 324.36563L772.4437 324.36563L772.4437 325.35L770.1 325.35L770.1 327.70938L769.1 327.70938ZM776.1 327.70938L776.1 325.35L773.77185 325.35L773.77185 324.36563L776.1 324.36563L776.1 322.0375L777.1 322.0375L777.1 324.36563L779.4437 324.36563L779.4437 325.35L777.1 325.35L777.1 327.70938L776.1 327.70938Z" fill-rule="nonzero"/><path fill="#9e9e9e" d="M756.5687 346.1L755.52185 346.1L755.52185 339.38126Q755.1312 339.74063 754.5062 340.11563Q753.89685 340.475 753.4125 340.64688L753.4125 339.63126Q754.2875 339.20938 754.9437 338.63126Q755.6156 338.0375 755.89685 337.475L756.5687 337.475L756.5687 346.1ZM760.1937 346.1L760.1937 344.89688L761.39685 344.89688L761.39685 346.1L760.1937 346.1ZM768.14685 345.08438L768.14685 346.1L762.45935 346.1Q762.45935 345.725 762.58435 345.36563Q762.8031 344.7875 763.27185 344.225Q763.7562 343.6625 764.6625 342.92813Q766.0687 341.77188 766.5531 341.1Q767.0531 340.42813 767.0531 339.83438Q767.0531 339.20938 766.6 338.7875Q766.14685 338.35 765.4281 338.35Q764.6625 338.35 764.20935 338.80313Q763.7562 339.25626 763.7406 340.06876L762.6625 339.95938Q762.77185 338.74063 763.4906 338.11563Q764.225 337.475 765.45935 337.475Q766.6937 337.475 767.4125 338.1625Q768.1312 338.85 768.1312 339.86563Q768.1312 340.38126 767.9125 340.88126Q767.70935 341.36563 767.20935 341.92813Q766.725 342.475 765.6 343.42813Q764.64685 344.225 764.3656 344.52188Q764.1 344.80313 763.9281 345.08438L768.14685 345.08438ZM769.8031 339.56876Q769.8031 338.64688 770.2562 338.00626Q770.725 337.36563 771.6 337.36563Q772.4125 337.36563 772.9437 337.94376Q773.475 338.52188 773.475 339.63126Q773.475 340.725 772.9281 341.31876Q772.39685 341.89688 771.6156 341.89688Q770.83435 341.89688 770.3187 341.31876Q769.8031 340.74063 769.8031 339.56876ZM771.6312 338.08438Q771.2406 338.08438 770.975 338.42813Q770.725 338.77188 770.725 339.67813Q770.725 340.50626 770.975 340.85Q771.2406 341.17813 771.6312 341.17813Q772.0375 341.17813 772.2875 340.83438Q772.5531 340.49063 772.5531 339.6Q772.5531 338.75626 772.2875 338.42813Q772.02185 338.08438 771.6312 338.08438ZM771.6312 346.4125L776.33435 337.36563L777.1937 337.36563L772.5062 346.4125L771.6312 346.4125ZM775.35 344.08438Q775.35 343.1625 775.8031 342.52188Q776.27185 341.88126 777.1625 341.88126Q777.975 341.88126 778.5062 342.45938Q779.0375 343.02188 779.0375 344.14688Q779.0375 345.24063 778.4906 345.83438Q777.95935 346.4125 777.1625 346.4125Q776.39685 346.4125 775.8656 345.83438Q775.35 345.25626 775.35 344.08438ZM777.1937 342.6Q776.7875 342.6 776.52185 342.94376Q776.27185 343.2875 776.27185 344.19376Q776.27185 345.00626 776.5375 345.35Q776.8031 345.69376 777.1937 345.69376Q777.58435 345.69376 777.85 345.35Q778.1156 345.00626 778.1156 344.1Q778.1156 343.27188 777.85 342.94376Q777.58435 342.6 777.1937 342.6Z" fill-rule="nonzero"/><path stroke="#757575" stroke-width="1.0" stroke-linecap="butt" d="M780.1 333.6L632.6 333.6L571.0056 379.1158" fill-rule="nonzero"/><path fill="#9e9e9e" d="M573.0056 379.1158C573.0056 378.01126 572.1102 377.1158 571.0056 377.1158C569.90106 377.1158 569.0056 378.01126 569.0056 379.1158C569.0056 380.2204 569.90106 381.1158 571.0056 381.1158C572.1102 381.1158 573.0056 380.2204 573.0056 379.1158" fill-rule="nonzero"/><path fill="#1a1a1a" d="M755.0375 360.1L755.0375 351.50626L758.85 351.50626Q760.0062 351.50626 760.6 351.74063Q761.1937 351.975 761.5531 352.56876Q761.9125 353.14688 761.9125 353.85Q761.9125 354.77188 761.3187 355.39688Q760.725 356.02188 759.4906 356.19376Q759.9437 356.4125 760.1781 356.61563Q760.6781 357.06876 761.1156 357.75626L762.6156 360.1L761.1781 360.1L760.0531 358.31876Q759.5531 357.5375 759.225 357.13126Q758.9125 356.725 758.64685 356.56876Q758.39685 356.39688 758.1312 356.31876Q757.9437 356.2875 757.5062 356.2875L756.1781 356.2875L756.1781 360.1L755.0375 360.1ZM756.1781 355.30313L758.6312 355.30313Q759.39685 355.30313 759.83435 355.14688Q760.2875 354.975 760.5062 354.63126Q760.7406 354.27188 760.7406 353.85Q760.7406 353.24063 760.2875 352.85Q759.85 352.45938 758.89685 352.45938L756.1781 352.45938L756.1781 355.30313ZM767.975 360.1L767.975 359.17813Q767.2406 360.24063 765.9906 360.24063Q765.4437 360.24063 764.95935 360.0375Q764.4906 359.81876 764.2562 359.50626Q764.02185 359.17813 763.9281 358.70938Q763.8656 358.4125 763.8656 357.725L763.8656 353.88126L764.9281 353.88126L764.9281 357.33438Q764.9281 358.14688 764.9906 358.44376Q765.08435 358.85 765.39685 359.1Q765.725 359.33438 766.20935 359.33438Q766.6781 359.33438 767.08435 359.1Q767.5062 358.85 767.6781 358.42813Q767.8656 358.00626 767.8656 357.20938L767.8656 353.88126L768.9125 353.88126L768.9125 360.1L767.975 360.1ZM770.475 358.24063L771.5062 358.08438Q771.6 358.70938 771.9906 359.0375Q772.39685 359.36563 773.1312 359.36563Q773.85 359.36563 774.1937 359.08438Q774.5531 358.7875 774.5531 358.38126Q774.5531 358.02188 774.2406 357.81876Q774.02185 357.67813 773.1625 357.45938Q772.0062 357.1625 771.5531 356.95938Q771.1156 356.74063 770.8812 356.36563Q770.64685 355.99063 770.64685 355.52188Q770.64685 355.11563 770.83435 354.75626Q771.02185 354.39688 771.35 354.1625Q771.6 353.99063 772.02185 353.86563Q772.4437 353.74063 772.9437 353.74063Q773.6625 353.74063 774.20935 353.95938Q774.77185 354.1625 775.0375 354.52188Q775.3031 354.88126 775.39685 355.475L774.3656 355.61563Q774.3031 355.14688 773.95935 354.88126Q773.6312 354.6 773.0062 354.6Q772.2875 354.6 771.975 354.85Q771.6625 355.08438 771.6625 355.4125Q771.6625 355.61563 771.7875 355.77188Q771.9281 355.94376 772.1937 356.05313Q772.35 356.11563 773.1312 356.31876Q774.2562 356.63126 774.6937 356.81876Q775.1312 357.00626 775.3812 357.36563Q775.6312 357.725 775.6312 358.27188Q775.6312 358.80313 775.3187 359.27188Q775.02185 359.725 774.4437 359.99063Q773.8656 360.24063 773.1312 360.24063Q771.9125 360.24063 771.27185 359.74063Q770.64685 359.225 770.475 358.24063ZM780.1937 359.1625L780.35 360.08438Q779.89685 360.17813 779.5531 360.17813Q778.975 360.17813 778.6625 360.00626Q778.35 359.81876 778.20935 359.52188Q778.08435 359.225 778.08435 358.27188L778.08435 354.69376L777.3187 354.69376L777.3187 353.88126L778.08435 353.88126L778.08435 352.33438L779.1312 351.70938L779.1312 353.88126L780.1937 353.88126L780.1937 354.69376L779.1312 354.69376L779.1312 358.33438Q779.1312 358.7875 779.1781 358.9125Q779.2406 359.0375 779.3656 359.11563Q779.4906 359.19376 779.725 359.19376Q779.9125 359.19376 780.1937 359.1625Z" fill-rule="nonzero"/><path fill="#9e9e9e" d="M756.5687 377.1L755.52185 377.1L755.52185 370.38126Q755.1312 370.74063 754.5062 371.11563Q753.89685 371.475 753.4125 371.64688L753.4125 370.63126Q754.2875 370.20938 754.9437 369.63126Q755.6156 369.0375 755.89685 368.475L756.5687 368.475L756.5687 377.1ZM760.1937 377.1L760.1937 375.89688L761.39685 375.89688L761.39685 377.1L760.1937 377.1ZM768.14685 376.08438L768.14685 377.1L762.45935 377.1Q762.45935 376.725 762.58435 376.36563Q762.8031 375.7875 763.27185 375.225Q763.7562 374.6625 764.6625 373.92813Q766.0687 372.77188 766.5531 372.1Q767.0531 371.42813 767.0531 370.83438Q767.0531 370.20938 766.6 369.7875Q766.14685 369.35 765.4281 369.35Q764.6625 369.35 764.20935 369.80313Q763.7562 370.25626 763.7406 371.06876L762.6625 370.95938Q762.77185 369.74063 763.4906 369.11563Q764.225 368.475 765.45935 368.475Q766.6937 368.475 767.4125 369.1625Q768.1312 369.85 768.1312 370.86563Q768.1312 371.38126 767.9125 371.88126Q767.70935 372.36563 767.20935 372.92813Q766.725 373.475 765.6 374.42813Q764.64685 375.225 764.3656 375.52188Q764.1 375.80313 763.9281 376.08438L768.14685 376.08438ZM769.8031 370.56876Q769.8031 369.64688 770.2562 369.00626Q770.725 368.36563 771.6 368.36563Q772.4125 368.36563 772.9437 368.94376Q773.475 369.52188 773.475 370.63126Q773.475 371.725 772.9281 372.31876Q772.39685 372.89688 771.6156 372.89688Q770.83435 372.89688 770.3187 372.31876Q769.8031 371.74063 769.8031 370.56876ZM771.6312 369.08438Q771.2406 369.08438 770.975 369.42813Q770.725 369.77188 770.725 370.67813Q770.725 371.50626 770.975 371.85Q771.2406 372.17813 771.6312 372.17813Q772.0375 372.17813 772.2875 371.83438Q772.5531 371.49063 772.5531 370.6Q772.5531 369.75626 772.2875 369.42813Q772.02185 369.08438 771.6312 369.08438ZM771.6312 377.4125L776.33435 368.36563L777.1937 368.36563L772.5062 377.4125L771.6312 377.4125ZM775.35 375.08438Q775.35 374.1625 775.8031 373.52188Q776.27185 372.88126 777.1625 372.88126Q777.975 372.88126 778.5062 373.45938Q779.0375 374.02188 779.0375 375.14688Q779.0375 376.24063 778.4906 376.83438Q777.95935 377.4125 777.1625 377.4125Q776.39685 377.4125 775.8656 376.83438Q775.35 376.25626 775.35 375.08438ZM777.1937 373.6Q776.7875 373.6 776.52185 373.94376Q776.27185 374.2875 776.27185 375.19376Q776.27185 376.00626 776.5375 376.35Q776.8031 376.69376 777.1937 376.69376Q777.58435 376.69376 777.85 376.35Q778.1156 376.00626 778.1156 375.1Q778.1156 374.27188 777.85 373.94376Q777.58435 373.6 777.1937 373.6Z" fill-rule="nonzero"/><path stroke="#757575" stroke-width="1.0" stroke-linecap="butt" d="M780.1 364.6L632.6 364.6L561.0583 391.06885" fill-rule="nonzero"/><path fill="#9e9e9e" d="M563.0583 391.06885C563.0583 389.96426 562.16284 389.06885 561.0583 389.06885C559.9537 389.06885 559.0583 389.96426 559.0583 391.06885C559.0583 392.1734 559.9537 393.06885 561.0583 393.06885C562.16284 393.06885 563.0583 392.1734 563.0583 391.06885" fill-rule="nonzero"/><path fill="#1a1a1a" d="M746.975 391.1L746.975 382.50626L748.1156 382.50626L748.1156 390.08438L752.35 390.08438L752.35 391.1L746.975 391.1ZM753.89685 383.725L753.89685 382.50626L754.95935 382.50626L754.95935 383.725L753.89685 383.725ZM753.89685 391.1L753.89685 384.88126L754.95935 384.88126L754.95935 391.1L753.89685 391.1ZM760.8656 393.49063L760.8656 390.44376Q760.6156 390.7875 760.1625 391.02188Q759.725 391.24063 759.225 391.24063Q758.1156 391.24063 757.3187 390.36563Q756.52185 389.475 756.52185 387.92813Q756.52185 386.99063 756.85 386.25626Q757.1781 385.50626 757.7875 385.13126Q758.4125 384.74063 759.14685 384.74063Q760.3031 384.74063 760.95935 385.70938L760.95935 384.88126L761.9125 384.88126L761.9125 393.49063L760.8656 393.49063ZM757.6 387.975Q757.6 389.17813 758.1 389.77188Q758.6156 390.36563 759.3187 390.36563Q759.9906 390.36563 760.475 389.80313Q760.95935 389.225 760.95935 388.06876Q760.95935 386.81876 760.4437 386.19376Q759.9437 385.56876 759.2406 385.56876Q758.5687 385.56876 758.08435 386.1625Q757.6 386.74063 757.6 387.975ZM767.975 391.1L767.975 390.17813Q767.2406 391.24063 765.9906 391.24063Q765.4437 391.24063 764.95935 391.0375Q764.4906 390.81876 764.2562 390.50626Q764.02185 390.17813 763.9281 389.70938Q763.8656 389.4125 763.8656 388.725L763.8656 384.88126L764.9281 384.88126L764.9281 388.33438Q764.9281 389.14688 764.9906 389.44376Q765.08435 389.85 765.39685 390.1Q765.725 390.33438 766.20935 390.33438Q766.6781 390.33438 767.08435 390.1Q767.5062 389.85 767.6781 389.42813Q767.8656 389.00626 767.8656 388.20938L767.8656 384.88126L768.9125 384.88126L768.9125 391.1L767.975 391.1ZM770.89685 383.725L770.89685 382.50626L771.95935 382.50626L771.95935 383.725L770.89685 383.725ZM770.89685 391.1L770.89685 384.88126L771.95935 384.88126L771.95935 391.1L770.89685 391.1ZM777.9281 391.1L777.9281 390.31876Q777.33435 391.24063 776.1937 391.24063Q775.4437 391.24063 774.8187 390.83438Q774.1937 390.4125 773.85 389.67813Q773.5062 388.94376 773.5062 387.99063Q773.5062 387.06876 773.8187 386.30313Q774.1312 385.5375 774.7562 385.14688Q775.3812 384.74063 776.14685 384.74063Q776.70935 384.74063 777.14685 384.975Q777.58435 385.20938 777.8656 385.58438L777.8656 382.50626L778.9125 382.50626L778.9125 391.1L777.9281 391.1ZM774.6 387.99063Q774.6 389.19376 775.1 389.7875Q775.6 390.36563 776.2875 390.36563Q776.975 390.36563 777.45935 389.80313Q777.9437 389.24063 777.9437 388.08438Q777.9437 386.80313 777.4437 386.20938Q776.95935 385.61563 776.2406 385.61563Q775.5375 385.61563 775.0687 386.19376Q774.6 386.75626 774.6 387.99063Z" fill-rule="nonzero"/><path fill="#9e9e9e" d="M756.5687 408.1L755.52185 408.1L755.52185 401.38126Q755.1312 401.74063 754.5062 402.11563Q753.89685 402.475 753.4125 402.64688L753.4125 401.63126Q754.2875 401.20938 754.9437 400.63126Q755.6156 400.0375 755.89685 399.475L756.5687 399.475L756.5687 408.1ZM760.1937 408.1L760.1937 406.89688L761.39685 406.89688L761.39685 408.1L760.1937 408.1ZM768.14685 407.08438L768.14685 408.1L762.45935 408.1Q762.45935 407.725 762.58435 407.36563Q762.8031 406.7875 763.27185 406.225Q763.7562 405.6625 764.6625 404.92813Q766.0687 403.77188 766.5531 403.1Q767.0531 402.42813 767.0531 401.83438Q767.0531 401.20938 766.6 400.7875Q766.14685 400.35 765.4281 400.35Q764.6625 400.35 764.20935 400.80313Q763.7562 401.25626 763.7406 402.06876L762.6625 401.95938Q762.77185 400.74063 763.4906 400.11563Q764.225 399.475 765.45935 399.475Q766.6937 399.475 767.4125 400.1625Q768.1312 400.85 768.1312 401.86563Q768.1312 402.38126 767.9125 402.88126Q767.70935 403.36563 767.20935 403.92813Q766.725 404.475 765.6 405.42813Q764.64685 406.225 764.3656 406.52188Q764.1 406.80313 763.9281 407.08438L768.14685 407.08438ZM769.8031 401.56876Q769.8031 400.64688 770.2562 400.00626Q770.725 399.36563 771.6 399.36563Q772.4125 399.36563 772.9437 399.94376Q773.475 400.52188 773.475 401.63126Q773.475 402.725 772.9281 403.31876Q772.39685 403.89688 771.6156 403.89688Q770.83435 403.89688 770.3187 403.31876Q769.8031 402.74063 769.8031 401.56876ZM771.6312 400.08438Q771.2406 400.08438 770.975 400.42813Q770.725 400.77188 770.725 401.67813Q770.725 402.50626 770.975 402.85Q771.2406 403.17813 771.6312 403.17813Q772.0375 403.17813 772.2875 402.83438Q772.5531 402.49063 772.5531 401.6Q772.5531 400.75626 772.2875 400.42813Q772.02185 400.08438 771.6312 400.08438ZM771.6312 408.4125L776.33435 399.36563L777.1937 399.36563L772.5062 408.4125L771.6312 408.4125ZM775.35 406.08438Q775.35 405.1625 775.8031 404.52188Q776.27185 403.88126 777.1625 403.88126Q777.975 403.88126 778.5062 404.45938Q779.0375 405.02188 779.0375 406.14688Q779.0375 407.24063 778.4906 407.83438Q777.95935 408.4125 777.1625 408.4125Q776.39685 408.4125 775.8656 407.83438Q775.35 407.25626 775.35 406.08438ZM777.1937 404.6Q776.7875 404.6 776.52185 404.94376Q776.27185 405.2875 776.27185 406.19376Q776.27185 407.00626 776.5375 407.35Q776.8031 407.69376 777.1937 407.69376Q777.58435 407.69376 777.85 407.35Q778.1156 407.00626 778.1156 406.1Q778.1156 405.27188 777.85 404.94376Q777.58435 404.6 777.1937 404.6Z" fill-rule="nonzero"/><path stroke="#757575" stroke-width="1.0" stroke-linecap="butt" d="M780.1 395.6L632.6 395.6L550.26495 402.26385" fill-rule="nonzero"/><path fill="#9e9e9e" d="M552.26495 402.26385C552.26495 401.15927 551.3695 400.26385 550.26495 400.26385C549.16034 400.26385 548.26495 401.15927 548.26495 402.26385C548.26495 403.3684 549.16034 404.26385 550.26495 404.26385C551.3695 404.26385 552.26495 403.3684 552.26495 402.26385" fill-rule="nonzero"/><path fill="#1a1a1a" d="M756.02185 422.1L756.02185 413.50626L759.27185 413.50626Q760.1156 413.50626 760.5687 413.58438Q761.20935 413.69376 761.6312 413.99063Q762.0687 414.2875 762.3187 414.81876Q762.58435 415.35 762.58435 415.99063Q762.58435 417.08438 761.8812 417.85Q761.1937 418.6 759.3656 418.6L757.1625 418.6L757.1625 422.1L756.02185 422.1ZM757.1625 417.6L759.3812 417.6Q760.4906 417.6 760.9437 417.19376Q761.4125 416.77188 761.4125 416.02188Q761.4125 415.49063 761.1312 415.11563Q760.8656 414.725 760.4281 414.6Q760.1312 414.52188 759.3656 414.52188L757.1625 414.52188L757.1625 417.6ZM764.0687 422.1L764.0687 413.50626L765.1937 413.50626L765.1937 417.0375L769.6625 417.0375L769.6625 413.50626L770.8031 413.50626L770.8031 422.1L769.6625 422.1L769.6625 418.05313L765.1937 418.05313L765.1937 422.1L764.0687 422.1ZM773.02185 422.1L773.02185 413.50626L776.27185 413.50626Q777.1156 413.50626 777.5687 413.58438Q778.20935 413.69376 778.6312 413.99063Q779.0687 414.2875 779.3187 414.81876Q779.58435 415.35 779.58435 415.99063Q779.58435 417.08438 778.8812 417.85Q778.1937 418.6 776.3656 418.6L774.1625 418.6L774.1625 422.1L773.02185 422.1ZM774.1625 417.6L776.3812 417.6Q777.4906 417.6 777.9437 417.19376Q778.4125 416.77188 778.4125 416.02188Q778.4125 415.49063 778.1312 415.11563Q777.8656 414.725 777.4281 414.6Q777.1312 414.52188 776.3656 414.52188L774.1625 414.52188L774.1625 417.6Z" fill-rule="nonzero"/><path fill="#9e9e9e" d="M756.5687 439.1L755.52185 439.1L755.52185 432.38126Q755.1312 432.74063 754.5062 433.11563Q753.89685 433.475 753.4125 433.64688L753.4125 432.63126Q754.2875 432.20938 754.9437 431.63126Q755.6156 431.0375 755.89685 430.475L756.5687 430.475L756.5687 439.1ZM760.1937 439.1L760.1937 437.89688L761.39685 437.89688L761.39685 439.1L760.1937 439.1ZM768.14685 438.08438L768.14685 439.1L762.45935 439.1Q762.45935 438.725 762.58435 438.36563Q762.8031 437.7875 763.27185 437.225Q763.7562 436.6625 764.6625 435.92813Q766.0687 434.77188 766.5531 434.1Q767.0531 433.42813 767.0531 432.83438Q767.0531 432.20938 766.6 431.7875Q766.14685 431.35 765.4281 431.35Q764.6625 431.35 764.20935 431.80313Q763.7562 432.25626 763.7406 433.06876L762.6625 432.95938Q762.77185 431.74063 763.4906 431.11563Q764.225 430.475 765.45935 430.475Q766.6937 430.475 767.4125 431.1625Q768.1312 431.85 768.1312 432.86563Q768.1312 433.38126 767.9125 433.88126Q767.70935 434.36563 767.20935 434.92813Q766.725 435.475 765.6 436.42813Q764.64685 437.225 764.3656 437.52188Q764.1 437.80313 763.9281 438.08438L768.14685 438.08438ZM769.8031 432.56876Q769.8031 431.64688 770.2562 431.00626Q770.725 430.36563 771.6 430.36563Q772.4125 430.36563 772.9437 430.94376Q773.475 431.52188 773.475 432.63126Q773.475 433.725 772.9281 434.31876Q772.39685 434.89688 771.6156 434.89688Q770.83435 434.89688 770.3187 434.31876Q769.8031 433.74063 769.8031 432.56876ZM771.6312 431.08438Q771.2406 431.08438 770.975 431.42813Q770.725 431.77188 770.725 432.67813Q770.725 433.50626 770.975 433.85Q771.2406 434.17813 771.6312 434.17813Q772.0375 434.17813 772.2875 433.83438Q772.5531 433.49063 772.5531 432.6Q772.5531 431.75626 772.2875 431.42813Q772.02185 431.08438 771.6312 431.08438ZM771.6312 439.4125L776.33435 430.36563L777.1937 430.36563L772.5062 439.4125L771.6312 439.4125ZM775.35 437.08438Q775.35 436.1625 775.8031 435.52188Q776.27185 434.88126 777.1625 434.88126Q777.975 434.88126 778.5062 435.45938Q779.0375 436.02188 779.0375 437.14688Q779.0375 438.24063 778.4906 438.83438Q777.95935 439.4125 777.1625 439.4125Q776.39685 439.4125 775.8656 438.83438Q775.35 438.25626 775.35 437.08438ZM777.1937 435.6Q776.7875 435.6 776.52185 435.94376Q776.27185 436.2875 776.27185 437.19376Q776.27185 438.00626 776.5375 438.35Q776.8031 438.69376 777.1937 438.69376Q777.58435 438.69376 777.85 438.35Q778.1156 438.00626 778.1156 437.1Q778.1156 436.27188 777.85 435.94376Q777.58435 435.6 777.1937 435.6Z" fill-rule="nonzero"/><path stroke="#757575" stroke-width="1.0" stroke-linecap="butt" d="M780.1 426.6L632.6 426.6L538.68317 412.64114" fill-rule="nonzero"/><path fill="#9e9e9e" d="M540.68317 412.64114C540.68317 411.53656 539.7878 410.64114 538.68317 410.64114C537.5786 410.64114 536.68317 411.53656 536.68317 412.64114C536.68317 413.7457 537.5786 414.64114 538.68317 414.64114C539.7878 414.64114 540.68317 413.7457 540.68317 412.64114" fill-rule="nonzero"/><path fill="#1a1a1a" d="M755.4437 450.6625L756.475 450.52188Q756.5062 451.50626 756.83435 451.86563Q757.1625 452.225 757.7562 452.225Q758.1781 452.225 758.4906 452.0375Q758.8031 451.83438 758.9125 451.50626Q759.0375 451.1625 759.0375 450.42813L759.0375 444.50626L760.1625 444.50626L760.1625 450.36563Q760.1625 451.44376 759.89685 452.0375Q759.64685 452.63126 759.08435 452.94376Q758.52185 453.24063 757.7562 453.24063Q756.6312 453.24063 756.02185 452.6Q755.4281 451.94376 755.4437 450.6625ZM765.95935 452.33438Q765.3656 452.83438 764.8187 453.0375Q764.2875 453.24063 763.6625 453.24063Q762.6312 453.24063 762.08435 452.74063Q761.5375 452.24063 761.5375 451.45938Q761.5375 451.00626 761.7406 450.63126Q761.9437 450.24063 762.2875 450.02188Q762.6312 449.7875 763.0531 449.67813Q763.35 449.58438 763.9906 449.50626Q765.2562 449.36563 765.8656 449.14688Q765.8656 448.92813 765.8656 448.88126Q765.8656 448.225 765.5687 447.95938Q765.1625 447.61563 764.3656 447.61563Q763.6312 447.61563 763.27185 447.88126Q762.9125 448.13126 762.7406 448.7875L761.70935 448.64688Q761.85 447.99063 762.1781 447.58438Q762.5062 447.17813 763.1156 446.95938Q763.725 446.74063 764.52185 446.74063Q765.3187 446.74063 765.8187 446.92813Q766.3187 447.11563 766.5531 447.39688Q766.7875 447.67813 766.8812 448.11563Q766.9281 448.38126 766.9281 449.08438L766.9281 450.49063Q766.9281 451.95938 766.9906 452.35Q767.0687 452.74063 767.27185 453.1L766.1625 453.1Q766.0062 452.77188 765.95935 452.33438ZM765.8656 449.975Q765.2875 450.20938 764.14685 450.38126Q763.4906 450.475 763.225 450.6Q762.95935 450.70938 762.8031 450.92813Q762.6625 451.14688 762.6625 451.42813Q762.6625 451.85 762.975 452.13126Q763.3031 452.4125 763.9125 452.4125Q764.52185 452.4125 764.9906 452.14688Q765.475 451.88126 765.6937 451.4125Q765.8656 451.05313 765.8656 450.36563L765.8656 449.975ZM770.6156 453.1L768.2562 446.88126L769.3656 446.88126L770.70935 450.6Q770.9125 451.20938 771.1 451.85Q771.2406 451.36563 771.4906 450.67813L772.8812 446.88126L773.95935 446.88126L771.6 453.1L770.6156 453.1ZM777.95935 452.33438Q777.3656 452.83438 776.8187 453.0375Q776.2875 453.24063 775.6625 453.24063Q774.6312 453.24063 774.08435 452.74063Q773.5375 452.24063 773.5375 451.45938Q773.5375 451.00626 773.7406 450.63126Q773.9437 450.24063 774.2875 450.02188Q774.6312 449.7875 775.0531 449.67813Q775.35 449.58438 775.9906 449.50626Q777.2562 449.36563 777.8656 449.14688Q777.8656 448.92813 777.8656 448.88126Q777.8656 448.225 777.5687 447.95938Q777.1625 447.61563 776.3656 447.61563Q775.6312 447.61563 775.27185 447.88126Q774.9125 448.13126 774.7406 448.7875L773.70935 448.64688Q773.85 447.99063 774.1781 447.58438Q774.5062 447.17813 775.1156 446.95938Q775.725 446.74063 776.52185 446.74063Q777.3187 446.74063 777.8187 446.92813Q778.3187 447.11563 778.5531 447.39688Q778.7875 447.67813 778.8812 448.11563Q778.9281 448.38126 778.9281 449.08438L778.9281 450.49063Q778.9281 451.95938 778.9906 452.35Q779.0687 452.74063 779.27185 453.1L778.1625 453.1Q778.0062 452.77188 777.95935 452.33438ZM777.8656 449.975Q777.2875 450.20938 776.14685 450.38126Q775.4906 450.475 775.225 450.6Q774.95935 450.70938 774.8031 450.92813Q774.6625 451.14688 774.6625 451.42813Q774.6625 451.85 774.975 452.13126Q775.3031 452.4125 775.9125 452.4125Q776.52185 452.4125 776.9906 452.14688Q777.475 451.88126 777.6937 451.4125Q777.8656 451.05313 777.8656 450.36563L777.8656 449.975Z" fill-rule="nonzero"/><path fill="#9e9e9e" d="M749.5687 470.1L748.52185 470.1L748.52185 463.38126Q748.1312 463.74063 747.5062 464.11563Q746.89685 464.475 746.4125 464.64688L746.4125 463.63126Q747.2875 463.20938 747.9437 462.63126Q748.6156 462.0375 748.89685 461.475L749.5687 461.475L749.5687 470.1ZM752.6 467.85L753.70935 467.75626Q753.83435 468.56876 754.27185 468.975Q754.725 469.38126 755.3656 469.38126Q756.1156 469.38126 756.64685 468.80313Q757.1781 468.225 757.1781 467.2875Q757.1781 466.38126 756.6625 465.86563Q756.1625 465.33438 755.33435 465.33438Q754.83435 465.33438 754.4125 465.56876Q754.0062 465.80313 753.77185 466.1625L752.7875 466.0375L753.6156 461.63126L757.89685 461.63126L757.89685 462.63126L754.45935 462.63126L754.0062 464.94376Q754.77185 464.39688 755.6156 464.39688Q756.7406 464.39688 757.5062 465.17813Q758.2875 465.95938 758.2875 467.19376Q758.2875 468.35 757.6156 469.20938Q756.7875 470.24063 755.3656 470.24063Q754.1937 470.24063 753.4437 469.58438Q752.70935 468.92813 752.6 467.85ZM760.1937 470.1L760.1937 468.89688L761.39685 468.89688L761.39685 470.1L760.1937 470.1ZM766.5687 470.1L765.52185 470.1L765.52185 463.38126Q765.1312 463.74063 764.5062 464.11563Q763.89685 464.475 763.4125 464.64688L763.4125 463.63126Q764.2875 463.20938 764.9437 462.63126Q765.6156 462.0375 765.89685 461.475L766.5687 461.475L766.5687 470.1ZM769.8031 463.56876Q769.8031 462.64688 770.2562 462.00626Q770.725 461.36563 771.6 461.36563Q772.4125 461.36563 772.9437 461.94376Q773.475 462.52188 773.475 463.63126Q773.475 464.725 772.9281 465.31876Q772.39685 465.89688 771.6156 465.89688Q770.83435 465.89688 770.3187 465.31876Q769.8031 464.74063 769.8031 463.56876ZM771.6312 462.08438Q771.2406 462.08438 770.975 462.42813Q770.725 462.77188 770.725 463.67813Q770.725 464.50626 770.975 464.85Q771.2406 465.17813 771.6312 465.17813Q772.0375 465.17813 772.2875 464.83438Q772.5531 464.49063 772.5531 463.6Q772.5531 462.75626 772.2875 462.42813Q772.02185 462.08438 771.6312 462.08438ZM771.6312 470.4125L776.33435 461.36563L777.1937 461.36563L772.5062 470.4125L771.6312 470.4125ZM775.35 468.08438Q775.35 467.1625 775.8031 466.52188Q776.27185 465.88126 777.1625 465.88126Q777.975 465.88126 778.5062 466.45938Q779.0375 467.02188 779.0375 468.14688Q779.0375 469.24063 778.4906 469.83438Q777.95935 470.4125 777.1625 470.4125Q776.39685 470.4125 775.8656 469.83438Q775.35 469.25626 775.35 468.08438ZM777.1937 466.6Q776.7875 466.6 776.52185 466.94376Q776.27185 467.2875 776.27185 468.19376Q776.27185 469.00626 776.5375 469.35Q776.8031 469.69376 777.1937 469.69376Q777.58435 469.69376 777.85 469.35Q778.1156 469.00626 778.1156 468.1Q778.1156 467.27188 777.85 466.94376Q777.58435 466.6 777.1937 466.6Z" fill-rule="nonzero"/><path stroke="#757575" stroke-width="1.0" stroke-linecap="butt" d="M780.1 457.6L632.6 457.6L441.1696 458.35364" fill-rule="nonzero"/><path fill="#9e9e9e" d="M443.1696 458.35364C443.1696 457.24905 442.27414 456.35364 441.1696 456.35364C440.065 456.35364 439.1696 457.24905 439.1696 458.35364C439.1696 459.4582 440.065 460.35364 441.1696 460.35364C442.27414 460.35364 443.1696 459.4582 443.1696 458.35364" fill-rule="nonzero"/></svg>